<svg width="64" height="64" viewBox="0 0 64 64" fill="none" xmlns="http://www.w3.org/2000/svg">
<path d="M15.9999 56.0001C15.2444 56.0001 14.6115 55.7441 14.1013 55.2321C13.591 54.7201 13.335 54.0872 13.3333 53.3334C13.3315 52.5796 13.5875 51.9467 14.1013 51.4347C14.615 50.9227 15.2479 50.6667 15.9999 50.6667H26.6666V45.3334C22.9777 45.3334 19.8337 44.033 17.2346 41.4321C14.6355 38.8312 13.335 35.6872 13.3333 32.0001C13.3333 29.4667 13.9777 27.1334 15.2666 25.0001C16.5555 22.8667 18.3333 21.2445 20.5999 20.1334C20.4221 21.1112 20.4559 22.0667 20.7013 23.0001C20.9466 23.9334 21.335 24.8223 21.8666 25.6667C20.8444 26.3779 20.055 27.289 19.4986 28.4001C18.9421 29.5112 18.6648 30.7112 18.6666 32.0001C18.6666 34.2223 19.4444 36.1112 20.9999 37.6667C22.5555 39.2223 24.4444 40.0001 26.6666 40.0001H45.3333C46.0888 40.0001 46.7226 40.2561 47.2346 40.7681C47.7466 41.2801 48.0017 41.913 47.9999 42.6667C47.9982 43.4205 47.7422 44.0543 47.2319 44.5681C46.7217 45.0819 46.0888 45.337 45.3333 45.3334H34.6666V50.6667H47.9999C48.7555 50.6667 49.3893 50.9227 49.9013 51.4347C50.4133 51.9467 50.6684 52.5796 50.6666 53.3334C50.6648 54.0872 50.4088 54.721 49.8986 55.2347C49.3884 55.7485 48.7555 56.0036 47.9999 56.0001H15.9999ZM36.5333 29.7334H36.4666C35.7555 30.0001 35.0773 29.9885 34.4319 29.6987C33.7866 29.409 33.3315 28.9094 33.0666 28.2001L32.6666 27.1334C33.5555 26.4223 34.2444 25.5672 34.7333 24.5681C35.2222 23.569 35.4666 22.4907 35.4666 21.3334C35.4666 19.2445 34.7333 17.4783 33.2666 16.0347C31.7999 14.5912 29.9999 13.8685 27.8666 13.8667L27.5333 13.0001C27.311 12.289 27.3448 11.6107 27.6346 10.9654C27.9244 10.3201 28.4239 9.86497 29.1333 9.60008H29.1999C28.9333 8.93341 28.9555 8.2783 29.2666 7.63475C29.5777 6.99119 30.111 6.53519 30.8666 6.26675C31.5333 6.04452 32.1893 6.0783 32.8346 6.36808C33.4799 6.65786 33.9128 7.15741 34.1333 7.86675C34.8444 7.60008 35.5333 7.6223 36.1999 7.93341C36.8666 8.24452 37.3333 8.75564 37.5999 9.46675L43.0666 24.4667C43.3333 25.1779 43.3226 25.8561 43.0346 26.5014C42.7466 27.1467 42.2462 27.6019 41.5333 27.8667H41.4666C41.7333 28.5779 41.711 29.2667 41.3999 29.9334C41.0888 30.6001 40.5555 31.0667 39.7999 31.3334C39.1333 31.5556 38.4782 31.5227 37.8346 31.2347C37.191 30.9467 36.7573 30.4463 36.5333 29.7334ZM24.5999 24.7334C23.6666 23.8001 23.1999 22.6667 23.1999 21.3334C23.1999 20.0001 23.6666 18.8667 24.5999 17.9334C25.5333 17.0001 26.6666 16.5334 27.9999 16.5334C29.3333 16.5334 30.4666 17.0001 31.3999 17.9334C32.3333 18.8667 32.7999 20.0001 32.7999 21.3334C32.7999 22.6667 32.3333 23.8001 31.3999 24.7334C30.4666 25.6667 29.3333 26.1334 27.9999 26.1334C26.6666 26.1334 25.5333 25.6667 24.5999 24.7334Z" fill="#6A63F5"/>
</svg>
