<svg width="64" height="64" viewBox="0 0 64 64" fill="none" xmlns="http://www.w3.org/2000/svg">
<path d="M16.0667 31.0668L18.6001 23.9334H18.7334L21.2667 31.0668H16.0667ZM34.6667 45.4668C36.6223 44.5334 38.5894 43.833 40.5681 43.3654C42.5467 42.8979 44.5796 42.665 46.6667 42.6668C48.2667 42.6668 49.8339 42.8001 51.3681 43.0668C52.9023 43.3334 54.4463 43.7334 56.0001 44.2668V17.8668C54.5334 17.2445 53.0108 16.7779 51.4321 16.4668C49.8534 16.1556 48.265 16.0001 46.6667 16.0001C44.5779 16.0001 42.5112 16.2668 40.4667 16.8001C38.4223 17.3334 36.489 18.1334 34.6667 19.2001V45.4668ZM15.2001 33.5334H22.1334L23.4001 37.0668C23.489 37.3334 23.6445 37.545 23.8667 37.7014C24.089 37.8579 24.3556 37.9352 24.6667 37.9334C25.1556 37.9334 25.545 37.7334 25.8347 37.3334C26.1245 36.9334 26.1796 36.5112 26.0001 36.0668L20.5334 21.6668C20.4445 21.4001 20.2783 21.1779 20.0347 21.0001C19.7912 20.8223 19.513 20.7334 19.2001 20.7334H18.1334C17.8223 20.7334 17.545 20.8223 17.3014 21.0001C17.0579 21.1779 16.8907 21.4001 16.8001 21.6668L11.3334 36.0668C11.1556 36.5112 11.2116 36.9334 11.5014 37.3334C11.7912 37.7334 12.1796 37.9334 12.6667 37.9334C12.9779 37.9334 13.2561 37.8561 13.5014 37.7014C13.7467 37.5468 13.913 37.313 14.0001 37.0001L15.2001 33.5334ZM30.2347 51.7014C29.6783 51.545 29.1556 51.3334 28.6667 51.0668C26.9334 50.0445 25.1112 49.2783 23.2001 48.7681C21.289 48.2579 19.3334 48.0019 17.3334 48.0001C15.4667 48.0001 13.6339 48.2445 11.8347 48.7334C10.0356 49.2223 8.31297 49.9112 6.66675 50.8001C5.73341 51.289 4.83386 51.2668 3.96808 50.7334C3.1023 50.2001 2.66853 49.4223 2.66675 48.4001V16.2668C2.66675 15.7779 2.78941 15.3112 3.03475 14.8668C3.28008 14.4223 3.6463 14.089 4.13341 13.8668C6.2223 12.8445 8.36719 12.0552 10.5681 11.4988C12.769 10.9423 15.0241 10.665 17.3334 10.6668C19.9112 10.6668 22.4339 11.0001 24.9014 11.6668C27.369 12.3334 29.7352 13.3334 32.0001 14.6668C34.2667 13.3334 36.6339 12.3334 39.1014 11.6668C41.569 11.0001 44.0907 10.6668 46.6667 10.6668C48.9779 10.6668 51.2339 10.945 53.4347 11.5014C55.6356 12.0579 57.7796 12.8463 59.8668 13.8668C60.3556 14.089 60.7228 14.4223 60.9681 14.8668C61.2134 15.3112 61.3352 15.7779 61.3334 16.2668V48.4001C61.3334 49.4223 60.9005 50.2001 60.0348 50.7334C59.169 51.2668 58.2685 51.289 57.3334 50.8001C55.689 49.9112 53.9672 49.2223 52.1681 48.7334C50.369 48.2445 48.5352 48.0001 46.6667 48.0001C44.6667 48.0001 42.7112 48.2561 40.8001 48.7681C38.889 49.2801 37.0667 50.0463 35.3334 51.0668C34.8445 51.3334 34.3227 51.545 33.7681 51.7014C33.2134 51.8579 32.6241 51.9352 32.0001 51.9334C31.3761 51.9316 30.7867 51.8534 30.2321 51.6988M37.3334 23.4028C37.3334 23.0028 37.4783 22.5921 37.7681 22.1708C38.0579 21.7494 38.3796 21.4703 38.7334 21.3334C40.0223 20.889 41.3112 20.5556 42.6001 20.3334C43.889 20.1112 45.2445 20.0001 46.6667 20.0001C47.5556 20.0001 48.4339 20.0561 49.3014 20.1681C50.169 20.2801 51.0241 20.4241 51.8668 20.6001C52.2668 20.689 52.6116 20.9112 52.9014 21.2668C53.1912 21.6223 53.3352 22.0223 53.3334 22.4668C53.3334 23.2223 53.089 23.7779 52.6001 24.1334C52.1112 24.489 51.489 24.5779 50.7334 24.4001C50.1112 24.2668 49.4561 24.1672 48.7681 24.1014C48.0801 24.0356 47.3796 24.0019 46.6667 24.0001C45.5112 24.0001 44.3779 24.1112 43.2668 24.3334C42.1556 24.5556 41.089 24.8445 40.0667 25.2001C39.2667 25.5112 38.6116 25.489 38.1014 25.1334C37.5912 24.7779 37.3352 24.2001 37.3334 23.4001M37.3334 38.0668C37.3334 37.6668 37.4783 37.2561 37.7681 36.8348C38.0579 36.4134 38.3796 36.1352 38.7334 36.0001C40.0223 35.5556 41.3112 35.2223 42.6001 35.0001C43.889 34.7779 45.2445 34.6668 46.6667 34.6668C47.5556 34.6668 48.4339 34.7228 49.3014 34.8348C50.169 34.9468 51.0241 35.0908 51.8668 35.2668C52.2668 35.3556 52.6116 35.5779 52.9014 35.9334C53.1912 36.289 53.3352 36.689 53.3334 37.1334C53.3334 37.889 53.089 38.4445 52.6001 38.8001C52.1112 39.1556 51.489 39.2445 50.7334 39.0668C50.1112 38.9334 49.4561 38.8339 48.7681 38.7681C48.0801 38.7023 47.3796 38.6685 46.6667 38.6668C45.5112 38.6668 44.3779 38.7672 43.2668 38.9681C42.1556 39.169 41.089 39.4463 40.0667 39.8001C39.2667 40.1112 38.6116 40.1005 38.1014 39.7681C37.5912 39.4356 37.3352 38.8685 37.3334 38.0668ZM37.3334 30.7334C37.3334 30.3334 37.4783 29.9228 37.7681 29.5014C38.0579 29.0801 38.3796 28.8019 38.7334 28.6668C40.0223 28.2223 41.3112 27.889 42.6001 27.6668C43.889 27.4445 45.2445 27.3334 46.6667 27.3334C47.5556 27.3334 48.4339 27.3894 49.3014 27.5014C50.169 27.6134 51.0241 27.7574 51.8668 27.9334C52.2668 28.0223 52.6116 28.2445 52.9014 28.6001C53.1912 28.9556 53.3352 29.3556 53.3334 29.8001C53.3334 30.5556 53.089 31.1112 52.6001 31.4668C52.1112 31.8223 51.489 31.9112 50.7334 31.7334C50.1112 31.6001 49.4561 31.5005 48.7681 31.4348C48.0801 31.369 47.3796 31.3352 46.6667 31.3334C45.5112 31.3334 44.3779 31.4445 43.2668 31.6668C42.1556 31.889 41.089 32.1779 40.0667 32.5334C39.2667 32.8445 38.6116 32.8223 38.1014 32.4668C37.5912 32.1112 37.3352 31.5334 37.3334 30.7334Z" fill="#6A63F5"/>
</svg>
