<svg width="64" height="64" viewBox="0 0 64 64" fill="none" xmlns="http://www.w3.org/2000/svg">
<path d="M18.6667 56L29.3334 24M34.6667 24L38.6134 35.8373M41.1441 43.4293L45.3334 56M32.0001 13.3333C33.4146 13.3333 34.7711 13.8952 35.7713 14.8954C36.7715 15.8956 37.3334 17.2522 37.3334 18.6667C37.3334 20.0812 36.7715 21.4377 35.7713 22.4379C34.7711 23.4381 33.4146 24 32.0001 24C30.5856 24 29.229 23.4381 28.2288 22.4379C27.2287 21.4377 26.6667 20.0812 26.6667 18.6667C26.6667 17.2522 27.2287 15.8956 28.2288 14.8954C29.229 13.8952 30.5856 13.3333 32.0001 13.3333ZM32.0001 13.3333V8M10.6667 32C14.7361 39.88 22.9014 45.3333 32.0001 45.3333C41.0934 45.3333 49.2614 39.872 53.3334 32" stroke="#6A63F5" stroke-width="4" stroke-linecap="round" stroke-linejoin="round"/>
</svg>
