<svg width="485" height="639" viewBox="0 0 485 639" fill="none" xmlns="http://www.w3.org/2000/svg">
<rect x="0.5" y="0.5" width="484" height="638" rx="239.5" fill="#6A63F5" stroke="#6A63F5"/>
<rect x="39" y="48" width="407" height="543" rx="203.5" stroke="white" stroke-width="24"/>
<path d="M390.455 321.773C384.625 356.318 373.452 386.168 356.935 411.321C340.418 436.366 320.23 455.69 296.372 469.293C272.514 482.787 246.659 489.534 218.807 489.534C190.091 489.534 165.639 482.517 145.452 468.483C125.372 454.341 111.014 434.369 102.378 408.568C93.8494 382.659 92.5 352 98.3295 316.591C104.159 282.045 115.332 252.25 131.849 227.205C148.366 202.051 168.608 182.727 192.574 169.233C216.54 155.631 242.557 148.83 270.625 148.83C299.125 148.83 323.361 155.901 343.332 170.043C363.412 184.077 377.716 204.048 386.244 229.957C394.881 255.759 396.284 286.364 390.455 321.773ZM352.239 316.591C356.989 288.307 356.287 264.503 350.134 245.179C343.98 225.855 333.778 211.227 319.528 201.295C305.278 191.364 288.33 186.398 268.682 186.398C248.17 186.398 228.739 191.634 210.386 202.105C192.034 212.469 176.327 227.744 163.264 247.932C150.202 268.011 141.295 292.625 136.545 321.773C131.795 350.057 132.497 373.861 138.651 393.185C144.804 412.509 155.006 427.136 169.256 437.068C183.506 447 200.455 451.966 220.102 451.966C240.614 451.966 260.045 446.784 278.398 436.42C296.75 425.949 312.457 410.673 325.52 390.594C338.582 370.406 347.489 345.739 352.239 316.591Z" fill="white"/>
</svg>
