<svg width="493" height="185" viewBox="0 0 493 185" fill="none" xmlns="http://www.w3.org/2000/svg">
<path d="M356 0C376.186 0 392.55 16.3642 392.55 36.5504V117.96C392.55 128.195 395.192 136.468 400.474 142.78C405.927 148.921 413.935 151.992 424.5 151.992C435.065 151.992 442.988 148.921 448.271 142.78C453.723 136.468 456.45 128.195 456.45 117.96V36.5504C456.45 16.3641 472.814 0 493 0V120.263C493 130.839 491.296 140.136 487.888 148.154C484.48 156.171 479.624 162.909 473.319 168.368C467.185 173.827 459.943 177.921 451.593 180.65C443.244 183.55 434.213 185 424.5 185C414.617 185 405.501 183.55 397.151 180.65C388.802 177.921 381.56 173.827 375.425 168.368C369.291 162.909 364.52 156.171 361.112 148.154C357.704 140.136 356 130.839 356 120.263V0Z" fill="#6A63F5"/>
<path d="M199 0C219.82 0 236.699 16.8783 236.699 37.6988V185H199V0ZM295.754 6.31063C298.78 2.33434 303.489 0 308.486 0H322.355H344.153L273.802 91.7654C271.468 94.8094 271.623 99.0812 274.171 101.948L348 185H310.551C305.987 185 301.641 183.051 298.605 179.643L225.928 98.0665L295.754 6.31063Z" fill="#6A63F5"/>
<path fill-rule="evenodd" clip-rule="evenodd" d="M7.07568 129.954C2.35856 118.849 0 106.566 0 93.1053C0 79.8129 2.27432 67.4459 6.82297 56.0044C11.3716 44.7311 17.8577 34.888 26.2811 26.475C34.7045 18.0621 44.5599 11.5001 55.8473 6.78883C66.6001 2.52466 78.3177 0.261726 91 3.05176e-05C91 22.9744 83 29.9744 64.6919 42.3755C56.4369 47.4232 49.9509 54.3218 45.2338 63.0712C40.5167 71.8207 38.1581 81.832 38.1581 93.1053C38.1581 104.379 40.5167 114.39 45.2338 123.139C49.9509 131.889 56.4369 138.787 64.6919 143.835C72.9469 148.883 82.5496 151.407 93.5 151.407C104.619 151.407 114.306 148.883 122.561 143.835C130.816 138.787 137.218 131.889 141.766 123.139C146.315 114.39 148.589 104.379 148.589 93.1053C148.589 81.832 146.231 71.8207 141.514 63.0712C136.965 54.3218 130.563 47.4232 122.308 42.3755C104 29.9744 96 22.9744 96 4.57764e-05C108.672 0.261833 120.306 2.52477 130.9 6.78883C142.356 11.5001 152.211 18.0621 160.466 26.475C168.89 34.888 175.376 44.7311 179.924 56.0044C184.641 67.4459 187 79.8129 187 93.1053C187 106.566 184.641 118.849 179.924 129.954C175.376 141.227 168.805 150.986 160.214 159.231C151.79 167.475 141.935 173.785 130.647 178.16C119.36 182.703 106.977 184.974 93.5 184.974C80.191 184.974 67.8086 182.703 56.3527 178.16C45.0653 173.785 35.2099 167.475 26.7865 159.231C18.3631 150.986 11.7928 141.227 7.07568 129.954Z" fill="#6A63F5"/>
</svg>
