<svg width="389" height="144" viewBox="0 0 389 144" fill="none" xmlns="http://www.w3.org/2000/svg">
<g filter="url(#filter0_d_405_2)">
<rect x="24" y="20" width="341" height="96" rx="16" fill="white" shape-rendering="crispEdges"/>
<path d="M74.4368 39.7497C72.8854 39.0602 71.1146 39.0602 69.5632 39.7497L51.5632 47.7497C49.3964 48.7127 48 50.8614 48 53.2325V65.3333C48 79.6219 57.5445 93.0156 70.5864 96.9478C71.508 97.2257 72.492 97.2257 73.4136 96.9478C86.4555 93.0156 96 79.6219 96 65.3333V53.2325C96 50.8614 94.6036 48.7127 92.4368 47.7497L74.4368 39.7497ZM72 49.0666C73.5823 49.0666 75.129 49.5358 76.4446 50.4149C77.7602 51.2939 78.7855 52.5434 79.391 54.0052C79.9965 55.467 80.155 57.0755 79.8463 58.6274C79.5376 60.1792 78.7757 61.6047 77.6569 62.7235C76.538 63.8423 75.1126 64.6042 73.5607 64.9129C72.0089 65.2216 70.4003 65.0632 68.9385 64.4577C67.4767 63.8522 66.2273 62.8268 65.3482 61.5112C64.4692 60.1956 64 58.6489 64 57.0666C64 54.9449 64.8429 52.9101 66.3431 51.4098C67.8434 49.9095 69.8783 49.0666 72 49.0666ZM72 70.1333C76.7151 70.1333 85.5988 72.4052 87.595 76.5988C88.102 77.6641 87.6723 78.8875 86.9305 79.8049C85.3262 81.7892 83.3383 83.4387 81.0793 84.6511C78.2875 86.1493 75.1684 86.9334 72 86.9334C68.8316 86.9334 65.7125 86.1493 62.9207 84.6511C60.6617 83.4387 58.6738 81.7892 57.0695 79.8049C56.3277 78.8875 55.898 77.6641 56.405 76.5988C58.4012 72.4052 67.2849 70.1333 72 70.1333Z" fill="#6A63F5"/>
<path d="M122.642 55.5H120.392L124.489 43.8636H127.091L131.193 55.5H128.943L125.835 46.25H125.744L122.642 55.5ZM122.716 50.9375H128.852V52.6307H122.716V50.9375ZM131.382 58.0341V53.8068H132.075C132.261 53.6629 132.416 53.4678 132.541 53.2216C132.666 52.9716 132.769 52.678 132.848 52.3409C132.931 52 133 51.6193 133.053 51.1989C133.106 50.7746 133.153 50.3182 133.195 49.8295L133.445 46.7727H139.752V53.8068H141.104V58.0341H139.115V55.5H133.405V58.0341H131.382ZM134.189 53.8068H137.786V48.4318H135.229L135.092 49.8295C135.017 50.7538 134.916 51.5455 134.791 52.2045C134.666 52.8636 134.466 53.3977 134.189 53.8068ZM147.182 53.108L149.773 46.7727H151.432L147.904 55.5H146.466L143.017 46.7727H144.659L147.182 53.108ZM144.142 46.7727V55.5H142.159V46.7727H144.142ZM150.307 55.5V46.7727H152.273V55.5H150.307ZM155.85 52.7159L159.344 46.7727H161.458V55.5H159.469V49.5511L155.986 55.5H153.867V46.7727H155.85V52.7159ZM169.084 50.2841V51.9716H164.437V50.2841H169.084ZM165.073 46.7727V55.5H163.09V46.7727H165.073ZM170.431 46.7727V55.5H168.454V46.7727H170.431ZM174.015 52.7159L177.509 46.7727H179.623V55.5H177.634V49.5511L174.151 55.5H172.032V46.7727H174.015V52.7159ZM185.062 55.6705C184.191 55.6705 183.442 55.4792 182.817 55.0966C182.196 54.714 181.717 54.1856 181.38 53.5114C181.047 52.8333 180.88 52.053 180.88 51.1705C180.88 50.2841 181.05 49.5019 181.391 48.8239C181.732 48.142 182.213 47.6117 182.834 47.233C183.459 46.8504 184.198 46.6591 185.05 46.6591C185.759 46.6591 186.386 46.7898 186.931 47.0511C187.48 47.3087 187.918 47.6742 188.244 48.1477C188.569 48.6174 188.755 49.1667 188.8 49.7955H186.834C186.755 49.375 186.566 49.0246 186.266 48.7443C185.971 48.4602 185.575 48.3182 185.079 48.3182C184.658 48.3182 184.289 48.4318 183.971 48.6591C183.653 48.8826 183.405 49.2045 183.227 49.625C183.052 50.0455 182.965 50.5492 182.965 51.1364C182.965 51.7311 183.052 52.2424 183.227 52.6705C183.401 53.0947 183.645 53.4223 183.959 53.6534C184.278 53.8807 184.651 53.9943 185.079 53.9943C185.382 53.9943 185.653 53.9375 185.891 53.8239C186.134 53.7064 186.336 53.5379 186.499 53.3182C186.662 53.0985 186.774 52.8314 186.834 52.517H188.8C188.751 53.1345 188.569 53.6818 188.255 54.1591C187.941 54.6326 187.513 55.0038 186.971 55.2727C186.429 55.5379 185.793 55.6705 185.062 55.6705ZM189.376 48.4602V46.7727H197.012V48.4602H194.188V55.5H192.2V48.4602H189.376ZM198.17 58.7727V46.7727H200.193V48.2159H200.312C200.418 48.0038 200.568 47.7784 200.761 47.5398C200.954 47.2973 201.215 47.0909 201.545 46.9205C201.874 46.7462 202.295 46.6591 202.806 46.6591C203.481 46.6591 204.089 46.8314 204.63 47.1761C205.176 47.517 205.607 48.0227 205.926 48.6932C206.248 49.3598 206.409 50.178 206.409 51.1477C206.409 52.1061 206.251 52.9205 205.937 53.5909C205.623 54.2614 205.195 54.7727 204.653 55.125C204.111 55.4773 203.498 55.6534 202.812 55.6534C202.312 55.6534 201.897 55.5701 201.568 55.4034C201.238 55.2367 200.973 55.036 200.772 54.8011C200.575 54.5625 200.422 54.3371 200.312 54.125H200.227V58.7727H198.17ZM200.187 51.1364C200.187 51.7008 200.267 52.1951 200.426 52.6193C200.589 53.0436 200.821 53.375 201.124 53.6136C201.431 53.8485 201.803 53.9659 202.238 53.9659C202.693 53.9659 203.073 53.8447 203.38 53.6023C203.687 53.3561 203.918 53.0208 204.073 52.5966C204.232 52.1686 204.312 51.6818 204.312 51.1364C204.312 50.5947 204.234 50.1136 204.079 49.6932C203.924 49.2727 203.693 48.9432 203.386 48.7045C203.079 48.4659 202.696 48.3466 202.238 48.3466C201.799 48.3466 201.426 48.4621 201.119 48.6932C200.812 48.9242 200.579 49.2481 200.42 49.6648C200.265 50.0814 200.187 50.572 200.187 51.1364ZM210.201 55.6761C209.648 55.6761 209.15 55.5777 208.707 55.3807C208.268 55.1799 207.919 54.8845 207.662 54.4943C207.408 54.1042 207.281 53.6231 207.281 53.0511C207.281 52.5587 207.372 52.1515 207.554 51.8295C207.735 51.5076 207.984 51.25 208.298 51.0568C208.612 50.8636 208.966 50.7178 209.36 50.6193C209.758 50.517 210.169 50.4432 210.593 50.3977C211.105 50.3447 211.519 50.2973 211.838 50.2557C212.156 50.2102 212.387 50.142 212.531 50.0511C212.679 49.9564 212.752 49.8106 212.752 49.6136V49.5795C212.752 49.1515 212.626 48.8201 212.372 48.5852C212.118 48.3504 211.752 48.233 211.275 48.233C210.771 48.233 210.372 48.3428 210.076 48.5625C209.785 48.7822 209.588 49.0417 209.485 49.3409L207.565 49.0682C207.716 48.5379 207.966 48.0947 208.315 47.7386C208.663 47.3788 209.09 47.1098 209.593 46.9318C210.097 46.75 210.654 46.6591 211.264 46.6591C211.684 46.6591 212.103 46.7083 212.519 46.8068C212.936 46.9053 213.317 47.0682 213.662 47.2955C214.006 47.5189 214.283 47.8239 214.491 48.2102C214.703 48.5966 214.809 49.0795 214.809 49.6591V55.5H212.832V54.3011H212.764C212.639 54.5436 212.463 54.7708 212.235 54.983C212.012 55.1913 211.73 55.3598 211.389 55.4886C211.052 55.6136 210.656 55.6761 210.201 55.6761ZM210.735 54.1648C211.148 54.1648 211.506 54.0833 211.809 53.9205C212.112 53.7538 212.345 53.5341 212.508 53.2614C212.675 52.9886 212.758 52.6913 212.758 52.3693V51.3409C212.694 51.3939 212.584 51.4432 212.429 51.4886C212.277 51.5341 212.107 51.5739 211.917 51.608C211.728 51.642 211.54 51.6723 211.355 51.6989C211.169 51.7254 211.008 51.7481 210.872 51.767C210.565 51.8087 210.29 51.8769 210.048 51.9716C209.805 52.0663 209.614 52.1989 209.474 52.3693C209.334 52.536 209.264 52.7519 209.264 53.017C209.264 53.3958 209.402 53.6818 209.679 53.875C209.955 54.0682 210.307 54.1648 210.735 54.1648ZM215.42 48.4602V46.7727H223.057V48.4602H220.233V55.5H218.244V48.4602H215.42ZM227.662 55.6705C226.809 55.6705 226.071 55.483 225.446 55.108C224.821 54.733 224.336 54.2083 223.991 53.5341C223.65 52.8598 223.48 52.072 223.48 51.1705C223.48 50.2689 223.65 49.4792 223.991 48.8011C224.336 48.1231 224.821 47.5966 225.446 47.2216C226.071 46.8466 226.809 46.6591 227.662 46.6591C228.514 46.6591 229.253 46.8466 229.878 47.2216C230.503 47.5966 230.986 48.1231 231.327 48.8011C231.671 49.4792 231.844 50.2689 231.844 51.1705C231.844 52.072 231.671 52.8598 231.327 53.5341C230.986 54.2083 230.503 54.733 229.878 55.108C229.253 55.483 228.514 55.6705 227.662 55.6705ZM227.673 54.0227C228.135 54.0227 228.522 53.8958 228.832 53.642C229.143 53.3845 229.374 53.0398 229.525 52.608C229.681 52.1761 229.758 51.6951 229.758 51.1648C229.758 50.6307 229.681 50.1477 229.525 49.7159C229.374 49.2803 229.143 48.9337 228.832 48.6761C228.522 48.4186 228.135 48.2898 227.673 48.2898C227.2 48.2898 226.806 48.4186 226.491 48.6761C226.181 48.9337 225.948 49.2803 225.792 49.7159C225.641 50.1477 225.565 50.6307 225.565 51.1648C225.565 51.6951 225.641 52.1761 225.792 52.608C225.948 53.0398 226.181 53.3845 226.491 53.642C226.806 53.8958 227.2 54.0227 227.673 54.0227ZM233.109 58.7727V46.7727H235.132V48.2159H235.251C235.357 48.0038 235.507 47.7784 235.7 47.5398C235.893 47.2973 236.155 47.0909 236.484 46.9205C236.814 46.7462 237.234 46.6591 237.746 46.6591C238.42 46.6591 239.028 46.8314 239.57 47.1761C240.115 47.517 240.547 48.0227 240.865 48.6932C241.187 49.3598 241.348 50.178 241.348 51.1477C241.348 52.1061 241.191 52.9205 240.876 53.5909C240.562 54.2614 240.134 54.7727 239.592 55.125C239.051 55.4773 238.437 55.6534 237.751 55.6534C237.251 55.6534 236.837 55.5701 236.507 55.4034C236.177 55.2367 235.912 55.036 235.712 54.8011C235.515 54.5625 235.361 54.3371 235.251 54.125H235.166V58.7727H233.109ZM235.126 51.1364C235.126 51.7008 235.206 52.1951 235.365 52.6193C235.528 53.0436 235.761 53.375 236.064 53.6136C236.371 53.8485 236.742 53.9659 237.177 53.9659C237.632 53.9659 238.013 53.8447 238.32 53.6023C238.626 53.3561 238.857 53.0208 239.013 52.5966C239.172 52.1686 239.251 51.6818 239.251 51.1364C239.251 50.5947 239.174 50.1136 239.018 49.6932C238.863 49.2727 238.632 48.9432 238.325 48.7045C238.018 48.4659 237.636 48.3466 237.177 48.3466C236.738 48.3466 236.365 48.4621 236.058 48.6932C235.751 48.9242 235.518 49.2481 235.359 49.6648C235.204 50.0814 235.126 50.572 235.126 51.1364Z" fill="#262626"/>
<path d="M121.886 79.5H120.409L124.682 67.8636H126.136L130.409 79.5H128.932L125.455 69.7045H125.364L121.886 79.5ZM122.432 74.9545H128.386V76.2045H122.432V74.9545ZM130.628 82V78.25H131.355C131.533 78.0644 131.687 77.8636 131.815 77.6477C131.944 77.4318 132.056 77.1761 132.151 76.8807C132.249 76.5814 132.333 76.2178 132.401 75.7898C132.469 75.358 132.529 74.8371 132.583 74.2273L132.878 70.7727H138.423V78.25H139.764V82H138.423V79.5H131.969V82H130.628ZM132.878 78.25H137.083V72.0227H134.128L133.901 74.2273C133.806 75.1402 133.689 75.9375 133.548 76.6193C133.408 77.3011 133.185 77.8447 132.878 78.25ZM145.837 77.6818L148.882 70.7727H150.155L146.382 79.5H145.291L141.587 70.7727H142.837L145.837 77.6818ZM142.405 70.7727V79.5H141.064V70.7727H142.405ZM149.269 79.5V70.7727H150.61V79.5H149.269ZM153.925 77.5227L158.13 70.7727H159.675V79.5H158.334V72.75L154.152 79.5H152.584V70.7727H153.925V77.5227ZM167.492 74.5227V75.7727H162.674V74.5227H167.492ZM162.992 70.7727V79.5H161.651V70.7727H162.992ZM168.515 70.7727V79.5H167.174V70.7727H168.515ZM175.367 82.7727C175.14 82.7727 174.937 82.7538 174.759 82.7159C174.581 82.6818 174.458 82.6477 174.39 82.6136L174.731 81.4318C175.057 81.5152 175.344 81.5455 175.594 81.5227C175.844 81.5 176.066 81.3883 176.259 81.1875C176.456 80.9905 176.636 80.6705 176.799 80.2273L177.049 79.5455L173.822 70.7727H175.276L177.685 77.7273H177.776L180.185 70.7727H181.64L177.935 80.7727C177.769 81.2235 177.562 81.5966 177.316 81.892C177.07 82.1913 176.784 82.4129 176.458 82.5568C176.136 82.7008 175.772 82.7727 175.367 82.7727ZM189.391 70.7727V79.5H188.051V70.7727H189.391ZM188.869 74.9318V76.1818C188.566 76.2955 188.265 76.3958 187.965 76.483C187.666 76.5663 187.352 76.6326 187.022 76.6818C186.693 76.7273 186.331 76.75 185.937 76.75C184.948 76.75 184.155 76.483 183.556 75.9489C182.961 75.4148 182.664 74.6136 182.664 73.5455V70.75H184.005V73.5455C184.005 73.9924 184.09 74.3598 184.261 74.6477C184.431 74.9356 184.662 75.1496 184.954 75.2898C185.246 75.4299 185.573 75.5 185.937 75.5C186.505 75.5 187.018 75.4489 187.477 75.3466C187.939 75.2405 188.403 75.1023 188.869 74.9318ZM191.372 82.7727V70.7727H192.667V72.1591H192.826C192.925 72.0076 193.061 71.8144 193.235 71.5795C193.413 71.3409 193.667 71.1288 193.997 70.9432C194.33 70.7538 194.781 70.6591 195.349 70.6591C196.084 70.6591 196.732 70.8428 197.292 71.2102C197.853 71.5777 198.29 72.0985 198.605 72.7727C198.919 73.447 199.076 74.2424 199.076 75.1591C199.076 76.0833 198.919 76.8845 198.605 77.5625C198.29 78.2367 197.855 78.7595 197.298 79.1307C196.741 79.4981 196.099 79.6818 195.372 79.6818C194.811 79.6818 194.362 79.589 194.025 79.4034C193.688 79.214 193.428 79 193.247 78.7614C193.065 78.5189 192.925 78.3182 192.826 78.1591H192.713V82.7727H191.372ZM192.69 75.1364C192.69 75.7955 192.786 76.3769 192.98 76.8807C193.173 77.3807 193.455 77.7727 193.826 78.0568C194.197 78.3371 194.652 78.4773 195.19 78.4773C195.75 78.4773 196.218 78.3295 196.593 78.0341C196.972 77.7348 197.256 77.3333 197.446 76.8295C197.639 76.322 197.735 75.7576 197.735 75.1364C197.735 74.5227 197.641 73.9697 197.451 73.4773C197.266 72.9811 196.983 72.589 196.605 72.3011C196.23 72.0095 195.758 71.8636 195.19 71.8636C194.644 71.8636 194.186 72.0019 193.815 72.2784C193.444 72.5511 193.163 72.9337 192.974 73.4261C192.785 73.9148 192.69 74.4848 192.69 75.1364ZM204.301 79.6818C203.46 79.6818 202.734 79.4962 202.125 79.125C201.519 78.75 201.051 78.2273 200.721 77.5568C200.395 76.8826 200.233 76.0985 200.233 75.2045C200.233 74.3106 200.395 73.5227 200.721 72.8409C201.051 72.1553 201.509 71.6212 202.096 71.2386C202.687 70.8523 203.376 70.6591 204.164 70.6591C204.619 70.6591 205.068 70.7348 205.511 70.8864C205.954 71.0379 206.358 71.2841 206.721 71.625C207.085 71.9621 207.375 72.4091 207.591 72.9659C207.806 73.5227 207.914 74.2083 207.914 75.0227V75.5909H201.187V74.4318H206.551C206.551 73.9394 206.452 73.5 206.255 73.1136C206.062 72.7273 205.786 72.4223 205.426 72.1989C205.07 71.9754 204.649 71.8636 204.164 71.8636C203.63 71.8636 203.168 71.9962 202.778 72.2614C202.392 72.5227 202.094 72.8636 201.886 73.2841C201.678 73.7045 201.573 74.1553 201.573 74.6364V75.4091C201.573 76.0682 201.687 76.6269 201.914 77.0852C202.145 77.5398 202.466 77.8864 202.875 78.125C203.284 78.3598 203.759 78.4773 204.301 78.4773C204.653 78.4773 204.971 78.428 205.255 78.3295C205.543 78.2273 205.791 78.0758 206 77.875C206.208 77.6705 206.369 77.4167 206.483 77.1136L207.778 77.4773C207.642 77.9167 207.412 78.303 207.091 78.6364C206.769 78.9659 206.371 79.2235 205.897 79.4091C205.424 79.5909 204.892 79.6818 204.301 79.6818ZM208.694 79.5L212.24 75.0682L208.74 70.7727H210.331L213.24 74.5H213.967V70.7727H215.308V74.5H216.012L218.922 70.7727H220.512L217.035 75.0682L220.558 79.5H218.944L215.99 75.75H215.308V79.5H213.967V75.75H213.285L210.308 79.5H208.694ZM221.062 82V78.25H221.79C221.968 78.0644 222.121 77.8636 222.25 77.6477C222.379 77.4318 222.49 77.1761 222.585 76.8807C222.684 76.5814 222.767 76.2178 222.835 75.7898C222.903 75.358 222.964 74.8371 223.017 74.2273L223.312 70.7727H228.858V78.25H230.199V82H228.858V79.5H222.403V82H221.062ZM223.312 78.25H227.517V72.0227H224.562L224.335 74.2273C224.24 75.1402 224.123 75.9375 223.983 76.6193C223.843 77.3011 223.619 77.8447 223.312 78.25ZM235.158 79.6818C234.317 79.6818 233.591 79.4962 232.981 79.125C232.375 78.75 231.908 78.2273 231.578 77.5568C231.252 76.8826 231.089 76.0985 231.089 75.2045C231.089 74.3106 231.252 73.5227 231.578 72.8409C231.908 72.1553 232.366 71.6212 232.953 71.2386C233.544 70.8523 234.233 70.6591 235.021 70.6591C235.476 70.6591 235.925 70.7348 236.368 70.8864C236.811 71.0379 237.214 71.2841 237.578 71.625C237.942 71.9621 238.231 72.4091 238.447 72.9659C238.663 73.5227 238.771 74.2083 238.771 75.0227V75.5909H232.044V74.4318H237.408C237.408 73.9394 237.309 73.5 237.112 73.1136C236.919 72.7273 236.642 72.4223 236.283 72.1989C235.927 71.9754 235.506 71.8636 235.021 71.8636C234.487 71.8636 234.025 71.9962 233.635 72.2614C233.249 72.5227 232.951 72.8636 232.743 73.2841C232.535 73.7045 232.43 74.1553 232.43 74.6364V75.4091C232.43 76.0682 232.544 76.6269 232.771 77.0852C233.002 77.5398 233.322 77.8864 233.731 78.125C234.141 78.3598 234.616 78.4773 235.158 78.4773C235.51 78.4773 235.828 78.428 236.112 78.3295C236.4 78.2273 236.648 78.0758 236.856 77.875C237.065 77.6705 237.226 77.4167 237.339 77.1136L238.635 77.4773C238.499 77.9167 238.269 78.303 237.947 78.6364C237.625 78.9659 237.228 79.2235 236.754 79.4091C236.281 79.5909 235.749 79.6818 235.158 79.6818ZM246.172 74.5227V75.7727H241.354V74.5227H246.172ZM241.672 70.7727V79.5H240.331V70.7727H241.672ZM247.195 70.7727V79.5H245.854V70.7727H247.195ZM250.504 77.5227L254.709 70.7727H256.254V79.5H254.914V72.75L250.732 79.5H249.164V70.7727H250.504V77.5227ZM263.48 79.5V72H261.162C260.639 72 260.229 72.1212 259.929 72.3636C259.63 72.6061 259.48 72.9394 259.48 73.3636C259.48 73.7803 259.615 74.108 259.884 74.3466C260.157 74.5852 260.53 74.7045 261.003 74.7045H263.821V75.9545H261.003C260.412 75.9545 259.903 75.8504 259.475 75.642C259.047 75.4337 258.717 75.1364 258.486 74.75C258.255 74.3598 258.139 73.8977 258.139 73.3636C258.139 72.8258 258.261 72.3636 258.503 71.9773C258.746 71.5909 259.092 71.2936 259.543 71.0852C259.997 70.8769 260.537 70.7727 261.162 70.7727H264.753V79.5H263.48ZM257.662 79.5L260.139 75.1591H261.594L259.117 79.5H257.662ZM277.527 73.8864V75.1364H269.527V73.8864H277.527ZM121.227 95.5V86.7727H122.568V90.5682H123.455L126.591 86.7727H128.318L124.795 90.9773L128.364 95.5H126.636L123.773 91.8182H122.568V95.5H121.227ZM132.527 95.6818C131.739 95.6818 131.048 95.4943 130.453 95.1193C129.862 94.7443 129.4 94.2197 129.067 93.5455C128.737 92.8712 128.573 92.0833 128.573 91.1818C128.573 90.2727 128.737 89.4792 129.067 88.8011C129.4 88.1231 129.862 87.5966 130.453 87.2216C131.048 86.8466 131.739 86.6591 132.527 86.6591C133.315 86.6591 134.004 86.8466 134.595 87.2216C135.19 87.5966 135.652 88.1231 135.982 88.8011C136.315 89.4792 136.482 90.2727 136.482 91.1818C136.482 92.0833 136.315 92.8712 135.982 93.5455C135.652 94.2197 135.19 94.7443 134.595 95.1193C134.004 95.4943 133.315 95.6818 132.527 95.6818ZM132.527 94.4773C133.126 94.4773 133.618 94.3239 134.004 94.017C134.391 93.7102 134.677 93.3068 134.862 92.8068C135.048 92.3068 135.141 91.7652 135.141 91.1818C135.141 90.5985 135.048 90.0549 134.862 89.5511C134.677 89.0473 134.391 88.6402 134.004 88.3295C133.618 88.0189 133.126 87.8636 132.527 87.8636C131.929 87.8636 131.436 88.0189 131.05 88.3295C130.663 88.6402 130.377 89.0473 130.192 89.5511C130.006 90.0549 129.913 90.5985 129.913 91.1818C129.913 91.7652 130.006 92.3068 130.192 92.8068C130.377 93.3068 130.663 93.7102 131.05 94.017C131.436 94.3239 131.929 94.4773 132.527 94.4773ZM143.889 90.5227V91.7727H139.071V90.5227H143.889ZM139.389 86.7727V95.5H138.049V86.7727H139.389ZM144.912 86.7727V95.5H143.571V86.7727H144.912ZM145.694 88.0227V86.7727H152.784V88.0227H149.921V95.5H148.58V88.0227H145.694ZM154.26 98.7727V86.7727H155.556V88.1591H155.715C155.813 88.0076 155.95 87.8144 156.124 87.5795C156.302 87.3409 156.556 87.1288 156.885 86.9432C157.219 86.7538 157.669 86.6591 158.238 86.6591C158.973 86.6591 159.62 86.8428 160.181 87.2102C160.741 87.5777 161.179 88.0985 161.493 88.7727C161.808 89.447 161.965 90.2424 161.965 91.1591C161.965 92.0833 161.808 92.8845 161.493 93.5625C161.179 94.2367 160.743 94.7595 160.187 95.1307C159.63 95.4981 158.988 95.6818 158.26 95.6818C157.7 95.6818 157.251 95.589 156.914 95.4034C156.577 95.214 156.317 95 156.135 94.7614C155.954 94.5189 155.813 94.3182 155.715 94.1591H155.601V98.7727H154.26ZM155.579 91.1364C155.579 91.7955 155.675 92.3769 155.868 92.8807C156.062 93.3807 156.344 93.7727 156.715 94.0568C157.086 94.3371 157.541 94.4773 158.079 94.4773C158.639 94.4773 159.107 94.3295 159.482 94.0341C159.861 93.7348 160.145 93.3333 160.334 92.8295C160.527 92.322 160.624 91.7576 160.624 91.1364C160.624 90.5227 160.529 89.9697 160.34 89.4773C160.154 88.9811 159.872 88.589 159.493 88.3011C159.118 88.0095 158.647 87.8636 158.079 87.8636C157.533 87.8636 157.075 88.0019 156.704 88.2784C156.332 88.5511 156.052 88.9337 155.863 89.4261C155.673 89.9148 155.579 90.4848 155.579 91.1364ZM167.076 95.6818C166.288 95.6818 165.597 95.4943 165.002 95.1193C164.411 94.7443 163.949 94.2197 163.616 93.5455C163.286 92.8712 163.121 92.0833 163.121 91.1818C163.121 90.2727 163.286 89.4792 163.616 88.8011C163.949 88.1231 164.411 87.5966 165.002 87.2216C165.597 86.8466 166.288 86.6591 167.076 86.6591C167.864 86.6591 168.553 86.8466 169.144 87.2216C169.739 87.5966 170.201 88.1231 170.53 88.8011C170.864 89.4792 171.03 90.2727 171.03 91.1818C171.03 92.0833 170.864 92.8712 170.53 93.5455C170.201 94.2197 169.739 94.7443 169.144 95.1193C168.553 95.4943 167.864 95.6818 167.076 95.6818ZM167.076 94.4773C167.674 94.4773 168.167 94.3239 168.553 94.017C168.939 93.7102 169.225 93.3068 169.411 92.8068C169.597 92.3068 169.689 91.7652 169.689 91.1818C169.689 90.5985 169.597 90.0549 169.411 89.5511C169.225 89.0473 168.939 88.6402 168.553 88.3295C168.167 88.0189 167.674 87.8636 167.076 87.8636C166.477 87.8636 165.985 88.0189 165.599 88.3295C165.212 88.6402 164.926 89.0473 164.741 89.5511C164.555 90.0549 164.462 90.5985 164.462 91.1818C164.462 91.7652 164.555 92.3068 164.741 92.8068C164.926 93.3068 165.212 93.7102 165.599 94.017C165.985 94.3239 166.477 94.4773 167.076 94.4773ZM171.825 95.5V94.25H172.143C172.404 94.25 172.622 94.1989 172.796 94.0966C172.97 93.9905 173.111 93.8068 173.217 93.5455C173.326 93.2803 173.41 92.9129 173.467 92.4432C173.527 91.9697 173.571 91.3674 173.597 90.6364L173.756 86.7727H179.575V95.5H178.234V88.0227H175.029L174.893 91.1364C174.862 91.8523 174.798 92.483 174.7 93.0284C174.605 93.5701 174.459 94.0246 174.262 94.392C174.069 94.7595 173.811 95.036 173.489 95.2216C173.167 95.4072 172.764 95.5 172.279 95.5H171.825ZM182.714 89.9318H185.214C186.237 89.9318 187.019 90.1913 187.56 90.7102C188.102 91.2292 188.373 91.8864 188.373 92.6818C188.373 93.2045 188.252 93.6799 188.009 94.108C187.767 94.5322 187.411 94.8712 186.941 95.125C186.471 95.375 185.896 95.5 185.214 95.5H181.555V86.7727H182.896V94.25H185.214C185.744 94.25 186.18 94.1098 186.521 93.8295C186.862 93.5492 187.032 93.1894 187.032 92.75C187.032 92.2879 186.862 91.911 186.521 91.6193C186.18 91.3277 185.744 91.1818 185.214 91.1818H182.714V89.9318ZM199.795 90.5227V91.7727H194.977V90.5227H199.795ZM195.295 86.7727V95.5H193.954V86.7727H195.295ZM200.818 86.7727V95.5H199.477V86.7727H200.818ZM205.355 95.7045C204.802 95.7045 204.3 95.6004 203.849 95.392C203.398 95.1799 203.04 94.875 202.775 94.4773C202.51 94.0758 202.378 93.5909 202.378 93.0227C202.378 92.5227 202.476 92.1174 202.673 91.8068C202.87 91.4924 203.133 91.2462 203.463 91.0682C203.792 90.8902 204.156 90.7576 204.554 90.6705C204.955 90.5795 205.359 90.5076 205.764 90.4545C206.294 90.3864 206.724 90.3352 207.054 90.3011C207.387 90.2633 207.629 90.2008 207.781 90.1136C207.936 90.0265 208.014 89.875 208.014 89.6591V89.6136C208.014 89.053 207.861 88.6174 207.554 88.3068C207.251 87.9962 206.79 87.8409 206.173 87.8409C205.533 87.8409 205.031 87.9811 204.667 88.2614C204.304 88.5417 204.048 88.8409 203.9 89.1591L202.628 88.7045C202.855 88.1742 203.158 87.7614 203.537 87.4659C203.919 87.1667 204.336 86.9583 204.787 86.8409C205.241 86.7197 205.688 86.6591 206.128 86.6591C206.408 86.6591 206.73 86.6932 207.093 86.7614C207.461 86.8258 207.815 86.9602 208.156 87.1648C208.501 87.3693 208.787 87.678 209.014 88.0909C209.241 88.5038 209.355 89.0568 209.355 89.75V95.5H208.014V94.3182H207.946C207.855 94.5076 207.703 94.7102 207.491 94.9261C207.279 95.142 206.997 95.3258 206.645 95.4773C206.292 95.6288 205.862 95.7045 205.355 95.7045ZM205.559 94.5C206.09 94.5 206.537 94.3958 206.9 94.1875C207.268 93.9792 207.544 93.7102 207.73 93.3807C207.919 93.0511 208.014 92.7045 208.014 92.3409V91.1136C207.957 91.1818 207.832 91.2443 207.639 91.3011C207.45 91.3542 207.23 91.4015 206.98 91.4432C206.734 91.4811 206.493 91.5152 206.258 91.5455C206.027 91.572 205.84 91.5947 205.696 91.6136C205.347 91.6591 205.021 91.733 204.718 91.8352C204.419 91.9337 204.177 92.0833 203.991 92.2841C203.809 92.4811 203.718 92.75 203.718 93.0909C203.718 93.5568 203.891 93.9091 204.236 94.1477C204.584 94.3826 205.025 94.5 205.559 94.5ZM215.342 95.5V86.7727H216.683V90.5682H217.57L220.706 86.7727H222.433L218.91 90.9773L222.479 95.5H220.751L217.888 91.8182H216.683V95.5H215.342ZM226.024 95.7045C225.471 95.7045 224.969 95.6004 224.519 95.392C224.068 95.1799 223.71 94.875 223.445 94.4773C223.18 94.0758 223.047 93.5909 223.047 93.0227C223.047 92.5227 223.145 92.1174 223.342 91.8068C223.539 91.4924 223.803 91.2462 224.132 91.0682C224.462 90.8902 224.825 90.7576 225.223 90.6705C225.625 90.5795 226.028 90.5076 226.433 90.4545C226.964 90.3864 227.394 90.3352 227.723 90.3011C228.056 90.2633 228.299 90.2008 228.45 90.1136C228.606 90.0265 228.683 89.875 228.683 89.6591V89.6136C228.683 89.053 228.53 88.6174 228.223 88.3068C227.92 87.9962 227.46 87.8409 226.842 87.8409C226.202 87.8409 225.7 87.9811 225.337 88.2614C224.973 88.5417 224.717 88.8409 224.57 89.1591L223.297 88.7045C223.524 88.1742 223.827 87.7614 224.206 87.4659C224.589 87.1667 225.005 86.9583 225.456 86.8409C225.911 86.7197 226.358 86.6591 226.797 86.6591C227.077 86.6591 227.399 86.6932 227.763 86.7614C228.13 86.8258 228.484 86.9602 228.825 87.1648C229.17 87.3693 229.456 87.678 229.683 88.0909C229.911 88.5038 230.024 89.0568 230.024 89.75V95.5H228.683V94.3182H228.615C228.524 94.5076 228.373 94.7102 228.161 94.9261C227.948 95.142 227.666 95.3258 227.314 95.4773C226.962 95.6288 226.532 95.7045 226.024 95.7045ZM226.229 94.5C226.759 94.5 227.206 94.3958 227.57 94.1875C227.937 93.9792 228.214 93.7102 228.399 93.3807C228.589 93.0511 228.683 92.7045 228.683 92.3409V91.1136C228.626 91.1818 228.501 91.2443 228.308 91.3011C228.119 91.3542 227.899 91.4015 227.649 91.4432C227.403 91.4811 227.162 91.5152 226.928 91.5455C226.697 91.572 226.509 91.5947 226.365 91.6136C226.017 91.6591 225.691 91.733 225.388 91.8352C225.089 91.9337 224.846 92.0833 224.661 92.2841C224.479 92.4811 224.388 92.75 224.388 93.0909C224.388 93.5568 224.56 93.9091 224.905 94.1477C225.253 94.3826 225.695 94.5 226.229 94.5ZM231.446 95.5L234.992 91.0682L231.492 86.7727H233.083L235.992 90.5H236.719V86.7727H238.06V90.5H238.764L241.673 86.7727H243.264L239.787 91.0682L243.31 95.5H241.696L238.742 91.75H238.06V95.5H236.719V91.75H236.037L233.06 95.5H231.446ZM243.814 98V94.25H244.541C244.72 94.0644 244.873 93.8636 245.002 93.6477C245.13 93.4318 245.242 93.1761 245.337 92.8807C245.435 92.5814 245.519 92.2178 245.587 91.7898C245.655 91.358 245.716 90.8371 245.769 90.2273L246.064 86.7727H251.61V94.25H252.951V98H251.61V95.5H245.155V98H243.814ZM246.064 94.25H250.269V88.0227H247.314L247.087 90.2273C246.992 91.1402 246.875 91.9375 246.735 92.6193C246.595 93.3011 246.371 93.8447 246.064 94.25ZM257.796 95.6818C257.008 95.6818 256.317 95.4943 255.722 95.1193C255.131 94.7443 254.669 94.2197 254.336 93.5455C254.006 92.8712 253.841 92.0833 253.841 91.1818C253.841 90.2727 254.006 89.4792 254.336 88.8011C254.669 88.1231 255.131 87.5966 255.722 87.2216C256.317 86.8466 257.008 86.6591 257.796 86.6591C258.584 86.6591 259.273 86.8466 259.864 87.2216C260.459 87.5966 260.921 88.1231 261.25 88.8011C261.584 89.4792 261.75 90.2727 261.75 91.1818C261.75 92.0833 261.584 92.8712 261.25 93.5455C260.921 94.2197 260.459 94.7443 259.864 95.1193C259.273 95.4943 258.584 95.6818 257.796 95.6818ZM257.796 94.4773C258.394 94.4773 258.887 94.3239 259.273 94.017C259.659 93.7102 259.945 93.3068 260.131 92.8068C260.317 92.3068 260.409 91.7652 260.409 91.1818C260.409 90.5985 260.317 90.0549 260.131 89.5511C259.945 89.0473 259.659 88.6402 259.273 88.3295C258.887 88.0189 258.394 87.8636 257.796 87.8636C257.197 87.8636 256.705 88.0189 256.319 88.3295C255.932 88.6402 255.646 89.0473 255.461 89.5511C255.275 90.0549 255.182 90.5985 255.182 91.1818C255.182 91.7652 255.275 92.3068 255.461 92.8068C255.646 93.3068 255.932 93.7102 256.319 94.017C256.705 94.3239 257.197 94.4773 257.796 94.4773ZM268.09 93.6818L271.135 86.7727H272.408L268.635 95.5H267.545L263.84 86.7727H265.09L268.09 93.6818ZM264.658 86.7727V95.5H263.317V86.7727H264.658ZM271.522 95.5V86.7727H272.863V95.5H271.522ZM279.721 98.7727C279.494 98.7727 279.291 98.7538 279.113 98.7159C278.935 98.6818 278.812 98.6477 278.744 98.6136L279.085 97.4318C279.41 97.5152 279.698 97.5455 279.948 97.5227C280.198 97.5 280.42 97.3883 280.613 97.1875C280.81 96.9905 280.99 96.6705 281.153 96.2273L281.403 95.5455L278.175 86.7727H279.63L282.039 93.7273H282.13L284.539 86.7727H285.994L282.289 96.7727C282.122 97.2235 281.916 97.5966 281.67 97.892C281.424 98.1913 281.138 98.4129 280.812 98.5568C280.49 98.7008 280.126 98.7727 279.721 98.7727ZM287.284 98.7727V86.7727H288.579V88.1591H288.738C288.837 88.0076 288.973 87.8144 289.147 87.5795C289.325 87.3409 289.579 87.1288 289.909 86.9432C290.242 86.7538 290.693 86.6591 291.261 86.6591C291.996 86.6591 292.643 86.8428 293.204 87.2102C293.765 87.5777 294.202 88.0985 294.516 88.7727C294.831 89.447 294.988 90.2424 294.988 91.1591C294.988 92.0833 294.831 92.8845 294.516 93.5625C294.202 94.2367 293.766 94.7595 293.21 95.1307C292.653 95.4981 292.011 95.6818 291.284 95.6818C290.723 95.6818 290.274 95.589 289.937 95.4034C289.6 95.214 289.34 95 289.159 94.7614C288.977 94.5189 288.837 94.3182 288.738 94.1591H288.624V98.7727H287.284ZM288.602 91.1364C288.602 91.7955 288.698 92.3769 288.891 92.8807C289.085 93.3807 289.367 93.7727 289.738 94.0568C290.109 94.3371 290.564 94.4773 291.102 94.4773C291.662 94.4773 292.13 94.3295 292.505 94.0341C292.884 93.7348 293.168 93.3333 293.357 92.8295C293.551 92.322 293.647 91.7576 293.647 91.1364C293.647 90.5227 293.552 89.9697 293.363 89.4773C293.177 88.9811 292.895 88.589 292.516 88.3011C292.141 88.0095 291.67 87.8636 291.102 87.8636C290.556 87.8636 290.098 88.0019 289.727 88.2784C289.355 88.5511 289.075 88.9337 288.886 89.4261C288.696 89.9148 288.602 90.4848 288.602 91.1364ZM300.099 95.6818C299.311 95.6818 298.62 95.4943 298.025 95.1193C297.434 94.7443 296.972 94.2197 296.639 93.5455C296.309 92.8712 296.144 92.0833 296.144 91.1818C296.144 90.2727 296.309 89.4792 296.639 88.8011C296.972 88.1231 297.434 87.5966 298.025 87.2216C298.62 86.8466 299.311 86.6591 300.099 86.6591C300.887 86.6591 301.576 86.8466 302.167 87.2216C302.762 87.5966 303.224 88.1231 303.554 88.8011C303.887 89.4792 304.054 90.2727 304.054 91.1818C304.054 92.0833 303.887 92.8712 303.554 93.5455C303.224 94.2197 302.762 94.7443 302.167 95.1193C301.576 95.4943 300.887 95.6818 300.099 95.6818ZM300.099 94.4773C300.697 94.4773 301.19 94.3239 301.576 94.017C301.963 93.7102 302.249 93.3068 302.434 92.8068C302.62 92.3068 302.713 91.7652 302.713 91.1818C302.713 90.5985 302.62 90.0549 302.434 89.5511C302.249 89.0473 301.963 88.6402 301.576 88.3295C301.19 88.0189 300.697 87.8636 300.099 87.8636C299.5 87.8636 299.008 88.0189 298.622 88.3295C298.235 88.6402 297.949 89.0473 297.764 89.5511C297.578 90.0549 297.485 90.5985 297.485 91.1818C297.485 91.7652 297.578 92.3068 297.764 92.8068C297.949 93.3068 298.235 93.7102 298.622 94.017C299.008 94.3239 299.5 94.4773 300.099 94.4773ZM305.62 95.5V86.7727H309.189C310.128 86.7727 310.874 86.9848 311.427 87.4091C311.98 87.8333 312.257 88.3939 312.257 89.0909C312.257 89.6212 312.1 90.0322 311.785 90.3239C311.471 90.6117 311.067 90.8068 310.575 90.9091C310.897 90.9545 311.209 91.0682 311.512 91.25C311.819 91.4318 312.073 91.6818 312.274 92C312.475 92.3144 312.575 92.7008 312.575 93.1591C312.575 93.6061 312.461 94.0057 312.234 94.358C312.007 94.7102 311.681 94.9886 311.257 95.1932C310.833 95.3977 310.325 95.5 309.734 95.5H305.62ZM306.893 94.2727H309.734C310.196 94.2727 310.558 94.1629 310.819 93.9432C311.081 93.7235 311.211 93.4242 311.211 93.0455C311.211 92.5947 311.081 92.2405 310.819 91.983C310.558 91.7216 310.196 91.5909 309.734 91.5909H306.893V94.2727ZM306.893 90.4318H309.189C309.548 90.4318 309.857 90.3826 310.115 90.2841C310.372 90.1818 310.569 90.0379 310.706 89.8523C310.846 89.6629 310.916 89.4394 310.916 89.1818C310.916 88.8144 310.762 88.5265 310.456 88.3182C310.149 88.1061 309.726 88 309.189 88H306.893V90.4318ZM319.966 90.5227V91.7727H315.148V90.5227H319.966ZM315.466 86.7727V95.5H314.125V86.7727H315.466ZM320.988 86.7727V95.5H319.648V86.7727H320.988ZM326.616 95.6818C325.775 95.6818 325.05 95.4962 324.44 95.125C323.834 94.75 323.366 94.2273 323.037 93.5568C322.711 92.8826 322.548 92.0985 322.548 91.2045C322.548 90.3106 322.711 89.5227 323.037 88.8409C323.366 88.1553 323.825 87.6212 324.412 87.2386C325.003 86.8523 325.692 86.6591 326.48 86.6591C326.935 86.6591 327.383 86.7348 327.827 86.8864C328.27 87.0379 328.673 87.2841 329.037 87.625C329.4 87.9621 329.69 88.4091 329.906 88.9659C330.122 89.5227 330.23 90.2083 330.23 91.0227V91.5909H323.503V90.4318H328.866C328.866 89.9394 328.768 89.5 328.571 89.1136C328.378 88.7273 328.101 88.4223 327.741 88.1989C327.385 87.9754 326.965 87.8636 326.48 87.8636C325.946 87.8636 325.484 87.9962 325.094 88.2614C324.707 88.5227 324.41 88.8636 324.202 89.2841C323.993 89.7045 323.889 90.1553 323.889 90.6364V91.4091C323.889 92.0682 324.003 92.6269 324.23 93.0852C324.461 93.5398 324.781 93.8864 325.19 94.125C325.599 94.3598 326.075 94.4773 326.616 94.4773C326.969 94.4773 327.287 94.428 327.571 94.3295C327.859 94.2273 328.107 94.0758 328.315 93.875C328.524 93.6705 328.685 93.4167 328.798 93.1136L330.094 93.4773C329.957 93.9167 329.728 94.303 329.406 94.6364C329.084 94.9659 328.686 95.2235 328.213 95.4091C327.739 95.5909 327.207 95.6818 326.616 95.6818Z" fill="#626262"/>
</g>
<defs>
<filter id="filter0_d_405_2" x="0" y="0" width="389" height="144" filterUnits="userSpaceOnUse" color-interpolation-filters="sRGB">
<feFlood flood-opacity="0" result="BackgroundImageFix"/>
<feColorMatrix in="SourceAlpha" type="matrix" values="0 0 0 0 0 0 0 0 0 0 0 0 0 0 0 0 0 0 127 0" result="hardAlpha"/>
<feOffset dy="4"/>
<feGaussianBlur stdDeviation="12"/>
<feComposite in2="hardAlpha" operator="out"/>
<feColorMatrix type="matrix" values="0 0 0 0 0 0 0 0 0 0 0 0 0 0 0 0 0 0 0.1 0"/>
<feBlend mode="normal" in2="BackgroundImageFix" result="effect1_dropShadow_405_2"/>
<feBlend mode="normal" in="SourceGraphic" in2="effect1_dropShadow_405_2" result="shape"/>
</filter>
</defs>
</svg>
