<svg width="341" height="96" viewBox="0 0 341 96" fill="none" xmlns="http://www.w3.org/2000/svg">
<rect width="341" height="96" rx="16" fill="white"/>
<path fill-rule="evenodd" clip-rule="evenodd" d="M46.078 21.6812C45.7321 20.9757 45.1236 20.4339 44.3828 20.1719C43.6421 19.9099 42.8281 19.9486 42.1156 20.2797C41.4031 20.6108 40.8487 21.208 40.5713 21.943C40.2939 22.6781 40.3157 23.4927 40.6319 24.2119L41.8292 26.7907C40.9082 27.5235 39.9832 28.4245 39.0781 29.4456L36.7996 27.3233C36.2115 26.8209 35.4523 26.5648 34.6801 26.6083C33.9079 26.6517 33.1822 26.9914 32.6542 27.5565C32.1262 28.1217 31.8366 28.8687 31.8456 29.6421C31.8547 30.4154 32.1618 31.1554 32.703 31.708L35.4901 34.3108C34.9116 35.2466 34.3718 36.2058 33.8723 37.186L30.8809 35.9086C30.518 35.7537 30.1282 35.6718 29.7337 35.6676C29.3392 35.6634 28.9478 35.7369 28.5817 35.884C28.2156 36.031 27.882 36.2487 27.6001 36.5247C27.3182 36.8007 27.0933 37.1294 26.9385 37.4923C26.7836 37.8551 26.7017 38.2449 26.6975 38.6394C26.6933 39.0339 26.7668 39.4253 26.9139 39.7914C27.0609 40.1575 27.2787 40.491 27.5546 40.7729C27.8306 41.0549 28.1594 41.2797 28.5222 41.4346L31.5697 42.732L31.5056 42.9322C31.1345 44.0988 30.8302 45.2907 30.5926 46.5081L27.377 46.1076C26.5863 46.0089 25.7887 46.2282 25.1597 46.7175C24.5308 47.2067 24.122 47.9258 24.0232 48.7164C23.9244 49.5071 24.1438 50.3046 24.6331 50.9336C25.1223 51.5625 25.8414 51.9713 26.6321 52.0701L30.1 52.4985C30.1374 53.6251 30.2629 54.7436 30.4764 55.8542L27.7854 57.0555C27.425 57.2166 27.0998 57.4473 26.8286 57.7343C26.5574 58.0212 26.3454 58.3588 26.2048 58.7278C26.0642 59.0967 25.9978 59.4898 26.0093 59.8844C26.0207 60.2791 26.1099 60.6676 26.2717 61.0278C26.9525 62.5414 28.7265 63.2182 30.2402 62.5414L32.5348 61.5163C33.3957 63.054 34.505 64.5236 35.9106 65.8971L33.9884 68.2036C33.5011 68.8177 33.2732 69.5981 33.3536 70.378C33.4339 71.1579 33.8161 71.8755 34.4184 72.3774C35.0208 72.8794 35.7955 73.1258 36.5771 73.0642C37.3588 73.0026 38.0853 72.6378 38.6016 72.0477L40.728 69.497C42.482 70.49 44.2399 71.1788 45.9699 71.6072V73.0008C45.9704 73.3951 46.0486 73.7856 46.2 74.1497C46.3515 74.5139 46.5731 74.8447 46.8524 75.1232C47.1317 75.4017 47.463 75.6225 47.8276 75.7729C48.1922 75.9234 48.5829 76.0005 48.9773 76C49.3717 75.9995 49.7621 75.9213 50.1263 75.7699C50.4905 75.6185 50.8213 75.3968 51.0998 75.1175C51.3783 74.8383 51.5991 74.5069 51.7496 74.1423C51.9 73.7778 51.9772 73.3871 51.9767 72.9927V72.0357C54.1787 71.8072 56.3119 71.1357 58.2477 70.0616L60.7185 72.7205C61.2607 73.304 62.0125 73.6483 62.8085 73.6776C63.6046 73.7069 64.3797 73.4188 64.9633 72.8766C65.5469 72.3345 65.8912 71.5827 65.9205 70.7867C65.9498 69.9906 65.6616 69.2156 65.1195 68.632L62.8689 66.2094C63.818 65.0561 64.5949 63.7668 65.1755 62.3973L68.5954 62.8578C69.385 62.964 70.1845 62.7521 70.818 62.2689C71.4514 61.7857 71.867 61.0706 71.9732 60.281C72.0794 59.4914 71.8676 58.6919 71.3843 58.0585C70.901 57.425 70.1859 57.0095 69.3963 56.9033L66.3368 56.4949C66.3204 54.9986 66.0773 53.5135 65.616 52.0901L67.9627 51.089C68.6955 50.7768 69.2743 50.1862 69.5716 49.4473C69.869 48.7084 69.8607 47.8815 69.5484 47.1487C69.2362 46.416 68.6456 45.8372 67.9067 45.5398C67.1677 45.2425 66.3408 45.2508 65.608 45.563L62.7568 46.7803C62.5993 46.5801 62.4378 46.3799 62.2723 46.1797C61.7517 45.4069 61.5755 44.5299 61.6435 43.3566C61.6729 42.9295 61.7223 42.4984 61.7917 42.0632H65.3798C66.1763 42.0632 66.9402 41.7468 67.5035 41.1836C68.0667 40.6204 68.3831 39.8565 68.3831 39.06C68.3831 38.2635 68.0667 37.4996 67.5035 36.9364C66.9402 36.3731 66.1763 36.0567 65.3798 36.0567H62.7047C62.7431 35.0925 62.6651 34.1272 62.4725 33.1816L65.3677 31.2515C66.0209 30.8057 66.4718 30.1202 66.6226 29.3439C66.7735 28.5676 66.612 27.7632 66.1734 27.1052C65.7347 26.4473 65.0542 25.9888 64.2796 25.8295C63.505 25.6701 62.6988 25.8227 62.036 26.2541L59.5892 27.8879C58.9846 27.2482 58.3042 26.6848 57.5629 26.2101L58.6161 24.5563C59.0174 23.8851 59.1411 23.0838 58.9608 22.3229C58.7805 21.5619 58.3105 20.9013 57.6508 20.4815C56.991 20.0616 56.1935 19.9157 55.4277 20.0747C54.662 20.2336 53.9885 20.685 53.5504 21.3328L51.8045 24.0798C50.295 23.8741 48.7614 23.931 47.2714 24.2479L46.078 21.6852V21.6812ZM55.0201 57.0875C55.0389 57.7453 54.9255 58.4002 54.6867 59.0135C54.4479 59.6267 54.0886 60.1859 53.6299 60.6578C53.1712 61.1297 52.6225 61.5049 52.0163 61.7611C51.4101 62.0172 50.7587 62.1492 50.1005 62.1492C49.4424 62.1492 48.791 62.0172 48.1848 61.7611C47.5786 61.5049 47.0299 61.1297 46.5712 60.6578C46.1125 60.1859 45.7532 59.6267 45.5144 59.0135C45.2756 58.4002 45.1622 57.7453 45.181 57.0875C45.2175 55.8071 45.7519 54.5914 46.6705 53.6987C47.5891 52.806 48.8196 52.3065 50.1005 52.3065C51.3815 52.3065 52.612 52.806 53.5306 53.6987C54.4492 54.5914 54.9836 55.8071 55.0201 57.0875ZM49.2135 42.0873C50.2809 42.0873 51.3046 41.6633 52.0593 40.9086C52.8141 40.1538 53.2381 39.1302 53.2381 38.0629C53.2381 36.9956 52.8141 35.972 52.0593 35.2173C51.3046 34.4625 50.2809 34.0385 49.2135 34.0385C48.1462 34.0385 47.1225 34.4625 46.3678 35.2173C45.613 35.972 45.189 36.9956 45.189 38.0629C45.189 39.1302 45.613 40.1538 46.3678 40.9086C47.1225 41.6633 48.1462 42.0873 49.2135 42.0873ZM37.6485 47.9897C37.6485 47.1931 37.965 46.4293 38.5282 45.866C39.0914 45.3028 39.8554 44.9864 40.6519 44.9864C41.4485 44.9864 42.2124 45.3028 42.7756 45.866C43.3389 46.4293 43.6553 47.1931 43.6553 47.9897C43.6553 48.7862 43.3389 49.5501 42.7756 50.1133C42.2124 50.6765 41.4485 50.9929 40.6519 50.9929C39.8554 50.9929 39.0914 50.6765 38.5282 50.1133C37.965 49.5501 37.6485 48.7862 37.6485 47.9897Z" fill="#6A63F5"/>
<path d="M97.1477 35.5V23.8636H104.631V25.6307H99.2557V28.358H101.5C102.39 28.358 103.153 28.5038 103.79 28.7955C104.43 29.0833 104.92 29.4905 105.261 30.017C105.602 30.5436 105.773 31.1629 105.773 31.875C105.773 32.5909 105.602 33.2216 105.261 33.767C104.92 34.3087 104.43 34.733 103.79 35.0398C103.153 35.3466 102.39 35.5 101.5 35.5H97.1477ZM99.2557 33.7727H101.5C101.97 33.7727 102.367 33.6837 102.693 33.5057C103.019 33.3277 103.265 33.0928 103.432 32.8011C103.602 32.5095 103.688 32.1932 103.688 31.8523C103.688 31.3598 103.498 30.9413 103.119 30.5966C102.744 30.2481 102.205 30.0739 101.5 30.0739H99.2557V33.7727ZM109.029 32.7159L112.523 26.7727H114.636V35.5H112.648V29.5511L109.165 35.5H107.046V26.7727H109.029V32.7159ZM120.076 35.6705C119.223 35.6705 118.485 35.483 117.86 35.108C117.235 34.733 116.75 34.2083 116.405 33.5341C116.064 32.8598 115.894 32.072 115.894 31.1705C115.894 30.2689 116.064 29.4792 116.405 28.8011C116.75 28.1231 117.235 27.5966 117.86 27.2216C118.485 26.8466 119.223 26.6591 120.076 26.6591C120.928 26.6591 121.666 26.8466 122.291 27.2216C122.916 27.5966 123.399 28.1231 123.74 28.8011C124.085 29.4792 124.257 30.2689 124.257 31.1705C124.257 32.072 124.085 32.8598 123.74 33.5341C123.399 34.2083 122.916 34.733 122.291 35.108C121.666 35.483 120.928 35.6705 120.076 35.6705ZM120.087 34.0227C120.549 34.0227 120.935 33.8958 121.246 33.642C121.557 33.3845 121.788 33.0398 121.939 32.608C122.094 32.1761 122.172 31.6951 122.172 31.1648C122.172 30.6307 122.094 30.1477 121.939 29.7159C121.788 29.2803 121.557 28.9337 121.246 28.6761C120.935 28.4186 120.549 28.2898 120.087 28.2898C119.613 28.2898 119.219 28.4186 118.905 28.6761C118.594 28.9337 118.361 29.2803 118.206 29.7159C118.055 30.1477 117.979 30.6307 117.979 31.1648C117.979 31.6951 118.055 32.1761 118.206 32.608C118.361 33.0398 118.594 33.3845 118.905 33.642C119.219 33.8958 119.613 34.0227 120.087 34.0227ZM124.921 35.5L124.909 33.8068H125.211C125.438 33.8068 125.629 33.7557 125.784 33.6534C125.94 33.5511 126.069 33.3807 126.171 33.142C126.273 32.8996 126.353 32.5739 126.409 32.1648C126.466 31.7557 126.506 31.2462 126.529 30.6364L126.682 26.7727H133.046V35.5H131.057V28.4602H128.551L128.415 31.2727C128.381 32 128.3 32.6307 128.171 33.1648C128.046 33.6951 127.868 34.1326 127.637 34.4773C127.409 34.822 127.123 35.0795 126.779 35.25C126.434 35.4167 126.027 35.5 125.557 35.5H124.921ZM138.444 35.6705C137.591 35.6705 136.853 35.483 136.228 35.108C135.603 34.733 135.118 34.2083 134.773 33.5341C134.432 32.8598 134.262 32.072 134.262 31.1705C134.262 30.2689 134.432 29.4792 134.773 28.8011C135.118 28.1231 135.603 27.5966 136.228 27.2216C136.853 26.8466 137.591 26.6591 138.444 26.6591C139.296 26.6591 140.035 26.8466 140.66 27.2216C141.285 27.5966 141.768 28.1231 142.108 28.8011C142.453 29.4792 142.625 30.2689 142.625 31.1705C142.625 32.072 142.453 32.8598 142.108 33.5341C141.768 34.2083 141.285 34.733 140.66 35.108C140.035 35.483 139.296 35.6705 138.444 35.6705ZM138.455 34.0227C138.917 34.0227 139.303 33.8958 139.614 33.642C139.925 33.3845 140.156 33.0398 140.307 32.608C140.463 32.1761 140.54 31.6951 140.54 31.1648C140.54 30.6307 140.463 30.1477 140.307 29.7159C140.156 29.2803 139.925 28.9337 139.614 28.6761C139.303 28.4186 138.917 28.2898 138.455 28.2898C137.982 28.2898 137.588 28.4186 137.273 28.6761C136.963 28.9337 136.73 29.2803 136.574 29.7159C136.423 30.1477 136.347 30.6307 136.347 31.1648C136.347 31.6951 136.423 32.1761 136.574 32.608C136.73 33.0398 136.963 33.3845 137.273 33.642C137.588 33.8958 137.982 34.0227 138.455 34.0227ZM149.664 26.7727V28.4602H145.903V35.5H143.891V26.7727H149.664ZM152.816 32.7159L156.31 26.7727H158.424V35.5H156.435V29.5511L152.952 35.5H150.833V26.7727H152.816V32.7159ZM165.215 35.5V28.4432H163.352C162.878 28.4432 162.515 28.553 162.261 28.7727C162.007 28.9924 161.882 29.2652 161.886 29.5909C161.882 29.9167 162.001 30.1856 162.244 30.3977C162.486 30.6098 162.833 30.7159 163.283 30.7159H165.863V32.2159H163.283C162.586 32.2159 161.984 32.1061 161.477 31.8864C160.969 31.6667 160.579 31.3561 160.306 30.9545C160.033 30.553 159.897 30.0833 159.897 29.5455C159.897 28.9848 160.035 28.4981 160.312 28.0852C160.592 27.6686 160.99 27.3466 161.505 27.1193C162.024 26.8883 162.64 26.7727 163.352 26.7727H167.141V35.5H165.215ZM159.579 35.5L162.016 31.0227H164.045L161.602 35.5H159.579Z" fill="#262626"/>
<path d="M97.4091 47.8636H99.0909L103.045 57.5227H103.182L107.136 47.8636H108.818V59.5H107.5V50.6591H107.386L103.75 59.5H102.477L98.8409 50.6591H98.7273V59.5H97.4091V47.8636ZM113.55 59.7045C112.997 59.7045 112.495 59.6004 112.044 59.392C111.593 59.1799 111.235 58.875 110.97 58.4773C110.705 58.0758 110.573 57.5909 110.573 57.0227C110.573 56.5227 110.671 56.1174 110.868 55.8068C111.065 55.4924 111.328 55.2462 111.658 55.0682C111.987 54.8902 112.351 54.7576 112.749 54.6705C113.15 54.5795 113.554 54.5076 113.959 54.4545C114.489 54.3864 114.919 54.3352 115.249 54.3011C115.582 54.2633 115.824 54.2008 115.976 54.1136C116.131 54.0265 116.209 53.875 116.209 53.6591V53.6136C116.209 53.053 116.056 52.6174 115.749 52.3068C115.446 51.9962 114.985 51.8409 114.368 51.8409C113.728 51.8409 113.226 51.9811 112.862 52.2614C112.499 52.5417 112.243 52.8409 112.095 53.1591L110.823 52.7045C111.05 52.1742 111.353 51.7614 111.732 51.4659C112.114 51.1667 112.531 50.9583 112.982 50.8409C113.436 50.7197 113.883 50.6591 114.323 50.6591C114.603 50.6591 114.925 50.6932 115.288 50.7614C115.656 50.8258 116.01 50.9602 116.351 51.1648C116.696 51.3693 116.982 51.678 117.209 52.0909C117.436 52.5038 117.55 53.0568 117.55 53.75V59.5H116.209V58.3182H116.141C116.05 58.5076 115.898 58.7102 115.686 58.9261C115.474 59.142 115.192 59.3258 114.84 59.4773C114.487 59.6288 114.057 59.7045 113.55 59.7045ZM113.754 58.5C114.285 58.5 114.732 58.3958 115.095 58.1875C115.463 57.9792 115.739 57.7102 115.925 57.3807C116.114 57.0511 116.209 56.7045 116.209 56.3409V55.1136C116.152 55.1818 116.027 55.2443 115.834 55.3011C115.645 55.3542 115.425 55.4015 115.175 55.4432C114.929 55.4811 114.688 55.5152 114.453 55.5455C114.222 55.572 114.035 55.5947 113.891 55.6136C113.542 55.6591 113.216 55.733 112.913 55.8352C112.614 55.9337 112.372 56.0833 112.186 56.2841C112.004 56.4811 111.913 56.75 111.913 57.0909C111.913 57.5568 112.086 57.9091 112.431 58.1477C112.779 58.3826 113.22 58.5 113.754 58.5ZM118.33 52.0227V50.7727H125.421V52.0227H122.557V59.5H121.216V52.0227H118.33ZM130.103 59.6818C129.262 59.6818 128.536 59.4962 127.926 59.125C127.32 58.75 126.853 58.2273 126.523 57.5568C126.197 56.8826 126.034 56.0985 126.034 55.2045C126.034 54.3106 126.197 53.5227 126.523 52.8409C126.853 52.1553 127.311 51.6212 127.898 51.2386C128.489 50.8523 129.178 50.6591 129.966 50.6591C130.421 50.6591 130.87 50.7348 131.313 50.8864C131.756 51.0379 132.159 51.2841 132.523 51.625C132.887 51.9621 133.176 52.4091 133.392 52.9659C133.608 53.5227 133.716 54.2083 133.716 55.0227V55.5909H126.989V54.4318H132.353C132.353 53.9394 132.254 53.5 132.057 53.1136C131.864 52.7273 131.587 52.4223 131.228 52.1989C130.872 51.9754 130.451 51.8636 129.966 51.8636C129.432 51.8636 128.97 51.9962 128.58 52.2614C128.194 52.5227 127.896 52.8636 127.688 53.2841C127.48 53.7045 127.375 54.1553 127.375 54.6364V55.4091C127.375 56.0682 127.489 56.6269 127.716 57.0852C127.947 57.5398 128.267 57.8864 128.676 58.125C129.086 58.3598 129.561 58.4773 130.103 58.4773C130.455 58.4773 130.773 58.428 131.057 58.3295C131.345 58.2273 131.593 58.0758 131.801 57.875C132.01 57.6705 132.171 57.4167 132.284 57.1136L133.58 57.4773C133.444 57.9167 133.214 58.303 132.892 58.6364C132.57 58.9659 132.173 59.2235 131.699 59.4091C131.226 59.5909 130.694 59.6818 130.103 59.6818ZM140.049 57.6818L143.094 50.7727H144.367L140.594 59.5H139.503L135.799 50.7727H137.049L140.049 57.6818ZM136.617 50.7727V59.5H135.276V50.7727H136.617ZM143.481 59.5V50.7727H144.821V59.5H143.481ZM149.364 59.7045C148.811 59.7045 148.309 59.6004 147.859 59.392C147.408 59.1799 147.05 58.875 146.785 58.4773C146.52 58.0758 146.387 57.5909 146.387 57.0227C146.387 56.5227 146.485 56.1174 146.682 55.8068C146.879 55.4924 147.143 55.2462 147.472 55.0682C147.802 54.8902 148.165 54.7576 148.563 54.6705C148.965 54.5795 149.368 54.5076 149.773 54.4545C150.304 54.3864 150.734 54.3352 151.063 54.3011C151.396 54.2633 151.639 54.2008 151.79 54.1136C151.946 54.0265 152.023 53.875 152.023 53.6591V53.6136C152.023 53.053 151.87 52.6174 151.563 52.3068C151.26 51.9962 150.8 51.8409 150.182 51.8409C149.542 51.8409 149.04 51.9811 148.677 52.2614C148.313 52.5417 148.057 52.8409 147.91 53.1591L146.637 52.7045C146.864 52.1742 147.167 51.7614 147.546 51.4659C147.929 51.1667 148.345 50.9583 148.796 50.8409C149.251 50.7197 149.698 50.6591 150.137 50.6591C150.417 50.6591 150.739 50.6932 151.103 50.7614C151.47 50.8258 151.824 50.9602 152.165 51.1648C152.51 51.3693 152.796 51.678 153.023 52.0909C153.251 52.5038 153.364 53.0568 153.364 53.75V59.5H152.023V58.3182H151.955C151.864 58.5076 151.713 58.7102 151.501 58.9261C151.288 59.142 151.006 59.3258 150.654 59.4773C150.302 59.6288 149.872 59.7045 149.364 59.7045ZM149.569 58.5C150.099 58.5 150.546 58.3958 150.91 58.1875C151.277 57.9792 151.554 57.7102 151.739 57.3807C151.929 57.0511 152.023 56.7045 152.023 56.3409V55.1136C151.966 55.1818 151.841 55.2443 151.648 55.3011C151.459 55.3542 151.239 55.4015 150.989 55.4432C150.743 55.4811 150.502 55.5152 150.268 55.5455C150.037 55.572 149.849 55.5947 149.705 55.6136C149.357 55.6591 149.031 55.733 148.728 55.8352C148.429 55.9337 148.186 56.0833 148.001 56.2841C147.819 56.4811 147.728 56.75 147.728 57.0909C147.728 57.5568 147.9 57.9091 148.245 58.1477C148.593 58.3826 149.035 58.5 149.569 58.5ZM154.144 52.0227V50.7727H161.235V52.0227H158.371V59.5H157.031V52.0227H154.144ZM164.052 57.5227L168.256 50.7727H169.802V59.5H168.461V52.75L164.279 59.5H162.711V50.7727H164.052V57.5227ZM171.778 59.5V50.7727H173.119V54.5682H174.005L177.142 50.7727H178.869L175.346 54.9773L178.914 59.5H177.187L174.323 55.8182H173.119V59.5H171.778ZM182.46 59.7045C181.907 59.7045 181.405 59.6004 180.954 59.392C180.503 59.1799 180.145 58.875 179.88 58.4773C179.615 58.0758 179.483 57.5909 179.483 57.0227C179.483 56.5227 179.581 56.1174 179.778 55.8068C179.975 55.4924 180.238 55.2462 180.568 55.0682C180.897 54.8902 181.261 54.7576 181.659 54.6705C182.06 54.5795 182.464 54.5076 182.869 54.4545C183.399 54.3864 183.829 54.3352 184.159 54.3011C184.492 54.2633 184.734 54.2008 184.886 54.1136C185.041 54.0265 185.119 53.875 185.119 53.6591V53.6136C185.119 53.053 184.966 52.6174 184.659 52.3068C184.356 51.9962 183.895 51.8409 183.278 51.8409C182.638 51.8409 182.136 51.9811 181.772 52.2614C181.409 52.5417 181.153 52.8409 181.005 53.1591L179.733 52.7045C179.96 52.1742 180.263 51.7614 180.642 51.4659C181.024 51.1667 181.441 50.9583 181.892 50.8409C182.346 50.7197 182.793 50.6591 183.233 50.6591C183.513 50.6591 183.835 50.6932 184.198 50.7614C184.566 50.8258 184.92 50.9602 185.261 51.1648C185.606 51.3693 185.892 51.678 186.119 52.0909C186.346 52.5038 186.46 53.0568 186.46 53.75V59.5H185.119V58.3182H185.051C184.96 58.5076 184.808 58.7102 184.596 58.9261C184.384 59.142 184.102 59.3258 183.75 59.4773C183.397 59.6288 182.967 59.7045 182.46 59.7045ZM182.664 58.5C183.195 58.5 183.642 58.3958 184.005 58.1875C184.373 57.9792 184.649 57.7102 184.835 57.3807C185.024 57.0511 185.119 56.7045 185.119 56.3409V55.1136C185.062 55.1818 184.937 55.2443 184.744 55.3011C184.555 55.3542 184.335 55.4015 184.085 55.4432C183.839 55.4811 183.598 55.5152 183.363 55.5455C183.132 55.572 182.945 55.5947 182.801 55.6136C182.452 55.6591 182.126 55.733 181.823 55.8352C181.524 55.9337 181.282 56.0833 181.096 56.2841C180.914 56.4811 180.823 56.75 180.823 57.0909C180.823 57.5568 180.996 57.9091 181.341 58.1477C181.689 58.3826 182.13 58.5 182.664 58.5ZM191.515 62V58.25H192.243C192.421 58.0644 192.574 57.8636 192.703 57.6477C192.832 57.4318 192.943 57.1761 193.038 56.8807C193.137 56.5814 193.22 56.2178 193.288 55.7898C193.356 55.358 193.417 54.8371 193.47 54.2273L193.765 50.7727H199.311V58.25H200.652V62H199.311V59.5H192.856V62H191.515ZM193.765 58.25H197.97V52.0227H195.015L194.788 54.2273C194.693 55.1402 194.576 55.9375 194.436 56.6193C194.296 57.3011 194.072 57.8447 193.765 58.25ZM201.179 59.5V58.25H201.497C201.758 58.25 201.976 58.1989 202.151 58.0966C202.325 57.9905 202.465 57.8068 202.571 57.5455C202.681 57.2803 202.764 56.9129 202.821 56.4432C202.882 55.9697 202.925 55.3674 202.952 54.6364L203.111 50.7727H208.929V59.5H207.588V52.0227H204.383L204.247 55.1364C204.217 55.8523 204.152 56.483 204.054 57.0284C203.959 57.5701 203.813 58.0246 203.616 58.392C203.423 58.7595 203.166 59.036 202.844 59.2216C202.522 59.4072 202.118 59.5 201.633 59.5H201.179ZM216.159 59.5V52H213.841C213.318 52 212.907 52.1212 212.608 52.3636C212.309 52.6061 212.159 52.9394 212.159 53.3636C212.159 53.7803 212.294 54.108 212.563 54.3466C212.835 54.5852 213.208 54.7045 213.682 54.7045H216.5V55.9545H213.682C213.091 55.9545 212.581 55.8504 212.153 55.642C211.725 55.4337 211.396 55.1364 211.165 54.75C210.934 54.3598 210.818 53.8977 210.818 53.3636C210.818 52.8258 210.939 52.3636 211.182 51.9773C211.424 51.5909 211.771 51.2936 212.222 51.0852C212.676 50.8769 213.216 50.7727 213.841 50.7727H217.432V59.5H216.159ZM210.341 59.5L212.818 55.1591H214.273L211.796 59.5H210.341ZM226.979 59.6818C226.161 59.6818 225.456 59.4886 224.865 59.1023C224.274 58.7159 223.82 58.1837 223.502 57.5057C223.184 56.8277 223.024 56.053 223.024 55.1818C223.024 54.2955 223.187 53.5133 223.513 52.8352C223.843 52.1534 224.301 51.6212 224.888 51.2386C225.479 50.8523 226.168 50.6591 226.956 50.6591C227.57 50.6591 228.123 50.7727 228.615 51C229.108 51.2273 229.511 51.5455 229.826 51.9545C230.14 52.3636 230.335 52.8409 230.411 53.3864H229.07C228.968 52.9886 228.74 52.6364 228.388 52.3295C228.04 52.0189 227.57 51.8636 226.979 51.8636C226.456 51.8636 225.998 52 225.604 52.2727C225.214 52.5417 224.909 52.9223 224.689 53.4148C224.473 53.9034 224.365 54.4773 224.365 55.1364C224.365 55.8106 224.471 56.3977 224.684 56.8977C224.899 57.3977 225.202 57.786 225.593 58.0625C225.987 58.339 226.449 58.4773 226.979 58.4773C227.327 58.4773 227.644 58.4167 227.928 58.2955C228.212 58.1742 228.452 58 228.649 57.7727C228.846 57.5455 228.987 57.2727 229.07 56.9545H230.411C230.335 57.4697 230.148 57.9337 229.848 58.3466C229.553 58.7557 229.161 59.0814 228.672 59.3239C228.187 59.5625 227.623 59.6818 226.979 59.6818ZM231.204 52.0227V50.7727H238.294V52.0227H235.431V59.5H234.09V52.0227H231.204ZM241.885 59.7045C241.332 59.7045 240.831 59.6004 240.38 59.392C239.929 59.1799 239.571 58.875 239.306 58.4773C239.041 58.0758 238.908 57.5909 238.908 57.0227C238.908 56.5227 239.007 56.1174 239.204 55.8068C239.401 55.4924 239.664 55.2462 239.993 55.0682C240.323 54.8902 240.687 54.7576 241.084 54.6705C241.486 54.5795 241.889 54.5076 242.295 54.4545C242.825 54.3864 243.255 54.3352 243.584 54.3011C243.918 54.2633 244.16 54.2008 244.312 54.1136C244.467 54.0265 244.545 53.875 244.545 53.6591V53.6136C244.545 53.053 244.391 52.6174 244.084 52.3068C243.781 51.9962 243.321 51.8409 242.704 51.8409C242.063 51.8409 241.562 51.9811 241.198 52.2614C240.834 52.5417 240.579 52.8409 240.431 53.1591L239.158 52.7045C239.385 52.1742 239.688 51.7614 240.067 51.4659C240.45 51.1667 240.867 50.9583 241.317 50.8409C241.772 50.7197 242.219 50.6591 242.658 50.6591C242.938 50.6591 243.26 50.6932 243.624 50.7614C243.992 50.8258 244.346 50.9602 244.687 51.1648C245.031 51.3693 245.317 51.678 245.545 52.0909C245.772 52.5038 245.885 53.0568 245.885 53.75V59.5H244.545V58.3182H244.476C244.385 58.5076 244.234 58.7102 244.022 58.9261C243.81 59.142 243.527 59.3258 243.175 59.4773C242.823 59.6288 242.393 59.7045 241.885 59.7045ZM242.09 58.5C242.62 58.5 243.067 58.3958 243.431 58.1875C243.798 57.9792 244.075 57.7102 244.26 57.3807C244.45 57.0511 244.545 56.7045 244.545 56.3409V55.1136C244.488 55.1818 244.363 55.2443 244.17 55.3011C243.98 55.3542 243.76 55.4015 243.51 55.4432C243.264 55.4811 243.024 55.5152 242.789 55.5455C242.558 55.572 242.37 55.5947 242.226 55.6136C241.878 55.6591 241.552 55.733 241.249 55.8352C240.95 55.9337 240.707 56.0833 240.522 56.2841C240.34 56.4811 240.249 56.75 240.249 57.0909C240.249 57.5568 240.421 57.9091 240.766 58.1477C241.115 58.3826 241.556 58.5 242.09 58.5ZM247.853 62.7727V50.7727H249.148V52.1591H249.307C249.406 52.0076 249.542 51.8144 249.717 51.5795C249.895 51.3409 250.148 51.1288 250.478 50.9432C250.811 50.7538 251.262 50.6591 251.83 50.6591C252.565 50.6591 253.213 50.8428 253.773 51.2102C254.334 51.5777 254.771 52.0985 255.086 52.7727C255.4 53.447 255.557 54.2424 255.557 55.1591C255.557 56.0833 255.4 56.8845 255.086 57.5625C254.771 58.2367 254.336 58.7595 253.779 59.1307C253.222 59.4981 252.58 59.6818 251.853 59.6818C251.292 59.6818 250.843 59.589 250.506 59.4034C250.169 59.214 249.91 59 249.728 58.7614C249.546 58.5189 249.406 58.3182 249.307 58.1591H249.194V62.7727H247.853ZM249.171 55.1364C249.171 55.7955 249.268 56.3769 249.461 56.8807C249.654 57.3807 249.936 57.7727 250.307 58.0568C250.679 58.3371 251.133 58.4773 251.671 58.4773C252.232 58.4773 252.699 58.3295 253.074 58.0341C253.453 57.7348 253.737 57.3333 253.927 56.8295C254.12 56.322 254.217 55.7576 254.217 55.1364C254.217 54.5227 254.122 53.9697 253.932 53.4773C253.747 52.9811 253.465 52.589 253.086 52.3011C252.711 52.0095 252.239 51.8636 251.671 51.8636C251.126 51.8636 250.667 52.0019 250.296 52.2784C249.925 52.5511 249.645 52.9337 249.455 53.4261C249.266 53.9148 249.171 54.4848 249.171 55.1364ZM257.123 50.7727H258.464V58.25H261.759V50.7727H263.1V58.25H266.396V50.7727H267.737V59.5H257.123V50.7727ZM271.046 57.5227L275.251 50.7727H276.796V59.5H275.455V52.75L271.274 59.5H269.705V50.7727H271.046V57.5227ZM279.772 50.7727L281.863 54.3409L283.954 50.7727H285.5L282.681 55.1364L285.5 59.5H283.954L281.863 56.1136L279.772 59.5H278.227L281 55.1364L278.227 50.7727H279.772ZM97.2273 75.5V66.7727H98.5682V70.5682H99.4545L102.591 66.7727H104.318L100.795 70.9773L104.364 75.5H102.636L99.7727 71.8182H98.5682V75.5H97.2273ZM104.568 75.5V74.25H104.886C105.148 74.25 105.366 74.1989 105.54 74.0966C105.714 73.9905 105.854 73.8068 105.96 73.5455C106.07 73.2803 106.154 72.9129 106.21 72.4432C106.271 71.9697 106.315 71.3674 106.341 70.6364L106.5 66.7727H112.318V75.5H110.977V68.0227H107.773L107.636 71.1364C107.606 71.8523 107.542 72.483 107.443 73.0284C107.349 73.5701 107.203 74.0246 107.006 74.392C106.813 74.7595 106.555 75.036 106.233 75.2216C105.911 75.4072 105.508 75.5 105.023 75.5H104.568ZM116.867 75.7045C116.314 75.7045 115.812 75.6004 115.361 75.392C114.91 75.1799 114.552 74.875 114.287 74.4773C114.022 74.0758 113.889 73.5909 113.889 73.0227C113.889 72.5227 113.988 72.1174 114.185 71.8068C114.382 71.4924 114.645 71.2462 114.975 71.0682C115.304 70.8902 115.668 70.7576 116.066 70.6705C116.467 70.5795 116.87 70.5076 117.276 70.4545C117.806 70.3864 118.236 70.3352 118.566 70.3011C118.899 70.2633 119.141 70.2008 119.293 70.1136C119.448 70.0265 119.526 69.875 119.526 69.6591V69.6136C119.526 69.053 119.372 68.6174 119.066 68.3068C118.763 67.9962 118.302 67.8409 117.685 67.8409C117.045 67.8409 116.543 67.9811 116.179 68.2614C115.816 68.5417 115.56 68.8409 115.412 69.1591L114.139 68.7045C114.367 68.1742 114.67 67.7614 115.049 67.4659C115.431 67.1667 115.848 66.9583 116.299 66.8409C116.753 66.7197 117.2 66.6591 117.639 66.6591C117.92 66.6591 118.242 66.6932 118.605 66.7614C118.973 66.8258 119.327 66.9602 119.668 67.1648C120.013 67.3693 120.299 67.678 120.526 68.0909C120.753 68.5038 120.867 69.0568 120.867 69.75V75.5H119.526V74.3182H119.458C119.367 74.5076 119.215 74.7102 119.003 74.9261C118.791 75.142 118.509 75.3258 118.156 75.4773C117.804 75.6288 117.374 75.7045 116.867 75.7045ZM117.071 74.5C117.602 74.5 118.049 74.3958 118.412 74.1875C118.78 73.9792 119.056 73.7102 119.242 73.3807C119.431 73.0511 119.526 72.7045 119.526 72.3409V71.1136C119.469 71.1818 119.344 71.2443 119.151 71.3011C118.961 71.3542 118.742 71.4015 118.492 71.4432C118.245 71.4811 118.005 71.5152 117.77 71.5455C117.539 71.572 117.352 71.5947 117.208 71.6136C116.859 71.6591 116.533 71.733 116.23 71.8352C115.931 71.9337 115.689 72.0833 115.503 72.2841C115.321 72.4811 115.23 72.75 115.23 73.0909C115.23 73.5568 115.403 73.9091 115.747 74.1477C116.096 74.3826 116.537 74.5 117.071 74.5ZM126.38 75.6818C125.561 75.6818 124.857 75.4886 124.266 75.1023C123.675 74.7159 123.221 74.1837 122.902 73.5057C122.584 72.8277 122.425 72.053 122.425 71.1818C122.425 70.2955 122.588 69.5133 122.914 68.8352C123.243 68.1534 123.702 67.6212 124.289 67.2386C124.88 66.8523 125.569 66.6591 126.357 66.6591C126.971 66.6591 127.524 66.7727 128.016 67C128.508 67.2273 128.912 67.5455 129.226 67.9545C129.541 68.3636 129.736 68.8409 129.811 69.3864H128.471C128.368 68.9886 128.141 68.6364 127.789 68.3295C127.44 68.0189 126.971 67.8636 126.38 67.8636C125.857 67.8636 125.399 68 125.005 68.2727C124.614 68.5417 124.31 68.9223 124.09 69.4148C123.874 69.9034 123.766 70.4773 123.766 71.1364C123.766 71.8106 123.872 72.3977 124.084 72.8977C124.3 73.3977 124.603 73.786 124.993 74.0625C125.387 74.339 125.849 74.4773 126.38 74.4773C126.728 74.4773 127.044 74.4167 127.328 74.2955C127.613 74.1742 127.853 74 128.05 73.7727C128.247 73.5455 128.387 73.2727 128.471 72.9545H129.811C129.736 73.4697 129.548 73.9337 129.249 74.3466C128.953 74.7557 128.561 75.0814 128.073 75.3239C127.588 75.5625 127.024 75.6818 126.38 75.6818ZM134.837 75.6818C134.019 75.6818 133.314 75.4886 132.723 75.1023C132.133 74.7159 131.678 74.1837 131.36 73.5057C131.042 72.8277 130.883 72.053 130.883 71.1818C130.883 70.2955 131.045 69.5133 131.371 68.8352C131.701 68.1534 132.159 67.6212 132.746 67.2386C133.337 66.8523 134.026 66.6591 134.814 66.6591C135.428 66.6591 135.981 66.7727 136.473 67C136.966 67.2273 137.369 67.5455 137.684 67.9545C137.998 68.3636 138.193 68.8409 138.269 69.3864H136.928C136.826 68.9886 136.598 68.6364 136.246 68.3295C135.898 68.0189 135.428 67.8636 134.837 67.8636C134.314 67.8636 133.856 68 133.462 68.2727C133.072 68.5417 132.767 68.9223 132.547 69.4148C132.331 69.9034 132.223 70.4773 132.223 71.1364C132.223 71.8106 132.33 72.3977 132.542 72.8977C132.758 73.3977 133.061 73.786 133.451 74.0625C133.845 74.339 134.307 74.4773 134.837 74.4773C135.186 74.4773 135.502 74.4167 135.786 74.2955C136.07 74.1742 136.311 74 136.508 73.7727C136.705 73.5455 136.845 73.2727 136.928 72.9545H138.269C138.193 73.4697 138.006 73.9337 137.706 74.3466C137.411 74.7557 137.019 75.0814 136.53 75.3239C136.045 75.5625 135.481 75.6818 134.837 75.6818ZM143.295 75.6818C142.507 75.6818 141.815 75.4943 141.221 75.1193C140.63 74.7443 140.168 74.2197 139.834 73.5455C139.505 72.8712 139.34 72.0833 139.34 71.1818C139.34 70.2727 139.505 69.4792 139.834 68.8011C140.168 68.1231 140.63 67.5966 141.221 67.2216C141.815 66.8466 142.507 66.6591 143.295 66.6591C144.082 66.6591 144.772 66.8466 145.363 67.2216C145.957 67.5966 146.42 68.1231 146.749 68.8011C147.082 69.4792 147.249 70.2727 147.249 71.1818C147.249 72.0833 147.082 72.8712 146.749 73.5455C146.42 74.2197 145.957 74.7443 145.363 75.1193C144.772 75.4943 144.082 75.6818 143.295 75.6818ZM143.295 74.4773C143.893 74.4773 144.386 74.3239 144.772 74.017C145.158 73.7102 145.444 73.3068 145.63 72.8068C145.815 72.3068 145.908 71.7652 145.908 71.1818C145.908 70.5985 145.815 70.0549 145.63 69.5511C145.444 69.0473 145.158 68.6402 144.772 68.3295C144.386 68.0189 143.893 67.8636 143.295 67.8636C142.696 67.8636 142.204 68.0189 141.817 68.3295C141.431 68.6402 141.145 69.0473 140.959 69.5511C140.774 70.0549 140.681 70.5985 140.681 71.1818C140.681 71.7652 140.774 72.3068 140.959 72.8068C141.145 73.3068 141.431 73.7102 141.817 74.017C142.204 74.3239 142.696 74.4773 143.295 74.4773ZM148.816 75.5V66.7727H152.384C153.324 66.7727 154.07 66.9848 154.623 67.4091C155.176 67.8333 155.452 68.3939 155.452 69.0909C155.452 69.6212 155.295 70.0322 154.981 70.3239C154.666 70.6117 154.263 70.8068 153.771 70.9091C154.093 70.9545 154.405 71.0682 154.708 71.25C155.015 71.4318 155.269 71.6818 155.469 72C155.67 72.3144 155.771 72.7008 155.771 73.1591C155.771 73.6061 155.657 74.0057 155.43 74.358C155.202 74.7102 154.877 74.9886 154.452 75.1932C154.028 75.3977 153.521 75.5 152.93 75.5H148.816ZM150.089 74.2727H152.93C153.392 74.2727 153.754 74.1629 154.015 73.9432C154.276 73.7235 154.407 73.4242 154.407 73.0455C154.407 72.5947 154.276 72.2405 154.015 71.983C153.754 71.7216 153.392 71.5909 152.93 71.5909H150.089V74.2727ZM150.089 70.4318H152.384C152.744 70.4318 153.053 70.3826 153.31 70.2841C153.568 70.1818 153.765 70.0379 153.901 69.8523C154.041 69.6629 154.111 69.4394 154.111 69.1818C154.111 68.8144 153.958 68.5265 153.651 68.3182C153.344 68.1061 152.922 68 152.384 68H150.089V70.4318Z" fill="#626262"/>
</svg>
