<svg width="341" height="96" viewBox="0 0 341 96" fill="none" xmlns="http://www.w3.org/2000/svg">
<rect width="341" height="96" rx="16" fill="white"/>
<path d="M40.544 40.544C40.6853 40.4027 40.9387 40.2267 41.744 40.1173C42.6053 40.0027 43.7733 40 45.5813 40H50.5413C52.3493 40 53.5173 40.0027 54.376 40.12C55.184 40.2267 55.4373 40.4027 55.576 40.5467C55.72 40.6853 55.896 40.9387 56.0027 41.7467C56.12 42.6053 56.1227 43.7733 56.1227 45.5813V50.5413C56.1227 52.3493 56.12 53.5173 56.0027 54.376C55.896 55.184 55.72 55.4373 55.576 55.576C55.4373 55.72 55.184 55.896 54.376 56.0027C53.5173 56.12 52.3493 56.1227 50.5413 56.1227H45.5813C43.7733 56.1227 42.6053 56.12 41.7467 56.0027C40.9387 55.896 40.6853 55.72 40.5467 55.576C40.4027 55.4373 40.2267 55.184 40.12 54.376C40.0027 53.5173 40 52.3493 40 50.5413V45.5813C40 43.7733 40.0027 42.6053 40.12 41.7467C40.2267 40.9387 40.4027 40.6853 40.5467 40.5467" fill="#6A63F5"/>
<path fill-rule="evenodd" clip-rule="evenodd" d="M47.6667 21C48.6933 21 49.528 21.832 49.528 22.8613V30.3013C50.8862 30.3031 52.1262 30.3182 53.248 30.3467V22.8613C53.2662 22.3802 53.4702 21.9249 53.817 21.5909C54.1638 21.257 54.6265 21.0704 55.108 21.0704C55.5895 21.0704 56.0522 21.257 56.399 21.5909C56.7458 21.9249 56.9498 22.3802 56.968 22.8613V30.3013C56.9661 30.3976 56.959 30.4938 56.9467 30.5893C59.4427 30.896 61.1733 31.5307 62.488 32.8453C63.8027 34.16 64.4373 35.8907 64.744 38.3867C64.8395 38.3744 64.9357 38.3672 65.032 38.3653H72.472C72.9531 38.3836 73.4085 38.5875 73.7424 38.9343C74.0763 39.2811 74.2629 39.7439 74.2629 40.2253C74.2629 40.7068 74.0763 41.1695 73.7424 41.5163C73.4085 41.8632 72.9531 42.0671 72.472 42.0853H64.9867C65.0169 43.2053 65.032 44.4453 65.032 45.8053H72.472C72.9657 45.8053 73.4391 46.0014 73.7882 46.3505C74.1372 46.6996 74.3333 47.173 74.3333 47.6667C74.3333 48.1603 74.1372 48.6338 73.7882 48.9828C73.4391 49.3319 72.9657 49.528 72.472 49.528H65.032C65.0302 50.8862 65.0151 52.1262 64.9867 53.248H72.472C72.9531 53.2662 73.4085 53.4702 73.7424 53.817C74.0763 54.1638 74.2629 54.6265 74.2629 55.108C74.2629 55.5895 74.0763 56.0522 73.7424 56.399C73.4085 56.7458 72.9531 56.9498 72.472 56.968H65.032C64.9357 56.9661 64.8395 56.959 64.744 56.9467C64.4373 59.4427 63.8027 61.1733 62.488 62.488C61.1733 63.8027 59.4427 64.4373 56.9467 64.744C56.9627 64.8382 56.9698 64.9342 56.968 65.032V72.472C56.9498 72.9531 56.7458 73.4085 56.399 73.7424C56.0522 74.0763 55.5895 74.2629 55.108 74.2629C54.6265 74.2629 54.1638 74.0763 53.817 73.7424C53.4702 73.4085 53.2662 72.9531 53.248 72.472V64.9867C52.128 65.0169 50.888 65.032 49.528 65.032V72.472C49.528 72.9657 49.3319 73.4391 48.9828 73.7882C48.6338 74.1372 48.1603 74.3333 47.6667 74.3333C47.173 74.3333 46.6996 74.1372 46.3505 73.7882C46.0014 73.4391 45.8053 72.9657 45.8053 72.472V65.032C44.5652 65.0323 43.3251 65.0172 42.0853 64.9867V72.472C42.0671 72.9531 41.8632 73.4085 41.5163 73.7424C41.1695 74.0763 40.7068 74.2629 40.2253 74.2629C39.7439 74.2629 39.2811 74.0763 38.9343 73.7424C38.5875 73.4085 38.3836 72.9531 38.3653 72.472V65.032C38.3653 64.9324 38.3724 64.8364 38.3867 64.744C35.8907 64.4373 34.16 63.8027 32.8453 62.488C31.5307 61.1733 30.896 59.4427 30.5893 56.9467C30.4938 56.959 30.3976 56.9661 30.3013 56.968H22.8613C22.3802 56.9498 21.9249 56.7458 21.5909 56.399C21.257 56.0522 21.0704 55.5895 21.0704 55.108C21.0704 54.6265 21.257 54.1638 21.5909 53.817C21.9249 53.4702 22.3802 53.2662 22.8613 53.248H30.3467C30.3161 52.0082 30.301 50.7681 30.3013 49.528H22.8613C22.3677 49.528 21.8942 49.3319 21.5452 48.9828C21.1961 48.6338 21 48.1603 21 47.6667C21 47.173 21.1961 46.6996 21.5452 46.3505C21.8942 46.0014 22.3677 45.8053 22.8613 45.8053H30.3013C30.3031 44.4471 30.3182 43.2071 30.3467 42.0853H22.8613C22.3802 42.0671 21.9249 41.8632 21.5909 41.5163C21.257 41.1695 21.0704 40.7068 21.0704 40.2253C21.0704 39.7439 21.257 39.2811 21.5909 38.9343C21.9249 38.5875 22.3802 38.3836 22.8613 38.3653H30.3013C30.4009 38.3653 30.4969 38.3724 30.5893 38.3867C30.896 35.8907 31.5307 34.16 32.8453 32.8453C34.16 31.5307 35.8907 30.896 38.3867 30.5893C38.3744 30.4938 38.3672 30.3976 38.3653 30.3013V22.8613C38.3836 22.3802 38.5875 21.9249 38.9343 21.5909C39.2811 21.257 39.7439 21.0704 40.2253 21.0704C40.7068 21.0704 41.1695 21.257 41.5163 21.5909C41.8632 21.9249 42.0671 22.3802 42.0853 22.8613V30.3467C43.2053 30.3164 44.4453 30.3013 45.8053 30.3013V22.8613C45.8053 21.832 46.64 21 47.6667 21ZM45.064 35.8827C43.4133 35.8827 41.992 35.8827 40.856 36.0373C39.6347 36.2 38.4667 36.5707 37.5173 37.5173C36.5707 38.4667 36.2 39.6347 36.0373 40.856C35.8827 41.9947 35.8827 43.416 35.8827 45.064V50.2693C35.8827 51.92 35.8827 53.3387 36.0373 54.4773C36.2 55.6987 36.5707 56.8667 37.5173 57.816C38.4667 58.7627 39.6347 59.1333 40.856 59.296C41.992 59.4507 43.416 59.4507 45.064 59.4507H50.2693C51.92 59.4507 53.3387 59.4507 54.4773 59.296C55.6987 59.1333 56.8667 58.7627 57.816 57.816C58.7627 56.8667 59.1333 55.6987 59.296 54.4773C59.4507 53.3387 59.4507 51.9173 59.4507 50.2693V45.064C59.4507 43.4133 59.4507 41.9947 59.296 40.856C59.1333 39.6347 58.7627 38.4667 57.816 37.5173C56.8667 36.5707 55.6987 36.2 54.4773 36.0373C53.3387 35.8827 51.9173 35.8827 50.2693 35.8827H45.064Z" fill="#6A63F5"/>
<path d="M97.1477 23.8636H99.2386V31.7955H99.3466L104.818 23.8636H106.71V35.5H104.602V27.5739H104.506L99.017 35.5H97.1477V23.8636ZM114.431 30.2841V31.9716H109.783V30.2841H114.431ZM110.419 26.7727V35.5H108.436V26.7727H110.419ZM115.777 26.7727V35.5H113.8V26.7727H115.777ZM121.338 38.4659V23.8636H123.401V38.4659H121.338ZM121.338 35.6705C120.698 35.6705 120.113 35.5625 119.583 35.3466C119.052 35.1307 118.594 34.8239 118.208 34.4261C117.825 34.0284 117.528 33.5549 117.316 33.0057C117.107 32.4527 117.003 31.8409 117.003 31.1705C117.003 30.5 117.107 29.8883 117.316 29.3352C117.528 28.7822 117.825 28.3068 118.208 27.9091C118.594 27.5076 119.052 27.1989 119.583 26.983C120.113 26.767 120.698 26.6591 121.338 26.6591H121.776V35.6705H121.338ZM121.338 34.0114H121.594V28.3182H121.338C120.975 28.3182 120.653 28.3939 120.372 28.5455C120.096 28.6932 119.863 28.8996 119.674 29.1648C119.488 29.4261 119.346 29.7292 119.247 30.0739C119.153 30.4148 119.105 30.7803 119.105 31.1705C119.105 31.6894 119.191 32.1648 119.361 32.5966C119.531 33.0246 119.781 33.3674 120.111 33.625C120.444 33.8826 120.853 34.0114 121.338 34.0114ZM123.401 35.6705H122.963V26.6591H123.401C124.041 26.6591 124.626 26.767 125.156 26.983C125.687 27.1989 126.143 27.5076 126.526 27.9091C126.912 28.3068 127.21 28.7822 127.418 29.3352C127.63 29.8883 127.736 30.5 127.736 31.1705C127.736 31.8409 127.63 32.4527 127.418 33.0057C127.21 33.5549 126.912 34.0284 126.526 34.4261C126.143 34.8239 125.687 35.1307 125.156 35.3466C124.626 35.5625 124.041 35.6705 123.401 35.6705ZM123.401 34.0114C123.768 34.0114 124.09 33.9375 124.367 33.7898C124.643 33.642 124.874 33.4375 125.06 33.1761C125.249 32.9148 125.391 32.6136 125.486 32.2727C125.581 31.928 125.628 31.5606 125.628 31.1705C125.628 30.6515 125.545 30.1761 125.378 29.7443C125.211 29.3125 124.961 28.9678 124.628 28.7102C124.299 28.4489 123.889 28.3182 123.401 28.3182H123.145V34.0114H123.401ZM132.799 35.6705C131.946 35.6705 131.208 35.483 130.583 35.108C129.958 34.733 129.473 34.2083 129.128 33.5341C128.787 32.8598 128.617 32.072 128.617 31.1705C128.617 30.2689 128.787 29.4792 129.128 28.8011C129.473 28.1231 129.958 27.5966 130.583 27.2216C131.208 26.8466 131.946 26.6591 132.799 26.6591C133.651 26.6591 134.39 26.8466 135.015 27.2216C135.64 27.5966 136.122 28.1231 136.463 28.8011C136.808 29.4792 136.98 30.2689 136.98 31.1705C136.98 32.072 136.808 32.8598 136.463 33.5341C136.122 34.2083 135.64 34.733 135.015 35.108C134.39 35.483 133.651 35.6705 132.799 35.6705ZM132.81 34.0227C133.272 34.0227 133.658 33.8958 133.969 33.642C134.28 33.3845 134.511 33.0398 134.662 32.608C134.818 32.1761 134.895 31.6951 134.895 31.1648C134.895 30.6307 134.818 30.1477 134.662 29.7159C134.511 29.2803 134.28 28.9337 133.969 28.6761C133.658 28.4186 133.272 28.2898 132.81 28.2898C132.337 28.2898 131.943 28.4186 131.628 28.6761C131.318 28.9337 131.085 29.2803 130.929 29.7159C130.778 30.1477 130.702 30.6307 130.702 31.1648C130.702 31.6951 130.778 32.1761 130.929 32.608C131.085 33.0398 131.318 33.3845 131.628 33.642C131.943 33.8958 132.337 34.0227 132.81 34.0227ZM138.246 38.7727V26.7727H140.269V28.2159H140.388C140.494 28.0038 140.644 27.7784 140.837 27.5398C141.03 27.2973 141.292 27.0909 141.621 26.9205C141.951 26.7462 142.371 26.6591 142.883 26.6591C143.557 26.6591 144.165 26.8314 144.706 27.1761C145.252 27.517 145.684 28.0227 146.002 28.6932C146.324 29.3598 146.485 30.178 146.485 31.1477C146.485 32.1061 146.328 32.9205 146.013 33.5909C145.699 34.2614 145.271 34.7727 144.729 35.125C144.187 35.4773 143.574 35.6534 142.888 35.6534C142.388 35.6534 141.973 35.5701 141.644 35.4034C141.314 35.2367 141.049 35.036 140.848 34.8011C140.651 34.5625 140.498 34.3371 140.388 34.125H140.303V38.7727H138.246ZM140.263 31.1364C140.263 31.7008 140.343 32.1951 140.502 32.6193C140.665 33.0436 140.898 33.375 141.201 33.6136C141.508 33.8485 141.879 33.9659 142.314 33.9659C142.769 33.9659 143.15 33.8447 143.456 33.6023C143.763 33.3561 143.994 33.0208 144.15 32.5966C144.309 32.1686 144.388 31.6818 144.388 31.1364C144.388 30.5947 144.311 30.1136 144.155 29.6932C144 29.2727 143.769 28.9432 143.462 28.7045C143.155 28.4659 142.773 28.3466 142.314 28.3466C141.875 28.3466 141.502 28.4621 141.195 28.6932C140.888 28.9242 140.655 29.2481 140.496 29.6648C140.341 30.0814 140.263 30.572 140.263 31.1364ZM152.789 33.108L155.38 26.7727H157.039L153.511 35.5H152.073L148.624 26.7727H150.266L152.789 33.108ZM149.749 26.7727V35.5H147.766V26.7727H149.749ZM155.914 35.5V26.7727H157.88V35.5H155.914ZM161.985 35.6761C161.432 35.6761 160.934 35.5777 160.491 35.3807C160.051 35.1799 159.703 34.8845 159.445 34.4943C159.191 34.1042 159.065 33.6231 159.065 33.0511C159.065 32.5587 159.156 32.1515 159.337 31.8295C159.519 31.5076 159.767 31.25 160.082 31.0568C160.396 30.8636 160.75 30.7178 161.144 30.6193C161.542 30.517 161.953 30.4432 162.377 30.3977C162.888 30.3447 163.303 30.2973 163.621 30.2557C163.94 30.2102 164.171 30.142 164.315 30.0511C164.462 29.9564 164.536 29.8106 164.536 29.6136V29.5795C164.536 29.1515 164.409 28.8201 164.156 28.5852C163.902 28.3504 163.536 28.233 163.059 28.233C162.555 28.233 162.156 28.3428 161.86 28.5625C161.568 28.7822 161.371 29.0417 161.269 29.3409L159.349 29.0682C159.5 28.5379 159.75 28.0947 160.099 27.7386C160.447 27.3788 160.873 27.1098 161.377 26.9318C161.881 26.75 162.438 26.6591 163.048 26.6591C163.468 26.6591 163.887 26.7083 164.303 26.8068C164.72 26.9053 165.101 27.0682 165.445 27.2955C165.79 27.5189 166.066 27.8239 166.275 28.2102C166.487 28.5966 166.593 29.0795 166.593 29.6591V35.5H164.616V34.3011H164.548C164.423 34.5436 164.246 34.7708 164.019 34.983C163.796 35.1913 163.513 35.3598 163.173 35.4886C162.835 35.6136 162.44 35.6761 161.985 35.6761ZM162.519 34.1648C162.932 34.1648 163.29 34.0833 163.593 33.9205C163.896 33.7538 164.129 33.5341 164.292 33.2614C164.459 32.9886 164.542 32.6913 164.542 32.3693V31.3409C164.477 31.3939 164.368 31.4432 164.212 31.4886C164.061 31.5341 163.89 31.5739 163.701 31.608C163.512 31.642 163.324 31.6723 163.138 31.6989C162.953 31.7254 162.792 31.7481 162.656 31.767C162.349 31.8087 162.074 31.8769 161.832 31.9716C161.589 32.0663 161.398 32.1989 161.258 32.3693C161.118 32.536 161.048 32.7519 161.048 33.017C161.048 33.3958 161.186 33.6818 161.462 33.875C161.739 34.0682 162.091 34.1648 162.519 34.1648ZM167.204 28.4602V26.7727H174.84V28.4602H172.016V35.5H170.028V28.4602H167.204ZM177.981 32.7159L181.475 26.7727H183.589V35.5H181.6V29.5511L178.117 35.5H175.998V26.7727H177.981V32.7159ZM185.221 35.5V26.7727H187.278V30.2955H188.028L190.653 26.7727H193.13L189.897 31.0568L193.164 35.5H190.676L188.284 32.2102H187.278V35.5H185.221ZM196.362 35.6761C195.809 35.6761 195.311 35.5777 194.868 35.3807C194.428 35.1799 194.08 34.8845 193.822 34.4943C193.568 34.1042 193.441 33.6231 193.441 33.0511C193.441 32.5587 193.532 32.1515 193.714 31.8295C193.896 31.5076 194.144 31.25 194.459 31.0568C194.773 30.8636 195.127 30.7178 195.521 30.6193C195.919 30.517 196.33 30.4432 196.754 30.3977C197.265 30.3447 197.68 30.2973 197.998 30.2557C198.316 30.2102 198.548 30.142 198.691 30.0511C198.839 29.9564 198.913 29.8106 198.913 29.6136V29.5795C198.913 29.1515 198.786 28.8201 198.532 28.5852C198.279 28.3504 197.913 28.233 197.436 28.233C196.932 28.233 196.532 28.3428 196.237 28.5625C195.945 28.7822 195.748 29.0417 195.646 29.3409L193.726 29.0682C193.877 28.5379 194.127 28.0947 194.476 27.7386C194.824 27.3788 195.25 27.1098 195.754 26.9318C196.258 26.75 196.815 26.6591 197.424 26.6591C197.845 26.6591 198.263 26.7083 198.68 26.8068C199.097 26.9053 199.477 27.0682 199.822 27.2955C200.167 27.5189 200.443 27.8239 200.652 28.2102C200.864 28.5966 200.97 29.0795 200.97 29.6591V35.5H198.993V34.3011H198.924C198.799 34.5436 198.623 34.7708 198.396 34.983C198.173 35.1913 197.89 35.3598 197.549 35.4886C197.212 35.6136 196.816 35.6761 196.362 35.6761ZM196.896 34.1648C197.309 34.1648 197.667 34.0833 197.97 33.9205C198.273 33.7538 198.506 33.5341 198.669 33.2614C198.835 32.9886 198.919 32.6913 198.919 32.3693V31.3409C198.854 31.3939 198.745 31.4432 198.589 31.4886C198.438 31.5341 198.267 31.5739 198.078 31.608C197.888 31.642 197.701 31.6723 197.515 31.6989C197.33 31.7254 197.169 31.7481 197.032 31.767C196.726 31.8087 196.451 31.8769 196.209 31.9716C195.966 32.0663 195.775 32.1989 195.635 32.3693C195.495 32.536 195.424 32.7519 195.424 33.017C195.424 33.3958 195.563 33.6818 195.839 33.875C196.116 34.0682 196.468 34.1648 196.896 34.1648Z" fill="#262626"/>
<path d="M97.4091 47.8636H99.0909L103.045 57.5227H103.182L107.136 47.8636H108.818V59.5H107.5V50.6591H107.386L103.75 59.5H102.477L98.8409 50.6591H98.7273V59.5H97.4091V47.8636ZM113.55 59.7045C112.997 59.7045 112.495 59.6004 112.044 59.392C111.593 59.1799 111.235 58.875 110.97 58.4773C110.705 58.0758 110.573 57.5909 110.573 57.0227C110.573 56.5227 110.671 56.1174 110.868 55.8068C111.065 55.4924 111.328 55.2462 111.658 55.0682C111.987 54.8902 112.351 54.7576 112.749 54.6705C113.15 54.5795 113.554 54.5076 113.959 54.4545C114.489 54.3864 114.919 54.3352 115.249 54.3011C115.582 54.2633 115.824 54.2008 115.976 54.1136C116.131 54.0265 116.209 53.875 116.209 53.6591V53.6136C116.209 53.053 116.056 52.6174 115.749 52.3068C115.446 51.9962 114.985 51.8409 114.368 51.8409C113.728 51.8409 113.226 51.9811 112.862 52.2614C112.499 52.5417 112.243 52.8409 112.095 53.1591L110.823 52.7045C111.05 52.1742 111.353 51.7614 111.732 51.4659C112.114 51.1667 112.531 50.9583 112.982 50.8409C113.436 50.7197 113.883 50.6591 114.323 50.6591C114.603 50.6591 114.925 50.6932 115.288 50.7614C115.656 50.8258 116.01 50.9602 116.351 51.1648C116.696 51.3693 116.982 51.678 117.209 52.0909C117.436 52.5038 117.55 53.0568 117.55 53.75V59.5H116.209V58.3182H116.141C116.05 58.5076 115.898 58.7102 115.686 58.9261C115.474 59.142 115.192 59.3258 114.84 59.4773C114.487 59.6288 114.057 59.7045 113.55 59.7045ZM113.754 58.5C114.285 58.5 114.732 58.3958 115.095 58.1875C115.463 57.9792 115.739 57.7102 115.925 57.3807C116.114 57.0511 116.209 56.7045 116.209 56.3409V55.1136C116.152 55.1818 116.027 55.2443 115.834 55.3011C115.645 55.3542 115.425 55.4015 115.175 55.4432C114.929 55.4811 114.688 55.5152 114.453 55.5455C114.222 55.572 114.035 55.5947 113.891 55.6136C113.542 55.6591 113.216 55.733 112.913 55.8352C112.614 55.9337 112.372 56.0833 112.186 56.2841C112.004 56.4811 111.913 56.75 111.913 57.0909C111.913 57.5568 112.086 57.9091 112.431 58.1477C112.779 58.3826 113.22 58.5 113.754 58.5ZM118.33 52.0227V50.7727H125.421V52.0227H122.557V59.5H121.216V52.0227H118.33ZM130.103 59.6818C129.262 59.6818 128.536 59.4962 127.926 59.125C127.32 58.75 126.853 58.2273 126.523 57.5568C126.197 56.8826 126.034 56.0985 126.034 55.2045C126.034 54.3106 126.197 53.5227 126.523 52.8409C126.853 52.1553 127.311 51.6212 127.898 51.2386C128.489 50.8523 129.178 50.6591 129.966 50.6591C130.421 50.6591 130.87 50.7348 131.313 50.8864C131.756 51.0379 132.159 51.2841 132.523 51.625C132.887 51.9621 133.176 52.4091 133.392 52.9659C133.608 53.5227 133.716 54.2083 133.716 55.0227V55.5909H126.989V54.4318H132.353C132.353 53.9394 132.254 53.5 132.057 53.1136C131.864 52.7273 131.587 52.4223 131.228 52.1989C130.872 51.9754 130.451 51.8636 129.966 51.8636C129.432 51.8636 128.97 51.9962 128.58 52.2614C128.194 52.5227 127.896 52.8636 127.688 53.2841C127.48 53.7045 127.375 54.1553 127.375 54.6364V55.4091C127.375 56.0682 127.489 56.6269 127.716 57.0852C127.947 57.5398 128.267 57.8864 128.676 58.125C129.086 58.3598 129.561 58.4773 130.103 58.4773C130.455 58.4773 130.773 58.428 131.057 58.3295C131.345 58.2273 131.593 58.0758 131.801 57.875C132.01 57.6705 132.171 57.4167 132.284 57.1136L133.58 57.4773C133.444 57.9167 133.214 58.303 132.892 58.6364C132.57 58.9659 132.173 59.2235 131.699 59.4091C131.226 59.5909 130.694 59.6818 130.103 59.6818ZM140.049 57.6818L143.094 50.7727H144.367L140.594 59.5H139.503L135.799 50.7727H137.049L140.049 57.6818ZM136.617 50.7727V59.5H135.276V50.7727H136.617ZM143.481 59.5V50.7727H144.821V59.5H143.481ZM149.364 59.7045C148.811 59.7045 148.309 59.6004 147.859 59.392C147.408 59.1799 147.05 58.875 146.785 58.4773C146.52 58.0758 146.387 57.5909 146.387 57.0227C146.387 56.5227 146.485 56.1174 146.682 55.8068C146.879 55.4924 147.143 55.2462 147.472 55.0682C147.802 54.8902 148.165 54.7576 148.563 54.6705C148.965 54.5795 149.368 54.5076 149.773 54.4545C150.304 54.3864 150.734 54.3352 151.063 54.3011C151.396 54.2633 151.639 54.2008 151.79 54.1136C151.946 54.0265 152.023 53.875 152.023 53.6591V53.6136C152.023 53.053 151.87 52.6174 151.563 52.3068C151.26 51.9962 150.8 51.8409 150.182 51.8409C149.542 51.8409 149.04 51.9811 148.677 52.2614C148.313 52.5417 148.057 52.8409 147.91 53.1591L146.637 52.7045C146.864 52.1742 147.167 51.7614 147.546 51.4659C147.929 51.1667 148.345 50.9583 148.796 50.8409C149.251 50.7197 149.698 50.6591 150.137 50.6591C150.417 50.6591 150.739 50.6932 151.103 50.7614C151.47 50.8258 151.824 50.9602 152.165 51.1648C152.51 51.3693 152.796 51.678 153.023 52.0909C153.251 52.5038 153.364 53.0568 153.364 53.75V59.5H152.023V58.3182H151.955C151.864 58.5076 151.713 58.7102 151.501 58.9261C151.288 59.142 151.006 59.3258 150.654 59.4773C150.302 59.6288 149.872 59.7045 149.364 59.7045ZM149.569 58.5C150.099 58.5 150.546 58.3958 150.91 58.1875C151.277 57.9792 151.554 57.7102 151.739 57.3807C151.929 57.0511 152.023 56.7045 152.023 56.3409V55.1136C151.966 55.1818 151.841 55.2443 151.648 55.3011C151.459 55.3542 151.239 55.4015 150.989 55.4432C150.743 55.4811 150.502 55.5152 150.268 55.5455C150.037 55.572 149.849 55.5947 149.705 55.6136C149.357 55.6591 149.031 55.733 148.728 55.8352C148.429 55.9337 148.186 56.0833 148.001 56.2841C147.819 56.4811 147.728 56.75 147.728 57.0909C147.728 57.5568 147.9 57.9091 148.245 58.1477C148.593 58.3826 149.035 58.5 149.569 58.5ZM154.144 52.0227V50.7727H161.235V52.0227H158.371V59.5H157.031V52.0227H154.144ZM164.052 57.5227L168.256 50.7727H169.802V59.5H168.461V52.75L164.279 59.5H162.711V50.7727H164.052V57.5227ZM171.778 59.5V50.7727H173.119V54.5682H174.005L177.142 50.7727H178.869L175.346 54.9773L178.914 59.5H177.187L174.323 55.8182H173.119V59.5H171.778ZM182.46 59.7045C181.907 59.7045 181.405 59.6004 180.954 59.392C180.503 59.1799 180.145 58.875 179.88 58.4773C179.615 58.0758 179.483 57.5909 179.483 57.0227C179.483 56.5227 179.581 56.1174 179.778 55.8068C179.975 55.4924 180.238 55.2462 180.568 55.0682C180.897 54.8902 181.261 54.7576 181.659 54.6705C182.06 54.5795 182.464 54.5076 182.869 54.4545C183.399 54.3864 183.829 54.3352 184.159 54.3011C184.492 54.2633 184.734 54.2008 184.886 54.1136C185.041 54.0265 185.119 53.875 185.119 53.6591V53.6136C185.119 53.053 184.966 52.6174 184.659 52.3068C184.356 51.9962 183.895 51.8409 183.278 51.8409C182.638 51.8409 182.136 51.9811 181.772 52.2614C181.409 52.5417 181.153 52.8409 181.005 53.1591L179.733 52.7045C179.96 52.1742 180.263 51.7614 180.642 51.4659C181.024 51.1667 181.441 50.9583 181.892 50.8409C182.346 50.7197 182.793 50.6591 183.233 50.6591C183.513 50.6591 183.835 50.6932 184.198 50.7614C184.566 50.8258 184.92 50.9602 185.261 51.1648C185.606 51.3693 185.892 51.678 186.119 52.0909C186.346 52.5038 186.46 53.0568 186.46 53.75V59.5H185.119V58.3182H185.051C184.96 58.5076 184.808 58.7102 184.596 58.9261C184.384 59.142 184.102 59.3258 183.75 59.4773C183.397 59.6288 182.967 59.7045 182.46 59.7045ZM182.664 58.5C183.195 58.5 183.642 58.3958 184.005 58.1875C184.373 57.9792 184.649 57.7102 184.835 57.3807C185.024 57.0511 185.119 56.7045 185.119 56.3409V55.1136C185.062 55.1818 184.937 55.2443 184.744 55.3011C184.555 55.3542 184.335 55.4015 184.085 55.4432C183.839 55.4811 183.598 55.5152 183.363 55.5455C183.132 55.572 182.945 55.5947 182.801 55.6136C182.452 55.6591 182.126 55.733 181.823 55.8352C181.524 55.9337 181.282 56.0833 181.096 56.2841C180.914 56.4811 180.823 56.75 180.823 57.0909C180.823 57.5568 180.996 57.9091 181.341 58.1477C181.689 58.3826 182.13 58.5 182.664 58.5ZM191.515 62V58.25H192.243C192.421 58.0644 192.574 57.8636 192.703 57.6477C192.832 57.4318 192.943 57.1761 193.038 56.8807C193.137 56.5814 193.22 56.2178 193.288 55.7898C193.356 55.358 193.417 54.8371 193.47 54.2273L193.765 50.7727H199.311V58.25H200.652V62H199.311V59.5H192.856V62H191.515ZM193.765 58.25H197.97V52.0227H195.015L194.788 54.2273C194.693 55.1402 194.576 55.9375 194.436 56.6193C194.296 57.3011 194.072 57.8447 193.765 58.25ZM201.179 59.5V58.25H201.497C201.758 58.25 201.976 58.1989 202.151 58.0966C202.325 57.9905 202.465 57.8068 202.571 57.5455C202.681 57.2803 202.764 56.9129 202.821 56.4432C202.882 55.9697 202.925 55.3674 202.952 54.6364L203.111 50.7727H208.929V59.5H207.588V52.0227H204.383L204.247 55.1364C204.217 55.8523 204.152 56.483 204.054 57.0284C203.959 57.5701 203.813 58.0246 203.616 58.392C203.423 58.7595 203.166 59.036 202.844 59.2216C202.522 59.4072 202.118 59.5 201.633 59.5H201.179ZM216.159 59.5V52H213.841C213.318 52 212.907 52.1212 212.608 52.3636C212.309 52.6061 212.159 52.9394 212.159 53.3636C212.159 53.7803 212.294 54.108 212.563 54.3466C212.835 54.5852 213.208 54.7045 213.682 54.7045H216.5V55.9545H213.682C213.091 55.9545 212.581 55.8504 212.153 55.642C211.725 55.4337 211.396 55.1364 211.165 54.75C210.934 54.3598 210.818 53.8977 210.818 53.3636C210.818 52.8258 210.939 52.3636 211.182 51.9773C211.424 51.5909 211.771 51.2936 212.222 51.0852C212.676 50.8769 213.216 50.7727 213.841 50.7727H217.432V59.5H216.159ZM210.341 59.5L212.818 55.1591H214.273L211.796 59.5H210.341ZM226.979 59.6818C226.161 59.6818 225.456 59.4886 224.865 59.1023C224.274 58.7159 223.82 58.1837 223.502 57.5057C223.184 56.8277 223.024 56.053 223.024 55.1818C223.024 54.2955 223.187 53.5133 223.513 52.8352C223.843 52.1534 224.301 51.6212 224.888 51.2386C225.479 50.8523 226.168 50.6591 226.956 50.6591C227.57 50.6591 228.123 50.7727 228.615 51C229.108 51.2273 229.511 51.5455 229.826 51.9545C230.14 52.3636 230.335 52.8409 230.411 53.3864H229.07C228.968 52.9886 228.74 52.6364 228.388 52.3295C228.04 52.0189 227.57 51.8636 226.979 51.8636C226.456 51.8636 225.998 52 225.604 52.2727C225.214 52.5417 224.909 52.9223 224.689 53.4148C224.473 53.9034 224.365 54.4773 224.365 55.1364C224.365 55.8106 224.471 56.3977 224.684 56.8977C224.899 57.3977 225.202 57.786 225.593 58.0625C225.987 58.339 226.449 58.4773 226.979 58.4773C227.327 58.4773 227.644 58.4167 227.928 58.2955C228.212 58.1742 228.452 58 228.649 57.7727C228.846 57.5455 228.987 57.2727 229.07 56.9545H230.411C230.335 57.4697 230.148 57.9337 229.848 58.3466C229.553 58.7557 229.161 59.0814 228.672 59.3239C228.187 59.5625 227.623 59.6818 226.979 59.6818ZM231.204 52.0227V50.7727H238.294V52.0227H235.431V59.5H234.09V52.0227H231.204ZM241.885 59.7045C241.332 59.7045 240.831 59.6004 240.38 59.392C239.929 59.1799 239.571 58.875 239.306 58.4773C239.041 58.0758 238.908 57.5909 238.908 57.0227C238.908 56.5227 239.007 56.1174 239.204 55.8068C239.401 55.4924 239.664 55.2462 239.993 55.0682C240.323 54.8902 240.687 54.7576 241.084 54.6705C241.486 54.5795 241.889 54.5076 242.295 54.4545C242.825 54.3864 243.255 54.3352 243.584 54.3011C243.918 54.2633 244.16 54.2008 244.312 54.1136C244.467 54.0265 244.545 53.875 244.545 53.6591V53.6136C244.545 53.053 244.391 52.6174 244.084 52.3068C243.781 51.9962 243.321 51.8409 242.704 51.8409C242.063 51.8409 241.562 51.9811 241.198 52.2614C240.834 52.5417 240.579 52.8409 240.431 53.1591L239.158 52.7045C239.385 52.1742 239.688 51.7614 240.067 51.4659C240.45 51.1667 240.867 50.9583 241.317 50.8409C241.772 50.7197 242.219 50.6591 242.658 50.6591C242.938 50.6591 243.26 50.6932 243.624 50.7614C243.992 50.8258 244.346 50.9602 244.687 51.1648C245.031 51.3693 245.317 51.678 245.545 52.0909C245.772 52.5038 245.885 53.0568 245.885 53.75V59.5H244.545V58.3182H244.476C244.385 58.5076 244.234 58.7102 244.022 58.9261C243.81 59.142 243.527 59.3258 243.175 59.4773C242.823 59.6288 242.393 59.7045 241.885 59.7045ZM242.09 58.5C242.62 58.5 243.067 58.3958 243.431 58.1875C243.798 57.9792 244.075 57.7102 244.26 57.3807C244.45 57.0511 244.545 56.7045 244.545 56.3409V55.1136C244.488 55.1818 244.363 55.2443 244.17 55.3011C243.98 55.3542 243.76 55.4015 243.51 55.4432C243.264 55.4811 243.024 55.5152 242.789 55.5455C242.558 55.572 242.37 55.5947 242.226 55.6136C241.878 55.6591 241.552 55.733 241.249 55.8352C240.95 55.9337 240.707 56.0833 240.522 56.2841C240.34 56.4811 240.249 56.75 240.249 57.0909C240.249 57.5568 240.421 57.9091 240.766 58.1477C241.115 58.3826 241.556 58.5 242.09 58.5ZM247.853 62.7727V50.7727H249.148V52.1591H249.307C249.406 52.0076 249.542 51.8144 249.717 51.5795C249.895 51.3409 250.148 51.1288 250.478 50.9432C250.811 50.7538 251.262 50.6591 251.83 50.6591C252.565 50.6591 253.213 50.8428 253.773 51.2102C254.334 51.5777 254.771 52.0985 255.086 52.7727C255.4 53.447 255.557 54.2424 255.557 55.1591C255.557 56.0833 255.4 56.8845 255.086 57.5625C254.771 58.2367 254.336 58.7595 253.779 59.1307C253.222 59.4981 252.58 59.6818 251.853 59.6818C251.292 59.6818 250.843 59.589 250.506 59.4034C250.169 59.214 249.91 59 249.728 58.7614C249.546 58.5189 249.406 58.3182 249.307 58.1591H249.194V62.7727H247.853ZM249.171 55.1364C249.171 55.7955 249.268 56.3769 249.461 56.8807C249.654 57.3807 249.936 57.7727 250.307 58.0568C250.679 58.3371 251.133 58.4773 251.671 58.4773C252.232 58.4773 252.699 58.3295 253.074 58.0341C253.453 57.7348 253.737 57.3333 253.927 56.8295C254.12 56.322 254.217 55.7576 254.217 55.1364C254.217 54.5227 254.122 53.9697 253.932 53.4773C253.747 52.9811 253.465 52.589 253.086 52.3011C252.711 52.0095 252.239 51.8636 251.671 51.8636C251.126 51.8636 250.667 52.0019 250.296 52.2784C249.925 52.5511 249.645 52.9337 249.455 53.4261C249.266 53.9148 249.171 54.4848 249.171 55.1364ZM257.123 50.7727H258.464V58.25H261.759V50.7727H263.1V58.25H266.396V50.7727H267.737V59.5H257.123V50.7727ZM271.046 57.5227L275.251 50.7727H276.796V59.5H275.455V52.75L271.274 59.5H269.705V50.7727H271.046V57.5227ZM279.772 50.7727L281.863 54.3409L283.954 50.7727H285.5L282.681 55.1364L285.5 59.5H283.954L281.863 56.1136L279.772 59.5H278.227L281 55.1364L278.227 50.7727H279.772ZM97.2273 75.5V66.7727H98.5682V70.5682H99.4545L102.591 66.7727H104.318L100.795 70.9773L104.364 75.5H102.636L99.7727 71.8182H98.5682V75.5H97.2273ZM104.568 75.5V74.25H104.886C105.148 74.25 105.366 74.1989 105.54 74.0966C105.714 73.9905 105.854 73.8068 105.96 73.5455C106.07 73.2803 106.154 72.9129 106.21 72.4432C106.271 71.9697 106.315 71.3674 106.341 70.6364L106.5 66.7727H112.318V75.5H110.977V68.0227H107.773L107.636 71.1364C107.606 71.8523 107.542 72.483 107.443 73.0284C107.349 73.5701 107.203 74.0246 107.006 74.392C106.813 74.7595 106.555 75.036 106.233 75.2216C105.911 75.4072 105.508 75.5 105.023 75.5H104.568ZM116.867 75.7045C116.314 75.7045 115.812 75.6004 115.361 75.392C114.91 75.1799 114.552 74.875 114.287 74.4773C114.022 74.0758 113.889 73.5909 113.889 73.0227C113.889 72.5227 113.988 72.1174 114.185 71.8068C114.382 71.4924 114.645 71.2462 114.975 71.0682C115.304 70.8902 115.668 70.7576 116.066 70.6705C116.467 70.5795 116.87 70.5076 117.276 70.4545C117.806 70.3864 118.236 70.3352 118.566 70.3011C118.899 70.2633 119.141 70.2008 119.293 70.1136C119.448 70.0265 119.526 69.875 119.526 69.6591V69.6136C119.526 69.053 119.372 68.6174 119.066 68.3068C118.763 67.9962 118.302 67.8409 117.685 67.8409C117.045 67.8409 116.543 67.9811 116.179 68.2614C115.816 68.5417 115.56 68.8409 115.412 69.1591L114.139 68.7045C114.367 68.1742 114.67 67.7614 115.049 67.4659C115.431 67.1667 115.848 66.9583 116.299 66.8409C116.753 66.7197 117.2 66.6591 117.639 66.6591C117.92 66.6591 118.242 66.6932 118.605 66.7614C118.973 66.8258 119.327 66.9602 119.668 67.1648C120.013 67.3693 120.299 67.678 120.526 68.0909C120.753 68.5038 120.867 69.0568 120.867 69.75V75.5H119.526V74.3182H119.458C119.367 74.5076 119.215 74.7102 119.003 74.9261C118.791 75.142 118.509 75.3258 118.156 75.4773C117.804 75.6288 117.374 75.7045 116.867 75.7045ZM117.071 74.5C117.602 74.5 118.049 74.3958 118.412 74.1875C118.78 73.9792 119.056 73.7102 119.242 73.3807C119.431 73.0511 119.526 72.7045 119.526 72.3409V71.1136C119.469 71.1818 119.344 71.2443 119.151 71.3011C118.961 71.3542 118.742 71.4015 118.492 71.4432C118.245 71.4811 118.005 71.5152 117.77 71.5455C117.539 71.572 117.352 71.5947 117.208 71.6136C116.859 71.6591 116.533 71.733 116.23 71.8352C115.931 71.9337 115.689 72.0833 115.503 72.2841C115.321 72.4811 115.23 72.75 115.23 73.0909C115.23 73.5568 115.403 73.9091 115.747 74.1477C116.096 74.3826 116.537 74.5 117.071 74.5ZM126.38 75.6818C125.561 75.6818 124.857 75.4886 124.266 75.1023C123.675 74.7159 123.221 74.1837 122.902 73.5057C122.584 72.8277 122.425 72.053 122.425 71.1818C122.425 70.2955 122.588 69.5133 122.914 68.8352C123.243 68.1534 123.702 67.6212 124.289 67.2386C124.88 66.8523 125.569 66.6591 126.357 66.6591C126.971 66.6591 127.524 66.7727 128.016 67C128.508 67.2273 128.912 67.5455 129.226 67.9545C129.541 68.3636 129.736 68.8409 129.811 69.3864H128.471C128.368 68.9886 128.141 68.6364 127.789 68.3295C127.44 68.0189 126.971 67.8636 126.38 67.8636C125.857 67.8636 125.399 68 125.005 68.2727C124.614 68.5417 124.31 68.9223 124.09 69.4148C123.874 69.9034 123.766 70.4773 123.766 71.1364C123.766 71.8106 123.872 72.3977 124.084 72.8977C124.3 73.3977 124.603 73.786 124.993 74.0625C125.387 74.339 125.849 74.4773 126.38 74.4773C126.728 74.4773 127.044 74.4167 127.328 74.2955C127.613 74.1742 127.853 74 128.05 73.7727C128.247 73.5455 128.387 73.2727 128.471 72.9545H129.811C129.736 73.4697 129.548 73.9337 129.249 74.3466C128.953 74.7557 128.561 75.0814 128.073 75.3239C127.588 75.5625 127.024 75.6818 126.38 75.6818ZM134.837 75.6818C134.019 75.6818 133.314 75.4886 132.723 75.1023C132.133 74.7159 131.678 74.1837 131.36 73.5057C131.042 72.8277 130.883 72.053 130.883 71.1818C130.883 70.2955 131.045 69.5133 131.371 68.8352C131.701 68.1534 132.159 67.6212 132.746 67.2386C133.337 66.8523 134.026 66.6591 134.814 66.6591C135.428 66.6591 135.981 66.7727 136.473 67C136.966 67.2273 137.369 67.5455 137.684 67.9545C137.998 68.3636 138.193 68.8409 138.269 69.3864H136.928C136.826 68.9886 136.598 68.6364 136.246 68.3295C135.898 68.0189 135.428 67.8636 134.837 67.8636C134.314 67.8636 133.856 68 133.462 68.2727C133.072 68.5417 132.767 68.9223 132.547 69.4148C132.331 69.9034 132.223 70.4773 132.223 71.1364C132.223 71.8106 132.33 72.3977 132.542 72.8977C132.758 73.3977 133.061 73.786 133.451 74.0625C133.845 74.339 134.307 74.4773 134.837 74.4773C135.186 74.4773 135.502 74.4167 135.786 74.2955C136.07 74.1742 136.311 74 136.508 73.7727C136.705 73.5455 136.845 73.2727 136.928 72.9545H138.269C138.193 73.4697 138.006 73.9337 137.706 74.3466C137.411 74.7557 137.019 75.0814 136.53 75.3239C136.045 75.5625 135.481 75.6818 134.837 75.6818ZM143.295 75.6818C142.507 75.6818 141.815 75.4943 141.221 75.1193C140.63 74.7443 140.168 74.2197 139.834 73.5455C139.505 72.8712 139.34 72.0833 139.34 71.1818C139.34 70.2727 139.505 69.4792 139.834 68.8011C140.168 68.1231 140.63 67.5966 141.221 67.2216C141.815 66.8466 142.507 66.6591 143.295 66.6591C144.082 66.6591 144.772 66.8466 145.363 67.2216C145.957 67.5966 146.42 68.1231 146.749 68.8011C147.082 69.4792 147.249 70.2727 147.249 71.1818C147.249 72.0833 147.082 72.8712 146.749 73.5455C146.42 74.2197 145.957 74.7443 145.363 75.1193C144.772 75.4943 144.082 75.6818 143.295 75.6818ZM143.295 74.4773C143.893 74.4773 144.386 74.3239 144.772 74.017C145.158 73.7102 145.444 73.3068 145.63 72.8068C145.815 72.3068 145.908 71.7652 145.908 71.1818C145.908 70.5985 145.815 70.0549 145.63 69.5511C145.444 69.0473 145.158 68.6402 144.772 68.3295C144.386 68.0189 143.893 67.8636 143.295 67.8636C142.696 67.8636 142.204 68.0189 141.817 68.3295C141.431 68.6402 141.145 69.0473 140.959 69.5511C140.774 70.0549 140.681 70.5985 140.681 71.1818C140.681 71.7652 140.774 72.3068 140.959 72.8068C141.145 73.3068 141.431 73.7102 141.817 74.017C142.204 74.3239 142.696 74.4773 143.295 74.4773ZM148.816 75.5V66.7727H152.384C153.324 66.7727 154.07 66.9848 154.623 67.4091C155.176 67.8333 155.452 68.3939 155.452 69.0909C155.452 69.6212 155.295 70.0322 154.981 70.3239C154.666 70.6117 154.263 70.8068 153.771 70.9091C154.093 70.9545 154.405 71.0682 154.708 71.25C155.015 71.4318 155.269 71.6818 155.469 72C155.67 72.3144 155.771 72.7008 155.771 73.1591C155.771 73.6061 155.657 74.0057 155.43 74.358C155.202 74.7102 154.877 74.9886 154.452 75.1932C154.028 75.3977 153.521 75.5 152.93 75.5H148.816ZM150.089 74.2727H152.93C153.392 74.2727 153.754 74.1629 154.015 73.9432C154.276 73.7235 154.407 73.4242 154.407 73.0455C154.407 72.5947 154.276 72.2405 154.015 71.983C153.754 71.7216 153.392 71.5909 152.93 71.5909H150.089V74.2727ZM150.089 70.4318H152.384C152.744 70.4318 153.053 70.3826 153.31 70.2841C153.568 70.1818 153.765 70.0379 153.901 69.8523C154.041 69.6629 154.111 69.4394 154.111 69.1818C154.111 68.8144 153.958 68.5265 153.651 68.3182C153.344 68.1061 152.922 68 152.384 68H150.089V70.4318Z" fill="#626262"/>
</svg>
