<svg width="341" height="96" viewBox="0 0 341 96" fill="none" xmlns="http://www.w3.org/2000/svg">
<rect width="341" height="96" rx="16" fill="white"/>
<path d="M34.666 72L45.3327 40M50.666 40L54.6127 51.8373M57.1433 59.4293L61.3327 72M47.9993 29.3333C49.4138 29.3333 50.7704 29.8952 51.7706 30.8954C52.7708 31.8956 53.3327 33.2522 53.3327 34.6667C53.3327 36.0812 52.7708 37.4377 51.7706 38.4379C50.7704 39.4381 49.4138 40 47.9993 40C46.5849 40 45.2283 39.4381 44.2281 38.4379C43.2279 37.4377 42.666 36.0812 42.666 34.6667C42.666 33.2522 43.2279 31.8956 44.2281 30.8954C45.2283 29.8952 46.5849 29.3333 47.9993 29.3333ZM47.9993 29.3333V24M26.666 48C30.7353 55.88 38.9007 61.3333 47.9993 61.3333C57.0927 61.3333 65.2607 55.872 69.3327 48" stroke="#6A63F5" stroke-width="4" stroke-linecap="round" stroke-linejoin="round"/>
<path d="M104.631 23.8636V25.6307H99.2557V35.5H97.1477V23.8636H104.631ZM108.44 35.6705C107.565 35.6705 106.81 35.4886 106.173 35.125C105.541 34.7576 105.054 34.2386 104.713 33.5682C104.372 32.8939 104.202 32.1004 104.202 31.1875C104.202 30.2898 104.372 29.5019 104.713 28.8239C105.058 28.142 105.539 27.6117 106.156 27.233C106.774 26.8504 107.499 26.6591 108.332 26.6591C108.87 26.6591 109.378 26.7462 109.855 26.9205C110.336 27.0909 110.761 27.3561 111.128 27.7159C111.499 28.0758 111.791 28.5341 112.003 29.0909C112.215 29.6439 112.321 30.303 112.321 31.0682V31.6989H105.168V30.3125H110.35C110.346 29.9186 110.261 29.5682 110.094 29.2614C109.927 28.9508 109.694 28.7064 109.395 28.5284C109.1 28.3504 108.755 28.2614 108.361 28.2614C107.94 28.2614 107.571 28.3636 107.253 28.5682C106.935 28.7689 106.687 29.0341 106.509 29.3636C106.334 29.6894 106.245 30.0473 106.242 30.4375V31.6477C106.242 32.1553 106.334 32.5909 106.52 32.9545C106.706 33.3144 106.965 33.5909 107.298 33.7841C107.632 33.9735 108.022 34.0682 108.469 34.0682C108.768 34.0682 109.039 34.0265 109.281 33.9432C109.524 33.8561 109.734 33.7292 109.912 33.5625C110.09 33.3958 110.225 33.1894 110.315 32.9432L112.236 33.1591C112.115 33.6667 111.884 34.1098 111.543 34.4886C111.206 34.8636 110.774 35.1553 110.247 35.3636C109.721 35.5682 109.118 35.6705 108.44 35.6705ZM117.388 35.6705C116.536 35.6705 115.797 35.483 115.172 35.108C114.547 34.733 114.062 34.2083 113.718 33.5341C113.377 32.8598 113.206 32.072 113.206 31.1705C113.206 30.2689 113.377 29.4792 113.718 28.8011C114.062 28.1231 114.547 27.5966 115.172 27.2216C115.797 26.8466 116.536 26.6591 117.388 26.6591C118.24 26.6591 118.979 26.8466 119.604 27.2216C120.229 27.5966 120.712 28.1231 121.053 28.8011C121.397 29.4792 121.57 30.2689 121.57 31.1705C121.57 32.072 121.397 32.8598 121.053 33.5341C120.712 34.2083 120.229 34.733 119.604 35.108C118.979 35.483 118.24 35.6705 117.388 35.6705ZM117.399 34.0227C117.861 34.0227 118.248 33.8958 118.558 33.642C118.869 33.3845 119.1 33.0398 119.252 32.608C119.407 32.1761 119.485 31.6951 119.485 31.1648C119.485 30.6307 119.407 30.1477 119.252 29.7159C119.1 29.2803 118.869 28.9337 118.558 28.6761C118.248 28.4186 117.861 28.2898 117.399 28.2898C116.926 28.2898 116.532 28.4186 116.218 28.6761C115.907 28.9337 115.674 29.2803 115.519 29.7159C115.367 30.1477 115.291 30.6307 115.291 31.1648C115.291 31.6951 115.367 32.1761 115.519 32.608C115.674 33.0398 115.907 33.3845 116.218 33.642C116.532 33.8958 116.926 34.0227 117.399 34.0227ZM127.858 33.108L130.449 26.7727H132.108L128.58 35.5H127.142L123.694 26.7727H125.336L127.858 33.108ZM124.819 26.7727V35.5H122.836V26.7727H124.819ZM130.983 35.5V26.7727H132.949V35.5H130.983ZM138.407 35.6705C137.532 35.6705 136.776 35.4886 136.14 35.125C135.507 34.7576 135.02 34.2386 134.679 33.5682C134.339 32.8939 134.168 32.1004 134.168 31.1875C134.168 30.2898 134.339 29.5019 134.679 28.8239C135.024 28.142 135.505 27.6117 136.123 27.233C136.74 26.8504 137.465 26.6591 138.299 26.6591C138.837 26.6591 139.344 26.7462 139.821 26.9205C140.303 27.0909 140.727 27.3561 141.094 27.7159C141.465 28.0758 141.757 28.5341 141.969 29.0909C142.181 29.6439 142.287 30.303 142.287 31.0682V31.6989H135.134V30.3125H140.316C140.312 29.9186 140.227 29.5682 140.06 29.2614C139.893 28.9508 139.66 28.7064 139.361 28.5284C139.066 28.3504 138.721 28.2614 138.327 28.2614C137.907 28.2614 137.537 28.3636 137.219 28.5682C136.901 28.7689 136.653 29.0341 136.475 29.3636C136.301 29.6894 136.212 30.0473 136.208 30.4375V31.6477C136.208 32.1553 136.301 32.5909 136.486 32.9545C136.672 33.3144 136.931 33.5909 137.265 33.7841C137.598 33.9735 137.988 34.0682 138.435 34.0682C138.734 34.0682 139.005 34.0265 139.248 33.9432C139.49 33.8561 139.7 33.7292 139.878 33.5625C140.056 33.3958 140.191 33.1894 140.282 32.9432L142.202 33.1591C142.081 33.6667 141.85 34.1098 141.509 34.4886C141.172 34.8636 140.74 35.1553 140.214 35.3636C139.687 35.5682 139.085 35.6705 138.407 35.6705ZM142.82 28.4602V26.7727H150.457V28.4602H147.633V35.5H145.644V28.4602H142.82ZM151.614 38.7727V26.7727H153.637V28.2159H153.756C153.862 28.0038 154.012 27.7784 154.205 27.5398C154.398 27.2973 154.66 27.0909 154.989 26.9205C155.319 26.7462 155.739 26.6591 156.251 26.6591C156.925 26.6591 157.533 26.8314 158.075 27.1761C158.62 27.517 159.052 28.0227 159.37 28.6932C159.692 29.3598 159.853 30.178 159.853 31.1477C159.853 32.1061 159.696 32.9205 159.381 33.5909C159.067 34.2614 158.639 34.7727 158.097 35.125C157.556 35.4773 156.942 35.6534 156.256 35.6534C155.756 35.6534 155.342 35.5701 155.012 35.4034C154.682 35.2367 154.417 35.036 154.217 34.8011C154.02 34.5625 153.866 34.3371 153.756 34.125H153.671V38.7727H151.614ZM153.631 31.1364C153.631 31.7008 153.711 32.1951 153.87 32.6193C154.033 33.0436 154.266 33.375 154.569 33.6136C154.876 33.8485 155.247 33.9659 155.682 33.9659C156.137 33.9659 156.518 33.8447 156.825 33.6023C157.131 33.3561 157.362 33.0208 157.518 32.5966C157.677 32.1686 157.756 31.6818 157.756 31.1364C157.756 30.5947 157.679 30.1136 157.523 29.6932C157.368 29.2727 157.137 28.9432 156.83 28.7045C156.523 28.4659 156.141 28.3466 155.682 28.3466C155.243 28.3466 154.87 28.4621 154.563 28.6932C154.256 28.9242 154.023 29.2481 153.864 29.6648C153.709 30.0814 153.631 30.572 153.631 31.1364ZM163.117 32.7159L166.612 26.7727H168.725V35.5H166.737V29.5511L163.254 35.5H161.134V26.7727H163.117V32.7159ZM175.517 35.5V28.4432H173.653C173.179 28.4432 172.816 28.553 172.562 28.7727C172.308 28.9924 172.183 29.2652 172.187 29.5909C172.183 29.9167 172.303 30.1856 172.545 30.3977C172.787 30.6098 173.134 30.7159 173.585 30.7159H176.164V32.2159H173.585C172.888 32.2159 172.285 32.1061 171.778 31.8864C171.27 31.6667 170.88 31.3561 170.607 30.9545C170.335 30.553 170.198 30.0833 170.198 29.5455C170.198 28.9848 170.337 28.4981 170.613 28.0852C170.893 27.6686 171.291 27.3466 171.806 27.1193C172.325 26.8883 172.941 26.7727 173.653 26.7727H177.443V35.5H175.517ZM169.88 35.5L172.318 31.0227H174.346L171.903 35.5H169.88Z" fill="#262626"/>
<path d="M97.4091 47.8636H99.0909L103.045 57.5227H103.182L107.136 47.8636H108.818V59.5H107.5V50.6591H107.386L103.75 59.5H102.477L98.8409 50.6591H98.7273V59.5H97.4091V47.8636ZM113.55 59.7045C112.997 59.7045 112.495 59.6004 112.044 59.392C111.593 59.1799 111.235 58.875 110.97 58.4773C110.705 58.0758 110.573 57.5909 110.573 57.0227C110.573 56.5227 110.671 56.1174 110.868 55.8068C111.065 55.4924 111.328 55.2462 111.658 55.0682C111.987 54.8902 112.351 54.7576 112.749 54.6705C113.15 54.5795 113.554 54.5076 113.959 54.4545C114.489 54.3864 114.919 54.3352 115.249 54.3011C115.582 54.2633 115.824 54.2008 115.976 54.1136C116.131 54.0265 116.209 53.875 116.209 53.6591V53.6136C116.209 53.053 116.056 52.6174 115.749 52.3068C115.446 51.9962 114.985 51.8409 114.368 51.8409C113.728 51.8409 113.226 51.9811 112.862 52.2614C112.499 52.5417 112.243 52.8409 112.095 53.1591L110.823 52.7045C111.05 52.1742 111.353 51.7614 111.732 51.4659C112.114 51.1667 112.531 50.9583 112.982 50.8409C113.436 50.7197 113.883 50.6591 114.323 50.6591C114.603 50.6591 114.925 50.6932 115.288 50.7614C115.656 50.8258 116.01 50.9602 116.351 51.1648C116.696 51.3693 116.982 51.678 117.209 52.0909C117.436 52.5038 117.55 53.0568 117.55 53.75V59.5H116.209V58.3182H116.141C116.05 58.5076 115.898 58.7102 115.686 58.9261C115.474 59.142 115.192 59.3258 114.84 59.4773C114.487 59.6288 114.057 59.7045 113.55 59.7045ZM113.754 58.5C114.285 58.5 114.732 58.3958 115.095 58.1875C115.463 57.9792 115.739 57.7102 115.925 57.3807C116.114 57.0511 116.209 56.7045 116.209 56.3409V55.1136C116.152 55.1818 116.027 55.2443 115.834 55.3011C115.645 55.3542 115.425 55.4015 115.175 55.4432C114.929 55.4811 114.688 55.5152 114.453 55.5455C114.222 55.572 114.035 55.5947 113.891 55.6136C113.542 55.6591 113.216 55.733 112.913 55.8352C112.614 55.9337 112.372 56.0833 112.186 56.2841C112.004 56.4811 111.913 56.75 111.913 57.0909C111.913 57.5568 112.086 57.9091 112.431 58.1477C112.779 58.3826 113.22 58.5 113.754 58.5ZM118.33 52.0227V50.7727H125.421V52.0227H122.557V59.5H121.216V52.0227H118.33ZM130.103 59.6818C129.262 59.6818 128.536 59.4962 127.926 59.125C127.32 58.75 126.853 58.2273 126.523 57.5568C126.197 56.8826 126.034 56.0985 126.034 55.2045C126.034 54.3106 126.197 53.5227 126.523 52.8409C126.853 52.1553 127.311 51.6212 127.898 51.2386C128.489 50.8523 129.178 50.6591 129.966 50.6591C130.421 50.6591 130.87 50.7348 131.313 50.8864C131.756 51.0379 132.159 51.2841 132.523 51.625C132.887 51.9621 133.176 52.4091 133.392 52.9659C133.608 53.5227 133.716 54.2083 133.716 55.0227V55.5909H126.989V54.4318H132.353C132.353 53.9394 132.254 53.5 132.057 53.1136C131.864 52.7273 131.587 52.4223 131.228 52.1989C130.872 51.9754 130.451 51.8636 129.966 51.8636C129.432 51.8636 128.97 51.9962 128.58 52.2614C128.194 52.5227 127.896 52.8636 127.688 53.2841C127.48 53.7045 127.375 54.1553 127.375 54.6364V55.4091C127.375 56.0682 127.489 56.6269 127.716 57.0852C127.947 57.5398 128.267 57.8864 128.676 58.125C129.086 58.3598 129.561 58.4773 130.103 58.4773C130.455 58.4773 130.773 58.428 131.057 58.3295C131.345 58.2273 131.593 58.0758 131.801 57.875C132.01 57.6705 132.171 57.4167 132.284 57.1136L133.58 57.4773C133.444 57.9167 133.214 58.303 132.892 58.6364C132.57 58.9659 132.173 59.2235 131.699 59.4091C131.226 59.5909 130.694 59.6818 130.103 59.6818ZM135.276 62.7727V50.7727H136.571V52.1591H136.731C136.829 52.0076 136.965 51.8144 137.14 51.5795C137.318 51.3409 137.571 51.1288 137.901 50.9432C138.234 50.7538 138.685 50.6591 139.253 50.6591C139.988 50.6591 140.636 50.8428 141.196 51.2102C141.757 51.5777 142.195 52.0985 142.509 52.7727C142.823 53.447 142.981 54.2424 142.981 55.1591C142.981 56.0833 142.823 56.8845 142.509 57.5625C142.195 58.2367 141.759 58.7595 141.202 59.1307C140.645 59.4981 140.003 59.6818 139.276 59.6818C138.715 59.6818 138.267 59.589 137.929 59.4034C137.592 59.214 137.333 59 137.151 58.7614C136.969 58.5189 136.829 58.3182 136.731 58.1591H136.617V62.7727H135.276ZM136.594 55.1364C136.594 55.7955 136.691 56.3769 136.884 56.8807C137.077 57.3807 137.359 57.7727 137.731 58.0568C138.102 58.3371 138.556 58.4773 139.094 58.4773C139.655 58.4773 140.123 58.3295 140.498 58.0341C140.876 57.7348 141.16 57.3333 141.35 56.8295C141.543 56.322 141.64 55.7576 141.64 55.1364C141.64 54.5227 141.545 53.9697 141.356 53.4773C141.17 52.9811 140.888 52.589 140.509 52.3011C140.134 52.0095 139.662 51.8636 139.094 51.8636C138.549 51.8636 138.09 52.0019 137.719 52.2784C137.348 52.5511 137.068 52.9337 136.878 53.4261C136.689 53.9148 136.594 54.4848 136.594 55.1364ZM145.887 57.5227L150.091 50.7727H151.637V59.5H150.296V52.75L146.114 59.5H144.546V50.7727H145.887V57.5227ZM156.181 59.7045C155.628 59.7045 155.126 59.6004 154.675 59.392C154.225 59.1799 153.867 58.875 153.602 58.4773C153.336 58.0758 153.204 57.5909 153.204 57.0227C153.204 56.5227 153.302 56.1174 153.499 55.8068C153.696 55.4924 153.959 55.2462 154.289 55.0682C154.619 54.8902 154.982 54.7576 155.38 54.6705C155.781 54.5795 156.185 54.5076 156.59 54.4545C157.12 54.3864 157.55 54.3352 157.88 54.3011C158.213 54.2633 158.456 54.2008 158.607 54.1136C158.763 54.0265 158.84 53.875 158.84 53.6591V53.6136C158.84 53.053 158.687 52.6174 158.38 52.3068C158.077 51.9962 157.617 51.8409 156.999 51.8409C156.359 51.8409 155.857 51.9811 155.494 52.2614C155.13 52.5417 154.874 52.8409 154.727 53.1591L153.454 52.7045C153.681 52.1742 153.984 51.7614 154.363 51.4659C154.745 51.1667 155.162 50.9583 155.613 50.8409C156.067 50.7197 156.514 50.6591 156.954 50.6591C157.234 50.6591 157.556 50.6932 157.92 50.7614C158.287 50.8258 158.641 50.9602 158.982 51.1648C159.327 51.3693 159.613 51.678 159.84 52.0909C160.067 52.5038 160.181 53.0568 160.181 53.75V59.5H158.84V58.3182H158.772C158.681 58.5076 158.53 58.7102 158.317 58.9261C158.105 59.142 157.823 59.3258 157.471 59.4773C157.119 59.6288 156.689 59.7045 156.181 59.7045ZM156.386 58.5C156.916 58.5 157.363 58.3958 157.727 58.1875C158.094 57.9792 158.37 57.7102 158.556 57.3807C158.745 57.0511 158.84 56.7045 158.84 56.3409V55.1136C158.783 55.1818 158.658 55.2443 158.465 55.3011C158.276 55.3542 158.056 55.4015 157.806 55.4432C157.56 55.4811 157.319 55.5152 157.084 55.5455C156.853 55.572 156.666 55.5947 156.522 55.6136C156.174 55.6591 155.848 55.733 155.545 55.8352C155.245 55.9337 155.003 56.0833 154.817 56.2841C154.636 56.4811 154.545 56.75 154.545 57.0909C154.545 57.5568 154.717 57.9091 155.062 58.1477C155.41 58.3826 155.852 58.5 156.386 58.5ZM161.376 59.5V58.25H161.694C161.955 58.25 162.173 58.1989 162.347 58.0966C162.522 57.9905 162.662 57.8068 162.768 57.5455C162.878 57.2803 162.961 56.9129 163.018 56.4432C163.078 55.9697 163.122 55.3674 163.149 54.6364L163.308 50.7727H169.126V59.5H167.785V52.0227H164.58L164.444 55.1364C164.414 55.8523 164.349 56.483 164.251 57.0284C164.156 57.5701 164.01 58.0246 163.813 58.392C163.62 58.7595 163.363 59.036 163.041 59.2216C162.719 59.4072 162.315 59.5 161.83 59.5H161.376ZM174.194 62V58.25H174.921C175.1 58.0644 175.253 57.8636 175.382 57.6477C175.51 57.4318 175.622 57.1761 175.717 56.8807C175.815 56.5814 175.899 56.2178 175.967 55.7898C176.035 55.358 176.096 54.8371 176.149 54.2273L176.444 50.7727H181.99V58.25H183.331V62H181.99V59.5H175.535V62H174.194ZM176.444 58.25H180.649V52.0227H177.694L177.467 54.2273C177.372 55.1402 177.255 55.9375 177.115 56.6193C176.975 57.3011 176.751 57.8447 176.444 58.25ZM183.858 59.5V58.25H184.176C184.437 58.25 184.655 58.1989 184.829 58.0966C185.004 57.9905 185.144 57.8068 185.25 57.5455C185.36 57.2803 185.443 56.9129 185.5 56.4432C185.56 55.9697 185.604 55.3674 185.63 54.6364L185.789 50.7727H191.608V59.5H190.267V52.0227H187.062L186.926 55.1364C186.896 55.8523 186.831 56.483 186.733 57.0284C186.638 57.5701 186.492 58.0246 186.295 58.392C186.102 58.7595 185.844 59.036 185.522 59.2216C185.2 59.4072 184.797 59.5 184.312 59.5H183.858ZM198.838 59.5V52H196.52C195.997 52 195.586 52.1212 195.287 52.3636C194.988 52.6061 194.838 52.9394 194.838 53.3636C194.838 53.7803 194.972 54.108 195.241 54.3466C195.514 54.5852 195.887 54.7045 196.361 54.7045H199.179V55.9545H196.361C195.77 55.9545 195.26 55.8504 194.832 55.642C194.404 55.4337 194.075 55.1364 193.844 54.75C193.613 54.3598 193.497 53.8977 193.497 53.3636C193.497 52.8258 193.618 52.3636 193.861 51.9773C194.103 51.5909 194.45 51.2936 194.9 51.0852C195.355 50.8769 195.895 50.7727 196.52 50.7727H200.111V59.5H198.838ZM193.02 59.5L195.497 55.1591H196.952L194.474 59.5H193.02ZM209.658 59.6818C208.84 59.6818 208.135 59.4886 207.544 59.1023C206.953 58.7159 206.499 58.1837 206.18 57.5057C205.862 56.8277 205.703 56.053 205.703 55.1818C205.703 54.2955 205.866 53.5133 206.192 52.8352C206.521 52.1534 206.98 51.6212 207.567 51.2386C208.158 50.8523 208.847 50.6591 209.635 50.6591C210.249 50.6591 210.802 50.7727 211.294 51C211.787 51.2273 212.19 51.5455 212.504 51.9545C212.819 52.3636 213.014 52.8409 213.09 53.3864H211.749C211.646 52.9886 211.419 52.6364 211.067 52.3295C210.718 52.0189 210.249 51.8636 209.658 51.8636C209.135 51.8636 208.677 52 208.283 52.2727C207.893 52.5417 207.588 52.9223 207.368 53.4148C207.152 53.9034 207.044 54.4773 207.044 55.1364C207.044 55.8106 207.15 56.3977 207.362 56.8977C207.578 57.3977 207.881 57.786 208.271 58.0625C208.665 58.339 209.127 58.4773 209.658 58.4773C210.006 58.4773 210.323 58.4167 210.607 58.2955C210.891 58.1742 211.131 58 211.328 57.7727C211.525 57.5455 211.665 57.2727 211.749 56.9545H213.09C213.014 57.4697 212.826 57.9337 212.527 58.3466C212.232 58.7557 211.84 59.0814 211.351 59.3239C210.866 59.5625 210.302 59.6818 209.658 59.6818ZM213.882 52.0227V50.7727H220.973V52.0227H218.11V59.5H216.769V52.0227H213.882ZM224.564 59.7045C224.011 59.7045 223.509 59.6004 223.059 59.392C222.608 59.1799 222.25 58.875 221.985 58.4773C221.72 58.0758 221.587 57.5909 221.587 57.0227C221.587 56.5227 221.685 56.1174 221.882 55.8068C222.079 55.4924 222.343 55.2462 222.672 55.0682C223.002 54.8902 223.365 54.7576 223.763 54.6705C224.165 54.5795 224.568 54.5076 224.973 54.4545C225.504 54.3864 225.934 54.3352 226.263 54.3011C226.596 54.2633 226.839 54.2008 226.99 54.1136C227.146 54.0265 227.223 53.875 227.223 53.6591V53.6136C227.223 53.053 227.07 52.6174 226.763 52.3068C226.46 51.9962 226 51.8409 225.382 51.8409C224.742 51.8409 224.24 51.9811 223.877 52.2614C223.513 52.5417 223.257 52.8409 223.11 53.1591L221.837 52.7045C222.064 52.1742 222.367 51.7614 222.746 51.4659C223.129 51.1667 223.545 50.9583 223.996 50.8409C224.451 50.7197 224.898 50.6591 225.337 50.6591C225.617 50.6591 225.939 50.6932 226.303 50.7614C226.67 50.8258 227.024 50.9602 227.365 51.1648C227.71 51.3693 227.996 51.678 228.223 52.0909C228.451 52.5038 228.564 53.0568 228.564 53.75V59.5H227.223V58.3182H227.155C227.064 58.5076 226.913 58.7102 226.701 58.9261C226.488 59.142 226.206 59.3258 225.854 59.4773C225.502 59.6288 225.072 59.7045 224.564 59.7045ZM224.769 58.5C225.299 58.5 225.746 58.3958 226.11 58.1875C226.477 57.9792 226.754 57.7102 226.939 57.3807C227.129 57.0511 227.223 56.7045 227.223 56.3409V55.1136C227.166 55.1818 227.041 55.2443 226.848 55.3011C226.659 55.3542 226.439 55.4015 226.189 55.4432C225.943 55.4811 225.702 55.5152 225.468 55.5455C225.237 55.572 225.049 55.5947 224.905 55.6136C224.557 55.6591 224.231 55.733 223.928 55.8352C223.629 55.9337 223.386 56.0833 223.201 56.2841C223.019 56.4811 222.928 56.75 222.928 57.0909C222.928 57.5568 223.1 57.9091 223.445 58.1477C223.793 58.3826 224.235 58.5 224.769 58.5ZM230.532 62.7727V50.7727H231.827V52.1591H231.986C232.085 52.0076 232.221 51.8144 232.395 51.5795C232.573 51.3409 232.827 51.1288 233.157 50.9432C233.49 50.7538 233.941 50.6591 234.509 50.6591C235.244 50.6591 235.892 50.8428 236.452 51.2102C237.013 51.5777 237.45 52.0985 237.765 52.7727C238.079 53.447 238.236 54.2424 238.236 55.1591C238.236 56.0833 238.079 56.8845 237.765 57.5625C237.45 58.2367 237.015 58.7595 236.458 59.1307C235.901 59.4981 235.259 59.6818 234.532 59.6818C233.971 59.6818 233.522 59.589 233.185 59.4034C232.848 59.214 232.588 59 232.407 58.7614C232.225 58.5189 232.085 58.3182 231.986 58.1591H231.873V62.7727H230.532ZM231.85 55.1364C231.85 55.7955 231.946 56.3769 232.14 56.8807C232.333 57.3807 232.615 57.7727 232.986 58.0568C233.357 58.3371 233.812 58.4773 234.35 58.4773C234.91 58.4773 235.378 58.3295 235.753 58.0341C236.132 57.7348 236.416 57.3333 236.606 56.8295C236.799 56.322 236.895 55.7576 236.895 55.1364C236.895 54.5227 236.801 53.9697 236.611 53.4773C236.426 52.9811 236.143 52.589 235.765 52.3011C235.39 52.0095 234.918 51.8636 234.35 51.8636C233.804 51.8636 233.346 52.0019 232.975 52.2784C232.604 52.5511 232.323 52.9337 232.134 53.4261C231.945 53.9148 231.85 54.4848 231.85 55.1364ZM239.802 50.7727H241.143V58.25H244.438V50.7727H245.779V58.25H249.074V50.7727H250.415V59.5H239.802V50.7727ZM253.725 57.5227L257.93 50.7727H259.475V59.5H258.134V52.75L253.952 59.5H252.384V50.7727H253.725V57.5227ZM262.451 50.7727L264.542 54.3409L266.633 50.7727H268.178L265.36 55.1364L268.178 59.5H266.633L264.542 56.1136L262.451 59.5H260.906L263.678 55.1364L260.906 50.7727H262.451ZM97.2273 75.5V66.7727H98.5682V70.5682H99.4545L102.591 66.7727H104.318L100.795 70.9773L104.364 75.5H102.636L99.7727 71.8182H98.5682V75.5H97.2273ZM104.568 75.5V74.25H104.886C105.148 74.25 105.366 74.1989 105.54 74.0966C105.714 73.9905 105.854 73.8068 105.96 73.5455C106.07 73.2803 106.154 72.9129 106.21 72.4432C106.271 71.9697 106.315 71.3674 106.341 70.6364L106.5 66.7727H112.318V75.5H110.977V68.0227H107.773L107.636 71.1364C107.606 71.8523 107.542 72.483 107.443 73.0284C107.349 73.5701 107.203 74.0246 107.006 74.392C106.813 74.7595 106.555 75.036 106.233 75.2216C105.911 75.4072 105.508 75.5 105.023 75.5H104.568ZM116.867 75.7045C116.314 75.7045 115.812 75.6004 115.361 75.392C114.91 75.1799 114.552 74.875 114.287 74.4773C114.022 74.0758 113.889 73.5909 113.889 73.0227C113.889 72.5227 113.988 72.1174 114.185 71.8068C114.382 71.4924 114.645 71.2462 114.975 71.0682C115.304 70.8902 115.668 70.7576 116.066 70.6705C116.467 70.5795 116.87 70.5076 117.276 70.4545C117.806 70.3864 118.236 70.3352 118.566 70.3011C118.899 70.2633 119.141 70.2008 119.293 70.1136C119.448 70.0265 119.526 69.875 119.526 69.6591V69.6136C119.526 69.053 119.372 68.6174 119.066 68.3068C118.763 67.9962 118.302 67.8409 117.685 67.8409C117.045 67.8409 116.543 67.9811 116.179 68.2614C115.816 68.5417 115.56 68.8409 115.412 69.1591L114.139 68.7045C114.367 68.1742 114.67 67.7614 115.049 67.4659C115.431 67.1667 115.848 66.9583 116.299 66.8409C116.753 66.7197 117.2 66.6591 117.639 66.6591C117.92 66.6591 118.242 66.6932 118.605 66.7614C118.973 66.8258 119.327 66.9602 119.668 67.1648C120.013 67.3693 120.299 67.678 120.526 68.0909C120.753 68.5038 120.867 69.0568 120.867 69.75V75.5H119.526V74.3182H119.458C119.367 74.5076 119.215 74.7102 119.003 74.9261C118.791 75.142 118.509 75.3258 118.156 75.4773C117.804 75.6288 117.374 75.7045 116.867 75.7045ZM117.071 74.5C117.602 74.5 118.049 74.3958 118.412 74.1875C118.78 73.9792 119.056 73.7102 119.242 73.3807C119.431 73.0511 119.526 72.7045 119.526 72.3409V71.1136C119.469 71.1818 119.344 71.2443 119.151 71.3011C118.961 71.3542 118.742 71.4015 118.492 71.4432C118.245 71.4811 118.005 71.5152 117.77 71.5455C117.539 71.572 117.352 71.5947 117.208 71.6136C116.859 71.6591 116.533 71.733 116.23 71.8352C115.931 71.9337 115.689 72.0833 115.503 72.2841C115.321 72.4811 115.23 72.75 115.23 73.0909C115.23 73.5568 115.403 73.9091 115.747 74.1477C116.096 74.3826 116.537 74.5 117.071 74.5ZM126.38 75.6818C125.561 75.6818 124.857 75.4886 124.266 75.1023C123.675 74.7159 123.221 74.1837 122.902 73.5057C122.584 72.8277 122.425 72.053 122.425 71.1818C122.425 70.2955 122.588 69.5133 122.914 68.8352C123.243 68.1534 123.702 67.6212 124.289 67.2386C124.88 66.8523 125.569 66.6591 126.357 66.6591C126.971 66.6591 127.524 66.7727 128.016 67C128.508 67.2273 128.912 67.5455 129.226 67.9545C129.541 68.3636 129.736 68.8409 129.811 69.3864H128.471C128.368 68.9886 128.141 68.6364 127.789 68.3295C127.44 68.0189 126.971 67.8636 126.38 67.8636C125.857 67.8636 125.399 68 125.005 68.2727C124.614 68.5417 124.31 68.9223 124.09 69.4148C123.874 69.9034 123.766 70.4773 123.766 71.1364C123.766 71.8106 123.872 72.3977 124.084 72.8977C124.3 73.3977 124.603 73.786 124.993 74.0625C125.387 74.339 125.849 74.4773 126.38 74.4773C126.728 74.4773 127.044 74.4167 127.328 74.2955C127.613 74.1742 127.853 74 128.05 73.7727C128.247 73.5455 128.387 73.2727 128.471 72.9545H129.811C129.736 73.4697 129.548 73.9337 129.249 74.3466C128.953 74.7557 128.561 75.0814 128.073 75.3239C127.588 75.5625 127.024 75.6818 126.38 75.6818ZM134.837 75.6818C134.019 75.6818 133.314 75.4886 132.723 75.1023C132.133 74.7159 131.678 74.1837 131.36 73.5057C131.042 72.8277 130.883 72.053 130.883 71.1818C130.883 70.2955 131.045 69.5133 131.371 68.8352C131.701 68.1534 132.159 67.6212 132.746 67.2386C133.337 66.8523 134.026 66.6591 134.814 66.6591C135.428 66.6591 135.981 66.7727 136.473 67C136.966 67.2273 137.369 67.5455 137.684 67.9545C137.998 68.3636 138.193 68.8409 138.269 69.3864H136.928C136.826 68.9886 136.598 68.6364 136.246 68.3295C135.898 68.0189 135.428 67.8636 134.837 67.8636C134.314 67.8636 133.856 68 133.462 68.2727C133.072 68.5417 132.767 68.9223 132.547 69.4148C132.331 69.9034 132.223 70.4773 132.223 71.1364C132.223 71.8106 132.33 72.3977 132.542 72.8977C132.758 73.3977 133.061 73.786 133.451 74.0625C133.845 74.339 134.307 74.4773 134.837 74.4773C135.186 74.4773 135.502 74.4167 135.786 74.2955C136.07 74.1742 136.311 74 136.508 73.7727C136.705 73.5455 136.845 73.2727 136.928 72.9545H138.269C138.193 73.4697 138.006 73.9337 137.706 74.3466C137.411 74.7557 137.019 75.0814 136.53 75.3239C136.045 75.5625 135.481 75.6818 134.837 75.6818ZM143.295 75.6818C142.507 75.6818 141.815 75.4943 141.221 75.1193C140.63 74.7443 140.168 74.2197 139.834 73.5455C139.505 72.8712 139.34 72.0833 139.34 71.1818C139.34 70.2727 139.505 69.4792 139.834 68.8011C140.168 68.1231 140.63 67.5966 141.221 67.2216C141.815 66.8466 142.507 66.6591 143.295 66.6591C144.082 66.6591 144.772 66.8466 145.363 67.2216C145.957 67.5966 146.42 68.1231 146.749 68.8011C147.082 69.4792 147.249 70.2727 147.249 71.1818C147.249 72.0833 147.082 72.8712 146.749 73.5455C146.42 74.2197 145.957 74.7443 145.363 75.1193C144.772 75.4943 144.082 75.6818 143.295 75.6818ZM143.295 74.4773C143.893 74.4773 144.386 74.3239 144.772 74.017C145.158 73.7102 145.444 73.3068 145.63 72.8068C145.815 72.3068 145.908 71.7652 145.908 71.1818C145.908 70.5985 145.815 70.0549 145.63 69.5511C145.444 69.0473 145.158 68.6402 144.772 68.3295C144.386 68.0189 143.893 67.8636 143.295 67.8636C142.696 67.8636 142.204 68.0189 141.817 68.3295C141.431 68.6402 141.145 69.0473 140.959 69.5511C140.774 70.0549 140.681 70.5985 140.681 71.1818C140.681 71.7652 140.774 72.3068 140.959 72.8068C141.145 73.3068 141.431 73.7102 141.817 74.017C142.204 74.3239 142.696 74.4773 143.295 74.4773ZM148.816 75.5V66.7727H152.384C153.324 66.7727 154.07 66.9848 154.623 67.4091C155.176 67.8333 155.452 68.3939 155.452 69.0909C155.452 69.6212 155.295 70.0322 154.981 70.3239C154.666 70.6117 154.263 70.8068 153.771 70.9091C154.093 70.9545 154.405 71.0682 154.708 71.25C155.015 71.4318 155.269 71.6818 155.469 72C155.67 72.3144 155.771 72.7008 155.771 73.1591C155.771 73.6061 155.657 74.0057 155.43 74.358C155.202 74.7102 154.877 74.9886 154.452 75.1932C154.028 75.3977 153.521 75.5 152.93 75.5H148.816ZM150.089 74.2727H152.93C153.392 74.2727 153.754 74.1629 154.015 73.9432C154.276 73.7235 154.407 73.4242 154.407 73.0455C154.407 72.5947 154.276 72.2405 154.015 71.983C153.754 71.7216 153.392 71.5909 152.93 71.5909H150.089V74.2727ZM150.089 70.4318H152.384C152.744 70.4318 153.053 70.3826 153.31 70.2841C153.568 70.1818 153.765 70.0379 153.901 69.8523C154.041 69.6629 154.111 69.4394 154.111 69.1818C154.111 68.8144 153.958 68.5265 153.651 68.3182C153.344 68.1061 152.922 68 152.384 68H150.089V70.4318Z" fill="#626262"/>
</svg>
