<svg width="389" height="144" viewBox="0 0 389 144" fill="none" xmlns="http://www.w3.org/2000/svg">
<g filter="url(#filter0_d_405_15)">
<rect x="24" y="20" width="341" height="96" rx="16" fill="white" shape-rendering="crispEdges"/>
<path fill-rule="evenodd" clip-rule="evenodd" d="M70.128 39.3701C71.1803 38.9392 72.3301 38.883 73.4133 39.2096L73.872 39.3701L92.5387 47.0314C93.4851 47.4198 94.3113 48.0946 94.9208 48.9772C95.5303 49.8597 95.8981 50.9137 95.9813 52.0163L96 52.4978V68.1501C95.9999 72.8794 94.8332 77.5209 92.6229 81.5848C90.4127 85.6486 87.241 88.984 83.4427 91.2388L82.7333 91.6445L73.7893 96.5389C73.2969 96.808 72.759 96.963 72.2092 96.9941C71.6595 97.0253 71.1099 96.9319 70.5947 96.7199L70.2107 96.5389L61.2667 91.6445C57.4016 89.5294 54.1301 86.3114 51.7973 82.3302C49.4646 78.3491 48.1573 73.7525 48.0133 69.0256L48 68.1501V52.4978C48 51.3921 48.287 50.3091 48.8276 49.3749C49.3681 48.4407 50.14 47.6938 51.0533 47.2211L51.4613 47.0314L70.128 39.3701ZM81.1547 58.1482L68.8933 71.5677L64.1787 66.4077C63.6783 65.8604 62.9998 65.5531 62.2924 65.5534C61.585 65.5537 60.9067 65.8615 60.4067 66.4091C59.9066 66.9568 59.6259 67.6994 59.6261 68.4736C59.6264 69.2478 59.9076 69.9902 60.408 70.5375L66.8187 77.5537C67.0911 77.852 67.4145 78.0886 67.7705 78.25C68.1265 78.4114 68.508 78.4945 68.8933 78.4945C69.2787 78.4945 69.6602 78.4114 70.0162 78.25C70.3722 78.0886 70.6956 77.852 70.968 77.5537L84.9253 62.275C85.18 62.0058 85.3832 61.6837 85.5229 61.3277C85.6627 60.9716 85.7363 60.5886 85.7393 60.2011C85.7424 59.8136 85.6749 59.4292 85.5409 59.0706C85.4068 58.7119 85.2088 58.386 84.9584 58.112C84.708 57.838 84.4103 57.6212 84.0825 57.4745C83.7548 57.3277 83.4037 57.2539 83.0496 57.2573C82.6955 57.2606 82.3456 57.3411 82.0203 57.4941C81.6949 57.6471 81.4007 57.8694 81.1547 58.1482Z" fill="#6A63F5"/>
<path d="M121.148 43.8636H123.727L127.182 52.2955H127.318L130.773 43.8636H133.352V55.5H131.33V47.5057H131.222L128.006 55.4659H126.494L123.278 47.4886H123.17V55.5H121.148V43.8636ZM138.94 55.6705C138.065 55.6705 137.31 55.4886 136.673 55.125C136.041 54.7576 135.554 54.2386 135.213 53.5682C134.872 52.8939 134.702 52.1004 134.702 51.1875C134.702 50.2898 134.872 49.5019 135.213 48.8239C135.558 48.142 136.039 47.6117 136.656 47.233C137.274 46.8504 137.999 46.6591 138.833 46.6591C139.37 46.6591 139.878 46.7462 140.355 46.9205C140.836 47.0909 141.261 47.3561 141.628 47.7159C141.999 48.0758 142.291 48.5341 142.503 49.0909C142.715 49.6439 142.821 50.303 142.821 51.0682V51.6989H135.668V50.3125H140.85C140.846 49.9186 140.761 49.5682 140.594 49.2614C140.427 48.9508 140.194 48.7064 139.895 48.5284C139.6 48.3504 139.255 48.2614 138.861 48.2614C138.44 48.2614 138.071 48.3636 137.753 48.5682C137.435 48.7689 137.187 49.0341 137.009 49.3636C136.834 49.6894 136.745 50.0473 136.742 50.4375V51.6477C136.742 52.1553 136.834 52.5909 137.02 52.9545C137.206 53.3144 137.465 53.5909 137.798 53.7841C138.132 53.9735 138.522 54.0682 138.969 54.0682C139.268 54.0682 139.539 54.0265 139.781 53.9432C140.024 53.8561 140.234 53.7292 140.412 53.5625C140.59 53.3958 140.725 53.1894 140.815 52.9432L142.736 53.1591C142.615 53.6667 142.384 54.1098 142.043 54.4886C141.706 54.8636 141.274 55.1553 140.747 55.3636C140.221 55.5682 139.618 55.6705 138.94 55.6705ZM143.354 48.4602V46.7727H150.99V48.4602H148.166V55.5H146.178V48.4602H143.354ZM155.596 55.6705C154.743 55.6705 154.005 55.483 153.38 55.108C152.755 54.733 152.27 54.2083 151.925 53.5341C151.584 52.8598 151.414 52.072 151.414 51.1705C151.414 50.2689 151.584 49.4792 151.925 48.8011C152.27 48.1231 152.755 47.5966 153.38 47.2216C154.005 46.8466 154.743 46.6591 155.596 46.6591C156.448 46.6591 157.186 46.8466 157.811 47.2216C158.436 47.5966 158.919 48.1231 159.26 48.8011C159.605 49.4792 159.777 50.2689 159.777 51.1705C159.777 52.072 159.605 52.8598 159.26 53.5341C158.919 54.2083 158.436 54.733 157.811 55.108C157.186 55.483 156.448 55.6705 155.596 55.6705ZM155.607 54.0227C156.069 54.0227 156.455 53.8958 156.766 53.642C157.077 53.3845 157.308 53.0398 157.459 52.608C157.614 52.1761 157.692 51.6951 157.692 51.1648C157.692 50.6307 157.614 50.1477 157.459 49.7159C157.308 49.2803 157.077 48.9337 156.766 48.6761C156.455 48.4186 156.069 48.2898 155.607 48.2898C155.133 48.2898 154.739 48.4186 154.425 48.6761C154.114 48.9337 153.881 49.2803 153.726 49.7159C153.575 50.1477 153.499 50.6307 153.499 51.1648C153.499 51.6951 153.575 52.1761 153.726 52.608C153.881 53.0398 154.114 53.3845 154.425 53.642C154.739 53.8958 155.133 54.0227 155.607 54.0227ZM160.27 58.0341V53.8068H160.964C161.149 53.6629 161.304 53.4678 161.429 53.2216C161.554 52.9716 161.657 52.678 161.736 52.3409C161.82 52 161.888 51.6193 161.941 51.1989C161.994 50.7746 162.041 50.3182 162.083 49.8295L162.333 46.7727H168.64V53.8068H169.992V58.0341H168.003V55.5H162.293V58.0341H160.27ZM163.077 53.8068H166.674V48.4318H164.117L163.981 49.8295C163.905 50.7538 163.804 51.5455 163.679 52.2045C163.554 52.8636 163.354 53.3977 163.077 53.8068ZM173.03 52.7159L176.525 46.7727H178.638V55.5H176.65V49.5511L173.167 55.5H171.047V46.7727H173.03V52.7159ZM184.077 55.6705C183.206 55.6705 182.458 55.4792 181.833 55.0966C181.212 54.714 180.733 54.1856 180.396 53.5114C180.062 52.8333 179.896 52.053 179.896 51.1705C179.896 50.2841 180.066 49.5019 180.407 48.8239C180.748 48.142 181.229 47.6117 181.85 47.233C182.475 46.8504 183.214 46.6591 184.066 46.6591C184.774 46.6591 185.401 46.7898 185.947 47.0511C186.496 47.3087 186.933 47.6742 187.259 48.1477C187.585 48.6174 187.771 49.1667 187.816 49.7955H185.85C185.771 49.375 185.581 49.0246 185.282 48.7443C184.986 48.4602 184.591 48.3182 184.094 48.3182C183.674 48.3182 183.305 48.4318 182.986 48.6591C182.668 48.8826 182.42 49.2045 182.242 49.625C182.068 50.0455 181.981 50.5492 181.981 51.1364C181.981 51.7311 182.068 52.2424 182.242 52.6705C182.416 53.0947 182.661 53.4223 182.975 53.6534C183.293 53.8807 183.666 53.9943 184.094 53.9943C184.397 53.9943 184.668 53.9375 184.907 53.8239C185.149 53.7064 185.352 53.5379 185.515 53.3182C185.678 53.0985 185.79 52.8314 185.85 52.517H187.816C187.767 53.1345 187.585 53.6818 187.271 54.1591C186.956 54.6326 186.528 55.0038 185.986 55.2727C185.445 55.5379 184.808 55.6705 184.077 55.6705ZM188.391 48.4602V46.7727H196.028V48.4602H193.204V55.5H191.215V48.4602H188.391Z" fill="#262626"/>
<path d="M128.25 79.5L124.25 74.1591H122.818V79.5H121.409V67.8636H122.818V72.9091H123.432L128.091 67.8636H129.773L125.068 72.9773L129.932 79.5H128.25ZM133.996 79.6818C133.208 79.6818 132.517 79.4943 131.922 79.1193C131.331 78.7443 130.869 78.2197 130.536 77.5455C130.206 76.8712 130.041 76.0833 130.041 75.1818C130.041 74.2727 130.206 73.4792 130.536 72.8011C130.869 72.1231 131.331 71.5966 131.922 71.2216C132.517 70.8466 133.208 70.6591 133.996 70.6591C134.784 70.6591 135.473 70.8466 136.064 71.2216C136.659 71.5966 137.121 72.1231 137.45 72.8011C137.784 73.4792 137.95 74.2727 137.95 75.1818C137.95 76.0833 137.784 76.8712 137.45 77.5455C137.121 78.2197 136.659 78.7443 136.064 79.1193C135.473 79.4943 134.784 79.6818 133.996 79.6818ZM133.996 78.4773C134.594 78.4773 135.087 78.3239 135.473 78.017C135.859 77.7102 136.145 77.3068 136.331 76.8068C136.517 76.3068 136.609 75.7652 136.609 75.1818C136.609 74.5985 136.517 74.0549 136.331 73.5511C136.145 73.0473 135.859 72.6402 135.473 72.3295C135.087 72.0189 134.594 71.8636 133.996 71.8636C133.397 71.8636 132.905 72.0189 132.519 72.3295C132.132 72.6402 131.846 73.0473 131.661 73.5511C131.475 74.0549 131.382 74.5985 131.382 75.1818C131.382 75.7652 131.475 76.3068 131.661 76.8068C131.846 77.3068 132.132 77.7102 132.519 78.017C132.905 78.3239 133.397 78.4773 133.996 78.4773ZM145.358 74.5227V75.7727H140.54V74.5227H145.358ZM140.858 70.7727V79.5H139.517V70.7727H140.858ZM146.381 70.7727V79.5H145.04V70.7727H146.381ZM147.162 72.0227V70.7727H154.253V72.0227H151.39V79.5H150.049V72.0227H147.162ZM155.729 82.7727V70.7727H157.025V72.1591H157.184C157.282 72.0076 157.419 71.8144 157.593 71.5795C157.771 71.3409 158.025 71.1288 158.354 70.9432C158.687 70.7538 159.138 70.6591 159.706 70.6591C160.441 70.6591 161.089 70.8428 161.65 71.2102C162.21 71.5777 162.648 72.0985 162.962 72.7727C163.276 73.447 163.434 74.2424 163.434 75.1591C163.434 76.0833 163.276 76.8845 162.962 77.5625C162.648 78.2367 162.212 78.7595 161.655 79.1307C161.098 79.4981 160.456 79.6818 159.729 79.6818C159.169 79.6818 158.72 79.589 158.383 79.4034C158.045 79.214 157.786 79 157.604 78.7614C157.422 78.5189 157.282 78.3182 157.184 78.1591H157.07V82.7727H155.729ZM157.047 75.1364C157.047 75.7955 157.144 76.3769 157.337 76.8807C157.53 77.3807 157.812 77.7727 158.184 78.0568C158.555 78.3371 159.009 78.4773 159.547 78.4773C160.108 78.4773 160.576 78.3295 160.951 78.0341C161.33 77.7348 161.614 77.3333 161.803 76.8295C161.996 76.322 162.093 75.7576 162.093 75.1364C162.093 74.5227 161.998 73.9697 161.809 73.4773C161.623 72.9811 161.341 72.589 160.962 72.3011C160.587 72.0095 160.116 71.8636 159.547 71.8636C159.002 71.8636 158.544 72.0019 158.172 72.2784C157.801 72.5511 157.521 72.9337 157.331 73.4261C157.142 73.9148 157.047 74.4848 157.047 75.1364ZM168.545 79.6818C167.757 79.6818 167.065 79.4943 166.471 79.1193C165.88 78.7443 165.418 78.2197 165.084 77.5455C164.755 76.8712 164.59 76.0833 164.59 75.1818C164.59 74.2727 164.755 73.4792 165.084 72.8011C165.418 72.1231 165.88 71.5966 166.471 71.2216C167.065 70.8466 167.757 70.6591 168.545 70.6591C169.332 70.6591 170.022 70.8466 170.613 71.2216C171.207 71.5966 171.67 72.1231 171.999 72.8011C172.332 73.4792 172.499 74.2727 172.499 75.1818C172.499 76.0833 172.332 76.8712 171.999 77.5455C171.67 78.2197 171.207 78.7443 170.613 79.1193C170.022 79.4943 169.332 79.6818 168.545 79.6818ZM168.545 78.4773C169.143 78.4773 169.636 78.3239 170.022 78.017C170.408 77.7102 170.694 77.3068 170.88 76.8068C171.065 76.3068 171.158 75.7652 171.158 75.1818C171.158 74.5985 171.065 74.0549 170.88 73.5511C170.694 73.0473 170.408 72.6402 170.022 72.3295C169.636 72.0189 169.143 71.8636 168.545 71.8636C167.946 71.8636 167.454 72.0189 167.067 72.3295C166.681 72.6402 166.395 73.0473 166.209 73.5511C166.024 74.0549 165.931 74.5985 165.931 75.1818C165.931 75.7652 166.024 76.3068 166.209 76.8068C166.395 77.3068 166.681 77.7102 167.067 78.017C167.454 78.3239 167.946 78.4773 168.545 78.4773ZM173.293 79.5V78.25H173.611C173.873 78.25 174.091 78.1989 174.265 78.0966C174.439 77.9905 174.579 77.8068 174.685 77.5455C174.795 77.2803 174.879 76.9129 174.935 76.4432C174.996 75.9697 175.04 75.3674 175.066 74.6364L175.225 70.7727H181.043V79.5H179.702V72.0227H176.498L176.361 75.1364C176.331 75.8523 176.267 76.483 176.168 77.0284C176.074 77.5701 175.928 78.0246 175.731 78.392C175.538 78.7595 175.28 79.036 174.958 79.2216C174.636 79.4072 174.233 79.5 173.748 79.5H173.293ZM184.183 73.9318H186.683C187.705 73.9318 188.488 74.1913 189.029 74.7102C189.571 75.2292 189.842 75.8864 189.842 76.6818C189.842 77.2045 189.72 77.6799 189.478 78.108C189.236 78.5322 188.88 78.8712 188.41 79.125C187.94 79.375 187.364 79.5 186.683 79.5H183.024V70.7727H184.364V78.25H186.683C187.213 78.25 187.649 78.1098 187.989 77.8295C188.33 77.5492 188.501 77.1894 188.501 76.75C188.501 76.2879 188.33 75.911 187.989 75.6193C187.649 75.3277 187.213 75.1818 186.683 75.1818H184.183V73.9318ZM201.264 74.5227V75.7727H196.446V74.5227H201.264ZM196.764 70.7727V79.5H195.423V70.7727H196.764ZM202.287 70.7727V79.5H200.946V70.7727H202.287ZM206.824 79.7045C206.271 79.7045 205.769 79.6004 205.318 79.392C204.867 79.1799 204.509 78.875 204.244 78.4773C203.979 78.0758 203.846 77.5909 203.846 77.0227C203.846 76.5227 203.945 76.1174 204.142 75.8068C204.339 75.4924 204.602 75.2462 204.932 75.0682C205.261 74.8902 205.625 74.7576 206.022 74.6705C206.424 74.5795 206.827 74.5076 207.233 74.4545C207.763 74.3864 208.193 74.3352 208.522 74.3011C208.856 74.2633 209.098 74.2008 209.25 74.1136C209.405 74.0265 209.483 73.875 209.483 73.6591V73.6136C209.483 73.053 209.329 72.6174 209.022 72.3068C208.719 71.9962 208.259 71.8409 207.642 71.8409C207.002 71.8409 206.5 71.9811 206.136 72.2614C205.772 72.5417 205.517 72.8409 205.369 73.1591L204.096 72.7045C204.324 72.1742 204.627 71.7614 205.005 71.4659C205.388 71.1667 205.805 70.9583 206.255 70.8409C206.71 70.7197 207.157 70.6591 207.596 70.6591C207.877 70.6591 208.199 70.6932 208.562 70.7614C208.93 70.8258 209.284 70.9602 209.625 71.1648C209.969 71.3693 210.255 71.678 210.483 72.0909C210.71 72.5038 210.824 73.0568 210.824 73.75V79.5H209.483V78.3182H209.414C209.324 78.5076 209.172 78.7102 208.96 78.9261C208.748 79.142 208.466 79.3258 208.113 79.4773C207.761 79.6288 207.331 79.7045 206.824 79.7045ZM207.028 78.5C207.558 78.5 208.005 78.3958 208.369 78.1875C208.736 77.9792 209.013 77.7102 209.199 77.3807C209.388 77.0511 209.483 76.7045 209.483 76.3409V75.1136C209.426 75.1818 209.301 75.2443 209.108 75.3011C208.918 75.3542 208.699 75.4015 208.449 75.4432C208.202 75.4811 207.962 75.5152 207.727 75.5455C207.496 75.572 207.308 75.5947 207.164 75.6136C206.816 75.6591 206.49 75.733 206.187 75.8352C205.888 75.9337 205.646 76.0833 205.46 76.2841C205.278 76.4811 205.187 76.75 205.187 77.0909C205.187 77.5568 205.36 77.9091 205.704 78.1477C206.053 78.3826 206.494 78.5 207.028 78.5ZM217.675 82.7727C217.447 82.7727 217.245 82.7538 217.067 82.7159C216.889 82.6818 216.766 82.6477 216.697 82.6136L217.038 81.4318C217.364 81.5152 217.652 81.5455 217.902 81.5227C218.152 81.5 218.374 81.3883 218.567 81.1875C218.764 80.9905 218.944 80.6705 219.106 80.2273L219.356 79.5455L216.129 70.7727H217.584L219.993 77.7273H220.084L222.493 70.7727H223.947L220.243 80.7727C220.076 81.2235 219.87 81.5966 219.624 81.892C219.377 82.1913 219.091 82.4129 218.766 82.5568C218.444 82.7008 218.08 82.7727 217.675 82.7727ZM231.699 70.7727V79.5H230.358V70.7727H231.699ZM231.176 74.9318V76.1818C230.873 76.2955 230.572 76.3958 230.273 76.483C229.974 76.5663 229.659 76.6326 229.33 76.6818C229 76.7273 228.638 76.75 228.244 76.75C227.256 76.75 226.462 76.483 225.864 75.9489C225.269 75.4148 224.972 74.6136 224.972 73.5455V70.75H226.313V73.5455C226.313 73.9924 226.398 74.3598 226.568 74.6477C226.739 74.9356 226.97 75.1496 227.261 75.2898C227.553 75.4299 227.881 75.5 228.244 75.5C228.813 75.5 229.326 75.4489 229.784 75.3466C230.246 75.2405 230.71 75.1023 231.176 74.9318ZM237.338 79.6818C236.497 79.6818 235.772 79.4962 235.162 79.125C234.556 78.75 234.088 78.2273 233.759 77.5568C233.433 76.8826 233.27 76.0985 233.27 75.2045C233.27 74.3106 233.433 73.5227 233.759 72.8409C234.088 72.1553 234.547 71.6212 235.134 71.2386C235.725 70.8523 236.414 70.6591 237.202 70.6591C237.656 70.6591 238.105 70.7348 238.548 70.8864C238.992 71.0379 239.395 71.2841 239.759 71.625C240.122 71.9621 240.412 72.4091 240.628 72.9659C240.844 73.5227 240.952 74.2083 240.952 75.0227V75.5909H234.225V74.4318H239.588C239.588 73.9394 239.49 73.5 239.293 73.1136C239.1 72.7273 238.823 72.4223 238.463 72.1989C238.107 71.9754 237.687 71.8636 237.202 71.8636C236.668 71.8636 236.206 71.9962 235.816 72.2614C235.429 72.5227 235.132 72.8636 234.923 73.2841C234.715 73.7045 234.611 74.1553 234.611 74.6364V75.4091C234.611 76.0682 234.725 76.6269 234.952 77.0852C235.183 77.5398 235.503 77.8864 235.912 78.125C236.321 78.3598 236.797 78.4773 237.338 78.4773C237.691 78.4773 238.009 78.428 238.293 78.3295C238.581 78.2273 238.829 78.0758 239.037 77.875C239.245 77.6705 239.406 77.4167 239.52 77.1136L240.816 77.4773C240.679 77.9167 240.45 78.303 240.128 78.6364C239.806 78.9659 239.408 79.2235 238.935 79.4091C238.461 79.5909 237.929 79.6818 237.338 79.6818ZM248.989 67.5L249.671 68.3182C249.406 68.5758 249.099 68.7557 248.75 68.858C248.402 68.9602 248.008 69.0227 247.568 69.0455C247.129 69.0682 246.64 69.0909 246.103 69.1136C245.496 69.1364 244.995 69.2841 244.597 69.5568C244.199 69.8295 243.892 70.2235 243.676 70.7386C243.461 71.2538 243.322 71.8864 243.262 72.6364H243.375C243.671 72.0909 244.08 71.6894 244.603 71.4318C245.125 71.1742 245.686 71.0455 246.284 71.0455C246.966 71.0455 247.58 71.2045 248.125 71.5227C248.671 71.8409 249.103 72.3125 249.421 72.9375C249.739 73.5625 249.898 74.3333 249.898 75.25C249.898 76.1629 249.735 76.9508 249.409 77.6136C249.087 78.2765 248.635 78.7879 248.051 79.1477C247.472 79.5038 246.792 79.6818 246.012 79.6818C245.231 79.6818 244.548 79.4981 243.961 79.1307C243.373 78.7595 242.917 78.2102 242.591 77.483C242.265 76.7519 242.103 75.8485 242.103 74.7727V73.8409C242.103 71.8977 242.432 70.4242 243.091 69.4205C243.754 68.4167 244.75 67.8977 246.08 67.8636C246.55 67.8485 246.968 67.8447 247.336 67.8523C247.703 67.8598 248.023 67.8428 248.296 67.8011C248.568 67.7595 248.8 67.6591 248.989 67.5ZM246.012 78.4773C246.538 78.4773 246.991 78.3447 247.37 78.0795C247.752 77.8144 248.046 77.4413 248.25 76.9602C248.455 76.4754 248.557 75.9053 248.557 75.25C248.557 74.6136 248.453 74.072 248.245 73.625C248.04 73.178 247.746 72.8371 247.364 72.6023C246.981 72.3674 246.523 72.25 245.989 72.25C245.599 72.25 245.248 72.3163 244.938 72.4489C244.627 72.5814 244.362 72.7765 244.142 73.0341C243.923 73.2917 243.752 73.6061 243.631 73.9773C243.514 74.3485 243.451 74.7727 243.443 75.25C243.443 76.2273 243.673 77.0095 244.131 77.5966C244.589 78.1837 245.216 78.4773 246.012 78.4773ZM257.31 74.5227V75.7727H252.492V74.5227H257.31ZM252.81 70.7727V79.5H251.469V70.7727H252.81ZM258.333 70.7727V79.5H256.992V70.7727H258.333ZM261.461 73.9318H263.961C264.983 73.9318 265.766 74.1913 266.307 74.7102C266.849 75.2292 267.12 75.8864 267.12 76.6818C267.12 77.2045 266.999 77.6799 266.756 78.108C266.514 78.5322 266.158 78.8712 265.688 79.125C265.218 79.375 264.643 79.5 263.961 79.5H260.302V70.7727H261.643V78.25H263.961C264.491 78.25 264.927 78.1098 265.268 77.8295C265.608 77.5492 265.779 77.1894 265.779 76.75C265.779 76.2879 265.608 75.911 265.268 75.6193C264.927 75.3277 264.491 75.1818 263.961 75.1818H261.461V73.9318ZM268.506 79.5V70.7727H269.847V79.5H268.506ZM276.594 77.6818L279.64 70.7727H280.913L277.14 79.5H276.049L272.344 70.7727H273.594L276.594 77.6818ZM273.163 70.7727V79.5H271.822V70.7727H273.163ZM280.026 79.5V70.7727H281.367V79.5H280.026ZM126 93.6818L129.045 86.7727H130.318L126.545 95.5H125.455L121.75 86.7727H123L126 93.6818ZM122.568 86.7727V95.5H121.227V86.7727H122.568ZM129.432 95.5V86.7727H130.773V95.5H129.432ZM135.315 95.7045C134.762 95.7045 134.261 95.6004 133.81 95.392C133.359 95.1799 133.001 94.875 132.736 94.4773C132.471 94.0758 132.338 93.5909 132.338 93.0227C132.338 92.5227 132.437 92.1174 132.634 91.8068C132.831 91.4924 133.094 91.2462 133.423 91.0682C133.753 90.8902 134.117 90.7576 134.514 90.6705C134.916 90.5795 135.319 90.5076 135.725 90.4545C136.255 90.3864 136.685 90.3352 137.014 90.3011C137.348 90.2633 137.59 90.2008 137.742 90.1136C137.897 90.0265 137.975 89.875 137.975 89.6591V89.6136C137.975 89.053 137.821 88.6174 137.514 88.3068C137.211 87.9962 136.751 87.8409 136.134 87.8409C135.493 87.8409 134.992 87.9811 134.628 88.2614C134.264 88.5417 134.009 88.8409 133.861 89.1591L132.588 88.7045C132.815 88.1742 133.118 87.7614 133.497 87.4659C133.88 87.1667 134.297 86.9583 134.747 86.8409C135.202 86.7197 135.649 86.6591 136.088 86.6591C136.368 86.6591 136.69 86.6932 137.054 86.7614C137.422 86.8258 137.776 86.9602 138.117 87.1648C138.461 87.3693 138.747 87.678 138.975 88.0909C139.202 88.5038 139.315 89.0568 139.315 89.75V95.5H137.975V94.3182H137.906C137.815 94.5076 137.664 94.7102 137.452 94.9261C137.24 95.142 136.958 95.3258 136.605 95.4773C136.253 95.6288 135.823 95.7045 135.315 95.7045ZM135.52 94.5C136.05 94.5 136.497 94.3958 136.861 94.1875C137.228 93.9792 137.505 93.7102 137.69 93.3807C137.88 93.0511 137.975 92.7045 137.975 92.3409V91.1136C137.918 91.1818 137.793 91.2443 137.6 91.3011C137.41 91.3542 137.19 91.4015 136.94 91.4432C136.694 91.4811 136.454 91.5152 136.219 91.5455C135.988 91.572 135.8 91.5947 135.656 91.6136C135.308 91.6591 134.982 91.733 134.679 91.8352C134.38 91.9337 134.137 92.0833 133.952 92.2841C133.77 92.4811 133.679 92.75 133.679 93.0909C133.679 93.5568 133.851 93.9091 134.196 94.1477C134.545 94.3826 134.986 94.5 135.52 94.5ZM140.095 88.0227V86.7727H147.186V88.0227H144.323V95.5H142.982V88.0227H140.095ZM151.868 95.6818C151.027 95.6818 150.302 95.4962 149.692 95.125C149.086 94.75 148.618 94.2273 148.289 93.5568C147.963 92.8826 147.8 92.0985 147.8 91.2045C147.8 90.3106 147.963 89.5227 148.289 88.8409C148.618 88.1553 149.077 87.6212 149.664 87.2386C150.255 86.8523 150.944 86.6591 151.732 86.6591C152.186 86.6591 152.635 86.7348 153.078 86.8864C153.522 87.0379 153.925 87.2841 154.289 87.625C154.652 87.9621 154.942 88.4091 155.158 88.9659C155.374 89.5227 155.482 90.2083 155.482 91.0227V91.5909H148.755V90.4318H154.118C154.118 89.9394 154.02 89.5 153.823 89.1136C153.63 88.7273 153.353 88.4223 152.993 88.1989C152.637 87.9754 152.217 87.8636 151.732 87.8636C151.198 87.8636 150.736 87.9962 150.346 88.2614C149.959 88.5227 149.662 88.8636 149.453 89.2841C149.245 89.7045 149.141 90.1553 149.141 90.6364V91.4091C149.141 92.0682 149.255 92.6269 149.482 93.0852C149.713 93.5398 150.033 93.8864 150.442 94.125C150.851 94.3598 151.327 94.4773 151.868 94.4773C152.221 94.4773 152.539 94.428 152.823 94.3295C153.111 94.2273 153.359 94.0758 153.567 93.875C153.775 93.6705 153.936 93.4167 154.05 93.1136L155.346 93.4773C155.209 93.9167 154.98 94.303 154.658 94.6364C154.336 94.9659 153.938 95.2235 153.465 95.4091C152.991 95.5909 152.459 95.6818 151.868 95.6818ZM157.042 98.7727V86.7727H158.337V88.1591H158.496C158.595 88.0076 158.731 87.8144 158.905 87.5795C159.083 87.3409 159.337 87.1288 159.667 86.9432C160 86.7538 160.451 86.6591 161.019 86.6591C161.754 86.6591 162.401 86.8428 162.962 87.2102C163.523 87.5777 163.96 88.0985 164.275 88.7727C164.589 89.447 164.746 90.2424 164.746 91.1591C164.746 92.0833 164.589 92.8845 164.275 93.5625C163.96 94.2367 163.525 94.7595 162.968 95.1307C162.411 95.4981 161.769 95.6818 161.042 95.6818C160.481 95.6818 160.032 95.589 159.695 95.4034C159.358 95.214 159.098 95 158.917 94.7614C158.735 94.5189 158.595 94.3182 158.496 94.1591H158.383V98.7727H157.042ZM158.36 91.1364C158.36 91.7955 158.456 92.3769 158.65 92.8807C158.843 93.3807 159.125 93.7727 159.496 94.0568C159.867 94.3371 160.322 94.4773 160.86 94.4773C161.42 94.4773 161.888 94.3295 162.263 94.0341C162.642 93.7348 162.926 93.3333 163.116 92.8295C163.309 92.322 163.405 91.7576 163.405 91.1364C163.405 90.5227 163.311 89.9697 163.121 89.4773C162.936 88.9811 162.653 88.589 162.275 88.3011C161.9 88.0095 161.428 87.8636 160.86 87.8636C160.314 87.8636 159.856 88.0019 159.485 88.2784C159.114 88.5511 158.833 88.9337 158.644 89.4261C158.455 89.9148 158.36 90.4848 158.36 91.1364ZM167.653 93.5227L171.857 86.7727H173.403V95.5H172.062V88.75L167.88 95.5H166.312V86.7727H167.653V93.5227ZM177.947 95.7045C177.394 95.7045 176.892 95.6004 176.441 95.392C175.99 95.1799 175.632 94.875 175.367 94.4773C175.102 94.0758 174.969 93.5909 174.969 93.0227C174.969 92.5227 175.068 92.1174 175.265 91.8068C175.462 91.4924 175.725 91.2462 176.055 91.0682C176.384 90.8902 176.748 90.7576 177.146 90.6705C177.547 90.5795 177.95 90.5076 178.356 90.4545C178.886 90.3864 179.316 90.3352 179.646 90.3011C179.979 90.2633 180.221 90.2008 180.373 90.1136C180.528 90.0265 180.606 89.875 180.606 89.6591V89.6136C180.606 89.053 180.452 88.6174 180.146 88.3068C179.843 87.9962 179.382 87.8409 178.765 87.8409C178.125 87.8409 177.623 87.9811 177.259 88.2614C176.896 88.5417 176.64 88.8409 176.492 89.1591L175.219 88.7045C175.447 88.1742 175.75 87.7614 176.129 87.4659C176.511 87.1667 176.928 86.9583 177.379 86.8409C177.833 86.7197 178.28 86.6591 178.719 86.6591C179 86.6591 179.322 86.6932 179.685 86.7614C180.053 86.8258 180.407 86.9602 180.748 87.1648C181.093 87.3693 181.379 87.678 181.606 88.0909C181.833 88.5038 181.947 89.0568 181.947 89.75V95.5H180.606V94.3182H180.538C180.447 94.5076 180.295 94.7102 180.083 94.9261C179.871 95.142 179.589 95.3258 179.236 95.4773C178.884 95.6288 178.454 95.7045 177.947 95.7045ZM178.151 94.5C178.682 94.5 179.129 94.3958 179.492 94.1875C179.86 93.9792 180.136 93.7102 180.322 93.3807C180.511 93.0511 180.606 92.7045 180.606 92.3409V91.1136C180.549 91.1818 180.424 91.2443 180.231 91.3011C180.041 91.3542 179.822 91.4015 179.572 91.4432C179.325 91.4811 179.085 91.5152 178.85 91.5455C178.619 91.572 178.432 91.5947 178.288 91.6136C177.939 91.6591 177.613 91.733 177.31 91.8352C177.011 91.9337 176.769 92.0833 176.583 92.2841C176.401 92.4811 176.31 92.75 176.31 93.0909C176.31 93.5568 176.483 93.9091 176.827 94.1477C177.176 94.3826 177.617 94.5 178.151 94.5ZM183.141 95.5V94.25H183.46C183.721 94.25 183.939 94.1989 184.113 94.0966C184.287 93.9905 184.427 93.8068 184.533 93.5455C184.643 93.2803 184.727 92.9129 184.783 92.4432C184.844 91.9697 184.888 91.3674 184.914 90.6364L185.073 86.7727H190.891V95.5H189.551V88.0227H186.346L186.21 91.1364C186.179 91.8523 186.115 92.483 186.016 93.0284C185.922 93.5701 185.776 94.0246 185.579 94.392C185.386 94.7595 185.128 95.036 184.806 95.2216C184.484 95.4072 184.081 95.5 183.596 95.5H183.141ZM196.417 95.6818C195.629 95.6818 194.938 95.4943 194.343 95.1193C193.752 94.7443 193.29 94.2197 192.957 93.5455C192.627 92.8712 192.463 92.0833 192.463 91.1818C192.463 90.2727 192.627 89.4792 192.957 88.8011C193.29 88.1231 193.752 87.5966 194.343 87.2216C194.938 86.8466 195.629 86.6591 196.417 86.6591C197.205 86.6591 197.894 86.8466 198.485 87.2216C199.08 87.5966 199.542 88.1231 199.872 88.8011C200.205 89.4792 200.372 90.2727 200.372 91.1818C200.372 92.0833 200.205 92.8712 199.872 93.5455C199.542 94.2197 199.08 94.7443 198.485 95.1193C197.894 95.4943 197.205 95.6818 196.417 95.6818ZM196.417 94.4773C197.016 94.4773 197.508 94.3239 197.894 94.017C198.281 93.7102 198.567 93.3068 198.752 92.8068C198.938 92.3068 199.031 91.7652 199.031 91.1818C199.031 90.5985 198.938 90.0549 198.752 89.5511C198.567 89.0473 198.281 88.6402 197.894 88.3295C197.508 88.0189 197.016 87.8636 196.417 87.8636C195.819 87.8636 195.326 88.0189 194.94 88.3295C194.553 88.6402 194.267 89.0473 194.082 89.5511C193.896 90.0549 193.803 90.5985 193.803 91.1818C193.803 91.7652 193.896 92.3068 194.082 92.8068C194.267 93.3068 194.553 93.7102 194.94 94.017C195.326 94.3239 195.819 94.4773 196.417 94.4773ZM206.711 93.6818L209.757 86.7727H211.029L207.257 95.5H206.166L202.461 86.7727H203.711L206.711 93.6818ZM203.279 86.7727V95.5H201.939V86.7727H203.279ZM210.143 95.5V86.7727H211.484V95.5H210.143Z" fill="#626262"/>
</g>
<defs>
<filter id="filter0_d_405_15" x="0" y="0" width="389" height="144" filterUnits="userSpaceOnUse" color-interpolation-filters="sRGB">
<feFlood flood-opacity="0" result="BackgroundImageFix"/>
<feColorMatrix in="SourceAlpha" type="matrix" values="0 0 0 0 0 0 0 0 0 0 0 0 0 0 0 0 0 0 127 0" result="hardAlpha"/>
<feOffset dy="4"/>
<feGaussianBlur stdDeviation="12"/>
<feComposite in2="hardAlpha" operator="out"/>
<feColorMatrix type="matrix" values="0 0 0 0 0 0 0 0 0 0 0 0 0 0 0 0 0 0 0.1 0"/>
<feBlend mode="normal" in2="BackgroundImageFix" result="effect1_dropShadow_405_15"/>
<feBlend mode="normal" in="SourceGraphic" in2="effect1_dropShadow_405_15" result="shape"/>
</filter>
</defs>
</svg>
