<svg width="341" height="96" viewBox="0 0 341 96" fill="none" xmlns="http://www.w3.org/2000/svg">
<rect width="341" height="96" rx="16" fill="white"/>
<path d="M53.9326 23.4873C59.8886 21.4537 65.8312 21.7013 70.0645 25.9346C74.2977 30.1679 74.5471 36.1123 72.5146 42.0684C71.8646 43.9702 70.9712 45.9178 69.8652 47.877L69.7959 47.999L69.8652 48.1221C70.9713 50.0824 71.8646 52.0288 72.5146 53.9316C74.5471 59.8877 74.2978 65.83 70.0645 70.0645C65.8301 74.2977 59.8885 74.547 53.9326 72.5146C52.0297 71.8646 50.0822 70.9712 48.123 69.8652L48 69.7959L47.877 69.8652C45.9178 70.9713 43.9703 71.8646 42.0684 72.5146C36.1113 74.547 30.1697 74.2976 25.9365 70.0645C21.7021 65.83 21.4528 59.8877 23.4863 53.9316C24.1352 52.0288 25.0288 50.0812 26.1348 48.1221L26.2041 47.999L26.1348 47.877C25.0288 45.9179 24.1364 43.9702 23.4863 42.0684C21.4528 36.1112 21.7034 30.1687 25.9355 25.9365C30.1688 21.7024 36.1125 21.4538 42.0684 23.4873C43.9702 24.1362 45.9178 25.0287 47.877 26.1348L48 26.2041L48.123 26.1348C50.0821 25.0288 52.0296 24.1373 53.9326 23.4873ZM28.501 52.2822C28.1438 53.0354 27.8285 53.7772 27.5537 54.5068L27.292 55.2324C25.5218 60.4176 26.0605 64.5009 28.7803 67.2207C31.5001 69.9404 35.5847 70.4771 40.7686 68.708H40.7695C41.7743 68.3603 42.759 67.9567 43.7188 67.499L44.1006 67.3164L43.7568 67.0703C41.0411 65.1255 38.3493 62.8191 35.7656 60.2354C33.1819 57.6516 30.8754 54.9599 28.9307 52.2441L28.6836 51.8984L28.501 52.2822ZM67.0684 52.2441C65.1235 54.96 62.818 57.6528 60.2344 60.2354C57.6506 62.8191 54.9589 65.1255 52.2432 67.0703L51.8984 67.3164L52.2812 67.499C53.241 67.9567 54.2256 68.3603 55.2305 68.708H55.2314C60.4155 70.4783 64.4999 69.9405 67.2197 67.2207C69.8546 64.5858 70.4417 60.6712 68.8652 55.7148L68.7061 55.2324C68.3778 54.2691 67.9749 53.2857 67.4971 52.2822L67.3145 51.8994L67.0684 52.2441ZM47.8633 30.9961C44.7978 32.9886 41.6588 35.56 38.6094 38.6094C35.5599 41.6589 32.9887 44.7987 30.9961 47.8643L30.9072 48.001L30.9961 48.1367C32.9887 51.2024 35.5598 54.342 38.6094 57.3916C41.6588 60.441 44.7978 63.0122 47.8633 65.0059L48 65.0947L48.1357 65.0059C51.2013 63.0121 54.3411 60.4412 57.3906 57.3916C60.4402 54.342 63.0113 51.2024 65.0039 48.1367L65.0928 48.001L65.0039 47.8643C63.0113 44.7986 60.4402 41.6589 57.3906 38.6094C54.3411 35.5599 51.2013 32.9887 48.1357 30.9961L48 30.9082L47.8633 30.9961ZM48 40.3369C49.0063 40.3369 50.0029 40.5348 50.9326 40.9199C51.8624 41.305 52.7073 41.8695 53.4189 42.5811C54.1305 43.2926 54.6949 44.1377 55.0801 45.0674C55.4652 45.9972 55.6641 46.9945 55.6641 48.001C55.664 50.0335 54.8561 51.9827 53.4189 53.4199C51.9817 54.8571 50.0325 55.665 48 55.665C45.9675 55.665 44.0183 54.8571 42.5811 53.4199C41.1439 51.9827 40.336 50.0335 40.3359 48.001C40.3359 46.9945 40.5338 45.9972 40.9189 45.0674C41.3041 44.1376 41.8694 43.2927 42.5811 42.5811C43.2926 41.8696 44.1377 41.305 45.0674 40.9199C45.9971 40.5349 46.9937 40.3369 48 40.3369ZM40.7686 27.2939C35.5846 25.5214 31.5001 26.0596 28.7803 28.7793C26.0606 31.499 25.5219 35.5847 27.292 40.7686V40.7695C27.6217 41.7326 28.0257 42.7154 28.502 43.7188L28.6836 44.1025L28.9307 43.7568C30.8754 41.0412 33.182 38.3493 35.7656 35.7656C38.3492 33.182 41.0412 30.8774 43.7568 28.9326L44.1006 28.6855L43.7188 28.5029C42.759 28.0453 41.7744 27.6416 40.7695 27.2939H40.7686ZM67.2197 28.7803C64.5849 26.1455 60.6692 25.5584 55.7139 27.1338L55.2314 27.293C54.2691 27.6226 53.2854 28.0257 52.2812 28.502L51.8975 28.6836L52.2432 28.9307C54.9589 30.8755 57.6507 33.1819 60.2344 35.7656C62.818 38.3493 65.1235 41.0411 67.0684 43.7568L67.3145 44.1016L67.4971 43.7188C67.9748 42.7146 68.3779 41.7311 68.7061 40.7686C70.4773 35.5846 69.9395 31.5 67.2197 28.7803Z" fill="#6A63F5" stroke="#6A63F5" stroke-width="0.5"/>
<path d="M101.545 25.1591H103.898C104.807 25.1591 105.614 25.3542 106.318 25.7443C107.023 26.1345 107.576 26.6837 107.977 27.392C108.379 28.0966 108.58 28.9223 108.58 29.8693C108.58 30.7936 108.379 31.6023 107.977 32.2955C107.576 32.9886 107.023 33.5284 106.318 33.9148C105.614 34.2973 104.807 34.4886 103.898 34.4886H101.545C100.633 34.4886 99.822 34.2992 99.1136 33.9205C98.4091 33.5379 97.8561 33 97.4545 32.3068C97.053 31.6136 96.8523 30.803 96.8523 29.875C96.8523 28.928 97.0549 28.1023 97.4602 27.3977C97.8655 26.6894 98.4205 26.1402 99.125 25.75C99.8333 25.3561 100.64 25.1591 101.545 25.1591ZM101.545 26.9432C100.992 26.9432 100.513 27.0568 100.108 27.2841C99.7064 27.5076 99.3958 27.8371 99.1761 28.2727C98.9564 28.7083 98.8466 29.2424 98.8466 29.875C98.8466 30.4811 98.9564 30.9943 99.1761 31.4148C99.3996 31.8352 99.714 32.1553 100.119 32.375C100.525 32.5947 101 32.7045 101.545 32.7045H103.903C104.453 32.7045 104.926 32.5947 105.324 32.375C105.725 32.1515 106.034 31.8295 106.25 31.4091C106.47 30.9848 106.58 30.4716 106.58 29.8693C106.58 29.2443 106.47 28.714 106.25 28.2784C106.034 27.8428 105.725 27.5114 105.324 27.2841C104.926 27.0568 104.453 26.9432 103.903 26.9432H101.545ZM103.739 23.6591V35.9773H101.71V23.6591H103.739ZM111.997 32.7159L115.492 26.7727H117.605V35.5H115.617V29.5511L112.134 35.5H110.014V26.7727H111.997V32.7159ZM118.754 33.108H120.794C120.813 33.4337 120.959 33.6856 121.232 33.8636C121.504 34.0417 121.859 34.1307 122.294 34.1307C122.737 34.1307 123.111 34.0341 123.414 33.8409C123.72 33.6439 123.874 33.3466 123.874 32.9489C123.874 32.714 123.815 32.5076 123.698 32.3295C123.58 32.1477 123.415 32.0076 123.203 31.9091C122.991 31.8106 122.741 31.7614 122.453 31.7614H121.118V30.3011H122.453C122.881 30.3011 123.205 30.2027 123.425 30.0057C123.648 29.8087 123.76 29.5606 123.76 29.2614C123.76 28.9394 123.643 28.678 123.408 28.4773C123.177 28.2765 122.857 28.1761 122.448 28.1761C122.039 28.1761 121.698 28.2689 121.425 28.4545C121.156 28.6402 121.016 28.8788 121.004 29.1705H118.976C118.984 28.6629 119.135 28.2216 119.431 27.8466C119.73 27.4716 120.131 27.1799 120.635 26.9716C121.143 26.7633 121.715 26.6591 122.351 26.6591C123.033 26.6591 123.622 26.7614 124.118 26.9659C124.614 27.1705 124.997 27.4564 125.266 27.8239C125.535 28.1875 125.669 28.6155 125.669 29.108C125.669 29.5814 125.522 29.9735 125.226 30.2841C124.931 30.5909 124.533 30.8106 124.033 30.9432V31.0341C124.378 31.053 124.688 31.1515 124.965 31.3295C125.241 31.5038 125.461 31.7405 125.624 32.0398C125.787 32.339 125.868 32.6856 125.868 33.0795C125.868 33.6136 125.715 34.0758 125.408 34.4659C125.101 34.8523 124.679 35.1496 124.141 35.358C123.607 35.5663 122.995 35.6705 122.306 35.6705C121.635 35.6705 121.035 35.5701 120.504 35.3693C119.978 35.1648 119.559 34.8712 119.249 34.4886C118.938 34.1061 118.773 33.6458 118.754 33.108ZM128.99 32.7159L132.485 26.7727H134.598V35.5H132.61V29.5511L129.127 35.5H127.007V26.7727H128.99V32.7159ZM136.231 35.5V26.7727H138.287V30.2955H139.037L141.662 26.7727H144.14L140.907 31.0568L144.174 35.5H141.685L139.293 32.2102H138.287V35.5H136.231ZM147.371 35.6761C146.818 35.6761 146.32 35.5777 145.877 35.3807C145.438 35.1799 145.089 34.8845 144.832 34.4943C144.578 34.1042 144.451 33.6231 144.451 33.0511C144.451 32.5587 144.542 32.1515 144.724 31.8295C144.905 31.5076 145.154 31.25 145.468 31.0568C145.782 30.8636 146.136 30.7178 146.53 30.6193C146.928 30.517 147.339 30.4432 147.763 30.3977C148.275 30.3447 148.689 30.2973 149.008 30.2557C149.326 30.2102 149.557 30.142 149.701 30.0511C149.849 29.9564 149.922 29.8106 149.922 29.6136V29.5795C149.922 29.1515 149.796 28.8201 149.542 28.5852C149.288 28.3504 148.922 28.233 148.445 28.233C147.941 28.233 147.542 28.3428 147.246 28.5625C146.955 28.7822 146.758 29.0417 146.655 29.3409L144.735 29.0682C144.886 28.5379 145.136 28.0947 145.485 27.7386C145.833 27.3788 146.26 27.1098 146.763 26.9318C147.267 26.75 147.824 26.6591 148.434 26.6591C148.854 26.6591 149.273 26.7083 149.689 26.8068C150.106 26.9053 150.487 27.0682 150.832 27.2955C151.176 27.5189 151.453 27.8239 151.661 28.2102C151.873 28.5966 151.979 29.0795 151.979 29.6591V35.5H150.002V34.3011H149.934C149.809 34.5436 149.633 34.7708 149.405 34.983C149.182 35.1913 148.9 35.3598 148.559 35.4886C148.222 35.6136 147.826 35.6761 147.371 35.6761ZM147.905 34.1648C148.318 34.1648 148.676 34.0833 148.979 33.9205C149.282 33.7538 149.515 33.5341 149.678 33.2614C149.845 32.9886 149.928 32.6913 149.928 32.3693V31.3409C149.864 31.3939 149.754 31.4432 149.599 31.4886C149.447 31.5341 149.277 31.5739 149.087 31.608C148.898 31.642 148.71 31.6723 148.525 31.6989C148.339 31.7254 148.178 31.7481 148.042 31.767C147.735 31.8087 147.46 31.8769 147.218 31.9716C146.975 32.0663 146.784 32.1989 146.644 32.3693C146.504 32.536 146.434 32.7519 146.434 33.017C146.434 33.3958 146.572 33.6818 146.849 33.875C147.125 34.0682 147.477 34.1648 147.905 34.1648Z" fill="#262626"/>
<path d="M97.4091 47.8636H99.0909L103.045 57.5227H103.182L107.136 47.8636H108.818V59.5H107.5V50.6591H107.386L103.75 59.5H102.477L98.8409 50.6591H98.7273V59.5H97.4091V47.8636ZM113.55 59.7045C112.997 59.7045 112.495 59.6004 112.044 59.392C111.593 59.1799 111.235 58.875 110.97 58.4773C110.705 58.0758 110.573 57.5909 110.573 57.0227C110.573 56.5227 110.671 56.1174 110.868 55.8068C111.065 55.4924 111.328 55.2462 111.658 55.0682C111.987 54.8902 112.351 54.7576 112.749 54.6705C113.15 54.5795 113.554 54.5076 113.959 54.4545C114.489 54.3864 114.919 54.3352 115.249 54.3011C115.582 54.2633 115.824 54.2008 115.976 54.1136C116.131 54.0265 116.209 53.875 116.209 53.6591V53.6136C116.209 53.053 116.056 52.6174 115.749 52.3068C115.446 51.9962 114.985 51.8409 114.368 51.8409C113.728 51.8409 113.226 51.9811 112.862 52.2614C112.499 52.5417 112.243 52.8409 112.095 53.1591L110.823 52.7045C111.05 52.1742 111.353 51.7614 111.732 51.4659C112.114 51.1667 112.531 50.9583 112.982 50.8409C113.436 50.7197 113.883 50.6591 114.323 50.6591C114.603 50.6591 114.925 50.6932 115.288 50.7614C115.656 50.8258 116.01 50.9602 116.351 51.1648C116.696 51.3693 116.982 51.678 117.209 52.0909C117.436 52.5038 117.55 53.0568 117.55 53.75V59.5H116.209V58.3182H116.141C116.05 58.5076 115.898 58.7102 115.686 58.9261C115.474 59.142 115.192 59.3258 114.84 59.4773C114.487 59.6288 114.057 59.7045 113.55 59.7045ZM113.754 58.5C114.285 58.5 114.732 58.3958 115.095 58.1875C115.463 57.9792 115.739 57.7102 115.925 57.3807C116.114 57.0511 116.209 56.7045 116.209 56.3409V55.1136C116.152 55.1818 116.027 55.2443 115.834 55.3011C115.645 55.3542 115.425 55.4015 115.175 55.4432C114.929 55.4811 114.688 55.5152 114.453 55.5455C114.222 55.572 114.035 55.5947 113.891 55.6136C113.542 55.6591 113.216 55.733 112.913 55.8352C112.614 55.9337 112.372 56.0833 112.186 56.2841C112.004 56.4811 111.913 56.75 111.913 57.0909C111.913 57.5568 112.086 57.9091 112.431 58.1477C112.779 58.3826 113.22 58.5 113.754 58.5ZM118.33 52.0227V50.7727H125.421V52.0227H122.557V59.5H121.216V52.0227H118.33ZM130.103 59.6818C129.262 59.6818 128.536 59.4962 127.926 59.125C127.32 58.75 126.853 58.2273 126.523 57.5568C126.197 56.8826 126.034 56.0985 126.034 55.2045C126.034 54.3106 126.197 53.5227 126.523 52.8409C126.853 52.1553 127.311 51.6212 127.898 51.2386C128.489 50.8523 129.178 50.6591 129.966 50.6591C130.421 50.6591 130.87 50.7348 131.313 50.8864C131.756 51.0379 132.159 51.2841 132.523 51.625C132.887 51.9621 133.176 52.4091 133.392 52.9659C133.608 53.5227 133.716 54.2083 133.716 55.0227V55.5909H126.989V54.4318H132.353C132.353 53.9394 132.254 53.5 132.057 53.1136C131.864 52.7273 131.587 52.4223 131.228 52.1989C130.872 51.9754 130.451 51.8636 129.966 51.8636C129.432 51.8636 128.97 51.9962 128.58 52.2614C128.194 52.5227 127.896 52.8636 127.688 53.2841C127.48 53.7045 127.375 54.1553 127.375 54.6364V55.4091C127.375 56.0682 127.489 56.6269 127.716 57.0852C127.947 57.5398 128.267 57.8864 128.676 58.125C129.086 58.3598 129.561 58.4773 130.103 58.4773C130.455 58.4773 130.773 58.428 131.057 58.3295C131.345 58.2273 131.593 58.0758 131.801 57.875C132.01 57.6705 132.171 57.4167 132.284 57.1136L133.58 57.4773C133.444 57.9167 133.214 58.303 132.892 58.6364C132.57 58.9659 132.173 59.2235 131.699 59.4091C131.226 59.5909 130.694 59.6818 130.103 59.6818ZM140.049 57.6818L143.094 50.7727H144.367L140.594 59.5H139.503L135.799 50.7727H137.049L140.049 57.6818ZM136.617 50.7727V59.5H135.276V50.7727H136.617ZM143.481 59.5V50.7727H144.821V59.5H143.481ZM149.364 59.7045C148.811 59.7045 148.309 59.6004 147.859 59.392C147.408 59.1799 147.05 58.875 146.785 58.4773C146.52 58.0758 146.387 57.5909 146.387 57.0227C146.387 56.5227 146.485 56.1174 146.682 55.8068C146.879 55.4924 147.143 55.2462 147.472 55.0682C147.802 54.8902 148.165 54.7576 148.563 54.6705C148.965 54.5795 149.368 54.5076 149.773 54.4545C150.304 54.3864 150.734 54.3352 151.063 54.3011C151.396 54.2633 151.639 54.2008 151.79 54.1136C151.946 54.0265 152.023 53.875 152.023 53.6591V53.6136C152.023 53.053 151.87 52.6174 151.563 52.3068C151.26 51.9962 150.8 51.8409 150.182 51.8409C149.542 51.8409 149.04 51.9811 148.677 52.2614C148.313 52.5417 148.057 52.8409 147.91 53.1591L146.637 52.7045C146.864 52.1742 147.167 51.7614 147.546 51.4659C147.929 51.1667 148.345 50.9583 148.796 50.8409C149.251 50.7197 149.698 50.6591 150.137 50.6591C150.417 50.6591 150.739 50.6932 151.103 50.7614C151.47 50.8258 151.824 50.9602 152.165 51.1648C152.51 51.3693 152.796 51.678 153.023 52.0909C153.251 52.5038 153.364 53.0568 153.364 53.75V59.5H152.023V58.3182H151.955C151.864 58.5076 151.713 58.7102 151.501 58.9261C151.288 59.142 151.006 59.3258 150.654 59.4773C150.302 59.6288 149.872 59.7045 149.364 59.7045ZM149.569 58.5C150.099 58.5 150.546 58.3958 150.91 58.1875C151.277 57.9792 151.554 57.7102 151.739 57.3807C151.929 57.0511 152.023 56.7045 152.023 56.3409V55.1136C151.966 55.1818 151.841 55.2443 151.648 55.3011C151.459 55.3542 151.239 55.4015 150.989 55.4432C150.743 55.4811 150.502 55.5152 150.268 55.5455C150.037 55.572 149.849 55.5947 149.705 55.6136C149.357 55.6591 149.031 55.733 148.728 55.8352C148.429 55.9337 148.186 56.0833 148.001 56.2841C147.819 56.4811 147.728 56.75 147.728 57.0909C147.728 57.5568 147.9 57.9091 148.245 58.1477C148.593 58.3826 149.035 58.5 149.569 58.5ZM154.144 52.0227V50.7727H161.235V52.0227H158.371V59.5H157.031V52.0227H154.144ZM164.052 57.5227L168.256 50.7727H169.802V59.5H168.461V52.75L164.279 59.5H162.711V50.7727H164.052V57.5227ZM171.778 59.5V50.7727H173.119V54.5682H174.005L177.142 50.7727H178.869L175.346 54.9773L178.914 59.5H177.187L174.323 55.8182H173.119V59.5H171.778ZM182.46 59.7045C181.907 59.7045 181.405 59.6004 180.954 59.392C180.503 59.1799 180.145 58.875 179.88 58.4773C179.615 58.0758 179.483 57.5909 179.483 57.0227C179.483 56.5227 179.581 56.1174 179.778 55.8068C179.975 55.4924 180.238 55.2462 180.568 55.0682C180.897 54.8902 181.261 54.7576 181.659 54.6705C182.06 54.5795 182.464 54.5076 182.869 54.4545C183.399 54.3864 183.829 54.3352 184.159 54.3011C184.492 54.2633 184.734 54.2008 184.886 54.1136C185.041 54.0265 185.119 53.875 185.119 53.6591V53.6136C185.119 53.053 184.966 52.6174 184.659 52.3068C184.356 51.9962 183.895 51.8409 183.278 51.8409C182.638 51.8409 182.136 51.9811 181.772 52.2614C181.409 52.5417 181.153 52.8409 181.005 53.1591L179.733 52.7045C179.96 52.1742 180.263 51.7614 180.642 51.4659C181.024 51.1667 181.441 50.9583 181.892 50.8409C182.346 50.7197 182.793 50.6591 183.233 50.6591C183.513 50.6591 183.835 50.6932 184.198 50.7614C184.566 50.8258 184.92 50.9602 185.261 51.1648C185.606 51.3693 185.892 51.678 186.119 52.0909C186.346 52.5038 186.46 53.0568 186.46 53.75V59.5H185.119V58.3182H185.051C184.96 58.5076 184.808 58.7102 184.596 58.9261C184.384 59.142 184.102 59.3258 183.75 59.4773C183.397 59.6288 182.967 59.7045 182.46 59.7045ZM182.664 58.5C183.195 58.5 183.642 58.3958 184.005 58.1875C184.373 57.9792 184.649 57.7102 184.835 57.3807C185.024 57.0511 185.119 56.7045 185.119 56.3409V55.1136C185.062 55.1818 184.937 55.2443 184.744 55.3011C184.555 55.3542 184.335 55.4015 184.085 55.4432C183.839 55.4811 183.598 55.5152 183.363 55.5455C183.132 55.572 182.945 55.5947 182.801 55.6136C182.452 55.6591 182.126 55.733 181.823 55.8352C181.524 55.9337 181.282 56.0833 181.096 56.2841C180.914 56.4811 180.823 56.75 180.823 57.0909C180.823 57.5568 180.996 57.9091 181.341 58.1477C181.689 58.3826 182.13 58.5 182.664 58.5ZM191.515 62V58.25H192.243C192.421 58.0644 192.574 57.8636 192.703 57.6477C192.832 57.4318 192.943 57.1761 193.038 56.8807C193.137 56.5814 193.22 56.2178 193.288 55.7898C193.356 55.358 193.417 54.8371 193.47 54.2273L193.765 50.7727H199.311V58.25H200.652V62H199.311V59.5H192.856V62H191.515ZM193.765 58.25H197.97V52.0227H195.015L194.788 54.2273C194.693 55.1402 194.576 55.9375 194.436 56.6193C194.296 57.3011 194.072 57.8447 193.765 58.25ZM201.179 59.5V58.25H201.497C201.758 58.25 201.976 58.1989 202.151 58.0966C202.325 57.9905 202.465 57.8068 202.571 57.5455C202.681 57.2803 202.764 56.9129 202.821 56.4432C202.882 55.9697 202.925 55.3674 202.952 54.6364L203.111 50.7727H208.929V59.5H207.588V52.0227H204.383L204.247 55.1364C204.217 55.8523 204.152 56.483 204.054 57.0284C203.959 57.5701 203.813 58.0246 203.616 58.392C203.423 58.7595 203.166 59.036 202.844 59.2216C202.522 59.4072 202.118 59.5 201.633 59.5H201.179ZM216.159 59.5V52H213.841C213.318 52 212.907 52.1212 212.608 52.3636C212.309 52.6061 212.159 52.9394 212.159 53.3636C212.159 53.7803 212.294 54.108 212.563 54.3466C212.835 54.5852 213.208 54.7045 213.682 54.7045H216.5V55.9545H213.682C213.091 55.9545 212.581 55.8504 212.153 55.642C211.725 55.4337 211.396 55.1364 211.165 54.75C210.934 54.3598 210.818 53.8977 210.818 53.3636C210.818 52.8258 210.939 52.3636 211.182 51.9773C211.424 51.5909 211.771 51.2936 212.222 51.0852C212.676 50.8769 213.216 50.7727 213.841 50.7727H217.432V59.5H216.159ZM210.341 59.5L212.818 55.1591H214.273L211.796 59.5H210.341ZM226.979 59.6818C226.161 59.6818 225.456 59.4886 224.865 59.1023C224.274 58.7159 223.82 58.1837 223.502 57.5057C223.184 56.8277 223.024 56.053 223.024 55.1818C223.024 54.2955 223.187 53.5133 223.513 52.8352C223.843 52.1534 224.301 51.6212 224.888 51.2386C225.479 50.8523 226.168 50.6591 226.956 50.6591C227.57 50.6591 228.123 50.7727 228.615 51C229.108 51.2273 229.511 51.5455 229.826 51.9545C230.14 52.3636 230.335 52.8409 230.411 53.3864H229.07C228.968 52.9886 228.74 52.6364 228.388 52.3295C228.04 52.0189 227.57 51.8636 226.979 51.8636C226.456 51.8636 225.998 52 225.604 52.2727C225.214 52.5417 224.909 52.9223 224.689 53.4148C224.473 53.9034 224.365 54.4773 224.365 55.1364C224.365 55.8106 224.471 56.3977 224.684 56.8977C224.899 57.3977 225.202 57.786 225.593 58.0625C225.987 58.339 226.449 58.4773 226.979 58.4773C227.327 58.4773 227.644 58.4167 227.928 58.2955C228.212 58.1742 228.452 58 228.649 57.7727C228.846 57.5455 228.987 57.2727 229.07 56.9545H230.411C230.335 57.4697 230.148 57.9337 229.848 58.3466C229.553 58.7557 229.161 59.0814 228.672 59.3239C228.187 59.5625 227.623 59.6818 226.979 59.6818ZM231.204 52.0227V50.7727H238.294V52.0227H235.431V59.5H234.09V52.0227H231.204ZM241.885 59.7045C241.332 59.7045 240.831 59.6004 240.38 59.392C239.929 59.1799 239.571 58.875 239.306 58.4773C239.041 58.0758 238.908 57.5909 238.908 57.0227C238.908 56.5227 239.007 56.1174 239.204 55.8068C239.401 55.4924 239.664 55.2462 239.993 55.0682C240.323 54.8902 240.687 54.7576 241.084 54.6705C241.486 54.5795 241.889 54.5076 242.295 54.4545C242.825 54.3864 243.255 54.3352 243.584 54.3011C243.918 54.2633 244.16 54.2008 244.312 54.1136C244.467 54.0265 244.545 53.875 244.545 53.6591V53.6136C244.545 53.053 244.391 52.6174 244.084 52.3068C243.781 51.9962 243.321 51.8409 242.704 51.8409C242.063 51.8409 241.562 51.9811 241.198 52.2614C240.834 52.5417 240.579 52.8409 240.431 53.1591L239.158 52.7045C239.385 52.1742 239.688 51.7614 240.067 51.4659C240.45 51.1667 240.867 50.9583 241.317 50.8409C241.772 50.7197 242.219 50.6591 242.658 50.6591C242.938 50.6591 243.26 50.6932 243.624 50.7614C243.992 50.8258 244.346 50.9602 244.687 51.1648C245.031 51.3693 245.317 51.678 245.545 52.0909C245.772 52.5038 245.885 53.0568 245.885 53.75V59.5H244.545V58.3182H244.476C244.385 58.5076 244.234 58.7102 244.022 58.9261C243.81 59.142 243.527 59.3258 243.175 59.4773C242.823 59.6288 242.393 59.7045 241.885 59.7045ZM242.09 58.5C242.62 58.5 243.067 58.3958 243.431 58.1875C243.798 57.9792 244.075 57.7102 244.26 57.3807C244.45 57.0511 244.545 56.7045 244.545 56.3409V55.1136C244.488 55.1818 244.363 55.2443 244.17 55.3011C243.98 55.3542 243.76 55.4015 243.51 55.4432C243.264 55.4811 243.024 55.5152 242.789 55.5455C242.558 55.572 242.37 55.5947 242.226 55.6136C241.878 55.6591 241.552 55.733 241.249 55.8352C240.95 55.9337 240.707 56.0833 240.522 56.2841C240.34 56.4811 240.249 56.75 240.249 57.0909C240.249 57.5568 240.421 57.9091 240.766 58.1477C241.115 58.3826 241.556 58.5 242.09 58.5ZM247.853 62.7727V50.7727H249.148V52.1591H249.307C249.406 52.0076 249.542 51.8144 249.717 51.5795C249.895 51.3409 250.148 51.1288 250.478 50.9432C250.811 50.7538 251.262 50.6591 251.83 50.6591C252.565 50.6591 253.213 50.8428 253.773 51.2102C254.334 51.5777 254.771 52.0985 255.086 52.7727C255.4 53.447 255.557 54.2424 255.557 55.1591C255.557 56.0833 255.4 56.8845 255.086 57.5625C254.771 58.2367 254.336 58.7595 253.779 59.1307C253.222 59.4981 252.58 59.6818 251.853 59.6818C251.292 59.6818 250.843 59.589 250.506 59.4034C250.169 59.214 249.91 59 249.728 58.7614C249.546 58.5189 249.406 58.3182 249.307 58.1591H249.194V62.7727H247.853ZM249.171 55.1364C249.171 55.7955 249.268 56.3769 249.461 56.8807C249.654 57.3807 249.936 57.7727 250.307 58.0568C250.679 58.3371 251.133 58.4773 251.671 58.4773C252.232 58.4773 252.699 58.3295 253.074 58.0341C253.453 57.7348 253.737 57.3333 253.927 56.8295C254.12 56.322 254.217 55.7576 254.217 55.1364C254.217 54.5227 254.122 53.9697 253.932 53.4773C253.747 52.9811 253.465 52.589 253.086 52.3011C252.711 52.0095 252.239 51.8636 251.671 51.8636C251.126 51.8636 250.667 52.0019 250.296 52.2784C249.925 52.5511 249.645 52.9337 249.455 53.4261C249.266 53.9148 249.171 54.4848 249.171 55.1364ZM257.123 50.7727H258.464V58.25H261.759V50.7727H263.1V58.25H266.396V50.7727H267.737V59.5H257.123V50.7727ZM271.046 57.5227L275.251 50.7727H276.796V59.5H275.455V52.75L271.274 59.5H269.705V50.7727H271.046V57.5227ZM279.772 50.7727L281.863 54.3409L283.954 50.7727H285.5L282.681 55.1364L285.5 59.5H283.954L281.863 56.1136L279.772 59.5H278.227L281 55.1364L278.227 50.7727H279.772ZM97.2273 75.5V66.7727H98.5682V70.5682H99.4545L102.591 66.7727H104.318L100.795 70.9773L104.364 75.5H102.636L99.7727 71.8182H98.5682V75.5H97.2273ZM104.568 75.5V74.25H104.886C105.148 74.25 105.366 74.1989 105.54 74.0966C105.714 73.9905 105.854 73.8068 105.96 73.5455C106.07 73.2803 106.154 72.9129 106.21 72.4432C106.271 71.9697 106.315 71.3674 106.341 70.6364L106.5 66.7727H112.318V75.5H110.977V68.0227H107.773L107.636 71.1364C107.606 71.8523 107.542 72.483 107.443 73.0284C107.349 73.5701 107.203 74.0246 107.006 74.392C106.813 74.7595 106.555 75.036 106.233 75.2216C105.911 75.4072 105.508 75.5 105.023 75.5H104.568ZM116.867 75.7045C116.314 75.7045 115.812 75.6004 115.361 75.392C114.91 75.1799 114.552 74.875 114.287 74.4773C114.022 74.0758 113.889 73.5909 113.889 73.0227C113.889 72.5227 113.988 72.1174 114.185 71.8068C114.382 71.4924 114.645 71.2462 114.975 71.0682C115.304 70.8902 115.668 70.7576 116.066 70.6705C116.467 70.5795 116.87 70.5076 117.276 70.4545C117.806 70.3864 118.236 70.3352 118.566 70.3011C118.899 70.2633 119.141 70.2008 119.293 70.1136C119.448 70.0265 119.526 69.875 119.526 69.6591V69.6136C119.526 69.053 119.372 68.6174 119.066 68.3068C118.763 67.9962 118.302 67.8409 117.685 67.8409C117.045 67.8409 116.543 67.9811 116.179 68.2614C115.816 68.5417 115.56 68.8409 115.412 69.1591L114.139 68.7045C114.367 68.1742 114.67 67.7614 115.049 67.4659C115.431 67.1667 115.848 66.9583 116.299 66.8409C116.753 66.7197 117.2 66.6591 117.639 66.6591C117.92 66.6591 118.242 66.6932 118.605 66.7614C118.973 66.8258 119.327 66.9602 119.668 67.1648C120.013 67.3693 120.299 67.678 120.526 68.0909C120.753 68.5038 120.867 69.0568 120.867 69.75V75.5H119.526V74.3182H119.458C119.367 74.5076 119.215 74.7102 119.003 74.9261C118.791 75.142 118.509 75.3258 118.156 75.4773C117.804 75.6288 117.374 75.7045 116.867 75.7045ZM117.071 74.5C117.602 74.5 118.049 74.3958 118.412 74.1875C118.78 73.9792 119.056 73.7102 119.242 73.3807C119.431 73.0511 119.526 72.7045 119.526 72.3409V71.1136C119.469 71.1818 119.344 71.2443 119.151 71.3011C118.961 71.3542 118.742 71.4015 118.492 71.4432C118.245 71.4811 118.005 71.5152 117.77 71.5455C117.539 71.572 117.352 71.5947 117.208 71.6136C116.859 71.6591 116.533 71.733 116.23 71.8352C115.931 71.9337 115.689 72.0833 115.503 72.2841C115.321 72.4811 115.23 72.75 115.23 73.0909C115.23 73.5568 115.403 73.9091 115.747 74.1477C116.096 74.3826 116.537 74.5 117.071 74.5ZM126.38 75.6818C125.561 75.6818 124.857 75.4886 124.266 75.1023C123.675 74.7159 123.221 74.1837 122.902 73.5057C122.584 72.8277 122.425 72.053 122.425 71.1818C122.425 70.2955 122.588 69.5133 122.914 68.8352C123.243 68.1534 123.702 67.6212 124.289 67.2386C124.88 66.8523 125.569 66.6591 126.357 66.6591C126.971 66.6591 127.524 66.7727 128.016 67C128.508 67.2273 128.912 67.5455 129.226 67.9545C129.541 68.3636 129.736 68.8409 129.811 69.3864H128.471C128.368 68.9886 128.141 68.6364 127.789 68.3295C127.44 68.0189 126.971 67.8636 126.38 67.8636C125.857 67.8636 125.399 68 125.005 68.2727C124.614 68.5417 124.31 68.9223 124.09 69.4148C123.874 69.9034 123.766 70.4773 123.766 71.1364C123.766 71.8106 123.872 72.3977 124.084 72.8977C124.3 73.3977 124.603 73.786 124.993 74.0625C125.387 74.339 125.849 74.4773 126.38 74.4773C126.728 74.4773 127.044 74.4167 127.328 74.2955C127.613 74.1742 127.853 74 128.05 73.7727C128.247 73.5455 128.387 73.2727 128.471 72.9545H129.811C129.736 73.4697 129.548 73.9337 129.249 74.3466C128.953 74.7557 128.561 75.0814 128.073 75.3239C127.588 75.5625 127.024 75.6818 126.38 75.6818ZM134.837 75.6818C134.019 75.6818 133.314 75.4886 132.723 75.1023C132.133 74.7159 131.678 74.1837 131.36 73.5057C131.042 72.8277 130.883 72.053 130.883 71.1818C130.883 70.2955 131.045 69.5133 131.371 68.8352C131.701 68.1534 132.159 67.6212 132.746 67.2386C133.337 66.8523 134.026 66.6591 134.814 66.6591C135.428 66.6591 135.981 66.7727 136.473 67C136.966 67.2273 137.369 67.5455 137.684 67.9545C137.998 68.3636 138.193 68.8409 138.269 69.3864H136.928C136.826 68.9886 136.598 68.6364 136.246 68.3295C135.898 68.0189 135.428 67.8636 134.837 67.8636C134.314 67.8636 133.856 68 133.462 68.2727C133.072 68.5417 132.767 68.9223 132.547 69.4148C132.331 69.9034 132.223 70.4773 132.223 71.1364C132.223 71.8106 132.33 72.3977 132.542 72.8977C132.758 73.3977 133.061 73.786 133.451 74.0625C133.845 74.339 134.307 74.4773 134.837 74.4773C135.186 74.4773 135.502 74.4167 135.786 74.2955C136.07 74.1742 136.311 74 136.508 73.7727C136.705 73.5455 136.845 73.2727 136.928 72.9545H138.269C138.193 73.4697 138.006 73.9337 137.706 74.3466C137.411 74.7557 137.019 75.0814 136.53 75.3239C136.045 75.5625 135.481 75.6818 134.837 75.6818ZM143.295 75.6818C142.507 75.6818 141.815 75.4943 141.221 75.1193C140.63 74.7443 140.168 74.2197 139.834 73.5455C139.505 72.8712 139.34 72.0833 139.34 71.1818C139.34 70.2727 139.505 69.4792 139.834 68.8011C140.168 68.1231 140.63 67.5966 141.221 67.2216C141.815 66.8466 142.507 66.6591 143.295 66.6591C144.082 66.6591 144.772 66.8466 145.363 67.2216C145.957 67.5966 146.42 68.1231 146.749 68.8011C147.082 69.4792 147.249 70.2727 147.249 71.1818C147.249 72.0833 147.082 72.8712 146.749 73.5455C146.42 74.2197 145.957 74.7443 145.363 75.1193C144.772 75.4943 144.082 75.6818 143.295 75.6818ZM143.295 74.4773C143.893 74.4773 144.386 74.3239 144.772 74.017C145.158 73.7102 145.444 73.3068 145.63 72.8068C145.815 72.3068 145.908 71.7652 145.908 71.1818C145.908 70.5985 145.815 70.0549 145.63 69.5511C145.444 69.0473 145.158 68.6402 144.772 68.3295C144.386 68.0189 143.893 67.8636 143.295 67.8636C142.696 67.8636 142.204 68.0189 141.817 68.3295C141.431 68.6402 141.145 69.0473 140.959 69.5511C140.774 70.0549 140.681 70.5985 140.681 71.1818C140.681 71.7652 140.774 72.3068 140.959 72.8068C141.145 73.3068 141.431 73.7102 141.817 74.017C142.204 74.3239 142.696 74.4773 143.295 74.4773ZM148.816 75.5V66.7727H152.384C153.324 66.7727 154.07 66.9848 154.623 67.4091C155.176 67.8333 155.452 68.3939 155.452 69.0909C155.452 69.6212 155.295 70.0322 154.981 70.3239C154.666 70.6117 154.263 70.8068 153.771 70.9091C154.093 70.9545 154.405 71.0682 154.708 71.25C155.015 71.4318 155.269 71.6818 155.469 72C155.67 72.3144 155.771 72.7008 155.771 73.1591C155.771 73.6061 155.657 74.0057 155.43 74.358C155.202 74.7102 154.877 74.9886 154.452 75.1932C154.028 75.3977 153.521 75.5 152.93 75.5H148.816ZM150.089 74.2727H152.93C153.392 74.2727 153.754 74.1629 154.015 73.9432C154.276 73.7235 154.407 73.4242 154.407 73.0455C154.407 72.5947 154.276 72.2405 154.015 71.983C153.754 71.7216 153.392 71.5909 152.93 71.5909H150.089V74.2727ZM150.089 70.4318H152.384C152.744 70.4318 153.053 70.3826 153.31 70.2841C153.568 70.1818 153.765 70.0379 153.901 69.8523C154.041 69.6629 154.111 69.4394 154.111 69.1818C154.111 68.8144 153.958 68.5265 153.651 68.3182C153.344 68.1061 152.922 68 152.384 68H150.089V70.4318Z" fill="#626262"/>
</svg>
