<svg width="341" height="96" viewBox="0 0 341 96" fill="none" xmlns="http://www.w3.org/2000/svg">
<rect width="341" height="96" rx="16" fill="white"/>
<path d="M32.066 47.0668L34.5993 39.9334H34.7327L37.266 47.0668H32.066ZM50.666 61.4668C52.6216 60.5334 54.5887 59.833 56.5674 59.3654C58.546 58.8979 60.5789 58.665 62.666 58.6668C64.266 58.6668 65.8331 58.8001 67.3674 59.0668C68.9016 59.3334 70.4456 59.7334 71.9994 60.2668V33.8668C70.5327 33.2445 69.01 32.7779 67.4314 32.4668C65.8527 32.1556 64.2642 32.0001 62.666 32.0001C60.5771 32.0001 58.5105 32.2668 56.466 32.8001C54.4216 33.3334 52.4882 34.1334 50.666 35.2001V61.4668ZM31.1993 49.5334H38.1327L39.3993 53.0668C39.4882 53.3334 39.6438 53.545 39.866 53.7014C40.0882 53.8579 40.3549 53.9352 40.666 53.9334C41.1549 53.9334 41.5442 53.7334 41.834 53.3334C42.1238 52.9334 42.1789 52.5112 41.9993 52.0668L36.5327 37.6668C36.4438 37.4001 36.2776 37.1779 36.034 37.0001C35.7905 36.8223 35.5122 36.7334 35.1993 36.7334H34.1327C33.8216 36.7334 33.5442 36.8223 33.3007 37.0001C33.0571 37.1779 32.89 37.4001 32.7993 37.6668L27.3327 52.0668C27.1549 52.5112 27.2109 52.9334 27.5007 53.3334C27.7905 53.7334 28.1789 53.9334 28.666 53.9334C28.9771 53.9334 29.2553 53.8561 29.5007 53.7014C29.746 53.5468 29.9122 53.313 29.9993 53.0001L31.1993 49.5334ZM46.234 67.7014C45.6776 67.545 45.1549 67.3334 44.666 67.0668C42.9327 66.0445 41.1105 65.2783 39.1993 64.7681C37.2882 64.2579 35.3327 64.0019 33.3327 64.0001C31.466 64.0001 29.6331 64.2445 27.834 64.7334C26.0349 65.2223 24.3122 65.9112 22.666 66.8001C21.7327 67.289 20.8331 67.2668 19.9673 66.7334C19.1016 66.2001 18.6678 65.4223 18.666 64.4001V32.2668C18.666 31.7779 18.7887 31.3112 19.034 30.8668C19.2793 30.4223 19.6456 30.089 20.1327 29.8668C22.2216 28.8445 24.3665 28.0552 26.5673 27.4988C28.7682 26.9423 31.0233 26.665 33.3327 26.6668C35.9105 26.6668 38.4331 27.0001 40.9007 27.6668C43.3682 28.3334 45.7345 29.3334 47.9993 30.6668C50.266 29.3334 52.6331 28.3334 55.1007 27.6668C57.5682 27.0001 60.09 26.6668 62.666 26.6668C64.9771 26.6668 67.2331 26.945 69.434 27.5014C71.6349 28.0579 73.7789 28.8463 75.866 29.8668C76.3549 30.089 76.722 30.4223 76.9674 30.8668C77.2127 31.3112 77.3345 31.7779 77.3327 32.2668V64.4001C77.3327 65.4223 76.8998 66.2001 76.034 66.7334C75.1682 67.2668 74.2678 67.289 73.3327 66.8001C71.6882 65.9112 69.9665 65.2223 68.1673 64.7334C66.3682 64.2445 64.5345 64.0001 62.666 64.0001C60.666 64.0001 58.7105 64.2561 56.7994 64.7681C54.8882 65.2801 53.066 66.0463 51.3327 67.0668C50.8438 67.3334 50.322 67.545 49.7674 67.7014C49.2127 67.8579 48.6233 67.9352 47.9993 67.9334C47.3753 67.9316 46.786 67.8534 46.2313 67.6988M53.3327 39.4028C53.3327 39.0028 53.4776 38.5921 53.7674 38.1708C54.0571 37.7494 54.3789 37.4703 54.7327 37.3334C56.0216 36.889 57.3105 36.5556 58.5994 36.3334C59.8882 36.1112 61.2438 36.0001 62.666 36.0001C63.5549 36.0001 64.4331 36.0561 65.3007 36.1681C66.1682 36.2801 67.0234 36.4241 67.866 36.6001C68.266 36.689 68.6109 36.9112 68.9007 37.2668C69.1905 37.6223 69.3345 38.0223 69.3327 38.4668C69.3327 39.2223 69.0882 39.7779 68.5994 40.1334C68.1105 40.489 67.4882 40.5779 66.7327 40.4001C66.1105 40.2668 65.4554 40.1672 64.7674 40.1014C64.0794 40.0356 63.3789 40.0019 62.666 40.0001C61.5105 40.0001 60.3771 40.1112 59.266 40.3334C58.1549 40.5556 57.0882 40.8445 56.066 41.2001C55.266 41.5112 54.6109 41.489 54.1007 41.1334C53.5905 40.7779 53.3345 40.2001 53.3327 39.4001M53.3327 54.0668C53.3327 53.6668 53.4776 53.2561 53.7674 52.8348C54.0571 52.4134 54.3789 52.1352 54.7327 52.0001C56.0216 51.5556 57.3105 51.2223 58.5994 51.0001C59.8882 50.7779 61.2438 50.6668 62.666 50.6668C63.5549 50.6668 64.4331 50.7228 65.3007 50.8348C66.1682 50.9468 67.0234 51.0908 67.866 51.2668C68.266 51.3556 68.6109 51.5779 68.9007 51.9334C69.1905 52.289 69.3345 52.689 69.3327 53.1334C69.3327 53.889 69.0882 54.4445 68.5994 54.8001C68.1105 55.1556 67.4882 55.2445 66.7327 55.0668C66.1105 54.9334 65.4554 54.8339 64.7674 54.7681C64.0794 54.7023 63.3789 54.6685 62.666 54.6668C61.5105 54.6668 60.3771 54.7672 59.266 54.9681C58.1549 55.169 57.0882 55.4463 56.066 55.8001C55.266 56.1112 54.6109 56.1005 54.1007 55.7681C53.5905 55.4356 53.3345 54.8685 53.3327 54.0668ZM53.3327 46.7334C53.3327 46.3334 53.4776 45.9228 53.7674 45.5014C54.0571 45.0801 54.3789 44.8019 54.7327 44.6668C56.0216 44.2223 57.3105 43.889 58.5994 43.6668C59.8882 43.4445 61.2438 43.3334 62.666 43.3334C63.5549 43.3334 64.4331 43.3894 65.3007 43.5014C66.1682 43.6134 67.0234 43.7574 67.866 43.9334C68.266 44.0223 68.6109 44.2445 68.9007 44.6001C69.1905 44.9556 69.3345 45.3556 69.3327 45.8001C69.3327 46.5556 69.0882 47.1112 68.5994 47.4668C68.1105 47.8223 67.4882 47.9112 66.7327 47.7334C66.1105 47.6001 65.4554 47.5005 64.7674 47.4348C64.0794 47.369 63.3789 47.3352 62.666 47.3334C61.5105 47.3334 60.3771 47.4445 59.266 47.6668C58.1549 47.889 57.0882 48.1779 56.066 48.5334C55.266 48.8445 54.6109 48.8223 54.1007 48.4668C53.5905 48.1112 53.3345 47.5334 53.3327 46.7334Z" fill="#6A63F5"/>
<path d="M97.1477 35.5V23.8636H101.511C102.405 23.8636 103.155 24.0303 103.761 24.3636C104.371 24.697 104.831 25.1553 105.142 25.7386C105.456 26.3182 105.614 26.9773 105.614 27.7159C105.614 28.4621 105.456 29.125 105.142 29.7045C104.828 30.2841 104.364 30.7405 103.75 31.0739C103.136 31.4034 102.381 31.5682 101.483 31.5682H98.5909V29.8352H101.199C101.722 29.8352 102.15 29.7443 102.483 29.5625C102.816 29.3807 103.063 29.1307 103.222 28.8125C103.384 28.4943 103.466 28.1288 103.466 27.7159C103.466 27.303 103.384 26.9394 103.222 26.625C103.063 26.3106 102.814 26.0663 102.477 25.892C102.144 25.714 101.714 25.625 101.188 25.625H99.2557V35.5H97.1477ZM108.152 38.7727C107.872 38.7727 107.612 38.75 107.374 38.7045C107.139 38.6629 106.951 38.6136 106.811 38.5568L107.288 36.9545C107.588 37.0417 107.855 37.0833 108.09 37.0795C108.324 37.0758 108.531 37.0019 108.709 36.858C108.891 36.7178 109.044 36.483 109.169 36.1534L109.345 35.6818L106.181 26.7727H108.362L110.374 33.3636H110.465L112.482 26.7727H114.669L111.175 36.5568C111.012 37.0189 110.796 37.4148 110.527 37.7443C110.258 38.0777 109.929 38.3314 109.538 38.5057C109.152 38.6837 108.69 38.7727 108.152 38.7727ZM119.122 35.6705C118.251 35.6705 117.503 35.4792 116.878 35.0966C116.257 34.714 115.778 34.1856 115.441 33.5114C115.107 32.8333 114.941 32.053 114.941 31.1705C114.941 30.2841 115.111 29.5019 115.452 28.8239C115.793 28.142 116.274 27.6117 116.895 27.233C117.52 26.8504 118.259 26.6591 119.111 26.6591C119.819 26.6591 120.446 26.7898 120.992 27.0511C121.541 27.3087 121.978 27.6742 122.304 28.1477C122.63 28.6174 122.816 29.1667 122.861 29.7955H120.895C120.816 29.375 120.626 29.0246 120.327 28.7443C120.031 28.4602 119.636 28.3182 119.139 28.3182C118.719 28.3182 118.35 28.4318 118.031 28.6591C117.713 28.8826 117.465 29.2045 117.287 29.625C117.113 30.0455 117.026 30.5492 117.026 31.1364C117.026 31.7311 117.113 32.2424 117.287 32.6705C117.461 33.0947 117.706 33.4223 118.02 33.6534C118.338 33.8807 118.711 33.9943 119.139 33.9943C119.442 33.9943 119.713 33.9375 119.952 33.8239C120.194 33.7064 120.397 33.5379 120.56 33.3182C120.723 33.0985 120.835 32.8314 120.895 32.517H122.861C122.812 33.1345 122.63 33.6818 122.316 34.1591C122.001 34.6326 121.573 35.0038 121.031 35.2727C120.49 35.5379 119.853 35.6705 119.122 35.6705ZM127.877 35.6705C127.006 35.6705 126.257 35.4792 125.632 35.0966C125.011 34.714 124.532 34.1856 124.195 33.5114C123.862 32.8333 123.695 32.053 123.695 31.1705C123.695 30.2841 123.865 29.5019 124.206 28.8239C124.547 28.142 125.028 27.6117 125.649 27.233C126.274 26.8504 127.013 26.6591 127.865 26.6591C128.574 26.6591 129.201 26.7898 129.746 27.0511C130.295 27.3087 130.733 27.6742 131.059 28.1477C131.384 28.6174 131.57 29.1667 131.615 29.7955H129.649C129.57 29.375 129.381 29.0246 129.081 28.7443C128.786 28.4602 128.39 28.3182 127.894 28.3182C127.473 28.3182 127.104 28.4318 126.786 28.6591C126.468 28.8826 126.22 29.2045 126.042 29.625C125.867 30.0455 125.78 30.5492 125.78 31.1364C125.78 31.7311 125.867 32.2424 126.042 32.6705C126.216 33.0947 126.46 33.4223 126.774 33.6534C127.093 33.8807 127.466 33.9943 127.894 33.9943C128.197 33.9943 128.468 33.9375 128.706 33.8239C128.949 33.7064 129.151 33.5379 129.314 33.3182C129.477 33.0985 129.589 32.8314 129.649 32.517H131.615C131.566 33.1345 131.384 33.6818 131.07 34.1591C130.756 34.6326 130.328 35.0038 129.786 35.2727C129.244 35.5379 128.608 35.6705 127.877 35.6705ZM132.824 35.5V26.7727H134.881V30.2955H135.631L138.256 26.7727H140.733L137.5 31.0568L140.768 35.5H138.279L135.887 32.2102H134.881V35.5H132.824ZM143.437 32.7159L146.931 26.7727H149.045V35.5H147.056V29.5511L143.573 35.5H141.454V26.7727H143.437V32.7159ZM152.66 32.7159L156.154 26.7727H158.268V35.5H156.279V29.5511L152.796 35.5H150.677V26.7727H152.66V32.7159ZM155.592 23.7727H157.131C157.131 24.4356 156.891 24.9735 156.41 25.3864C155.932 25.7955 155.285 26 154.467 26C153.656 26 153.01 25.7955 152.529 25.3864C152.052 24.9735 151.815 24.4356 151.819 23.7727H153.347C153.347 24.0455 153.431 24.2898 153.597 24.5057C153.768 24.7178 154.057 24.8239 154.467 24.8239C154.868 24.8239 155.154 24.7178 155.325 24.5057C155.499 24.2936 155.588 24.0492 155.592 23.7727ZM168.548 35.5V28.4432H166.684C166.211 28.4432 165.847 28.553 165.593 28.7727C165.339 28.9924 165.214 29.2652 165.218 29.5909C165.214 29.9167 165.334 30.1856 165.576 30.3977C165.819 30.6098 166.165 30.7159 166.616 30.7159H169.196V32.2159H166.616C165.919 32.2159 165.317 32.1061 164.809 31.8864C164.302 31.6667 163.911 31.3561 163.639 30.9545C163.366 30.553 163.23 30.0833 163.23 29.5455C163.23 28.9848 163.368 28.4981 163.644 28.0852C163.925 27.6686 164.322 27.3466 164.838 27.1193C165.356 26.8883 165.972 26.7727 166.684 26.7727H170.474V35.5H168.548ZM162.911 35.5L165.349 31.0227H167.377L164.934 35.5H162.911ZM171.582 33.108H173.622C173.641 33.4337 173.787 33.6856 174.059 33.8636C174.332 34.0417 174.686 34.1307 175.122 34.1307C175.565 34.1307 175.938 34.0341 176.241 33.8409C176.548 33.6439 176.701 33.3466 176.701 32.9489C176.701 32.714 176.643 32.5076 176.525 32.3295C176.408 32.1477 176.243 32.0076 176.031 31.9091C175.819 31.8106 175.569 31.7614 175.281 31.7614H173.946V30.3011H175.281C175.709 30.3011 176.033 30.2027 176.252 30.0057C176.476 29.8087 176.588 29.5606 176.588 29.2614C176.588 28.9394 176.47 28.678 176.235 28.4773C176.004 28.2765 175.684 28.1761 175.275 28.1761C174.866 28.1761 174.525 28.2689 174.252 28.4545C173.984 28.6402 173.843 28.8788 173.832 29.1705H171.804C171.811 28.6629 171.963 28.2216 172.258 27.8466C172.557 27.4716 172.959 27.1799 173.463 26.9716C173.97 26.7633 174.542 26.6591 175.179 26.6591C175.86 26.6591 176.449 26.7614 176.946 26.9659C177.442 27.1705 177.824 27.4564 178.093 27.8239C178.362 28.1875 178.497 28.6155 178.497 29.108C178.497 29.5814 178.349 29.9735 178.054 30.2841C177.758 30.5909 177.36 30.8106 176.86 30.9432V31.0341C177.205 31.053 177.516 31.1515 177.792 31.3295C178.069 31.5038 178.288 31.7405 178.451 32.0398C178.614 32.339 178.696 32.6856 178.696 33.0795C178.696 33.6136 178.542 34.0758 178.235 34.4659C177.929 34.8523 177.506 35.1496 176.968 35.358C176.434 35.5663 175.823 35.6705 175.133 35.6705C174.463 35.6705 173.862 35.5701 173.332 35.3693C172.805 35.1648 172.387 34.8712 172.076 34.4886C171.766 34.1061 171.601 33.6458 171.582 33.108ZM181.227 29.6136H183.801C184.914 29.6136 185.776 29.8845 186.386 30.4261C186.996 30.9678 187.303 31.678 187.307 32.5568C187.303 33.1288 187.163 33.6364 186.886 34.0795C186.613 34.5227 186.216 34.8712 185.693 35.125C185.174 35.375 184.543 35.5 183.801 35.5H179.835V26.7727H181.818V33.8125H183.801C184.248 33.8125 184.615 33.6989 184.903 33.4716C185.191 33.2405 185.335 32.9451 185.335 32.5852C185.335 32.2064 185.191 31.8977 184.903 31.6591C184.615 31.4205 184.248 31.3011 183.801 31.3011H181.227V29.6136ZM188.392 35.5V26.7727H190.449V35.5H188.392ZM192.089 35.5V26.7727H194.146V30.2955H194.896L197.521 26.7727H199.998L196.765 31.0568L200.033 35.5H197.544L195.152 32.2102H194.146V35.5H192.089Z" fill="#262626"/>
<path d="M97.4091 47.8636H99.0909L103.045 57.5227H103.182L107.136 47.8636H108.818V59.5H107.5V50.6591H107.386L103.75 59.5H102.477L98.8409 50.6591H98.7273V59.5H97.4091V47.8636ZM113.55 59.7045C112.997 59.7045 112.495 59.6004 112.044 59.392C111.593 59.1799 111.235 58.875 110.97 58.4773C110.705 58.0758 110.573 57.5909 110.573 57.0227C110.573 56.5227 110.671 56.1174 110.868 55.8068C111.065 55.4924 111.328 55.2462 111.658 55.0682C111.987 54.8902 112.351 54.7576 112.749 54.6705C113.15 54.5795 113.554 54.5076 113.959 54.4545C114.489 54.3864 114.919 54.3352 115.249 54.3011C115.582 54.2633 115.824 54.2008 115.976 54.1136C116.131 54.0265 116.209 53.875 116.209 53.6591V53.6136C116.209 53.053 116.056 52.6174 115.749 52.3068C115.446 51.9962 114.985 51.8409 114.368 51.8409C113.728 51.8409 113.226 51.9811 112.862 52.2614C112.499 52.5417 112.243 52.8409 112.095 53.1591L110.823 52.7045C111.05 52.1742 111.353 51.7614 111.732 51.4659C112.114 51.1667 112.531 50.9583 112.982 50.8409C113.436 50.7197 113.883 50.6591 114.323 50.6591C114.603 50.6591 114.925 50.6932 115.288 50.7614C115.656 50.8258 116.01 50.9602 116.351 51.1648C116.696 51.3693 116.982 51.678 117.209 52.0909C117.436 52.5038 117.55 53.0568 117.55 53.75V59.5H116.209V58.3182H116.141C116.05 58.5076 115.898 58.7102 115.686 58.9261C115.474 59.142 115.192 59.3258 114.84 59.4773C114.487 59.6288 114.057 59.7045 113.55 59.7045ZM113.754 58.5C114.285 58.5 114.732 58.3958 115.095 58.1875C115.463 57.9792 115.739 57.7102 115.925 57.3807C116.114 57.0511 116.209 56.7045 116.209 56.3409V55.1136C116.152 55.1818 116.027 55.2443 115.834 55.3011C115.645 55.3542 115.425 55.4015 115.175 55.4432C114.929 55.4811 114.688 55.5152 114.453 55.5455C114.222 55.572 114.035 55.5947 113.891 55.6136C113.542 55.6591 113.216 55.733 112.913 55.8352C112.614 55.9337 112.372 56.0833 112.186 56.2841C112.004 56.4811 111.913 56.75 111.913 57.0909C111.913 57.5568 112.086 57.9091 112.431 58.1477C112.779 58.3826 113.22 58.5 113.754 58.5ZM118.33 52.0227V50.7727H125.421V52.0227H122.557V59.5H121.216V52.0227H118.33ZM130.103 59.6818C129.262 59.6818 128.536 59.4962 127.926 59.125C127.32 58.75 126.853 58.2273 126.523 57.5568C126.197 56.8826 126.034 56.0985 126.034 55.2045C126.034 54.3106 126.197 53.5227 126.523 52.8409C126.853 52.1553 127.311 51.6212 127.898 51.2386C128.489 50.8523 129.178 50.6591 129.966 50.6591C130.421 50.6591 130.87 50.7348 131.313 50.8864C131.756 51.0379 132.159 51.2841 132.523 51.625C132.887 51.9621 133.176 52.4091 133.392 52.9659C133.608 53.5227 133.716 54.2083 133.716 55.0227V55.5909H126.989V54.4318H132.353C132.353 53.9394 132.254 53.5 132.057 53.1136C131.864 52.7273 131.587 52.4223 131.228 52.1989C130.872 51.9754 130.451 51.8636 129.966 51.8636C129.432 51.8636 128.97 51.9962 128.58 52.2614C128.194 52.5227 127.896 52.8636 127.688 53.2841C127.48 53.7045 127.375 54.1553 127.375 54.6364V55.4091C127.375 56.0682 127.489 56.6269 127.716 57.0852C127.947 57.5398 128.267 57.8864 128.676 58.125C129.086 58.3598 129.561 58.4773 130.103 58.4773C130.455 58.4773 130.773 58.428 131.057 58.3295C131.345 58.2273 131.593 58.0758 131.801 57.875C132.01 57.6705 132.171 57.4167 132.284 57.1136L133.58 57.4773C133.444 57.9167 133.214 58.303 132.892 58.6364C132.57 58.9659 132.173 59.2235 131.699 59.4091C131.226 59.5909 130.694 59.6818 130.103 59.6818ZM140.049 57.6818L143.094 50.7727H144.367L140.594 59.5H139.503L135.799 50.7727H137.049L140.049 57.6818ZM136.617 50.7727V59.5H135.276V50.7727H136.617ZM143.481 59.5V50.7727H144.821V59.5H143.481ZM149.364 59.7045C148.811 59.7045 148.309 59.6004 147.859 59.392C147.408 59.1799 147.05 58.875 146.785 58.4773C146.52 58.0758 146.387 57.5909 146.387 57.0227C146.387 56.5227 146.485 56.1174 146.682 55.8068C146.879 55.4924 147.143 55.2462 147.472 55.0682C147.802 54.8902 148.165 54.7576 148.563 54.6705C148.965 54.5795 149.368 54.5076 149.773 54.4545C150.304 54.3864 150.734 54.3352 151.063 54.3011C151.396 54.2633 151.639 54.2008 151.79 54.1136C151.946 54.0265 152.023 53.875 152.023 53.6591V53.6136C152.023 53.053 151.87 52.6174 151.563 52.3068C151.26 51.9962 150.8 51.8409 150.182 51.8409C149.542 51.8409 149.04 51.9811 148.677 52.2614C148.313 52.5417 148.057 52.8409 147.91 53.1591L146.637 52.7045C146.864 52.1742 147.167 51.7614 147.546 51.4659C147.929 51.1667 148.345 50.9583 148.796 50.8409C149.251 50.7197 149.698 50.6591 150.137 50.6591C150.417 50.6591 150.739 50.6932 151.103 50.7614C151.47 50.8258 151.824 50.9602 152.165 51.1648C152.51 51.3693 152.796 51.678 153.023 52.0909C153.251 52.5038 153.364 53.0568 153.364 53.75V59.5H152.023V58.3182H151.955C151.864 58.5076 151.713 58.7102 151.501 58.9261C151.288 59.142 151.006 59.3258 150.654 59.4773C150.302 59.6288 149.872 59.7045 149.364 59.7045ZM149.569 58.5C150.099 58.5 150.546 58.3958 150.91 58.1875C151.277 57.9792 151.554 57.7102 151.739 57.3807C151.929 57.0511 152.023 56.7045 152.023 56.3409V55.1136C151.966 55.1818 151.841 55.2443 151.648 55.3011C151.459 55.3542 151.239 55.4015 150.989 55.4432C150.743 55.4811 150.502 55.5152 150.268 55.5455C150.037 55.572 149.849 55.5947 149.705 55.6136C149.357 55.6591 149.031 55.733 148.728 55.8352C148.429 55.9337 148.186 56.0833 148.001 56.2841C147.819 56.4811 147.728 56.75 147.728 57.0909C147.728 57.5568 147.9 57.9091 148.245 58.1477C148.593 58.3826 149.035 58.5 149.569 58.5ZM154.144 52.0227V50.7727H161.235V52.0227H158.371V59.5H157.031V52.0227H154.144ZM164.052 57.5227L168.256 50.7727H169.802V59.5H168.461V52.75L164.279 59.5H162.711V50.7727H164.052V57.5227ZM171.778 59.5V50.7727H173.119V54.5682H174.005L177.142 50.7727H178.869L175.346 54.9773L178.914 59.5H177.187L174.323 55.8182H173.119V59.5H171.778ZM182.46 59.7045C181.907 59.7045 181.405 59.6004 180.954 59.392C180.503 59.1799 180.145 58.875 179.88 58.4773C179.615 58.0758 179.483 57.5909 179.483 57.0227C179.483 56.5227 179.581 56.1174 179.778 55.8068C179.975 55.4924 180.238 55.2462 180.568 55.0682C180.897 54.8902 181.261 54.7576 181.659 54.6705C182.06 54.5795 182.464 54.5076 182.869 54.4545C183.399 54.3864 183.829 54.3352 184.159 54.3011C184.492 54.2633 184.734 54.2008 184.886 54.1136C185.041 54.0265 185.119 53.875 185.119 53.6591V53.6136C185.119 53.053 184.966 52.6174 184.659 52.3068C184.356 51.9962 183.895 51.8409 183.278 51.8409C182.638 51.8409 182.136 51.9811 181.772 52.2614C181.409 52.5417 181.153 52.8409 181.005 53.1591L179.733 52.7045C179.96 52.1742 180.263 51.7614 180.642 51.4659C181.024 51.1667 181.441 50.9583 181.892 50.8409C182.346 50.7197 182.793 50.6591 183.233 50.6591C183.513 50.6591 183.835 50.6932 184.198 50.7614C184.566 50.8258 184.92 50.9602 185.261 51.1648C185.606 51.3693 185.892 51.678 186.119 52.0909C186.346 52.5038 186.46 53.0568 186.46 53.75V59.5H185.119V58.3182H185.051C184.96 58.5076 184.808 58.7102 184.596 58.9261C184.384 59.142 184.102 59.3258 183.75 59.4773C183.397 59.6288 182.967 59.7045 182.46 59.7045ZM182.664 58.5C183.195 58.5 183.642 58.3958 184.005 58.1875C184.373 57.9792 184.649 57.7102 184.835 57.3807C185.024 57.0511 185.119 56.7045 185.119 56.3409V55.1136C185.062 55.1818 184.937 55.2443 184.744 55.3011C184.555 55.3542 184.335 55.4015 184.085 55.4432C183.839 55.4811 183.598 55.5152 183.363 55.5455C183.132 55.572 182.945 55.5947 182.801 55.6136C182.452 55.6591 182.126 55.733 181.823 55.8352C181.524 55.9337 181.282 56.0833 181.096 56.2841C180.914 56.4811 180.823 56.75 180.823 57.0909C180.823 57.5568 180.996 57.9091 181.341 58.1477C181.689 58.3826 182.13 58.5 182.664 58.5ZM191.515 62V58.25H192.243C192.421 58.0644 192.574 57.8636 192.703 57.6477C192.832 57.4318 192.943 57.1761 193.038 56.8807C193.137 56.5814 193.22 56.2178 193.288 55.7898C193.356 55.358 193.417 54.8371 193.47 54.2273L193.765 50.7727H199.311V58.25H200.652V62H199.311V59.5H192.856V62H191.515ZM193.765 58.25H197.97V52.0227H195.015L194.788 54.2273C194.693 55.1402 194.576 55.9375 194.436 56.6193C194.296 57.3011 194.072 57.8447 193.765 58.25ZM201.179 59.5V58.25H201.497C201.758 58.25 201.976 58.1989 202.151 58.0966C202.325 57.9905 202.465 57.8068 202.571 57.5455C202.681 57.2803 202.764 56.9129 202.821 56.4432C202.882 55.9697 202.925 55.3674 202.952 54.6364L203.111 50.7727H208.929V59.5H207.588V52.0227H204.383L204.247 55.1364C204.217 55.8523 204.152 56.483 204.054 57.0284C203.959 57.5701 203.813 58.0246 203.616 58.392C203.423 58.7595 203.166 59.036 202.844 59.2216C202.522 59.4072 202.118 59.5 201.633 59.5H201.179ZM216.159 59.5V52H213.841C213.318 52 212.907 52.1212 212.608 52.3636C212.309 52.6061 212.159 52.9394 212.159 53.3636C212.159 53.7803 212.294 54.108 212.563 54.3466C212.835 54.5852 213.208 54.7045 213.682 54.7045H216.5V55.9545H213.682C213.091 55.9545 212.581 55.8504 212.153 55.642C211.725 55.4337 211.396 55.1364 211.165 54.75C210.934 54.3598 210.818 53.8977 210.818 53.3636C210.818 52.8258 210.939 52.3636 211.182 51.9773C211.424 51.5909 211.771 51.2936 212.222 51.0852C212.676 50.8769 213.216 50.7727 213.841 50.7727H217.432V59.5H216.159ZM210.341 59.5L212.818 55.1591H214.273L211.796 59.5H210.341ZM226.979 59.6818C226.161 59.6818 225.456 59.4886 224.865 59.1023C224.274 58.7159 223.82 58.1837 223.502 57.5057C223.184 56.8277 223.024 56.053 223.024 55.1818C223.024 54.2955 223.187 53.5133 223.513 52.8352C223.843 52.1534 224.301 51.6212 224.888 51.2386C225.479 50.8523 226.168 50.6591 226.956 50.6591C227.57 50.6591 228.123 50.7727 228.615 51C229.108 51.2273 229.511 51.5455 229.826 51.9545C230.14 52.3636 230.335 52.8409 230.411 53.3864H229.07C228.968 52.9886 228.74 52.6364 228.388 52.3295C228.04 52.0189 227.57 51.8636 226.979 51.8636C226.456 51.8636 225.998 52 225.604 52.2727C225.214 52.5417 224.909 52.9223 224.689 53.4148C224.473 53.9034 224.365 54.4773 224.365 55.1364C224.365 55.8106 224.471 56.3977 224.684 56.8977C224.899 57.3977 225.202 57.786 225.593 58.0625C225.987 58.339 226.449 58.4773 226.979 58.4773C227.327 58.4773 227.644 58.4167 227.928 58.2955C228.212 58.1742 228.452 58 228.649 57.7727C228.846 57.5455 228.987 57.2727 229.07 56.9545H230.411C230.335 57.4697 230.148 57.9337 229.848 58.3466C229.553 58.7557 229.161 59.0814 228.672 59.3239C228.187 59.5625 227.623 59.6818 226.979 59.6818ZM231.204 52.0227V50.7727H238.294V52.0227H235.431V59.5H234.09V52.0227H231.204ZM241.885 59.7045C241.332 59.7045 240.831 59.6004 240.38 59.392C239.929 59.1799 239.571 58.875 239.306 58.4773C239.041 58.0758 238.908 57.5909 238.908 57.0227C238.908 56.5227 239.007 56.1174 239.204 55.8068C239.401 55.4924 239.664 55.2462 239.993 55.0682C240.323 54.8902 240.687 54.7576 241.084 54.6705C241.486 54.5795 241.889 54.5076 242.295 54.4545C242.825 54.3864 243.255 54.3352 243.584 54.3011C243.918 54.2633 244.16 54.2008 244.312 54.1136C244.467 54.0265 244.545 53.875 244.545 53.6591V53.6136C244.545 53.053 244.391 52.6174 244.084 52.3068C243.781 51.9962 243.321 51.8409 242.704 51.8409C242.063 51.8409 241.562 51.9811 241.198 52.2614C240.834 52.5417 240.579 52.8409 240.431 53.1591L239.158 52.7045C239.385 52.1742 239.688 51.7614 240.067 51.4659C240.45 51.1667 240.867 50.9583 241.317 50.8409C241.772 50.7197 242.219 50.6591 242.658 50.6591C242.938 50.6591 243.26 50.6932 243.624 50.7614C243.992 50.8258 244.346 50.9602 244.687 51.1648C245.031 51.3693 245.317 51.678 245.545 52.0909C245.772 52.5038 245.885 53.0568 245.885 53.75V59.5H244.545V58.3182H244.476C244.385 58.5076 244.234 58.7102 244.022 58.9261C243.81 59.142 243.527 59.3258 243.175 59.4773C242.823 59.6288 242.393 59.7045 241.885 59.7045ZM242.09 58.5C242.62 58.5 243.067 58.3958 243.431 58.1875C243.798 57.9792 244.075 57.7102 244.26 57.3807C244.45 57.0511 244.545 56.7045 244.545 56.3409V55.1136C244.488 55.1818 244.363 55.2443 244.17 55.3011C243.98 55.3542 243.76 55.4015 243.51 55.4432C243.264 55.4811 243.024 55.5152 242.789 55.5455C242.558 55.572 242.37 55.5947 242.226 55.6136C241.878 55.6591 241.552 55.733 241.249 55.8352C240.95 55.9337 240.707 56.0833 240.522 56.2841C240.34 56.4811 240.249 56.75 240.249 57.0909C240.249 57.5568 240.421 57.9091 240.766 58.1477C241.115 58.3826 241.556 58.5 242.09 58.5ZM247.853 62.7727V50.7727H249.148V52.1591H249.307C249.406 52.0076 249.542 51.8144 249.717 51.5795C249.895 51.3409 250.148 51.1288 250.478 50.9432C250.811 50.7538 251.262 50.6591 251.83 50.6591C252.565 50.6591 253.213 50.8428 253.773 51.2102C254.334 51.5777 254.771 52.0985 255.086 52.7727C255.4 53.447 255.557 54.2424 255.557 55.1591C255.557 56.0833 255.4 56.8845 255.086 57.5625C254.771 58.2367 254.336 58.7595 253.779 59.1307C253.222 59.4981 252.58 59.6818 251.853 59.6818C251.292 59.6818 250.843 59.589 250.506 59.4034C250.169 59.214 249.91 59 249.728 58.7614C249.546 58.5189 249.406 58.3182 249.307 58.1591H249.194V62.7727H247.853ZM249.171 55.1364C249.171 55.7955 249.268 56.3769 249.461 56.8807C249.654 57.3807 249.936 57.7727 250.307 58.0568C250.679 58.3371 251.133 58.4773 251.671 58.4773C252.232 58.4773 252.699 58.3295 253.074 58.0341C253.453 57.7348 253.737 57.3333 253.927 56.8295C254.12 56.322 254.217 55.7576 254.217 55.1364C254.217 54.5227 254.122 53.9697 253.932 53.4773C253.747 52.9811 253.465 52.589 253.086 52.3011C252.711 52.0095 252.239 51.8636 251.671 51.8636C251.126 51.8636 250.667 52.0019 250.296 52.2784C249.925 52.5511 249.645 52.9337 249.455 53.4261C249.266 53.9148 249.171 54.4848 249.171 55.1364ZM257.123 50.7727H258.464V58.25H261.759V50.7727H263.1V58.25H266.396V50.7727H267.737V59.5H257.123V50.7727ZM271.046 57.5227L275.251 50.7727H276.796V59.5H275.455V52.75L271.274 59.5H269.705V50.7727H271.046V57.5227ZM279.772 50.7727L281.863 54.3409L283.954 50.7727H285.5L282.681 55.1364L285.5 59.5H283.954L281.863 56.1136L279.772 59.5H278.227L281 55.1364L278.227 50.7727H279.772ZM97.2273 75.5V66.7727H98.5682V70.5682H99.4545L102.591 66.7727H104.318L100.795 70.9773L104.364 75.5H102.636L99.7727 71.8182H98.5682V75.5H97.2273ZM104.568 75.5V74.25H104.886C105.148 74.25 105.366 74.1989 105.54 74.0966C105.714 73.9905 105.854 73.8068 105.96 73.5455C106.07 73.2803 106.154 72.9129 106.21 72.4432C106.271 71.9697 106.315 71.3674 106.341 70.6364L106.5 66.7727H112.318V75.5H110.977V68.0227H107.773L107.636 71.1364C107.606 71.8523 107.542 72.483 107.443 73.0284C107.349 73.5701 107.203 74.0246 107.006 74.392C106.813 74.7595 106.555 75.036 106.233 75.2216C105.911 75.4072 105.508 75.5 105.023 75.5H104.568ZM116.867 75.7045C116.314 75.7045 115.812 75.6004 115.361 75.392C114.91 75.1799 114.552 74.875 114.287 74.4773C114.022 74.0758 113.889 73.5909 113.889 73.0227C113.889 72.5227 113.988 72.1174 114.185 71.8068C114.382 71.4924 114.645 71.2462 114.975 71.0682C115.304 70.8902 115.668 70.7576 116.066 70.6705C116.467 70.5795 116.87 70.5076 117.276 70.4545C117.806 70.3864 118.236 70.3352 118.566 70.3011C118.899 70.2633 119.141 70.2008 119.293 70.1136C119.448 70.0265 119.526 69.875 119.526 69.6591V69.6136C119.526 69.053 119.372 68.6174 119.066 68.3068C118.763 67.9962 118.302 67.8409 117.685 67.8409C117.045 67.8409 116.543 67.9811 116.179 68.2614C115.816 68.5417 115.56 68.8409 115.412 69.1591L114.139 68.7045C114.367 68.1742 114.67 67.7614 115.049 67.4659C115.431 67.1667 115.848 66.9583 116.299 66.8409C116.753 66.7197 117.2 66.6591 117.639 66.6591C117.92 66.6591 118.242 66.6932 118.605 66.7614C118.973 66.8258 119.327 66.9602 119.668 67.1648C120.013 67.3693 120.299 67.678 120.526 68.0909C120.753 68.5038 120.867 69.0568 120.867 69.75V75.5H119.526V74.3182H119.458C119.367 74.5076 119.215 74.7102 119.003 74.9261C118.791 75.142 118.509 75.3258 118.156 75.4773C117.804 75.6288 117.374 75.7045 116.867 75.7045ZM117.071 74.5C117.602 74.5 118.049 74.3958 118.412 74.1875C118.78 73.9792 119.056 73.7102 119.242 73.3807C119.431 73.0511 119.526 72.7045 119.526 72.3409V71.1136C119.469 71.1818 119.344 71.2443 119.151 71.3011C118.961 71.3542 118.742 71.4015 118.492 71.4432C118.245 71.4811 118.005 71.5152 117.77 71.5455C117.539 71.572 117.352 71.5947 117.208 71.6136C116.859 71.6591 116.533 71.733 116.23 71.8352C115.931 71.9337 115.689 72.0833 115.503 72.2841C115.321 72.4811 115.23 72.75 115.23 73.0909C115.23 73.5568 115.403 73.9091 115.747 74.1477C116.096 74.3826 116.537 74.5 117.071 74.5ZM126.38 75.6818C125.561 75.6818 124.857 75.4886 124.266 75.1023C123.675 74.7159 123.221 74.1837 122.902 73.5057C122.584 72.8277 122.425 72.053 122.425 71.1818C122.425 70.2955 122.588 69.5133 122.914 68.8352C123.243 68.1534 123.702 67.6212 124.289 67.2386C124.88 66.8523 125.569 66.6591 126.357 66.6591C126.971 66.6591 127.524 66.7727 128.016 67C128.508 67.2273 128.912 67.5455 129.226 67.9545C129.541 68.3636 129.736 68.8409 129.811 69.3864H128.471C128.368 68.9886 128.141 68.6364 127.789 68.3295C127.44 68.0189 126.971 67.8636 126.38 67.8636C125.857 67.8636 125.399 68 125.005 68.2727C124.614 68.5417 124.31 68.9223 124.09 69.4148C123.874 69.9034 123.766 70.4773 123.766 71.1364C123.766 71.8106 123.872 72.3977 124.084 72.8977C124.3 73.3977 124.603 73.786 124.993 74.0625C125.387 74.339 125.849 74.4773 126.38 74.4773C126.728 74.4773 127.044 74.4167 127.328 74.2955C127.613 74.1742 127.853 74 128.05 73.7727C128.247 73.5455 128.387 73.2727 128.471 72.9545H129.811C129.736 73.4697 129.548 73.9337 129.249 74.3466C128.953 74.7557 128.561 75.0814 128.073 75.3239C127.588 75.5625 127.024 75.6818 126.38 75.6818ZM134.837 75.6818C134.019 75.6818 133.314 75.4886 132.723 75.1023C132.133 74.7159 131.678 74.1837 131.36 73.5057C131.042 72.8277 130.883 72.053 130.883 71.1818C130.883 70.2955 131.045 69.5133 131.371 68.8352C131.701 68.1534 132.159 67.6212 132.746 67.2386C133.337 66.8523 134.026 66.6591 134.814 66.6591C135.428 66.6591 135.981 66.7727 136.473 67C136.966 67.2273 137.369 67.5455 137.684 67.9545C137.998 68.3636 138.193 68.8409 138.269 69.3864H136.928C136.826 68.9886 136.598 68.6364 136.246 68.3295C135.898 68.0189 135.428 67.8636 134.837 67.8636C134.314 67.8636 133.856 68 133.462 68.2727C133.072 68.5417 132.767 68.9223 132.547 69.4148C132.331 69.9034 132.223 70.4773 132.223 71.1364C132.223 71.8106 132.33 72.3977 132.542 72.8977C132.758 73.3977 133.061 73.786 133.451 74.0625C133.845 74.339 134.307 74.4773 134.837 74.4773C135.186 74.4773 135.502 74.4167 135.786 74.2955C136.07 74.1742 136.311 74 136.508 73.7727C136.705 73.5455 136.845 73.2727 136.928 72.9545H138.269C138.193 73.4697 138.006 73.9337 137.706 74.3466C137.411 74.7557 137.019 75.0814 136.53 75.3239C136.045 75.5625 135.481 75.6818 134.837 75.6818ZM143.295 75.6818C142.507 75.6818 141.815 75.4943 141.221 75.1193C140.63 74.7443 140.168 74.2197 139.834 73.5455C139.505 72.8712 139.34 72.0833 139.34 71.1818C139.34 70.2727 139.505 69.4792 139.834 68.8011C140.168 68.1231 140.63 67.5966 141.221 67.2216C141.815 66.8466 142.507 66.6591 143.295 66.6591C144.082 66.6591 144.772 66.8466 145.363 67.2216C145.957 67.5966 146.42 68.1231 146.749 68.8011C147.082 69.4792 147.249 70.2727 147.249 71.1818C147.249 72.0833 147.082 72.8712 146.749 73.5455C146.42 74.2197 145.957 74.7443 145.363 75.1193C144.772 75.4943 144.082 75.6818 143.295 75.6818ZM143.295 74.4773C143.893 74.4773 144.386 74.3239 144.772 74.017C145.158 73.7102 145.444 73.3068 145.63 72.8068C145.815 72.3068 145.908 71.7652 145.908 71.1818C145.908 70.5985 145.815 70.0549 145.63 69.5511C145.444 69.0473 145.158 68.6402 144.772 68.3295C144.386 68.0189 143.893 67.8636 143.295 67.8636C142.696 67.8636 142.204 68.0189 141.817 68.3295C141.431 68.6402 141.145 69.0473 140.959 69.5511C140.774 70.0549 140.681 70.5985 140.681 71.1818C140.681 71.7652 140.774 72.3068 140.959 72.8068C141.145 73.3068 141.431 73.7102 141.817 74.017C142.204 74.3239 142.696 74.4773 143.295 74.4773ZM148.816 75.5V66.7727H152.384C153.324 66.7727 154.07 66.9848 154.623 67.4091C155.176 67.8333 155.452 68.3939 155.452 69.0909C155.452 69.6212 155.295 70.0322 154.981 70.3239C154.666 70.6117 154.263 70.8068 153.771 70.9091C154.093 70.9545 154.405 71.0682 154.708 71.25C155.015 71.4318 155.269 71.6818 155.469 72C155.67 72.3144 155.771 72.7008 155.771 73.1591C155.771 73.6061 155.657 74.0057 155.43 74.358C155.202 74.7102 154.877 74.9886 154.452 75.1932C154.028 75.3977 153.521 75.5 152.93 75.5H148.816ZM150.089 74.2727H152.93C153.392 74.2727 153.754 74.1629 154.015 73.9432C154.276 73.7235 154.407 73.4242 154.407 73.0455C154.407 72.5947 154.276 72.2405 154.015 71.983C153.754 71.7216 153.392 71.5909 152.93 71.5909H150.089V74.2727ZM150.089 70.4318H152.384C152.744 70.4318 153.053 70.3826 153.31 70.2841C153.568 70.1818 153.765 70.0379 153.901 69.8523C154.041 69.6629 154.111 69.4394 154.111 69.1818C154.111 68.8144 153.958 68.5265 153.651 68.3182C153.344 68.1061 152.922 68 152.384 68H150.089V70.4318Z" fill="#626262"/>
</svg>
