<svg width="389" height="144" viewBox="0 0 389 144" fill="none" xmlns="http://www.w3.org/2000/svg">
<g filter="url(#filter0_d_405_35)">
<rect x="24" y="20" width="341" height="96" rx="16" fill="white" shape-rendering="crispEdges"/>
<path d="M96.9476 49.155L72.9476 41.155C72.333 40.9475 71.6672 40.9475 71.0526 41.155L47.0526 49.155C46.48 49.3447 45.9778 49.7026 45.6116 50.182C45.2455 50.6614 45.0324 51.2401 45.0001 51.8425C44.9974 51.895 44.9974 51.9475 45.0001 52V72C45.0001 72.7956 45.3162 73.5587 45.8788 74.1213C46.4414 74.6839 47.2045 75 48.0001 75C48.7958 75 49.5588 74.6839 50.1214 74.1213C50.684 73.5587 51.0001 72.7956 51.0001 72V56.1625L56.9276 58.1375C55.088 61.6587 54.5413 65.7135 55.3827 69.5962C56.2241 73.4789 58.4003 76.9437 61.5326 79.3875C57.4337 81.4088 53.9647 84.5113 51.5001 88.36C51.2782 88.6899 51.124 89.0605 51.0466 89.4505C50.9692 89.8405 50.97 90.2419 51.0491 90.6316C51.1282 91.0212 51.284 91.3912 51.5074 91.7201C51.7307 92.049 52.0172 92.3303 52.3503 92.5475C52.6833 92.7647 53.0561 92.9135 53.4471 92.9853C53.8382 93.0572 54.2396 93.0505 54.628 92.9659C55.0165 92.8812 55.3843 92.7202 55.7099 92.4921C56.0356 92.2641 56.3127 91.9736 56.5251 91.6375C60.0926 86.1475 65.7501 83 72.0001 83C78.2501 83 83.9076 86.1475 87.4876 91.6375C87.7 91.9736 87.9771 92.2641 88.3028 92.4921C88.6285 92.7202 88.9962 92.8812 89.3847 92.9659C89.7731 93.0505 90.1745 93.0572 90.5656 92.9853C90.9566 92.9135 91.3295 92.7647 91.6625 92.5475C91.9955 92.3303 92.282 92.049 92.5054 91.7201C92.7287 91.3912 92.8845 91.0212 92.9636 90.6316C93.0427 90.2419 93.0436 89.8405 92.9661 89.4505C92.8887 89.0605 92.7346 88.6899 92.5126 88.36C90.0457 84.5068 86.5721 81.4015 82.4676 79.38C85.5999 76.9362 87.7761 73.4714 88.6175 69.5887C89.4589 65.706 88.9122 61.6512 87.0726 58.13L96.9476 54.8375C97.5442 54.6379 98.0629 54.2558 98.4305 53.7453C98.798 53.2347 98.9958 52.6216 98.9958 51.9925C98.9958 51.3634 98.798 50.7503 98.4305 50.2397C98.0629 49.7292 97.5442 49.3471 96.9476 49.1475V49.155ZM72.0001 47.155L86.5126 52L72.0001 56.8375L57.5001 52L72.0001 47.155ZM83.0001 66C83.0004 67.7086 82.6027 69.3937 81.8386 70.9219C81.0744 72.4501 79.9647 73.7792 78.5976 74.804C77.2304 75.8287 75.6433 76.5209 73.9621 76.8257C72.281 77.1304 70.5519 77.0394 68.912 76.5597C67.2721 76.08 65.7666 75.225 64.5146 74.0623C63.2626 72.8996 62.2987 71.4612 61.6993 69.8612C61.0999 68.2613 60.8814 66.5436 61.0612 64.8445C61.241 63.1454 61.8141 61.5116 62.7351 60.0725L71.0526 62.845C71.6674 63.0516 72.3328 63.0516 72.9476 62.845L81.2651 60.0725C82.3996 61.8412 83.0018 63.8987 83.0001 66Z" fill="#6A63F5"/>
<path d="M122.188 55.6591V53.8864H122.852C123.152 53.8864 123.398 53.8428 123.591 53.7557C123.784 53.6686 123.939 53.5436 124.057 53.3807C124.178 53.2178 124.278 53.0284 124.358 52.8125L124.511 52.4205L120.352 43.8636H122.557L125.455 50.0909L127.96 43.8636H130.131L126.119 53.3523C125.934 53.7614 125.72 54.142 125.477 54.4943C125.235 54.8428 124.919 55.125 124.528 55.3409C124.142 55.553 123.638 55.6591 123.017 55.6591H122.188ZM136.851 46.7727V55.5H134.874V46.7727H136.851ZM135.925 50.7159V52.3977C135.701 52.4962 135.448 52.5852 135.163 52.6648C134.883 52.7405 134.586 52.8011 134.271 52.8466C133.961 52.892 133.65 52.9148 133.34 52.9148C132.173 52.9148 131.251 52.6534 130.573 52.1307C129.898 51.6042 129.561 50.7841 129.561 49.6705V46.7614H131.527V49.6705C131.527 50.0455 131.593 50.3466 131.726 50.5739C131.859 50.8011 132.059 50.9678 132.328 51.0739C132.597 51.1761 132.934 51.2273 133.34 51.2273C133.794 51.2273 134.226 51.1818 134.635 51.0909C135.044 51 135.474 50.875 135.925 50.7159ZM142.304 55.6705C141.429 55.6705 140.674 55.4886 140.037 55.125C139.405 54.7576 138.918 54.2386 138.577 53.5682C138.236 52.8939 138.066 52.1004 138.066 51.1875C138.066 50.2898 138.236 49.5019 138.577 48.8239C138.922 48.142 139.403 47.6117 140.02 47.233C140.638 46.8504 141.363 46.6591 142.196 46.6591C142.734 46.6591 143.242 46.7462 143.719 46.9205C144.2 47.0909 144.624 47.3561 144.992 47.7159C145.363 48.0758 145.655 48.5341 145.867 49.0909C146.079 49.6439 146.185 50.303 146.185 51.0682V51.6989H139.031V50.3125H144.213C144.21 49.9186 144.124 49.5682 143.958 49.2614C143.791 48.9508 143.558 48.7064 143.259 48.5284C142.963 48.3504 142.619 48.2614 142.225 48.2614C141.804 48.2614 141.435 48.3636 141.117 48.5682C140.799 48.7689 140.55 49.0341 140.372 49.3636C140.198 49.6894 140.109 50.0473 140.105 50.4375V51.6477C140.105 52.1553 140.198 52.5909 140.384 52.9545C140.569 53.3144 140.829 53.5909 141.162 53.7841C141.495 53.9735 141.886 54.0682 142.333 54.0682C142.632 54.0682 142.903 54.0265 143.145 53.9432C143.388 53.8561 143.598 53.7292 143.776 53.5625C143.954 53.3958 144.088 53.1894 144.179 52.9432L146.1 53.1591C145.978 53.6667 145.747 54.1098 145.406 54.4886C145.069 54.8636 144.638 55.1553 144.111 55.3636C143.585 55.5682 142.982 55.6705 142.304 55.6705ZM153.439 50.2841V51.9716H148.792V50.2841H153.439ZM149.428 46.7727V55.5H147.445V46.7727H149.428ZM154.786 46.7727V55.5H152.809V46.7727H154.786ZM158.37 52.7159L161.864 46.7727H163.978V55.5H161.989V49.5511L158.506 55.5H156.387V46.7727H158.37V52.7159ZM165.61 55.5V46.7727H167.667V50.2955H168.417L171.042 46.7727H173.519L170.286 51.0568L173.553 55.5H171.064L168.672 52.2102H167.667V55.5H165.61Z" fill="#262626"/>
<path d="M121.886 79.5H120.409L124.682 67.8636H126.136L130.409 79.5H128.932L125.455 69.7045H125.364L121.886 79.5ZM122.432 74.9545H128.386V76.2045H122.432V74.9545ZM137.401 74.5227V75.7727H132.583V74.5227H137.401ZM132.901 70.7727V79.5H131.56V70.7727H132.901ZM138.423 70.7727V79.5H137.083V70.7727H138.423ZM142.96 79.7045C142.407 79.7045 141.906 79.6004 141.455 79.392C141.004 79.1799 140.646 78.875 140.381 78.4773C140.116 78.0758 139.983 77.5909 139.983 77.0227C139.983 76.5227 140.082 76.1174 140.279 75.8068C140.476 75.4924 140.739 75.2462 141.068 75.0682C141.398 74.8902 141.762 74.7576 142.159 74.6705C142.561 74.5795 142.964 74.5076 143.37 74.4545C143.9 74.3864 144.33 74.3352 144.659 74.3011C144.993 74.2633 145.235 74.2008 145.387 74.1136C145.542 74.0265 145.62 73.875 145.62 73.6591V73.6136C145.62 73.053 145.466 72.6174 145.159 72.3068C144.856 71.9962 144.396 71.8409 143.779 71.8409C143.138 71.8409 142.637 71.9811 142.273 72.2614C141.909 72.5417 141.654 72.8409 141.506 73.1591L140.233 72.7045C140.46 72.1742 140.763 71.7614 141.142 71.4659C141.525 71.1667 141.942 70.9583 142.392 70.8409C142.847 70.7197 143.294 70.6591 143.733 70.6591C144.013 70.6591 144.335 70.6932 144.699 70.7614C145.067 70.8258 145.421 70.9602 145.762 71.1648C146.106 71.3693 146.392 71.678 146.62 72.0909C146.847 72.5038 146.96 73.0568 146.96 73.75V79.5H145.62V78.3182H145.551C145.46 78.5076 145.309 78.7102 145.097 78.9261C144.885 79.142 144.603 79.3258 144.25 79.4773C143.898 79.6288 143.468 79.7045 142.96 79.7045ZM143.165 78.5C143.695 78.5 144.142 78.3958 144.506 78.1875C144.873 77.9792 145.15 77.7102 145.335 77.3807C145.525 77.0511 145.62 76.7045 145.62 76.3409V75.1136C145.563 75.1818 145.438 75.2443 145.245 75.3011C145.055 75.3542 144.835 75.4015 144.585 75.4432C144.339 75.4811 144.099 75.5152 143.864 75.5455C143.633 75.572 143.445 75.5947 143.301 75.6136C142.953 75.6591 142.627 75.733 142.324 75.8352C142.025 75.9337 141.782 76.0833 141.597 76.2841C141.415 76.4811 141.324 76.75 141.324 77.0909C141.324 77.5568 141.496 77.9091 141.841 78.1477C142.19 78.3826 142.631 78.5 143.165 78.5ZM148.155 79.5V78.25H148.473C148.735 78.25 148.953 78.1989 149.127 78.0966C149.301 77.9905 149.441 77.8068 149.547 77.5455C149.657 77.2803 149.74 76.9129 149.797 76.4432C149.858 75.9697 149.901 75.3674 149.928 74.6364L150.087 70.7727H155.905V79.5H154.564V72.0227H151.36L151.223 75.1364C151.193 75.8523 151.129 76.483 151.03 77.0284C150.935 77.5701 150.79 78.0246 150.593 78.392C150.399 78.7595 150.142 79.036 149.82 79.2216C149.498 79.4072 149.095 79.5 148.61 79.5H148.155ZM159.226 77.5227L163.431 70.7727H164.976V79.5H163.635V72.75L159.454 79.5H157.885V70.7727H159.226V77.5227ZM165.765 72.0227V70.7727H172.856V72.0227H169.992V79.5H168.651V72.0227H165.765ZM175.673 77.5227L179.877 70.7727H181.423V79.5H180.082V72.75L175.9 79.5H174.332V70.7727H175.673V77.5227ZM183.399 79.5V70.7727H184.739V74.5682H185.626L188.762 70.7727H190.489L186.967 74.9773L190.535 79.5H188.808L185.944 75.8182H184.739V79.5H183.399ZM194.08 79.7045C193.527 79.7045 193.026 79.6004 192.575 79.392C192.124 79.1799 191.766 78.875 191.501 78.4773C191.236 78.0758 191.103 77.5909 191.103 77.0227C191.103 76.5227 191.202 76.1174 191.399 75.8068C191.596 75.4924 191.859 75.2462 192.188 75.0682C192.518 74.8902 192.882 74.7576 193.279 74.6705C193.681 74.5795 194.084 74.5076 194.49 74.4545C195.02 74.3864 195.45 74.3352 195.779 74.3011C196.113 74.2633 196.355 74.2008 196.507 74.1136C196.662 74.0265 196.74 73.875 196.74 73.6591V73.6136C196.74 73.053 196.586 72.6174 196.279 72.3068C195.976 71.9962 195.516 71.8409 194.899 71.8409C194.258 71.8409 193.757 71.9811 193.393 72.2614C193.029 72.5417 192.774 72.8409 192.626 73.1591L191.353 72.7045C191.58 72.1742 191.883 71.7614 192.262 71.4659C192.645 71.1667 193.062 70.9583 193.512 70.8409C193.967 70.7197 194.414 70.6591 194.853 70.6591C195.133 70.6591 195.455 70.6932 195.819 70.7614C196.187 70.8258 196.541 70.9602 196.882 71.1648C197.226 71.3693 197.512 71.678 197.74 72.0909C197.967 72.5038 198.08 73.0568 198.08 73.75V79.5H196.74V78.3182H196.671C196.58 78.5076 196.429 78.7102 196.217 78.9261C196.005 79.142 195.723 79.3258 195.37 79.4773C195.018 79.6288 194.588 79.7045 194.08 79.7045ZM194.285 78.5C194.815 78.5 195.262 78.3958 195.626 78.1875C195.993 77.9792 196.27 77.7102 196.455 77.3807C196.645 77.0511 196.74 76.7045 196.74 76.3409V75.1136C196.683 75.1818 196.558 75.2443 196.365 75.3011C196.175 75.3542 195.955 75.4015 195.705 75.4432C195.459 75.4811 195.219 75.5152 194.984 75.5455C194.753 75.572 194.565 75.5947 194.421 75.6136C194.073 75.6591 193.747 75.733 193.444 75.8352C193.145 75.9337 192.902 76.0833 192.717 76.2841C192.535 76.4811 192.444 76.75 192.444 77.0909C192.444 77.5568 192.616 77.9091 192.961 78.1477C193.31 78.3826 193.751 78.5 194.285 78.5ZM207.613 79.6818C206.825 79.6818 206.134 79.4943 205.539 79.1193C204.949 78.7443 204.486 78.2197 204.153 77.5455C203.824 76.8712 203.659 76.0833 203.659 75.1818C203.659 74.2727 203.824 73.4792 204.153 72.8011C204.486 72.1231 204.949 71.5966 205.539 71.2216C206.134 70.8466 206.825 70.6591 207.613 70.6591C208.401 70.6591 209.091 70.8466 209.682 71.2216C210.276 71.5966 210.738 72.1231 211.068 72.8011C211.401 73.4792 211.568 74.2727 211.568 75.1818C211.568 76.0833 211.401 76.8712 211.068 77.5455C210.738 78.2197 210.276 78.7443 209.682 79.1193C209.091 79.4943 208.401 79.6818 207.613 79.6818ZM207.613 78.4773C208.212 78.4773 208.704 78.3239 209.091 78.017C209.477 77.7102 209.763 77.3068 209.949 76.8068C210.134 76.3068 210.227 75.7652 210.227 75.1818C210.227 74.5985 210.134 74.0549 209.949 73.5511C209.763 73.0473 209.477 72.6402 209.091 72.3295C208.704 72.0189 208.212 71.8636 207.613 71.8636C207.015 71.8636 206.522 72.0189 206.136 72.3295C205.75 72.6402 205.464 73.0473 205.278 73.5511C205.093 74.0549 205 74.5985 205 75.1818C205 75.7652 205.093 76.3068 205.278 76.8068C205.464 77.3068 205.75 77.7102 206.136 78.017C206.522 78.3239 207.015 78.4773 207.613 78.4773ZM219.612 67.5L220.294 68.3182C220.029 68.5758 219.722 68.7557 219.373 68.858C219.025 68.9602 218.631 69.0227 218.192 69.0455C217.752 69.0682 217.264 69.0909 216.726 69.1136C216.12 69.1364 215.618 69.2841 215.22 69.5568C214.822 69.8295 214.515 70.2235 214.3 70.7386C214.084 71.2538 213.945 71.8864 213.885 72.6364H213.998C214.294 72.0909 214.703 71.6894 215.226 71.4318C215.748 71.1742 216.309 71.0455 216.908 71.0455C217.589 71.0455 218.203 71.2045 218.748 71.5227C219.294 71.8409 219.726 72.3125 220.044 72.9375C220.362 73.5625 220.521 74.3333 220.521 75.25C220.521 76.1629 220.358 76.9508 220.033 77.6136C219.711 78.2765 219.258 78.7879 218.675 79.1477C218.095 79.5038 217.415 79.6818 216.635 79.6818C215.854 79.6818 215.171 79.4981 214.584 79.1307C213.997 78.7595 213.54 78.2102 213.214 77.483C212.889 76.7519 212.726 75.8485 212.726 74.7727V73.8409C212.726 71.8977 213.055 70.4242 213.714 69.4205C214.377 68.4167 215.373 67.8977 216.703 67.8636C217.173 67.8485 217.591 67.8447 217.959 67.8523C218.326 67.8598 218.646 67.8428 218.919 67.8011C219.192 67.7595 219.423 67.6591 219.612 67.5ZM216.635 78.4773C217.161 78.4773 217.614 78.3447 217.993 78.0795C218.375 77.8144 218.669 77.4413 218.873 76.9602C219.078 76.4754 219.18 75.9053 219.18 75.25C219.18 74.6136 219.076 74.072 218.868 73.625C218.663 73.178 218.37 72.8371 217.987 72.6023C217.604 72.3674 217.146 72.25 216.612 72.25C216.222 72.25 215.872 72.3163 215.561 72.4489C215.25 72.5814 214.985 72.7765 214.765 73.0341C214.546 73.2917 214.375 73.6061 214.254 73.9773C214.137 74.3485 214.074 74.7727 214.067 75.25C214.067 76.2273 214.296 77.0095 214.754 77.5966C215.212 78.1837 215.839 78.4773 216.635 78.4773ZM222.956 82.7727C222.729 82.7727 222.526 82.7538 222.348 82.7159C222.17 82.6818 222.047 82.6477 221.979 82.6136L222.32 81.4318C222.645 81.5152 222.933 81.5455 223.183 81.5227C223.433 81.5 223.655 81.3883 223.848 81.1875C224.045 80.9905 224.225 80.6705 224.388 80.2273L224.638 79.5455L221.41 70.7727H222.865L225.274 77.7273H225.365L227.774 70.7727H229.229L225.524 80.7727C225.357 81.2235 225.151 81.5966 224.905 81.892C224.659 82.1913 224.373 82.4129 224.047 82.5568C223.725 82.7008 223.361 82.7727 222.956 82.7727ZM236.98 70.7727V79.5H235.639V70.7727H236.98ZM236.457 74.9318V76.1818C236.154 76.2955 235.853 76.3958 235.554 76.483C235.255 76.5663 234.94 76.6326 234.611 76.6818C234.281 76.7273 233.92 76.75 233.526 76.75C232.537 76.75 231.743 76.483 231.145 75.9489C230.55 75.4148 230.253 74.6136 230.253 73.5455V70.75H231.594V73.5455C231.594 73.9924 231.679 74.3598 231.849 74.6477C232.02 74.9356 232.251 75.1496 232.543 75.2898C232.834 75.4299 233.162 75.5 233.526 75.5C234.094 75.5 234.607 75.4489 235.065 75.3466C235.528 75.2405 235.992 75.1023 236.457 74.9318ZM242.619 79.6818C241.779 79.6818 241.053 79.4962 240.443 79.125C239.837 78.75 239.369 78.2273 239.04 77.5568C238.714 76.8826 238.551 76.0985 238.551 75.2045C238.551 74.3106 238.714 73.5227 239.04 72.8409C239.369 72.1553 239.828 71.6212 240.415 71.2386C241.006 70.8523 241.695 70.6591 242.483 70.6591C242.938 70.6591 243.387 70.7348 243.83 70.8864C244.273 71.0379 244.676 71.2841 245.04 71.625C245.404 71.9621 245.693 72.4091 245.909 72.9659C246.125 73.5227 246.233 74.2083 246.233 75.0227V75.5909H239.506V74.4318H244.869C244.869 73.9394 244.771 73.5 244.574 73.1136C244.381 72.7273 244.104 72.4223 243.744 72.1989C243.388 71.9754 242.968 71.8636 242.483 71.8636C241.949 71.8636 241.487 71.9962 241.097 72.2614C240.71 72.5227 240.413 72.8636 240.205 73.2841C239.996 73.7045 239.892 74.1553 239.892 74.6364V75.4091C239.892 76.0682 240.006 76.6269 240.233 77.0852C240.464 77.5398 240.784 77.8864 241.193 78.125C241.602 78.3598 242.078 78.4773 242.619 78.4773C242.972 78.4773 243.29 78.428 243.574 78.3295C243.862 78.2273 244.11 78.0758 244.318 77.875C244.527 77.6705 244.688 77.4167 244.801 77.1136L246.097 77.4773C245.96 77.9167 245.731 78.303 245.409 78.6364C245.087 78.9659 244.69 79.2235 244.216 79.4091C243.743 79.5909 243.21 79.6818 242.619 79.6818ZM253.634 74.5227V75.7727H248.816V74.5227H253.634ZM249.134 70.7727V79.5H247.793V70.7727H249.134ZM254.657 70.7727V79.5H253.316V70.7727H254.657ZM257.966 77.5227L262.171 70.7727H263.716V79.5H262.375V72.75L258.194 79.5H256.625V70.7727H257.966V77.5227ZM270.942 79.5V72H268.624C268.101 72 267.69 72.1212 267.391 72.3636C267.092 72.6061 266.942 72.9394 266.942 73.3636C266.942 73.7803 267.077 74.108 267.346 74.3466C267.618 74.5852 267.992 74.7045 268.465 74.7045H271.283V75.9545H268.465C267.874 75.9545 267.365 75.8504 266.937 75.642C266.509 75.4337 266.179 75.1364 265.948 74.75C265.717 74.3598 265.601 73.8977 265.601 73.3636C265.601 72.8258 265.723 72.3636 265.965 71.9773C266.207 71.5909 266.554 71.2936 267.005 71.0852C267.459 70.8769 267.999 70.7727 268.624 70.7727H272.215V79.5H270.942ZM265.124 79.5L267.601 75.1591H269.056L266.579 79.5H265.124ZM279.558 77.5227L283.762 70.7727H285.308V79.5H283.967V72.75L279.785 79.5H278.217V70.7727H279.558V77.5227ZM120.727 88.0227V86.7727H127.818V88.0227H124.955V95.5H123.614V88.0227H120.727ZM132.5 95.6818C131.659 95.6818 130.934 95.4962 130.324 95.125C129.718 94.75 129.25 94.2273 128.921 93.5568C128.595 92.8826 128.432 92.0985 128.432 91.2045C128.432 90.3106 128.595 89.5227 128.921 88.8409C129.25 88.1553 129.708 87.6212 130.296 87.2386C130.886 86.8523 131.576 86.6591 132.364 86.6591C132.818 86.6591 133.267 86.7348 133.71 86.8864C134.154 87.0379 134.557 87.2841 134.921 87.625C135.284 87.9621 135.574 88.4091 135.79 88.9659C136.006 89.5227 136.114 90.2083 136.114 91.0227V91.5909H129.386V90.4318H134.75C134.75 89.9394 134.652 89.5 134.455 89.1136C134.261 88.7273 133.985 88.4223 133.625 88.1989C133.269 87.9754 132.849 87.8636 132.364 87.8636C131.83 87.8636 131.368 87.9962 130.977 88.2614C130.591 88.5227 130.294 88.8636 130.085 89.2841C129.877 89.7045 129.773 90.1553 129.773 90.6364V91.4091C129.773 92.0682 129.886 92.6269 130.114 93.0852C130.345 93.5398 130.665 93.8864 131.074 94.125C131.483 94.3598 131.958 94.4773 132.5 94.4773C132.852 94.4773 133.171 94.428 133.455 94.3295C133.743 94.2273 133.991 94.0758 134.199 93.875C134.407 93.6705 134.568 93.4167 134.682 93.1136L135.977 93.4773C135.841 93.9167 135.612 94.303 135.29 94.6364C134.968 94.9659 134.57 95.2235 134.097 95.4091C133.623 95.5909 133.091 95.6818 132.5 95.6818ZM141.219 95.6818C140.401 95.6818 139.696 95.4886 139.105 95.1023C138.514 94.7159 138.06 94.1837 137.742 93.5057C137.424 92.8277 137.264 92.053 137.264 91.1818C137.264 90.2955 137.427 89.5133 137.753 88.8352C138.083 88.1534 138.541 87.6212 139.128 87.2386C139.719 86.8523 140.408 86.6591 141.196 86.6591C141.81 86.6591 142.363 86.7727 142.855 87C143.348 87.2273 143.751 87.5455 144.066 87.9545C144.38 88.3636 144.575 88.8409 144.651 89.3864H143.31C143.208 88.9886 142.98 88.6364 142.628 88.3295C142.28 88.0189 141.81 87.8636 141.219 87.8636C140.696 87.8636 140.238 88 139.844 88.2727C139.454 88.5417 139.149 88.9223 138.929 89.4148C138.713 89.9034 138.605 90.4773 138.605 91.1364C138.605 91.8106 138.711 92.3977 138.924 92.8977C139.139 93.3977 139.442 93.786 139.833 94.0625C140.227 94.339 140.689 94.4773 141.219 94.4773C141.567 94.4773 141.884 94.4167 142.168 94.2955C142.452 94.1742 142.692 94 142.889 93.7727C143.086 93.5455 143.227 93.2727 143.31 92.9545H144.651C144.575 93.4697 144.388 93.9337 144.088 94.3466C143.793 94.7557 143.401 95.0814 142.912 95.3239C142.427 95.5625 141.863 95.6818 141.219 95.6818ZM145.444 88.0227V86.7727H152.534V88.0227H149.671V95.5H148.33V88.0227H145.444ZM155.351 93.5227L159.556 86.7727H161.101V95.5H159.76V88.75L155.579 95.5H154.01V86.7727H155.351V93.5227ZM163.077 98.7727V86.7727H164.373V88.1591H164.532C164.63 88.0076 164.767 87.8144 164.941 87.5795C165.119 87.3409 165.373 87.1288 165.702 86.9432C166.036 86.7538 166.486 86.6591 167.055 86.6591C167.789 86.6591 168.437 86.8428 168.998 87.2102C169.558 87.5777 169.996 88.0985 170.31 88.7727C170.625 89.447 170.782 90.2424 170.782 91.1591C170.782 92.0833 170.625 92.8845 170.31 93.5625C169.996 94.2367 169.56 94.7595 169.003 95.1307C168.447 95.4981 167.805 95.6818 167.077 95.6818C166.517 95.6818 166.068 95.589 165.731 95.4034C165.394 95.214 165.134 95 164.952 94.7614C164.77 94.5189 164.63 94.3182 164.532 94.1591H164.418V98.7727H163.077ZM164.395 91.1364C164.395 91.7955 164.492 92.3769 164.685 92.8807C164.878 93.3807 165.161 93.7727 165.532 94.0568C165.903 94.3371 166.358 94.4773 166.895 94.4773C167.456 94.4773 167.924 94.3295 168.299 94.0341C168.678 93.7348 168.962 93.3333 169.151 92.8295C169.344 92.322 169.441 91.7576 169.441 91.1364C169.441 90.5227 169.346 89.9697 169.157 89.4773C168.971 88.9811 168.689 88.589 168.31 88.3011C167.935 88.0095 167.464 87.8636 166.895 87.8636C166.35 87.8636 165.892 88.0019 165.52 88.2784C165.149 88.5511 164.869 88.9337 164.68 89.4261C164.49 89.9148 164.395 90.4848 164.395 91.1364ZM175.893 95.6818C175.105 95.6818 174.414 95.4943 173.819 95.1193C173.228 94.7443 172.766 94.2197 172.432 93.5455C172.103 92.8712 171.938 92.0833 171.938 91.1818C171.938 90.2727 172.103 89.4792 172.432 88.8011C172.766 88.1231 173.228 87.5966 173.819 87.2216C174.414 86.8466 175.105 86.6591 175.893 86.6591C176.681 86.6591 177.37 86.8466 177.961 87.2216C178.556 87.5966 179.018 88.1231 179.347 88.8011C179.681 89.4792 179.847 90.2727 179.847 91.1818C179.847 92.0833 179.681 92.8712 179.347 93.5455C179.018 94.2197 178.556 94.7443 177.961 95.1193C177.37 95.4943 176.681 95.6818 175.893 95.6818ZM175.893 94.4773C176.491 94.4773 176.984 94.3239 177.37 94.017C177.756 93.7102 178.042 93.3068 178.228 92.8068C178.414 92.3068 178.506 91.7652 178.506 91.1818C178.506 90.5985 178.414 90.0549 178.228 89.5511C178.042 89.0473 177.756 88.6402 177.37 88.3295C176.984 88.0189 176.491 87.8636 175.893 87.8636C175.294 87.8636 174.802 88.0189 174.415 88.3295C174.029 88.6402 173.743 89.0473 173.557 89.5511C173.372 90.0549 173.279 90.5985 173.279 91.1818C173.279 91.7652 173.372 92.3068 173.557 92.8068C173.743 93.3068 174.029 93.7102 174.415 94.017C174.802 94.3239 175.294 94.4773 175.893 94.4773ZM181.414 95.5V86.7727H184.982C185.922 86.7727 186.668 86.9848 187.221 87.4091C187.774 87.8333 188.051 88.3939 188.051 89.0909C188.051 89.6212 187.893 90.0322 187.579 90.3239C187.265 90.6117 186.861 90.8068 186.369 90.9091C186.691 90.9545 187.003 91.0682 187.306 91.25C187.613 91.4318 187.867 91.6818 188.068 92C188.268 92.3144 188.369 92.7008 188.369 93.1591C188.369 93.6061 188.255 94.0057 188.028 94.358C187.801 94.7102 187.475 94.9886 187.051 95.1932C186.626 95.3977 186.119 95.5 185.528 95.5H181.414ZM182.687 94.2727H185.528C185.99 94.2727 186.352 94.1629 186.613 93.9432C186.874 93.7235 187.005 93.4242 187.005 93.0455C187.005 92.5947 186.874 92.2405 186.613 91.983C186.352 91.7216 185.99 91.5909 185.528 91.5909H182.687V94.2727ZM182.687 90.4318H184.982C185.342 90.4318 185.651 90.3826 185.908 90.2841C186.166 90.1818 186.363 90.0379 186.499 89.8523C186.64 89.6629 186.71 89.4394 186.71 89.1818C186.71 88.8144 186.556 88.5265 186.249 88.3182C185.943 88.1061 185.52 88 184.982 88H182.687V90.4318ZM192.487 95.7045C191.934 95.7045 191.432 95.6004 190.981 95.392C190.53 95.1799 190.172 94.875 189.907 94.4773C189.642 94.0758 189.509 93.5909 189.509 93.0227C189.509 92.5227 189.608 92.1174 189.805 91.8068C190.002 91.4924 190.265 91.2462 190.595 91.0682C190.924 90.8902 191.288 90.7576 191.686 90.6705C192.087 90.5795 192.49 90.5076 192.896 90.4545C193.426 90.3864 193.856 90.3352 194.186 90.3011C194.519 90.2633 194.761 90.2008 194.913 90.1136C195.068 90.0265 195.146 89.875 195.146 89.6591V89.6136C195.146 89.053 194.992 88.6174 194.686 88.3068C194.383 87.9962 193.922 87.8409 193.305 87.8409C192.665 87.8409 192.163 87.9811 191.799 88.2614C191.436 88.5417 191.18 88.8409 191.032 89.1591L189.759 88.7045C189.987 88.1742 190.29 87.7614 190.669 87.4659C191.051 87.1667 191.468 86.9583 191.919 86.8409C192.373 86.7197 192.82 86.6591 193.259 86.6591C193.54 86.6591 193.862 86.6932 194.225 86.7614C194.593 86.8258 194.947 86.9602 195.288 87.1648C195.633 87.3693 195.919 87.678 196.146 88.0909C196.373 88.5038 196.487 89.0568 196.487 89.75V95.5H195.146V94.3182H195.078C194.987 94.5076 194.835 94.7102 194.623 94.9261C194.411 95.142 194.129 95.3258 193.776 95.4773C193.424 95.6288 192.994 95.7045 192.487 95.7045ZM192.691 94.5C193.222 94.5 193.669 94.3958 194.032 94.1875C194.4 93.9792 194.676 93.7102 194.862 93.3807C195.051 93.0511 195.146 92.7045 195.146 92.3409V91.1136C195.089 91.1818 194.964 91.2443 194.771 91.3011C194.581 91.3542 194.362 91.4015 194.112 91.4432C193.865 91.4811 193.625 91.5152 193.39 91.5455C193.159 91.572 192.972 91.5947 192.828 91.6136C192.479 91.6591 192.153 91.733 191.85 91.8352C191.551 91.9337 191.309 92.0833 191.123 92.2841C190.941 92.4811 190.85 92.75 190.85 93.0909C190.85 93.5568 191.023 93.9091 191.367 94.1477C191.716 94.3826 192.157 94.5 192.691 94.5ZM204.295 90.5227V91.7727H199.477V90.5227H204.295ZM199.795 86.7727V95.5H198.454V86.7727H199.795ZM205.318 86.7727V95.5H203.977V86.7727H205.318ZM208.628 93.5227L212.832 86.7727H214.378V95.5H213.037V88.75L208.855 95.5H207.287V86.7727H208.628V93.5227ZM221.604 95.5V88H219.285C218.763 88 218.352 88.1212 218.052 88.3636C217.753 88.6061 217.604 88.9394 217.604 89.3636C217.604 89.7803 217.738 90.108 218.007 90.3466C218.28 90.5852 218.653 90.7045 219.126 90.7045H221.944V91.9545H219.126C218.535 91.9545 218.026 91.8504 217.598 91.642C217.17 91.4337 216.84 91.1364 216.609 90.75C216.378 90.3598 216.263 89.8977 216.263 89.3636C216.263 88.8258 216.384 88.3636 216.626 87.9773C216.869 87.5909 217.215 87.2936 217.666 87.0852C218.121 86.8769 218.66 86.7727 219.285 86.7727H222.876V95.5H221.604ZM215.785 95.5L218.263 91.1591H219.717L217.24 95.5H215.785Z" fill="#626262"/>
</g>
<defs>
<filter id="filter0_d_405_35" x="0" y="0" width="389" height="144" filterUnits="userSpaceOnUse" color-interpolation-filters="sRGB">
<feFlood flood-opacity="0" result="BackgroundImageFix"/>
<feColorMatrix in="SourceAlpha" type="matrix" values="0 0 0 0 0 0 0 0 0 0 0 0 0 0 0 0 0 0 127 0" result="hardAlpha"/>
<feOffset dy="4"/>
<feGaussianBlur stdDeviation="12"/>
<feComposite in2="hardAlpha" operator="out"/>
<feColorMatrix type="matrix" values="0 0 0 0 0 0 0 0 0 0 0 0 0 0 0 0 0 0 0.1 0"/>
<feBlend mode="normal" in2="BackgroundImageFix" result="effect1_dropShadow_405_35"/>
<feBlend mode="normal" in="SourceGraphic" in2="effect1_dropShadow_405_35" result="shape"/>
</filter>
</defs>
</svg>
