<svg width="389" height="144" viewBox="0 0 389 144" fill="none" xmlns="http://www.w3.org/2000/svg">
<g filter="url(#filter0_d_405_25)">
<rect x="24" y="20" width="341" height="96" rx="16" fill="white" shape-rendering="crispEdges"/>
<path d="M59.2 80.8C64.5 80.8 68.8 85.1 68.8 90.4C68.8 92.17 67.37 93.6 65.6 93.6H43.2C41.43 93.6 40 92.17 40 90.4C40 85.1 44.3 80.8 49.6 80.8H59.2ZM94.4 45.6C97.93 45.6 100.8 48.47 100.8 52V80.8C100.8 84.11 98.28 86.84 95.05 87.17L94.4 87.2H73.29C72.78 84.78 71.66 82.59 70.08 80.8H75.2V77.6C75.2 75.83 76.63 74.4 78.4 74.4H88C89.77 74.4 91.2 75.83 91.2 77.6V80.8H94.4V52H59.2V57.73C57.72 57.13 56.1 56.8 54.4 56.8C53.86 56.8 53.32 56.83 52.8 56.9V52C52.8 48.47 55.67 45.6 59.2 45.6H94.4ZM54.4 77.6C49.98 77.6 46.4 74.02 46.4 69.6C46.4 65.18 49.98 61.6 54.4 61.6C58.82 61.6 62.4 65.18 62.4 69.6C62.4 74.02 58.82 77.6 54.4 77.6Z" fill="#6A63F5"/>
<path d="M130.642 43.8636V55.5H128.551V45.6136H123.46V55.5H121.369V43.8636H130.642ZM132.592 58.7727V46.7727H134.615V48.2159H134.734C134.841 48.0038 134.99 47.7784 135.183 47.5398C135.377 47.2973 135.638 47.0909 135.967 46.9205C136.297 46.7462 136.717 46.6591 137.229 46.6591C137.903 46.6591 138.511 46.8314 139.053 47.1761C139.598 47.517 140.03 48.0227 140.348 48.6932C140.67 49.3598 140.831 50.178 140.831 51.1477C140.831 52.1061 140.674 52.9205 140.359 53.5909C140.045 54.2614 139.617 54.7727 139.075 55.125C138.534 55.4773 137.92 55.6534 137.234 55.6534C136.734 55.6534 136.32 55.5701 135.99 55.4034C135.661 55.2367 135.395 55.036 135.195 54.8011C134.998 54.5625 134.844 54.3371 134.734 54.125H134.649V58.7727H132.592ZM134.609 51.1364C134.609 51.7008 134.689 52.1951 134.848 52.6193C135.011 53.0436 135.244 53.375 135.547 53.6136C135.854 53.8485 136.225 53.9659 136.661 53.9659C137.115 53.9659 137.496 53.8447 137.803 53.6023C138.109 53.3561 138.341 53.0208 138.496 52.5966C138.655 52.1686 138.734 51.6818 138.734 51.1364C138.734 50.5947 138.657 50.1136 138.502 49.6932C138.346 49.2727 138.115 48.9432 137.808 48.7045C137.502 48.4659 137.119 48.3466 136.661 48.3466C136.221 48.3466 135.848 48.4621 135.541 48.6932C135.234 48.9242 135.002 49.2481 134.842 49.6648C134.687 50.0814 134.609 50.572 134.609 51.1364ZM145.976 55.6705C145.101 55.6705 144.345 55.4886 143.709 55.125C143.076 54.7576 142.59 54.2386 142.249 53.5682C141.908 52.8939 141.737 52.1004 141.737 51.1875C141.737 50.2898 141.908 49.5019 142.249 48.8239C142.594 48.142 143.075 47.6117 143.692 47.233C144.309 46.8504 145.035 46.6591 145.868 46.6591C146.406 46.6591 146.914 46.7462 147.391 46.9205C147.872 47.0909 148.296 47.3561 148.664 47.7159C149.035 48.0758 149.326 48.5341 149.539 49.0909C149.751 49.6439 149.857 50.303 149.857 51.0682V51.6989H142.703V50.3125H147.885C147.881 49.9186 147.796 49.5682 147.629 49.2614C147.463 48.9508 147.23 48.7064 146.931 48.5284C146.635 48.3504 146.29 48.2614 145.897 48.2614C145.476 48.2614 145.107 48.3636 144.789 48.5682C144.47 48.7689 144.222 49.0341 144.044 49.3636C143.87 49.6894 143.781 50.0473 143.777 50.4375V51.6477C143.777 52.1553 143.87 52.5909 144.056 52.9545C144.241 53.3144 144.501 53.5909 144.834 53.7841C145.167 53.9735 145.558 54.0682 146.004 54.0682C146.304 54.0682 146.575 54.0265 146.817 53.9432C147.059 53.8561 147.27 53.7292 147.448 53.5625C147.626 53.3958 147.76 53.1894 147.851 52.9432L149.772 53.1591C149.65 53.6667 149.419 54.1098 149.078 54.4886C148.741 54.8636 148.309 55.1553 147.783 55.3636C147.256 55.5682 146.654 55.6705 145.976 55.6705ZM151.117 55.5V46.7727H158.486V55.5H156.503V48.4602H153.083V55.5H151.117ZM163.928 55.6705C163.076 55.6705 162.337 55.483 161.712 55.108C161.087 54.733 160.602 54.2083 160.258 53.5341C159.917 52.8598 159.746 52.072 159.746 51.1705C159.746 50.2689 159.917 49.4792 160.258 48.8011C160.602 48.1231 161.087 47.5966 161.712 47.2216C162.337 46.8466 163.076 46.6591 163.928 46.6591C164.78 46.6591 165.519 46.8466 166.144 47.2216C166.769 47.5966 167.252 48.1231 167.593 48.8011C167.937 49.4792 168.11 50.2689 168.11 51.1705C168.11 52.072 167.937 52.8598 167.593 53.5341C167.252 54.2083 166.769 54.733 166.144 55.108C165.519 55.483 164.78 55.6705 163.928 55.6705ZM163.939 54.0227C164.401 54.0227 164.788 53.8958 165.098 53.642C165.409 53.3845 165.64 53.0398 165.792 52.608C165.947 52.1761 166.025 51.6951 166.025 51.1648C166.025 50.6307 165.947 50.1477 165.792 49.7159C165.64 49.2803 165.409 48.9337 165.098 48.6761C164.788 48.4186 164.401 48.2898 163.939 48.2898C163.466 48.2898 163.072 48.4186 162.758 48.6761C162.447 48.9337 162.214 49.2803 162.059 49.7159C161.907 50.1477 161.831 50.6307 161.831 51.1648C161.831 51.6951 161.907 52.1761 162.059 52.608C162.214 53.0398 162.447 53.3845 162.758 53.642C163.072 53.8958 163.466 54.0227 163.939 54.0227ZM168.603 58.0341V53.8068H169.296C169.482 53.6629 169.637 53.4678 169.762 53.2216C169.887 52.9716 169.989 52.678 170.069 52.3409C170.152 52 170.22 51.6193 170.273 51.1989C170.326 50.7746 170.374 50.3182 170.415 49.8295L170.665 46.7727H176.972V53.8068H178.324V58.0341H176.336V55.5H170.626V58.0341H168.603ZM171.41 53.8068H175.006V48.4318H172.449L172.313 49.8295C172.237 50.7538 172.137 51.5455 172.012 52.2045C171.887 52.8636 171.686 53.3977 171.41 53.8068ZM181.891 55.6761C181.338 55.6761 180.84 55.5777 180.397 55.3807C179.958 55.1799 179.609 54.8845 179.352 54.4943C179.098 54.1042 178.971 53.6231 178.971 53.0511C178.971 52.5587 179.062 52.1515 179.244 51.8295C179.425 51.5076 179.674 51.25 179.988 51.0568C180.302 50.8636 180.656 50.7178 181.05 50.6193C181.448 50.517 181.859 50.4432 182.283 50.3977C182.795 50.3447 183.209 50.2973 183.528 50.2557C183.846 50.2102 184.077 50.142 184.221 50.0511C184.369 49.9564 184.442 49.8106 184.442 49.6136V49.5795C184.442 49.1515 184.316 48.8201 184.062 48.5852C183.808 48.3504 183.442 48.233 182.965 48.233C182.461 48.233 182.062 48.3428 181.766 48.5625C181.475 48.7822 181.278 49.0417 181.175 49.3409L179.255 49.0682C179.406 48.5379 179.656 48.0947 180.005 47.7386C180.353 47.3788 180.78 47.1098 181.283 46.9318C181.787 46.75 182.344 46.6591 182.954 46.6591C183.374 46.6591 183.793 46.7083 184.209 46.8068C184.626 46.9053 185.007 47.0682 185.352 47.2955C185.696 47.5189 185.973 47.8239 186.181 48.2102C186.393 48.5966 186.499 49.0795 186.499 49.6591V55.5H184.522V54.3011H184.454C184.329 54.5436 184.153 54.7708 183.925 54.983C183.702 55.1913 183.42 55.3598 183.079 55.4886C182.742 55.6136 182.346 55.6761 181.891 55.6761ZM182.425 54.1648C182.838 54.1648 183.196 54.0833 183.499 53.9205C183.802 53.7538 184.035 53.5341 184.198 53.2614C184.365 52.9886 184.448 52.6913 184.448 52.3693V51.3409C184.384 51.3939 184.274 51.4432 184.119 51.4886C183.967 51.5341 183.797 51.5739 183.607 51.608C183.418 51.642 183.23 51.6723 183.045 51.6989C182.859 51.7254 182.698 51.7481 182.562 51.767C182.255 51.8087 181.98 51.8769 181.738 51.9716C181.495 52.0663 181.304 52.1989 181.164 52.3693C181.024 52.536 180.954 52.7519 180.954 53.017C180.954 53.3958 181.092 53.6818 181.369 53.875C181.645 54.0682 181.997 54.1648 182.425 54.1648ZM188.087 55.5V46.7727H191.752C192.786 46.7727 193.603 46.9792 194.201 47.392C194.803 47.8049 195.104 48.3807 195.104 49.1193C195.104 49.608 194.934 50.0076 194.593 50.3182C194.256 50.625 193.796 50.8314 193.212 50.9375C193.671 50.9754 194.072 51.0909 194.417 51.2841C194.765 51.4773 195.038 51.7311 195.235 52.0455C195.432 52.3598 195.531 52.7216 195.531 53.1307C195.531 53.6117 195.404 54.0303 195.15 54.3864C194.9 54.7386 194.534 55.0133 194.053 55.2102C193.576 55.4034 192.997 55.5 192.315 55.5H188.087ZM190.014 53.8807H192.315C192.694 53.8807 192.991 53.7917 193.207 53.6136C193.423 53.4318 193.531 53.1856 193.531 52.875C193.531 52.5152 193.423 52.233 193.207 52.0284C192.991 51.8201 192.694 51.7159 192.315 51.7159H190.014V53.8807ZM190.014 50.3864H191.792C192.072 50.3864 192.313 50.3466 192.514 50.267C192.714 50.1837 192.868 50.0682 192.974 49.9205C193.08 49.7689 193.133 49.589 193.133 49.3807C193.133 49.0814 193.01 48.8466 192.764 48.6761C192.521 48.5057 192.184 48.4205 191.752 48.4205H190.014V50.3864ZM199.259 55.6761C198.706 55.6761 198.208 55.5777 197.765 55.3807C197.326 55.1799 196.977 54.8845 196.72 54.4943C196.466 54.1042 196.339 53.6231 196.339 53.0511C196.339 52.5587 196.43 52.1515 196.612 51.8295C196.794 51.5076 197.042 51.25 197.356 51.0568C197.67 50.8636 198.025 50.7178 198.419 50.6193C198.816 50.517 199.227 50.4432 199.651 50.3977C200.163 50.3447 200.578 50.2973 200.896 50.2557C201.214 50.2102 201.445 50.142 201.589 50.0511C201.737 49.9564 201.811 49.8106 201.811 49.6136V49.5795C201.811 49.1515 201.684 48.8201 201.43 48.5852C201.176 48.3504 200.811 48.233 200.333 48.233C199.83 48.233 199.43 48.3428 199.134 48.5625C198.843 48.7822 198.646 49.0417 198.544 49.3409L196.623 49.0682C196.775 48.5379 197.025 48.0947 197.373 47.7386C197.722 47.3788 198.148 47.1098 198.651 46.9318C199.155 46.75 199.712 46.6591 200.322 46.6591C200.742 46.6591 201.161 46.7083 201.578 46.8068C201.994 46.9053 202.375 47.0682 202.72 47.2955C203.064 47.5189 203.341 47.8239 203.549 48.2102C203.761 48.5966 203.867 49.0795 203.867 49.6591V55.5H201.89V54.3011H201.822C201.697 54.5436 201.521 54.7708 201.294 54.983C201.07 55.1913 200.788 55.3598 200.447 55.4886C200.11 55.6136 199.714 55.6761 199.259 55.6761ZM199.794 54.1648C200.206 54.1648 200.564 54.0833 200.867 53.9205C201.17 53.7538 201.403 53.5341 201.566 53.2614C201.733 52.9886 201.816 52.6913 201.816 52.3693V51.3409C201.752 51.3939 201.642 51.4432 201.487 51.4886C201.335 51.5341 201.165 51.5739 200.975 51.608C200.786 51.642 200.598 51.6723 200.413 51.6989C200.227 51.7254 200.066 51.7481 199.93 51.767C199.623 51.8087 199.348 51.8769 199.106 51.9716C198.864 52.0663 198.672 52.1989 198.532 52.3693C198.392 52.536 198.322 52.7519 198.322 53.017C198.322 53.3958 198.46 53.6818 198.737 53.875C199.013 54.0682 199.365 54.1648 199.794 54.1648ZM204.478 48.4602V46.7727H212.115V48.4602H209.291V55.5H207.302V48.4602H204.478ZM216.777 55.6705C215.902 55.6705 215.146 55.4886 214.51 55.125C213.877 54.7576 213.39 54.2386 213.049 53.5682C212.709 52.8939 212.538 52.1004 212.538 51.1875C212.538 50.2898 212.709 49.5019 213.049 48.8239C213.394 48.142 213.875 47.6117 214.493 47.233C215.11 46.8504 215.835 46.6591 216.669 46.6591C217.207 46.6591 217.714 46.7462 218.191 46.9205C218.673 47.0909 219.097 47.3561 219.464 47.7159C219.835 48.0758 220.127 48.5341 220.339 49.0909C220.551 49.6439 220.657 50.303 220.657 51.0682V51.6989H213.504V50.3125H218.686C218.682 49.9186 218.597 49.5682 218.43 49.2614C218.263 48.9508 218.03 48.7064 217.731 48.5284C217.436 48.3504 217.091 48.2614 216.697 48.2614C216.277 48.2614 215.907 48.3636 215.589 48.5682C215.271 48.7689 215.023 49.0341 214.845 49.3636C214.671 49.6894 214.582 50.0473 214.578 50.4375V51.6477C214.578 52.1553 214.671 52.5909 214.856 52.9545C215.042 53.3144 215.301 53.5909 215.635 53.7841C215.968 53.9735 216.358 54.0682 216.805 54.0682C217.104 54.0682 217.375 54.0265 217.618 53.9432C217.86 53.8561 218.07 53.7292 218.248 53.5625C218.426 53.3958 218.561 53.1894 218.652 52.9432L220.572 53.1591C220.451 53.6667 220.22 54.1098 219.879 54.4886C219.542 54.8636 219.11 55.1553 218.584 55.3636C218.057 55.5682 217.455 55.6705 216.777 55.6705ZM221.315 55.5L221.304 53.8068H221.605C221.832 53.8068 222.024 53.7557 222.179 53.6534C222.334 53.5511 222.463 53.3807 222.565 53.142C222.667 52.8996 222.747 52.5739 222.804 52.1648C222.861 51.7557 222.9 51.2462 222.923 50.6364L223.077 46.7727H229.44V55.5H227.452V48.4602H224.946L224.809 51.2727C224.775 52 224.694 52.6307 224.565 53.1648C224.44 53.6951 224.262 54.1326 224.031 54.4773C223.804 54.822 223.518 55.0795 223.173 55.25C222.828 55.4167 222.421 55.5 221.952 55.5H221.315ZM232.423 49.6136H234.997C236.111 49.6136 236.972 49.8845 237.582 50.4261C238.192 50.9678 238.499 51.678 238.503 52.5568C238.499 53.1288 238.359 53.6364 238.082 54.0795C237.81 54.5227 237.412 54.8712 236.889 55.125C236.37 55.375 235.74 55.5 234.997 55.5H231.031V46.7727H233.014V53.8125H234.997C235.444 53.8125 235.811 53.6989 236.099 53.4716C236.387 53.2405 236.531 52.9451 236.531 52.5852C236.531 52.2064 236.387 51.8977 236.099 51.6591C235.811 51.4205 235.444 51.3011 234.997 51.3011H232.423V49.6136Z" fill="#262626"/>
<path d="M130.773 71.5H129.364C129.28 71.0947 129.134 70.7386 128.926 70.4318C128.722 70.125 128.472 69.8674 128.176 69.6591C127.884 69.447 127.561 69.2879 127.205 69.1818C126.848 69.0758 126.477 69.0227 126.091 69.0227C125.386 69.0227 124.748 69.2008 124.176 69.5568C123.608 69.9129 123.155 70.4375 122.818 71.1307C122.485 71.8239 122.318 72.6742 122.318 73.6818C122.318 74.6894 122.485 75.5398 122.818 76.233C123.155 76.9261 123.608 77.4508 124.176 77.8068C124.748 78.1629 125.386 78.3409 126.091 78.3409C126.477 78.3409 126.848 78.2879 127.205 78.1818C127.561 78.0758 127.884 77.9186 128.176 77.7102C128.472 77.4981 128.722 77.2386 128.926 76.9318C129.134 76.6212 129.28 76.2652 129.364 75.8636H130.773C130.667 76.4583 130.473 76.9905 130.193 77.4602C129.913 77.9299 129.564 78.3295 129.148 78.6591C128.731 78.9848 128.263 79.233 127.744 79.4034C127.229 79.5739 126.678 79.6591 126.091 79.6591C125.098 79.6591 124.216 79.4167 123.443 78.9318C122.67 78.447 122.063 77.7576 121.619 76.8636C121.176 75.9697 120.955 74.9091 120.955 73.6818C120.955 72.4545 121.176 71.3939 121.619 70.5C122.063 69.6061 122.67 68.9167 123.443 68.4318C124.216 67.947 125.098 67.7045 126.091 67.7045C126.678 67.7045 127.229 67.7898 127.744 67.9602C128.263 68.1307 128.731 68.3807 129.148 68.7102C129.564 69.036 129.913 69.4337 130.193 69.9034C130.473 70.3693 130.667 70.9015 130.773 71.5ZM135.933 79.6818C135.145 79.6818 134.454 79.4943 133.859 79.1193C133.269 78.7443 132.806 78.2197 132.473 77.5455C132.144 76.8712 131.979 76.0833 131.979 75.1818C131.979 74.2727 132.144 73.4792 132.473 72.8011C132.806 72.1231 133.269 71.5966 133.859 71.2216C134.454 70.8466 135.145 70.6591 135.933 70.6591C136.721 70.6591 137.411 70.8466 138.002 71.2216C138.596 71.5966 139.058 72.1231 139.388 72.8011C139.721 73.4792 139.888 74.2727 139.888 75.1818C139.888 76.0833 139.721 76.8712 139.388 77.5455C139.058 78.2197 138.596 78.7443 138.002 79.1193C137.411 79.4943 136.721 79.6818 135.933 79.6818ZM135.933 78.4773C136.532 78.4773 137.024 78.3239 137.411 78.017C137.797 77.7102 138.083 77.3068 138.269 76.8068C138.454 76.3068 138.547 75.7652 138.547 75.1818C138.547 74.5985 138.454 74.0549 138.269 73.5511C138.083 73.0473 137.797 72.6402 137.411 72.3295C137.024 72.0189 136.532 71.8636 135.933 71.8636C135.335 71.8636 134.842 72.0189 134.456 72.3295C134.07 72.6402 133.784 73.0473 133.598 73.5511C133.413 74.0549 133.32 74.5985 133.32 75.1818C133.32 75.7652 133.413 76.3068 133.598 76.8068C133.784 77.3068 134.07 77.7102 134.456 78.017C134.842 78.3239 135.335 78.4773 135.933 78.4773ZM140.909 77.2727H142.341C142.371 77.6667 142.549 77.9659 142.875 78.1705C143.205 78.375 143.633 78.4773 144.159 78.4773C144.697 78.4773 145.157 78.3674 145.54 78.1477C145.923 77.9242 146.114 77.5644 146.114 77.0682C146.114 76.7765 146.042 76.5227 145.898 76.3068C145.754 76.0871 145.551 75.9167 145.29 75.7955C145.029 75.6742 144.72 75.6136 144.364 75.6136H142.864V74.4091H144.364C144.898 74.4091 145.292 74.2879 145.546 74.0455C145.803 73.803 145.932 73.5 145.932 73.1364C145.932 72.7462 145.794 72.4337 145.517 72.1989C145.241 71.9602 144.849 71.8409 144.341 71.8409C143.83 71.8409 143.404 71.9564 143.063 72.1875C142.722 72.4148 142.542 72.7083 142.523 73.0682H141.114C141.129 72.5985 141.273 72.1837 141.546 71.8239C141.818 71.4602 142.19 71.1761 142.659 70.9716C143.129 70.7633 143.667 70.6591 144.273 70.6591C144.887 70.6591 145.419 70.767 145.87 70.983C146.324 71.1951 146.674 71.4848 146.921 71.8523C147.171 72.2159 147.296 72.6288 147.296 73.0909C147.296 73.5833 147.157 73.9811 146.881 74.2841C146.604 74.5871 146.258 74.803 145.841 74.9318V75.0227C146.171 75.0455 146.457 75.1515 146.699 75.3409C146.945 75.5265 147.137 75.7708 147.273 76.0739C147.409 76.3731 147.478 76.7045 147.478 77.0682C147.478 77.5985 147.335 78.0606 147.051 78.4545C146.767 78.8447 146.377 79.1477 145.881 79.3636C145.385 79.5758 144.818 79.6818 144.182 79.6818C143.565 79.6818 143.012 79.5814 142.523 79.3807C142.034 79.1761 141.646 78.8939 141.358 78.5341C141.074 78.1705 140.924 77.75 140.909 77.2727ZM147.949 82V78.25H148.676C148.855 78.0644 149.008 77.8636 149.137 77.6477C149.265 77.4318 149.377 77.1761 149.472 76.8807C149.57 76.5814 149.654 76.2178 149.722 75.7898C149.79 75.358 149.851 74.8371 149.904 74.2273L150.199 70.7727H155.745V78.25H157.086V82H155.745V79.5H149.29V82H147.949ZM150.199 78.25H154.404V72.0227H151.449L151.222 74.2273C151.127 75.1402 151.01 75.9375 150.87 76.6193C150.73 77.3011 150.506 77.8447 150.199 78.25ZM160.954 79.7045C160.401 79.7045 159.899 79.6004 159.448 79.392C158.997 79.1799 158.639 78.875 158.374 78.4773C158.109 78.0758 157.976 77.5909 157.976 77.0227C157.976 76.5227 158.075 76.1174 158.272 75.8068C158.469 75.4924 158.732 75.2462 159.062 75.0682C159.391 74.8902 159.755 74.7576 160.152 74.6705C160.554 74.5795 160.957 74.5076 161.363 74.4545C161.893 74.3864 162.323 74.3352 162.652 74.3011C162.986 74.2633 163.228 74.2008 163.38 74.1136C163.535 74.0265 163.613 73.875 163.613 73.6591V73.6136C163.613 73.053 163.459 72.6174 163.152 72.3068C162.849 71.9962 162.389 71.8409 161.772 71.8409C161.132 71.8409 160.63 71.9811 160.266 72.2614C159.902 72.5417 159.647 72.8409 159.499 73.1591L158.226 72.7045C158.454 72.1742 158.757 71.7614 159.135 71.4659C159.518 71.1667 159.935 70.9583 160.385 70.8409C160.84 70.7197 161.287 70.6591 161.726 70.6591C162.007 70.6591 162.329 70.6932 162.692 70.7614C163.06 70.8258 163.414 70.9602 163.755 71.1648C164.099 71.3693 164.385 71.678 164.613 72.0909C164.84 72.5038 164.954 73.0568 164.954 73.75V79.5H163.613V78.3182H163.544C163.454 78.5076 163.302 78.7102 163.09 78.9261C162.878 79.142 162.596 79.3258 162.243 79.4773C161.891 79.6288 161.461 79.7045 160.954 79.7045ZM161.158 78.5C161.688 78.5 162.135 78.3958 162.499 78.1875C162.866 77.9792 163.143 77.7102 163.329 77.3807C163.518 77.0511 163.613 76.7045 163.613 76.3409V75.1136C163.556 75.1818 163.431 75.2443 163.238 75.3011C163.048 75.3542 162.829 75.4015 162.579 75.4432C162.332 75.4811 162.092 75.5152 161.857 75.5455C161.626 75.572 161.438 75.5947 161.294 75.6136C160.946 75.6591 160.62 75.733 160.317 75.8352C160.018 75.9337 159.776 76.0833 159.59 76.2841C159.408 76.4811 159.317 76.75 159.317 77.0909C159.317 77.5568 159.49 77.9091 159.834 78.1477C160.183 78.3826 160.624 78.5 161.158 78.5ZM172.762 74.5227V75.7727H167.944V74.5227H172.762ZM168.262 70.7727V79.5H166.921V70.7727H168.262ZM173.785 70.7727V79.5H172.444V70.7727H173.785ZM177.094 77.5227L181.299 70.7727H182.844V79.5H181.504V72.75L177.322 79.5H175.754V70.7727H177.094V77.5227ZM188.479 79.6818C187.639 79.6818 186.913 79.4962 186.303 79.125C185.697 78.75 185.229 78.2273 184.9 77.5568C184.574 76.8826 184.411 76.0985 184.411 75.2045C184.411 74.3106 184.574 73.5227 184.9 72.8409C185.229 72.1553 185.688 71.6212 186.275 71.2386C186.866 70.8523 187.555 70.6591 188.343 70.6591C188.798 70.6591 189.247 70.7348 189.69 70.8864C190.133 71.0379 190.536 71.2841 190.9 71.625C191.264 71.9621 191.553 72.4091 191.769 72.9659C191.985 73.5227 192.093 74.2083 192.093 75.0227V75.5909H185.366V74.4318H190.729C190.729 73.9394 190.631 73.5 190.434 73.1136C190.241 72.7273 189.964 72.4223 189.604 72.1989C189.248 71.9754 188.828 71.8636 188.343 71.8636C187.809 71.8636 187.347 71.9962 186.957 72.2614C186.57 72.5227 186.273 72.8636 186.065 73.2841C185.856 73.7045 185.752 74.1553 185.752 74.6364V75.4091C185.752 76.0682 185.866 76.6269 186.093 77.0852C186.324 77.5398 186.644 77.8864 187.053 78.125C187.462 78.3598 187.938 78.4773 188.479 78.4773C188.832 78.4773 189.15 78.428 189.434 78.3295C189.722 78.2273 189.97 78.0758 190.178 77.875C190.387 77.6705 190.548 77.4167 190.661 77.1136L191.957 77.4773C191.82 77.9167 191.591 78.303 191.269 78.6364C190.947 78.9659 190.55 79.2235 190.076 79.4091C189.603 79.5909 189.07 79.6818 188.479 79.6818ZM198.537 82.7727C198.309 82.7727 198.107 82.7538 197.929 82.7159C197.751 82.6818 197.627 82.6477 197.559 82.6136L197.9 81.4318C198.226 81.5152 198.514 81.5455 198.764 81.5227C199.014 81.5 199.235 81.3883 199.429 81.1875C199.626 80.9905 199.805 80.6705 199.968 80.2273L200.218 79.5455L196.991 70.7727H198.446L200.855 77.7273H200.946L203.355 70.7727H204.809L201.105 80.7727C200.938 81.2235 200.732 81.5966 200.485 81.892C200.239 82.1913 199.953 82.4129 199.627 82.5568C199.305 82.7008 198.942 82.7727 198.537 82.7727ZM212.561 70.7727V79.5H211.22V70.7727H212.561ZM212.038 74.9318V76.1818C211.735 76.2955 211.434 76.3958 211.135 76.483C210.835 76.5663 210.521 76.6326 210.191 76.6818C209.862 76.7273 209.5 76.75 209.106 76.75C208.118 76.75 207.324 76.483 206.726 75.9489C206.131 75.4148 205.834 74.6136 205.834 73.5455V70.75H207.174V73.5455C207.174 73.9924 207.26 74.3598 207.43 74.6477C207.601 74.9356 207.832 75.1496 208.123 75.2898C208.415 75.4299 208.743 75.5 209.106 75.5C209.674 75.5 210.188 75.4489 210.646 75.3466C211.108 75.2405 211.572 75.1023 212.038 74.9318ZM218.2 79.6818C217.359 79.6818 216.634 79.4962 216.024 79.125C215.418 78.75 214.95 78.2273 214.621 77.5568C214.295 76.8826 214.132 76.0985 214.132 75.2045C214.132 74.3106 214.295 73.5227 214.621 72.8409C214.95 72.1553 215.408 71.6212 215.996 71.2386C216.586 70.8523 217.276 70.6591 218.064 70.6591C218.518 70.6591 218.967 70.7348 219.41 70.8864C219.854 71.0379 220.257 71.2841 220.621 71.625C220.984 71.9621 221.274 72.4091 221.49 72.9659C221.706 73.5227 221.814 74.2083 221.814 75.0227V75.5909H215.086V74.4318H220.45C220.45 73.9394 220.352 73.5 220.155 73.1136C219.961 72.7273 219.685 72.4223 219.325 72.1989C218.969 71.9754 218.549 71.8636 218.064 71.8636C217.53 71.8636 217.068 71.9962 216.677 72.2614C216.291 72.5227 215.994 72.8636 215.785 73.2841C215.577 73.7045 215.473 74.1553 215.473 74.6364V75.4091C215.473 76.0682 215.586 76.6269 215.814 77.0852C216.045 77.5398 216.365 77.8864 216.774 78.125C217.183 78.3598 217.658 78.4773 218.2 78.4773C218.552 78.4773 218.871 78.428 219.155 78.3295C219.443 78.2273 219.691 78.0758 219.899 77.875C220.107 77.6705 220.268 77.4167 220.382 77.1136L221.677 77.4773C221.541 77.9167 221.312 78.303 220.99 78.6364C220.668 78.9659 220.27 79.2235 219.797 79.4091C219.323 79.5909 218.791 79.6818 218.2 79.6818ZM229.851 67.5L230.533 68.3182C230.267 68.5758 229.961 68.7557 229.612 68.858C229.264 68.9602 228.87 69.0227 228.43 69.0455C227.991 69.0682 227.502 69.0909 226.964 69.1136C226.358 69.1364 225.856 69.2841 225.459 69.5568C225.061 69.8295 224.754 70.2235 224.538 70.7386C224.322 71.2538 224.184 71.8864 224.124 72.6364H224.237C224.533 72.0909 224.942 71.6894 225.464 71.4318C225.987 71.1742 226.548 71.0455 227.146 71.0455C227.828 71.0455 228.442 71.2045 228.987 71.5227C229.533 71.8409 229.964 72.3125 230.283 72.9375C230.601 73.5625 230.76 74.3333 230.76 75.25C230.76 76.1629 230.597 76.9508 230.271 77.6136C229.949 78.2765 229.497 78.7879 228.913 79.1477C228.334 79.5038 227.654 79.6818 226.874 79.6818C226.093 79.6818 225.41 79.4981 224.822 79.1307C224.235 78.7595 223.779 78.2102 223.453 77.483C223.127 76.7519 222.964 75.8485 222.964 74.7727V73.8409C222.964 71.8977 223.294 70.4242 223.953 69.4205C224.616 68.4167 225.612 67.8977 226.942 67.8636C227.411 67.8485 227.83 67.8447 228.197 67.8523C228.565 67.8598 228.885 67.8428 229.158 67.8011C229.43 67.7595 229.661 67.6591 229.851 67.5ZM226.874 78.4773C227.4 78.4773 227.853 78.3447 228.231 78.0795C228.614 77.8144 228.908 77.4413 229.112 76.9602C229.317 76.4754 229.419 75.9053 229.419 75.25C229.419 74.6136 229.315 74.072 229.106 73.625C228.902 73.178 228.608 72.8371 228.226 72.6023C227.843 72.3674 227.385 72.25 226.851 72.25C226.461 72.25 226.11 72.3163 225.8 72.4489C225.489 72.5814 225.224 72.7765 225.004 73.0341C224.785 73.2917 224.614 73.6061 224.493 73.9773C224.375 74.3485 224.313 74.7727 224.305 75.25C224.305 76.2273 224.535 77.0095 224.993 77.5966C225.451 78.1837 226.078 78.4773 226.874 78.4773ZM238.172 74.5227V75.7727H233.354V74.5227H238.172ZM233.672 70.7727V79.5H232.331V70.7727H233.672ZM239.195 70.7727V79.5H237.854V70.7727H239.195ZM244.709 79.6818C243.921 79.6818 243.23 79.4943 242.635 79.1193C242.044 78.7443 241.582 78.2197 241.249 77.5455C240.919 76.8712 240.754 76.0833 240.754 75.1818C240.754 74.2727 240.919 73.4792 241.249 72.8011C241.582 72.1231 242.044 71.5966 242.635 71.2216C243.23 70.8466 243.921 70.6591 244.709 70.6591C245.497 70.6591 246.186 70.8466 246.777 71.2216C247.372 71.5966 247.834 72.1231 248.164 72.8011C248.497 73.4792 248.664 74.2727 248.664 75.1818C248.664 76.0833 248.497 76.8712 248.164 77.5455C247.834 78.2197 247.372 78.7443 246.777 79.1193C246.186 79.4943 245.497 79.6818 244.709 79.6818ZM244.709 78.4773C245.307 78.4773 245.8 78.3239 246.186 78.017C246.573 77.7102 246.859 77.3068 247.044 76.8068C247.23 76.3068 247.323 75.7652 247.323 75.1818C247.323 74.5985 247.23 74.0549 247.044 73.5511C246.859 73.0473 246.573 72.6402 246.186 72.3295C245.8 72.0189 245.307 71.8636 244.709 71.8636C244.11 71.8636 243.618 72.0189 243.232 72.3295C242.845 72.6402 242.559 73.0473 242.374 73.5511C242.188 74.0549 242.095 74.5985 242.095 75.1818C242.095 75.7652 242.188 76.3068 242.374 76.8068C242.559 77.3068 242.845 77.7102 243.232 78.017C243.618 78.3239 244.11 78.4773 244.709 78.4773ZM255.617 70.7727V72.0227H251.571V79.5H250.23V70.7727H255.617ZM260.186 79.6818C259.399 79.6818 258.707 79.4943 258.113 79.1193C257.522 78.7443 257.06 78.2197 256.726 77.5455C256.397 76.8712 256.232 76.0833 256.232 75.1818C256.232 74.2727 256.397 73.4792 256.726 72.8011C257.06 72.1231 257.522 71.5966 258.113 71.2216C258.707 70.8466 259.399 70.6591 260.186 70.6591C260.974 70.6591 261.664 70.8466 262.255 71.2216C262.849 71.5966 263.311 72.1231 263.641 72.8011C263.974 73.4792 264.141 74.2727 264.141 75.1818C264.141 76.0833 263.974 76.8712 263.641 77.5455C263.311 78.2197 262.849 78.7443 262.255 79.1193C261.664 79.4943 260.974 79.6818 260.186 79.6818ZM260.186 78.4773C260.785 78.4773 261.277 78.3239 261.664 78.017C262.05 77.7102 262.336 77.3068 262.522 76.8068C262.707 76.3068 262.8 75.7652 262.8 75.1818C262.8 74.5985 262.707 74.0549 262.522 73.5511C262.336 73.0473 262.05 72.6402 261.664 72.3295C261.277 72.0189 260.785 71.8636 260.186 71.8636C259.588 71.8636 259.096 72.0189 258.709 72.3295C258.323 72.6402 258.037 73.0473 257.851 73.5511C257.666 74.0549 257.573 74.5985 257.573 75.1818C257.573 75.7652 257.666 76.3068 257.851 76.8068C258.037 77.3068 258.323 77.7102 258.709 78.017C259.096 78.3239 259.588 78.4773 260.186 78.4773ZM126 93.6818L129.045 86.7727H130.318L126.545 95.5H125.455L121.75 86.7727H123L126 93.6818ZM122.568 86.7727V95.5H121.227V86.7727H122.568ZM129.432 95.5V86.7727H130.773V95.5H129.432ZM135.315 95.7045C134.762 95.7045 134.261 95.6004 133.81 95.392C133.359 95.1799 133.001 94.875 132.736 94.4773C132.471 94.0758 132.338 93.5909 132.338 93.0227C132.338 92.5227 132.437 92.1174 132.634 91.8068C132.831 91.4924 133.094 91.2462 133.423 91.0682C133.753 90.8902 134.117 90.7576 134.514 90.6705C134.916 90.5795 135.319 90.5076 135.725 90.4545C136.255 90.3864 136.685 90.3352 137.014 90.3011C137.348 90.2633 137.59 90.2008 137.742 90.1136C137.897 90.0265 137.975 89.875 137.975 89.6591V89.6136C137.975 89.053 137.821 88.6174 137.514 88.3068C137.211 87.9962 136.751 87.8409 136.134 87.8409C135.493 87.8409 134.992 87.9811 134.628 88.2614C134.264 88.5417 134.009 88.8409 133.861 89.1591L132.588 88.7045C132.815 88.1742 133.118 87.7614 133.497 87.4659C133.88 87.1667 134.297 86.9583 134.747 86.8409C135.202 86.7197 135.649 86.6591 136.088 86.6591C136.368 86.6591 136.69 86.6932 137.054 86.7614C137.422 86.8258 137.776 86.9602 138.117 87.1648C138.461 87.3693 138.747 87.678 138.975 88.0909C139.202 88.5038 139.315 89.0568 139.315 89.75V95.5H137.975V94.3182H137.906C137.815 94.5076 137.664 94.7102 137.452 94.9261C137.24 95.142 136.958 95.3258 136.605 95.4773C136.253 95.6288 135.823 95.7045 135.315 95.7045ZM135.52 94.5C136.05 94.5 136.497 94.3958 136.861 94.1875C137.228 93.9792 137.505 93.7102 137.69 93.3807C137.88 93.0511 137.975 92.7045 137.975 92.3409V91.1136C137.918 91.1818 137.793 91.2443 137.6 91.3011C137.41 91.3542 137.19 91.4015 136.94 91.4432C136.694 91.4811 136.454 91.5152 136.219 91.5455C135.988 91.572 135.8 91.5947 135.656 91.6136C135.308 91.6591 134.982 91.733 134.679 91.8352C134.38 91.9337 134.137 92.0833 133.952 92.2841C133.77 92.4811 133.679 92.75 133.679 93.0909C133.679 93.5568 133.851 93.9091 134.196 94.1477C134.545 94.3826 134.986 94.5 135.52 94.5ZM140.095 88.0227V86.7727H147.186V88.0227H144.323V95.5H142.982V88.0227H140.095ZM151.868 95.6818C151.027 95.6818 150.302 95.4962 149.692 95.125C149.086 94.75 148.618 94.2273 148.289 93.5568C147.963 92.8826 147.8 92.0985 147.8 91.2045C147.8 90.3106 147.963 89.5227 148.289 88.8409C148.618 88.1553 149.077 87.6212 149.664 87.2386C150.255 86.8523 150.944 86.6591 151.732 86.6591C152.186 86.6591 152.635 86.7348 153.078 86.8864C153.522 87.0379 153.925 87.2841 154.289 87.625C154.652 87.9621 154.942 88.4091 155.158 88.9659C155.374 89.5227 155.482 90.2083 155.482 91.0227V91.5909H148.755V90.4318H154.118C154.118 89.9394 154.02 89.5 153.823 89.1136C153.63 88.7273 153.353 88.4223 152.993 88.1989C152.637 87.9754 152.217 87.8636 151.732 87.8636C151.198 87.8636 150.736 87.9962 150.346 88.2614C149.959 88.5227 149.662 88.8636 149.453 89.2841C149.245 89.7045 149.141 90.1553 149.141 90.6364V91.4091C149.141 92.0682 149.255 92.6269 149.482 93.0852C149.713 93.5398 150.033 93.8864 150.442 94.125C150.851 94.3598 151.327 94.4773 151.868 94.4773C152.221 94.4773 152.539 94.428 152.823 94.3295C153.111 94.2273 153.359 94.0758 153.567 93.875C153.775 93.6705 153.936 93.4167 154.05 93.1136L155.346 93.4773C155.209 93.9167 154.98 94.303 154.658 94.6364C154.336 94.9659 153.938 95.2235 153.465 95.4091C152.991 95.5909 152.459 95.6818 151.868 95.6818ZM157.042 98.7727V86.7727H158.337V88.1591H158.496C158.595 88.0076 158.731 87.8144 158.905 87.5795C159.083 87.3409 159.337 87.1288 159.667 86.9432C160 86.7538 160.451 86.6591 161.019 86.6591C161.754 86.6591 162.401 86.8428 162.962 87.2102C163.523 87.5777 163.96 88.0985 164.275 88.7727C164.589 89.447 164.746 90.2424 164.746 91.1591C164.746 92.0833 164.589 92.8845 164.275 93.5625C163.96 94.2367 163.525 94.7595 162.968 95.1307C162.411 95.4981 161.769 95.6818 161.042 95.6818C160.481 95.6818 160.032 95.589 159.695 95.4034C159.358 95.214 159.098 95 158.917 94.7614C158.735 94.5189 158.595 94.3182 158.496 94.1591H158.383V98.7727H157.042ZM158.36 91.1364C158.36 91.7955 158.456 92.3769 158.65 92.8807C158.843 93.3807 159.125 93.7727 159.496 94.0568C159.867 94.3371 160.322 94.4773 160.86 94.4773C161.42 94.4773 161.888 94.3295 162.263 94.0341C162.642 93.7348 162.926 93.3333 163.116 92.8295C163.309 92.322 163.405 91.7576 163.405 91.1364C163.405 90.5227 163.311 89.9697 163.121 89.4773C162.936 88.9811 162.653 88.589 162.275 88.3011C161.9 88.0095 161.428 87.8636 160.86 87.8636C160.314 87.8636 159.856 88.0019 159.485 88.2784C159.114 88.5511 158.833 88.9337 158.644 89.4261C158.455 89.9148 158.36 90.4848 158.36 91.1364ZM167.653 93.5227L171.857 86.7727H173.403V95.5H172.062V88.75L167.88 95.5H166.312V86.7727H167.653V93.5227ZM177.947 95.7045C177.394 95.7045 176.892 95.6004 176.441 95.392C175.99 95.1799 175.632 94.875 175.367 94.4773C175.102 94.0758 174.969 93.5909 174.969 93.0227C174.969 92.5227 175.068 92.1174 175.265 91.8068C175.462 91.4924 175.725 91.2462 176.055 91.0682C176.384 90.8902 176.748 90.7576 177.146 90.6705C177.547 90.5795 177.95 90.5076 178.356 90.4545C178.886 90.3864 179.316 90.3352 179.646 90.3011C179.979 90.2633 180.221 90.2008 180.373 90.1136C180.528 90.0265 180.606 89.875 180.606 89.6591V89.6136C180.606 89.053 180.452 88.6174 180.146 88.3068C179.843 87.9962 179.382 87.8409 178.765 87.8409C178.125 87.8409 177.623 87.9811 177.259 88.2614C176.896 88.5417 176.64 88.8409 176.492 89.1591L175.219 88.7045C175.447 88.1742 175.75 87.7614 176.129 87.4659C176.511 87.1667 176.928 86.9583 177.379 86.8409C177.833 86.7197 178.28 86.6591 178.719 86.6591C179 86.6591 179.322 86.6932 179.685 86.7614C180.053 86.8258 180.407 86.9602 180.748 87.1648C181.093 87.3693 181.379 87.678 181.606 88.0909C181.833 88.5038 181.947 89.0568 181.947 89.75V95.5H180.606V94.3182H180.538C180.447 94.5076 180.295 94.7102 180.083 94.9261C179.871 95.142 179.589 95.3258 179.236 95.4773C178.884 95.6288 178.454 95.7045 177.947 95.7045ZM178.151 94.5C178.682 94.5 179.129 94.3958 179.492 94.1875C179.86 93.9792 180.136 93.7102 180.322 93.3807C180.511 93.0511 180.606 92.7045 180.606 92.3409V91.1136C180.549 91.1818 180.424 91.2443 180.231 91.3011C180.041 91.3542 179.822 91.4015 179.572 91.4432C179.325 91.4811 179.085 91.5152 178.85 91.5455C178.619 91.572 178.432 91.5947 178.288 91.6136C177.939 91.6591 177.613 91.733 177.31 91.8352C177.011 91.9337 176.769 92.0833 176.583 92.2841C176.401 92.4811 176.31 92.75 176.31 93.0909C176.31 93.5568 176.483 93.9091 176.827 94.1477C177.176 94.3826 177.617 94.5 178.151 94.5ZM183.141 95.5V94.25H183.46C183.721 94.25 183.939 94.1989 184.113 94.0966C184.287 93.9905 184.427 93.8068 184.533 93.5455C184.643 93.2803 184.727 92.9129 184.783 92.4432C184.844 91.9697 184.888 91.3674 184.914 90.6364L185.073 86.7727H190.891V95.5H189.551V88.0227H186.346L186.21 91.1364C186.179 91.8523 186.115 92.483 186.016 93.0284C185.922 93.5701 185.776 94.0246 185.579 94.392C185.386 94.7595 185.128 95.036 184.806 95.2216C184.484 95.4072 184.081 95.5 183.596 95.5H183.141ZM195.44 95.7045C194.887 95.7045 194.385 95.6004 193.934 95.392C193.483 95.1799 193.125 94.875 192.86 94.4773C192.595 94.0758 192.463 93.5909 192.463 93.0227C192.463 92.5227 192.561 92.1174 192.758 91.8068C192.955 91.4924 193.218 91.2462 193.548 91.0682C193.877 90.8902 194.241 90.7576 194.639 90.6705C195.04 90.5795 195.444 90.5076 195.849 90.4545C196.379 90.3864 196.809 90.3352 197.139 90.3011C197.472 90.2633 197.714 90.2008 197.866 90.1136C198.021 90.0265 198.099 89.875 198.099 89.6591V89.6136C198.099 89.053 197.946 88.6174 197.639 88.3068C197.336 87.9962 196.875 87.8409 196.258 87.8409C195.618 87.8409 195.116 87.9811 194.752 88.2614C194.389 88.5417 194.133 88.8409 193.985 89.1591L192.713 88.7045C192.94 88.1742 193.243 87.7614 193.622 87.4659C194.004 87.1667 194.421 86.9583 194.872 86.8409C195.326 86.7197 195.773 86.6591 196.213 86.6591C196.493 86.6591 196.815 86.6932 197.178 86.7614C197.546 86.8258 197.9 86.9602 198.241 87.1648C198.586 87.3693 198.872 87.678 199.099 88.0909C199.326 88.5038 199.44 89.0568 199.44 89.75V95.5H198.099V94.3182H198.031C197.94 94.5076 197.788 94.7102 197.576 94.9261C197.364 95.142 197.082 95.3258 196.73 95.4773C196.377 95.6288 195.947 95.7045 195.44 95.7045ZM195.644 94.5C196.175 94.5 196.622 94.3958 196.985 94.1875C197.353 93.9792 197.629 93.7102 197.815 93.3807C198.004 93.0511 198.099 92.7045 198.099 92.3409V91.1136C198.042 91.1818 197.917 91.2443 197.724 91.3011C197.535 91.3542 197.315 91.4015 197.065 91.4432C196.819 91.4811 196.578 91.5152 196.343 91.5455C196.112 91.572 195.925 91.5947 195.781 91.6136C195.432 91.6591 195.106 91.733 194.803 91.8352C194.504 91.9337 194.262 92.0833 194.076 92.2841C193.894 92.4811 193.803 92.75 193.803 93.0909C193.803 93.5568 193.976 93.9091 194.321 94.1477C194.669 94.3826 195.11 94.5 195.644 94.5ZM211.268 90.5227V91.7727H206.45V90.5227H211.268ZM206.768 86.7727V95.5H205.427V86.7727H206.768ZM212.291 86.7727V95.5H210.95V86.7727H212.291ZM216.828 95.7045C216.275 95.7045 215.773 95.6004 215.322 95.392C214.872 95.1799 214.514 94.875 214.248 94.4773C213.983 94.0758 213.851 93.5909 213.851 93.0227C213.851 92.5227 213.949 92.1174 214.146 91.8068C214.343 91.4924 214.606 91.2462 214.936 91.0682C215.265 90.8902 215.629 90.7576 216.027 90.6705C216.428 90.5795 216.832 90.5076 217.237 90.4545C217.767 90.3864 218.197 90.3352 218.527 90.3011C218.86 90.2633 219.103 90.2008 219.254 90.1136C219.409 90.0265 219.487 89.875 219.487 89.6591V89.6136C219.487 89.053 219.334 88.6174 219.027 88.3068C218.724 87.9962 218.264 87.8409 217.646 87.8409C217.006 87.8409 216.504 87.9811 216.14 88.2614C215.777 88.5417 215.521 88.8409 215.373 89.1591L214.101 88.7045C214.328 88.1742 214.631 87.7614 215.01 87.4659C215.392 87.1667 215.809 86.9583 216.26 86.8409C216.714 86.7197 217.161 86.6591 217.601 86.6591C217.881 86.6591 218.203 86.6932 218.567 86.7614C218.934 86.8258 219.288 86.9602 219.629 87.1648C219.974 87.3693 220.26 87.678 220.487 88.0909C220.714 88.5038 220.828 89.0568 220.828 89.75V95.5H219.487V94.3182H219.419C219.328 94.5076 219.176 94.7102 218.964 94.9261C218.752 95.142 218.47 95.3258 218.118 95.4773C217.765 95.6288 217.336 95.7045 216.828 95.7045ZM217.033 94.5C217.563 94.5 218.01 94.3958 218.373 94.1875C218.741 93.9792 219.017 93.7102 219.203 93.3807C219.392 93.0511 219.487 92.7045 219.487 92.3409V91.1136C219.43 91.1818 219.305 91.2443 219.112 91.3011C218.923 91.3542 218.703 91.4015 218.453 91.4432C218.207 91.4811 217.966 91.5152 217.731 91.5455C217.5 91.572 217.313 91.5947 217.169 91.6136C216.82 91.6591 216.495 91.733 216.192 91.8352C215.892 91.9337 215.65 92.0833 215.464 92.2841C215.283 92.4811 215.192 92.75 215.192 93.0909C215.192 93.5568 215.364 93.9091 215.709 94.1477C216.057 94.3826 216.498 94.5 217.033 94.5ZM230.361 95.6818C229.573 95.6818 228.882 95.4943 228.287 95.1193C227.696 94.7443 227.234 94.2197 226.901 93.5455C226.571 92.8712 226.406 92.0833 226.406 91.1818C226.406 90.2727 226.571 89.4792 226.901 88.8011C227.234 88.1231 227.696 87.5966 228.287 87.2216C228.882 86.8466 229.573 86.6591 230.361 86.6591C231.149 86.6591 231.838 86.8466 232.429 87.2216C233.024 87.5966 233.486 88.1231 233.815 88.8011C234.149 89.4792 234.315 90.2727 234.315 91.1818C234.315 92.0833 234.149 92.8712 233.815 93.5455C233.486 94.2197 233.024 94.7443 232.429 95.1193C231.838 95.4943 231.149 95.6818 230.361 95.6818ZM230.361 94.4773C230.959 94.4773 231.452 94.3239 231.838 94.017C232.224 93.7102 232.51 93.3068 232.696 92.8068C232.882 92.3068 232.974 91.7652 232.974 91.1818C232.974 90.5985 232.882 90.0549 232.696 89.5511C232.51 89.0473 232.224 88.6402 231.838 88.3295C231.452 88.0189 230.959 87.8636 230.361 87.8636C229.762 87.8636 229.27 88.0189 228.884 88.3295C228.497 88.6402 228.211 89.0473 228.026 89.5511C227.84 90.0549 227.747 90.5985 227.747 91.1818C227.747 91.7652 227.84 92.3068 228.026 92.8068C228.211 93.3068 228.497 93.7102 228.884 94.017C229.27 94.3239 229.762 94.4773 230.361 94.4773ZM239.428 95.6818C238.61 95.6818 237.905 95.4886 237.314 95.1023C236.723 94.7159 236.269 94.1837 235.95 93.5057C235.632 92.8277 235.473 92.053 235.473 91.1818C235.473 90.2955 235.636 89.5133 235.962 88.8352C236.291 88.1534 236.75 87.6212 237.337 87.2386C237.928 86.8523 238.617 86.6591 239.405 86.6591C240.019 86.6591 240.572 86.7727 241.064 87C241.557 87.2273 241.96 87.5455 242.274 87.9545C242.589 88.3636 242.784 88.8409 242.86 89.3864H241.519C241.416 88.9886 241.189 88.6364 240.837 88.3295C240.488 88.0189 240.019 87.8636 239.428 87.8636C238.905 87.8636 238.447 88 238.053 88.2727C237.663 88.5417 237.358 88.9223 237.138 89.4148C236.922 89.9034 236.814 90.4773 236.814 91.1364C236.814 91.8106 236.92 92.3977 237.132 92.8977C237.348 93.3977 237.651 93.786 238.041 94.0625C238.435 94.339 238.897 94.4773 239.428 94.4773C239.776 94.4773 240.092 94.4167 240.377 94.2955C240.661 94.1742 240.901 94 241.098 93.7727C241.295 93.5455 241.435 93.2727 241.519 92.9545H242.86C242.784 93.4697 242.596 93.9337 242.297 94.3466C242.002 94.7557 241.61 95.0814 241.121 95.3239C240.636 95.5625 240.072 95.6818 239.428 95.6818ZM250.181 90.5227V91.7727H245.363V90.5227H250.181ZM245.681 86.7727V95.5H244.34V86.7727H245.681ZM251.203 86.7727V95.5H249.863V86.7727H251.203ZM256.718 95.6818C255.93 95.6818 255.239 95.4943 254.644 95.1193C254.053 94.7443 253.591 94.2197 253.258 93.5455C252.928 92.8712 252.763 92.0833 252.763 91.1818C252.763 90.2727 252.928 89.4792 253.258 88.8011C253.591 88.1231 254.053 87.5966 254.644 87.2216C255.239 86.8466 255.93 86.6591 256.718 86.6591C257.506 86.6591 258.195 86.8466 258.786 87.2216C259.381 87.5966 259.843 88.1231 260.172 88.8011C260.506 89.4792 260.672 90.2727 260.672 91.1818C260.672 92.0833 260.506 92.8712 260.172 93.5455C259.843 94.2197 259.381 94.7443 258.786 95.1193C258.195 95.4943 257.506 95.6818 256.718 95.6818ZM256.718 94.4773C257.316 94.4773 257.809 94.3239 258.195 94.017C258.581 93.7102 258.867 93.3068 259.053 92.8068C259.239 92.3068 259.331 91.7652 259.331 91.1818C259.331 90.5985 259.239 90.0549 259.053 89.5511C258.867 89.0473 258.581 88.6402 258.195 88.3295C257.809 88.0189 257.316 87.8636 256.718 87.8636C256.119 87.8636 255.627 88.0189 255.24 88.3295C254.854 88.6402 254.568 89.0473 254.383 89.5511C254.197 90.0549 254.104 90.5985 254.104 91.1818C254.104 91.7652 254.197 92.3068 254.383 92.8068C254.568 93.3068 254.854 93.7102 255.24 94.017C255.627 94.3239 256.119 94.4773 256.718 94.4773ZM262.239 95.5V86.7727H265.807C266.747 86.7727 267.493 86.9848 268.046 87.4091C268.599 87.8333 268.876 88.3939 268.876 89.0909C268.876 89.6212 268.718 90.0322 268.404 90.3239C268.09 90.6117 267.686 90.8068 267.194 90.9091C267.516 90.9545 267.828 91.0682 268.131 91.25C268.438 91.4318 268.692 91.6818 268.893 92C269.093 92.3144 269.194 92.7008 269.194 93.1591C269.194 93.6061 269.08 94.0057 268.853 94.358C268.626 94.7102 268.3 94.9886 267.876 95.1932C267.451 95.3977 266.944 95.5 266.353 95.5H262.239ZM263.512 94.2727H266.353C266.815 94.2727 267.177 94.1629 267.438 93.9432C267.699 93.7235 267.83 93.4242 267.83 93.0455C267.83 92.5947 267.699 92.2405 267.438 91.983C267.177 91.7216 266.815 91.5909 266.353 91.5909H263.512V94.2727ZM263.512 90.4318H265.807C266.167 90.4318 266.476 90.3826 266.733 90.2841C266.991 90.1818 267.188 90.0379 267.324 89.8523C267.465 89.6629 267.535 89.4394 267.535 89.1818C267.535 88.8144 267.381 88.5265 267.074 88.3182C266.768 88.1061 266.345 88 265.807 88H263.512V90.4318ZM274.403 95.6818C273.562 95.6818 272.836 95.4962 272.226 95.125C271.62 94.75 271.153 94.2273 270.823 93.5568C270.497 92.8826 270.334 92.0985 270.334 91.2045C270.334 90.3106 270.497 89.5227 270.823 88.8409C271.153 88.1553 271.611 87.6212 272.198 87.2386C272.789 86.8523 273.478 86.6591 274.266 86.6591C274.721 86.6591 275.17 86.7348 275.613 86.8864C276.056 87.0379 276.459 87.2841 276.823 87.625C277.187 87.9621 277.476 88.4091 277.692 88.9659C277.908 89.5227 278.016 90.2083 278.016 91.0227V91.5909H271.289V90.4318H276.653C276.653 89.9394 276.554 89.5 276.357 89.1136C276.164 88.7273 275.887 88.4223 275.528 88.1989C275.172 87.9754 274.751 87.8636 274.266 87.8636C273.732 87.8636 273.27 87.9962 272.88 88.2614C272.494 88.5227 272.196 88.8636 271.988 89.2841C271.78 89.7045 271.675 90.1553 271.675 90.6364V91.4091C271.675 92.0682 271.789 92.6269 272.016 93.0852C272.247 93.5398 272.567 93.8864 272.976 94.125C273.386 94.3598 273.861 94.4773 274.403 94.4773C274.755 94.4773 275.073 94.428 275.357 94.3295C275.645 94.2273 275.893 94.0758 276.101 93.875C276.31 93.6705 276.471 93.4167 276.584 93.1136L277.88 93.4773C277.744 93.9167 277.514 94.303 277.192 94.6364C276.87 94.9659 276.473 95.2235 275.999 95.4091C275.526 95.5909 274.994 95.6818 274.403 95.6818ZM283.778 95.5V83.8636H287.71C288.623 83.8636 289.369 84.0284 289.948 84.358C290.532 84.6837 290.963 85.125 291.244 85.6818C291.524 86.2386 291.664 86.8598 291.664 87.5455C291.664 88.2311 291.524 88.8542 291.244 89.4148C290.967 89.9754 290.539 90.4223 289.96 90.7557C289.38 91.0852 288.638 91.25 287.732 91.25H284.914V90H287.687C288.312 90 288.814 89.892 289.193 89.6761C289.571 89.4602 289.846 89.1686 290.016 88.8011C290.191 88.4299 290.278 88.0114 290.278 87.5455C290.278 87.0795 290.191 86.6629 290.016 86.2955C289.846 85.928 289.57 85.6402 289.187 85.4318C288.804 85.2197 288.297 85.1136 287.664 85.1136H285.187V95.5H283.778ZM294.068 95.6591V94.3409H294.795C295.075 94.3409 295.31 94.286 295.5 94.1761C295.693 94.0663 295.852 93.9242 295.977 93.75C296.106 93.5758 296.212 93.3939 296.295 93.2045L296.477 92.7727L292.454 83.8636H293.977L297.181 91.0909L300.113 83.8636H301.613L297.59 93.6136C297.431 93.9773 297.25 94.3144 297.045 94.625C296.844 94.9356 296.57 95.1856 296.221 95.375C295.876 95.5644 295.409 95.6591 294.818 95.6591H294.068ZM311.663 83.8636V95.5H310.254V85.1136H304.39V95.5H302.981V83.8636H311.663Z" fill="#626262"/>
</g>
<defs>
<filter id="filter0_d_405_25" x="0" y="0" width="389" height="144" filterUnits="userSpaceOnUse" color-interpolation-filters="sRGB">
<feFlood flood-opacity="0" result="BackgroundImageFix"/>
<feColorMatrix in="SourceAlpha" type="matrix" values="0 0 0 0 0 0 0 0 0 0 0 0 0 0 0 0 0 0 127 0" result="hardAlpha"/>
<feOffset dy="4"/>
<feGaussianBlur stdDeviation="12"/>
<feComposite in2="hardAlpha" operator="out"/>
<feColorMatrix type="matrix" values="0 0 0 0 0 0 0 0 0 0 0 0 0 0 0 0 0 0 0.1 0"/>
<feBlend mode="normal" in2="BackgroundImageFix" result="effect1_dropShadow_405_25"/>
<feBlend mode="normal" in="SourceGraphic" in2="effect1_dropShadow_405_25" result="shape"/>
</filter>
</defs>
</svg>
