<svg width="24" height="24" viewBox="0 0 24 24" fill="none" xmlns="http://www.w3.org/2000/svg">
<path fill-rule="evenodd" clip-rule="evenodd" d="M2 6.857C2 5.56884 2.51172 4.33345 3.42258 3.42258C4.33345 2.51172 5.56884 2 6.857 2H12C12.2652 2 12.5196 2.10536 12.7071 2.29289C12.8946 2.48043 13 2.73478 13 3C13 3.26522 12.8946 3.51957 12.7071 3.70711C12.5196 3.89464 12.2652 4 12 4H6.857C6.09928 4 5.37259 4.301 4.8368 4.8368C4.301 5.37259 4 6.09928 4 6.857V17.143C4 17.9007 4.301 18.6274 4.8368 19.1632C5.37259 19.699 6.09928 20 6.857 20H17.143C17.9007 20 18.6274 19.699 19.1632 19.1632C19.699 18.6274 20 17.9007 20 17.143V12C20 11.7348 20.1054 11.4804 20.2929 11.2929C20.4804 11.1054 20.7348 11 21 11C21.2652 11 21.5196 11.1054 21.7071 11.2929C21.8946 11.4804 22 11.7348 22 12V17.143C22 18.4312 21.4883 19.6666 20.5774 20.5774C19.6666 21.4883 18.4312 22 17.143 22H6.857C5.56884 22 4.33345 21.4883 3.42258 20.5774C2.51172 19.6666 2 18.4312 2 17.143V6.857Z" fill="#6A63F5"/>
<path d="M15.1371 13.2189L12.9321 14.5489C11.1271 15.6369 8.97208 13.8089 9.75208 11.8509L10.5771 9.77886C10.7377 9.37396 10.9793 9.00611 11.2871 8.69786L16.2261 3.73186L16.2551 3.70286L16.2584 3.69942C16.4095 3.54528 16.9006 3.04413 17.4951 2.68286C17.8221 2.48586 18.3441 2.22486 18.9891 2.17486C19.7291 2.11586 20.5191 2.34886 21.1391 2.97186C21.6136 3.44065 21.9121 4.0587 21.9841 4.72186C22.0336 5.23875 21.9546 5.75988 21.7541 6.23886C21.4641 6.95586 20.9801 7.48286 20.7671 7.69586L15.7571 12.7319C15.5704 12.9192 15.3637 13.0815 15.1371 13.2189Z" fill="#6A63F5"/>
</svg>
