<svg width="64" height="64" viewBox="0 0 64 64" fill="none" xmlns="http://www.w3.org/2000/svg">
<path d="M34.4368 3.74967C32.8854 3.06017 31.1146 3.06017 29.5632 3.74967L11.5632 11.7497C9.3964 12.7127 8 14.8614 8 17.2325V29.3333C8 43.6219 17.5445 57.0156 30.5864 60.9478C31.508 61.2257 32.492 61.2257 33.4136 60.9478C46.4555 57.0156 56 43.6219 56 29.3333V17.2325C56 14.8614 54.6036 12.7127 52.4368 11.7497L34.4368 3.74967ZM32 13.0666C33.5823 13.0666 35.129 13.5358 36.4446 14.4149C37.7602 15.2939 38.7855 16.5434 39.391 18.0052C39.9965 19.467 40.155 21.0755 39.8463 22.6274C39.5376 24.1792 38.7757 25.6047 37.6569 26.7235C36.538 27.8423 35.1126 28.6042 33.5607 28.9129C32.0089 29.2216 30.4003 29.0632 28.9385 28.4577C27.4767 27.8522 26.2273 26.8268 25.3482 25.5112C24.4692 24.1956 24 22.6489 24 21.0666C24 18.9449 24.8429 16.9101 26.3431 15.4098C27.8434 13.9095 29.8783 13.0666 32 13.0666ZM32 34.1333C36.7151 34.1333 45.5988 36.4052 47.595 40.5988C48.102 41.6641 47.6723 42.8875 46.9305 43.8049C45.3262 45.7892 43.3383 47.4387 41.0793 48.6511C38.2875 50.1493 35.1684 50.9334 32 50.9334C28.8316 50.9334 25.7125 50.1493 22.9207 48.6511C20.6617 47.4387 18.6738 45.7892 17.0695 43.8049C16.3277 42.8875 15.898 41.6641 16.405 40.5988C18.4012 36.4052 27.2849 34.1333 32 34.1333Z" fill="#6A63F5"/>
</svg>
