<svg width="56" height="56" viewBox="0 0 56 56" fill="none" xmlns="http://www.w3.org/2000/svg">
<path d="M16.8 39.2C21.4375 39.2 25.2 42.9625 25.2 47.6C25.2 49.1488 23.9487 50.4 22.4 50.4H2.8C1.25125 50.4 0 49.1488 0 47.6C0 42.9625 3.7625 39.2 8.4 39.2H16.8ZM47.6 8.40002C50.6887 8.40002 53.2 10.9113 53.2 14V39.2C53.2 42.0963 50.995 44.485 48.1687 44.7738L47.6 44.8H29.1287C28.6825 42.6825 27.7025 40.7663 26.32 39.2H30.8V36.4C30.8 34.8513 32.0512 33.6 33.6 33.6H42C43.5487 33.6 44.8 34.8513 44.8 36.4V39.2H47.6V14H16.8V19.0138C15.505 18.4888 14.0875 18.2 12.6 18.2C12.1275 18.2 11.655 18.2263 11.2 18.2875V14C11.2 10.9113 13.7112 8.40002 16.8 8.40002H47.6ZM12.6 36.4C8.7325 36.4 5.6 33.2675 5.6 29.4C5.6 25.5325 8.7325 22.4 12.6 22.4C16.4675 22.4 19.6 25.5325 19.6 29.4C19.6 33.2675 16.4675 36.4 12.6 36.4Z" fill="#6A63F5"/>
</svg>
