<svg width="36" height="36" viewBox="0 0 36 36" fill="none" xmlns="http://www.w3.org/2000/svg">
<path fill-rule="evenodd" clip-rule="evenodd" d="M29.25 9.75C28.6533 9.75 28.081 9.98705 27.659 10.409C27.2371 10.831 27 11.4033 27 12V13.5H31.5V12C31.5 11.4033 31.2629 10.831 30.841 10.409C30.419 9.98705 29.8467 9.75 29.25 9.75ZM31.5 15H27V27.375L29.25 30.75L31.5 27.375V15ZM4.5 6.75V29.25C4.5 29.8467 4.73705 30.419 5.15901 30.841C5.58097 31.2629 6.15326 31.5 6.75 31.5H23.25C23.8467 31.5 24.419 31.2629 24.841 30.841C25.2629 30.419 25.5 29.8467 25.5 29.25V6.75C25.5 6.15326 25.2629 5.58097 24.841 5.15901C24.419 4.73705 23.8467 4.5 23.25 4.5H6.75C6.15326 4.5 5.58097 4.73705 5.15901 5.15901C4.73705 5.58097 4.5 6.15326 4.5 6.75ZM15 11.25C15 11.0511 15.079 10.8603 15.2197 10.7197C15.3603 10.579 15.5511 10.5 15.75 10.5H21.75C21.9489 10.5 22.1397 10.579 22.2803 10.7197C22.421 10.8603 22.5 11.0511 22.5 11.25C22.5 11.4489 22.421 11.6397 22.2803 11.7803C22.1397 11.921 21.9489 12 21.75 12H15.75C15.5511 12 15.3603 11.921 15.2197 11.7803C15.079 11.6397 15 11.4489 15 11.25ZM15.75 13.5C15.5511 13.5 15.3603 13.579 15.2197 13.7197C15.079 13.8603 15 14.0511 15 14.25C15 14.4489 15.079 14.6397 15.2197 14.7803C15.3603 14.921 15.5511 15 15.75 15H21.75C21.9489 15 22.1397 14.921 22.2803 14.7803C22.421 14.6397 22.5 14.4489 22.5 14.25C22.5 14.0511 22.421 13.8603 22.2803 13.7197C22.1397 13.579 21.9489 13.5 21.75 13.5H15.75ZM15 21C15 20.8011 15.079 20.6103 15.2197 20.4697C15.3603 20.329 15.5511 20.25 15.75 20.25H21.75C21.9489 20.25 22.1397 20.329 22.2803 20.4697C22.421 20.6103 22.5 20.8011 22.5 21C22.5 21.1989 22.421 21.3897 22.2803 21.5303C22.1397 21.671 21.9489 21.75 21.75 21.75H15.75C15.5511 21.75 15.3603 21.671 15.2197 21.5303C15.079 21.3897 15 21.1989 15 21ZM15.75 23.25C15.5511 23.25 15.3603 23.329 15.2197 23.4697C15.079 23.6103 15 23.8011 15 24C15 24.1989 15.079 24.3897 15.2197 24.5303C15.3603 24.671 15.5511 24.75 15.75 24.75H21.75C21.9489 24.75 22.1397 24.671 22.2803 24.5303C22.421 24.3897 22.5 24.1989 22.5 24C22.5 23.8011 22.421 23.6103 22.2803 23.4697C22.1397 23.329 21.9489 23.25 21.75 23.25H15.75ZM9 21V23.25H11.25V21H9ZM8.25 19.5H12C12.1989 19.5 12.3897 19.579 12.5303 19.7197C12.671 19.8603 12.75 20.0511 12.75 20.25V24C12.75 24.1989 12.671 24.3897 12.5303 24.5303C12.3897 24.671 12.1989 24.75 12 24.75H8.25C8.05109 24.75 7.86032 24.671 7.71967 24.5303C7.57902 24.3897 7.5 24.1989 7.5 24V20.25C7.5 20.0511 7.57902 19.8603 7.71967 19.7197C7.86032 19.579 8.05109 19.5 8.25 19.5ZM13.2803 11.7802C13.4169 11.6388 13.4925 11.4493 13.4908 11.2527C13.489 11.0561 13.4102 10.8679 13.2711 10.7289C13.1321 10.5898 12.9439 10.511 12.7473 10.5092C12.5507 10.5075 12.3612 10.5831 12.2197 10.7198L9.75 13.1895L8.78025 12.2197C8.6388 12.0831 8.44935 12.0075 8.2527 12.0092C8.05605 12.011 7.86794 12.0898 7.72889 12.2289C7.58983 12.3679 7.51095 12.5561 7.50924 12.7527C7.50754 12.9493 7.58313 13.1388 7.71975 13.2803L9.75 15.3105L13.2803 11.7802Z" fill="#6A63F5"/>
</svg>
