<svg width="64" height="64" viewBox="0 0 64 64" fill="none" xmlns="http://www.w3.org/2000/svg">
<path fill-rule="evenodd" clip-rule="evenodd" d="M52 17.3333C50.9391 17.3333 49.9217 17.7548 49.1716 18.5049C48.4214 19.2551 48 20.2725 48 21.3333V24H56V21.3333C56 20.2725 55.5786 19.2551 54.8284 18.5049C54.0783 17.7548 53.0609 17.3333 52 17.3333ZM56 26.6667H48V48.6667L52 54.6667L56 48.6667V26.6667ZM8 12V52C8 53.0609 8.42143 54.0783 9.17157 54.8284C9.92172 55.5786 10.9391 56 12 56H41.3333C42.3942 56 43.4116 55.5786 44.1618 54.8284C44.9119 54.0783 45.3333 53.0609 45.3333 52V12C45.3333 10.9391 44.9119 9.92172 44.1618 9.17157C43.4116 8.42143 42.3942 8 41.3333 8H12C10.9391 8 9.92172 8.42143 9.17157 9.17157C8.42143 9.92172 8 10.9391 8 12ZM26.6667 20C26.6667 19.6464 26.8071 19.3072 27.0572 19.0572C27.3072 18.8071 27.6464 18.6667 28 18.6667H38.6667C39.0203 18.6667 39.3594 18.8071 39.6095 19.0572C39.8595 19.3072 40 19.6464 40 20C40 20.3536 39.8595 20.6928 39.6095 20.9428C39.3594 21.1929 39.0203 21.3333 38.6667 21.3333H28C27.6464 21.3333 27.3072 21.1929 27.0572 20.9428C26.8071 20.6928 26.6667 20.3536 26.6667 20ZM28 24C27.6464 24 27.3072 24.1405 27.0572 24.3905C26.8071 24.6406 26.6667 24.9797 26.6667 25.3333C26.6667 25.687 26.8071 26.0261 27.0572 26.2761C27.3072 26.5262 27.6464 26.6667 28 26.6667H38.6667C39.0203 26.6667 39.3594 26.5262 39.6095 26.2761C39.8595 26.0261 40 25.687 40 25.3333C40 24.9797 39.8595 24.6406 39.6095 24.3905C39.3594 24.1405 39.0203 24 38.6667 24H28ZM26.6667 37.3333C26.6667 36.9797 26.8071 36.6406 27.0572 36.3905C27.3072 36.1405 27.6464 36 28 36H38.6667C39.0203 36 39.3594 36.1405 39.6095 36.3905C39.8595 36.6406 40 36.9797 40 37.3333C40 37.687 39.8595 38.0261 39.6095 38.2761C39.3594 38.5262 39.0203 38.6667 38.6667 38.6667H28C27.6464 38.6667 27.3072 38.5262 27.0572 38.2761C26.8071 38.0261 26.6667 37.687 26.6667 37.3333ZM28 41.3333C27.6464 41.3333 27.3072 41.4738 27.0572 41.7239C26.8071 41.9739 26.6667 42.313 26.6667 42.6667C26.6667 43.0203 26.8071 43.3594 27.0572 43.6095C27.3072 43.8595 27.6464 44 28 44H38.6667C39.0203 44 39.3594 43.8595 39.6095 43.6095C39.8595 43.3594 40 43.0203 40 42.6667C40 42.313 39.8595 41.9739 39.6095 41.7239C39.3594 41.4738 39.0203 41.3333 38.6667 41.3333H28ZM16 37.3333V41.3333H20V37.3333H16ZM14.6667 34.6667H21.3333C21.687 34.6667 22.0261 34.8071 22.2761 35.0572C22.5262 35.3072 22.6667 35.6464 22.6667 36V42.6667C22.6667 43.0203 22.5262 43.3594 22.2761 43.6095C22.0261 43.8595 21.687 44 21.3333 44H14.6667C14.313 44 13.9739 43.8595 13.7239 43.6095C13.4738 43.3594 13.3333 43.0203 13.3333 42.6667V36C13.3333 35.6464 13.4738 35.3072 13.7239 35.0572C13.9739 34.8071 14.313 34.6667 14.6667 34.6667ZM23.6093 20.9427C23.8522 20.6912 23.9866 20.3544 23.9836 20.0048C23.9805 19.6552 23.8403 19.3208 23.5931 19.0736C23.3459 18.8264 23.0115 18.6861 22.6619 18.6831C22.3123 18.6801 21.9755 18.8145 21.724 19.0573L17.3333 23.448L15.6093 21.724C15.3579 21.4811 15.0211 21.3467 14.6715 21.3498C14.3219 21.3528 13.9875 21.493 13.7402 21.7402C13.493 21.9875 13.3528 22.3219 13.3498 22.6715C13.3467 23.0211 13.4811 23.3579 13.724 23.6093L17.3333 27.2187L23.6093 20.9427Z" fill="#6A63F5"/>
</svg>
