<svg width="56" height="56" viewBox="0 0 56 56" fill="none" xmlns="http://www.w3.org/2000/svg">
<rect width="56" height="56" rx="8" fill="white"/>
<path d="M28 29C27.7348 29 27.4804 29.1054 27.2929 29.2929C27.1054 29.4804 27 29.7348 27 30C27 30.2652 27.1054 30.5196 27.2929 30.7071C27.4804 30.8946 27.7348 31 28 31C28.2652 31 28.5196 30.8946 28.7071 30.7071C28.8946 30.5196 29 30.2652 29 30C29 29.7348 28.8946 29.4804 28.7071 29.2929C28.5196 29.1054 28.2652 29 28 29Z" fill="#6A63F5"/>
<path fill-rule="evenodd" clip-rule="evenodd" d="M37.6 25.8255C37.6 25.4467 37.386 25.1005 37.0472 24.9311L29.6195 21.2172C29.2807 21.0478 29.0667 20.7015 29.0667 20.3228V19.4C29.0667 18.8477 29.5144 18.4 30.0667 18.4H34.4667C35.019 18.4 35.4667 17.9523 35.4667 17.4V13C35.4667 12.4477 35.019 12 34.4667 12H27.9333C27.3811 12 26.9333 12.4477 26.9333 13V20.3228C26.9333 20.7015 26.7193 21.0478 26.3805 21.2172L18.9528 24.9311C18.614 25.1005 18.4 25.4467 18.4 25.8255V28.0667C18.4 28.619 17.9523 29.0667 17.4 29.0667H15.1333C14.581 29.0667 14.1333 29.5144 14.1333 30.0667V40.8667C14.1333 41.419 13.6856 41.8667 13.1333 41.8667H13C12.4477 41.8667 12 42.3144 12 42.8667V43C12 43.5523 12.4477 44 13 44H23.8C24.3523 44 24.8 43.5523 24.8 43V36.4667C24.8 35.9144 25.2477 35.4667 25.8 35.4667H30.2C30.7523 35.4667 31.2 35.9144 31.2 36.4667V43C31.2 43.5523 31.6477 44 32.2 44H43C43.5523 44 44 43.5523 44 43V42.8667C44 42.3144 43.5523 41.8667 43 41.8667H42.8667C42.3144 41.8667 41.8667 41.419 41.8667 40.8667V30.0667C41.8667 29.5144 41.419 29.0667 40.8667 29.0667H38.6C38.0477 29.0667 37.6 28.619 37.6 28.0667V25.8255ZM38.7333 41.8667C39.2856 41.8667 39.7333 41.419 39.7333 40.8667V32.2C39.7333 31.6477 39.2856 31.2 38.7333 31.2H38.6C38.0477 31.2 37.6 31.6477 37.6 32.2V40.8667C37.6 41.419 38.0477 41.8667 38.6 41.8667H38.7333ZM18.4 40.8667C18.4 41.419 17.9523 41.8667 17.4 41.8667H17.2667C16.7144 41.8667 16.2667 41.419 16.2667 40.8667V32.2C16.2667 31.6477 16.7144 31.2 17.2667 31.2H17.4C17.9523 31.2 18.4 31.6477 18.4 32.2V40.8667ZM24.8 30.1333C24.8 29.2846 25.1371 28.4707 25.7373 27.8706C26.3374 27.2705 27.1513 26.9333 28 26.9333C28.8487 26.9333 29.6626 27.2705 30.2627 27.8706C30.8629 28.4707 31.2 29.2846 31.2 30.1333C31.2 30.982 30.8629 31.796 30.2627 32.3961C29.6626 32.9962 28.8487 33.3333 28 33.3333C27.1513 33.3333 26.3374 32.9962 25.7373 32.3961C25.1371 31.796 24.8 30.982 24.8 30.1333Z" fill="#6A63F5"/>
<path d="M28 44C28.5523 44 29 43.5523 29 43V39C29 38.4477 28.5523 38 28 38C27.4477 38 27 38.4477 27 39V43C27 43.5523 27.4477 44 28 44Z" fill="#6A63F5"/>
</svg>
