<svg width="36" height="36" viewBox="0 0 36 36" fill="none" xmlns="http://www.w3.org/2000/svg">
<path d="M7.49992 19.77V23.985C7.49992 25.08 8.09992 26.1 9.05992 26.625L16.5599 30.72C17.4599 31.215 18.5399 31.215 19.4399 30.72L26.9399 26.625C27.8999 26.1 28.4999 25.08 28.4999 23.985V19.77L19.4399 24.72C18.5399 25.215 17.4599 25.215 16.5599 24.72L7.49992 19.77ZM16.5599 5.27998L3.91492 12.18C2.87992 12.75 2.87992 14.25 3.91492 14.82L16.5599 21.72C17.4599 22.215 18.5399 22.215 19.4399 21.72L31.4999 15.135V24C31.4999 24.825 32.1749 25.5 32.9999 25.5C33.8249 25.5 34.4999 24.825 34.4999 24V14.385C34.4999 13.83 34.1999 13.335 33.7199 13.065L19.4399 5.27998C18.9967 5.04362 18.5022 4.91998 17.9999 4.91998C17.4977 4.91998 17.0031 5.04362 16.5599 5.27998Z" fill="#6A63F5"/>
</svg>
