<svg width="64" height="64" viewBox="0 0 64 64" fill="none" xmlns="http://www.w3.org/2000/svg">
<path d="M21.3333 53.3334C19.8666 53.3334 18.6115 52.8116 17.568 51.7681C16.5244 50.7245 16.0018 49.4685 16 48.0001V42.6667C16 41.9112 16.256 41.2783 16.768 40.7681C17.28 40.2579 17.9129 40.0019 18.6666 40.0001H24V34.0001C22.6666 33.9112 21.3449 33.6339 20.0346 33.1681C18.7244 32.7023 17.5795 32.0019 16.6 31.0667C16.3333 30.8001 16.1226 30.5005 15.968 30.1681C15.8133 29.8356 15.7351 29.4907 15.7333 29.1334V27.3334H13.8C13.4444 27.3334 13.1004 27.2667 12.768 27.1334C12.4355 27.0001 12.1351 26.8001 11.8666 26.5334L5.86665 20.5334C5.33332 20.0001 5.06665 19.3779 5.06665 18.6667C5.06665 17.9556 5.33332 17.3334 5.86665 16.8001C7.15554 15.5112 8.88887 14.5672 11.0667 13.9681C13.2444 13.369 15.2444 13.0685 17.0666 13.0667C18.2666 13.0667 19.4338 13.1556 20.568 13.3334C21.7022 13.5112 22.8462 13.8445 24 14.3334C24 13.3112 24.3555 12.4445 25.0666 11.7334C25.7778 11.0223 26.6444 10.6667 27.6667 10.6667H50.6666C52.1333 10.6667 53.3893 11.1894 54.4346 12.2347C55.48 13.2801 56.0018 14.5352 56 16.0001V45.3334C56 47.5556 55.2222 49.4445 53.6666 51.0001C52.1111 52.5556 50.2222 53.3334 48 53.3334H21.3333ZM29.3333 40.0001H42.6666C43.4222 40.0001 44.056 40.2561 44.568 40.7681C45.08 41.2801 45.3351 41.913 45.3333 42.6667V45.3334C45.3333 46.089 45.5893 46.7227 46.1013 47.2347C46.6133 47.7467 47.2462 48.0019 48 48.0001C48.7538 47.9983 49.3875 47.7423 49.9013 47.2321C50.4151 46.7219 50.6702 46.089 50.6666 45.3334V16.0001H29.3333V17.6001L44.6 32.8667C45 33.2667 45.2444 33.7227 45.3333 34.2347C45.4222 34.7467 45.3555 35.2463 45.1333 35.7334C44.9111 36.2205 44.6 36.609 44.2 36.8987C43.8 37.1885 43.2889 37.3334 42.6666 37.3334C42.3111 37.3334 41.9671 37.2552 41.6346 37.0987C41.3022 36.9423 41.024 36.7539 40.8 36.5334L34 29.7334L33.4667 30.2667C32.8444 30.889 32.1893 31.4445 31.5013 31.9334C30.8133 32.4223 30.0906 32.8001 29.3333 33.0667V40.0001ZM14.9333 22.0001H18.4C19.1555 22.0001 19.7893 22.2561 20.3013 22.7681C20.8133 23.2801 21.0684 23.913 21.0666 24.6667V27.7334C21.6 28.089 22.1555 28.3334 22.7333 28.4667C23.3111 28.6001 23.9111 28.6667 24.5333 28.6667C25.5555 28.6667 26.4782 28.5112 27.3013 28.2001C28.1244 27.889 28.9351 27.3334 29.7333 26.5334L30.2667 26.0001L26.5333 22.2667C25.2444 20.9779 23.8 20.0107 22.2 19.3654C20.6 18.7201 18.8889 18.3983 17.0666 18.4001C16.1778 18.4001 15.3333 18.4667 14.5333 18.6001C13.7333 18.7334 12.9333 18.9334 12.1333 19.2001L14.9333 22.0001Z" fill="#6A63F5"/>
</svg>
