<svg width="64" height="64" viewBox="0 0 64 64" fill="none" xmlns="http://www.w3.org/2000/svg">
<path d="M2.66699 45.8666C2.66699 44.3555 3.05633 42.967 3.83499 41.7012C4.61366 40.4355 5.64655 39.4683 6.93366 38.7999C9.68921 37.4221 12.4892 36.3892 15.3337 35.7012C18.1781 35.0132 21.067 34.6683 24.0003 34.6666C26.9337 34.6648 29.8225 35.0097 32.667 35.7012C35.5114 36.3928 38.3114 37.4257 41.067 38.7999C42.3559 39.4666 43.3897 40.4337 44.1683 41.7012C44.947 42.9688 45.3354 44.3572 45.3337 45.8666V47.9999C45.3337 49.4666 44.8119 50.7226 43.7683 51.7679C42.7248 52.8132 41.4688 53.335 40.0003 53.3332H8.00033C6.53366 53.3332 5.27855 52.8115 4.23499 51.7679C3.19144 50.7243 2.66877 49.4683 2.66699 47.9999V45.8666ZM49.2003 53.3332C49.6892 52.5332 50.0563 51.6781 50.3017 50.7679C50.547 49.8577 50.6688 48.935 50.667 47.9999V45.3332C50.667 43.3777 50.123 41.4995 49.035 39.6986C47.947 37.8977 46.4021 36.3537 44.4003 35.0666C46.667 35.3332 48.8003 35.7892 50.8003 36.4346C52.8003 37.0799 54.667 37.8683 56.4003 38.7999C58.0003 39.6888 59.2225 40.6772 60.067 41.7652C60.9114 42.8532 61.3337 44.0426 61.3337 45.3332V47.9999C61.3337 49.4666 60.8119 50.7226 59.7683 51.7679C58.7248 52.8132 57.4688 53.335 56.0003 53.3332H49.2003ZM16.467 28.8666C14.3781 26.7777 13.3337 24.2666 13.3337 21.3332C13.3337 18.3999 14.3781 15.8888 16.467 13.7999C18.5559 11.711 21.067 10.6666 24.0003 10.6666C26.9337 10.6666 29.4448 11.711 31.5337 13.7999C33.6225 15.8888 34.667 18.3999 34.667 21.3332C34.667 24.2666 33.6225 26.7777 31.5337 28.8666C29.4448 30.9555 26.9337 31.9999 24.0003 31.9999C21.067 31.9999 18.5559 30.9555 16.467 28.8666ZM47.5337 28.8666C45.4448 30.9555 42.9337 31.9999 40.0003 31.9999C39.5114 31.9999 38.8892 31.9448 38.1337 31.8346C37.3781 31.7243 36.7559 31.6017 36.267 31.4666C37.467 30.0443 38.3897 28.4666 39.035 26.7332C39.6803 24.9999 40.0021 23.1999 40.0003 21.3332C39.9985 19.4666 39.6768 17.6666 39.035 15.9332C38.3932 14.1999 37.4705 12.6221 36.267 11.1999C36.8892 10.9777 37.5114 10.8328 38.1337 10.7652C38.7559 10.6977 39.3781 10.6648 40.0003 10.6666C42.9337 10.6666 45.4448 11.711 47.5337 13.7999C49.6226 15.8888 50.667 18.3999 50.667 21.3332C50.667 24.2666 49.6226 26.7777 47.5337 28.8666Z" fill="#6A63F5"/>
</svg>
