<svg width="64" height="64" viewBox="0 0 64 64" fill="none" xmlns="http://www.w3.org/2000/svg">
<path d="M11 46.2C11 44.6889 11.3893 43.3004 12.168 42.0347C12.9467 40.7689 13.9796 39.8018 15.2667 39.1333C18.0222 37.7556 20.8222 36.7227 23.6667 36.0347C26.5111 35.3467 29.4 35.0018 32.3333 35C35.2667 34.9982 38.1556 35.3431 41 36.0347C43.8444 36.7262 46.6444 37.7591 49.4 39.1333C50.6889 39.8 51.7227 40.7671 52.5013 42.0347C53.28 43.3022 53.6684 44.6907 53.6667 46.2V48.3333C53.6667 49.8 53.1449 51.056 52.1013 52.1013C51.0578 53.1467 49.8018 53.6684 48.3333 53.6667H16.3333C14.8667 53.6667 13.6116 53.1449 12.568 52.1013C11.5244 51.0578 11.0018 49.8018 11 48.3333V46.2ZM24.8 29.2C22.7111 27.1111 21.6667 24.6 21.6667 21.6667C21.6667 18.7333 22.7111 16.2222 24.8 14.1333C26.8889 12.0444 29.4 11 32.3333 11C35.2667 11 37.7778 12.0444 39.8667 14.1333C41.9556 16.2222 43 18.7333 43 21.6667C43 24.6 41.9556 27.1111 39.8667 29.2C37.7778 31.2889 35.2667 32.3333 32.3333 32.3333C29.4 32.3333 26.8889 31.2889 24.8 29.2Z" fill="#6A63F5"/>
</svg>
