<svg width="36" height="36" viewBox="0 0 36 36" fill="none" xmlns="http://www.w3.org/2000/svg">
<path d="M12.255 4.14C14.0776 3.38992 16.0291 3.00269 18 3C19.965 3 21.915 3.39 23.745 4.14C25.56 4.89 27.21 6 28.605 7.395C30 8.79 31.11 10.44 31.86 12.255C32.61 14.085 33 16.035 33 18C33 21.975 31.425 25.8 28.605 28.605C27.2139 30 25.5609 31.1064 23.741 31.8606C21.9211 32.6148 19.97 33.002 18 33C16.0291 32.9973 14.0776 32.6101 12.255 31.86C10.4371 31.1044 8.78571 29.9984 7.39501 28.605C6.00004 27.2139 4.89366 25.5609 4.13943 23.741C3.38519 21.9211 2.99797 19.97 3.00001 18C3.00001 14.025 4.57501 10.2 7.39501 7.395C8.79001 6 10.44 4.89 12.255 4.14ZM18 25.5L20.34 20.37L25.5 18L20.34 15.66L18 10.5L15.645 15.66L10.5 18L15.645 20.37L18 25.5Z" fill="white"/>
</svg>
