<svg width="64" height="64" viewBox="0 0 64 64" fill="none" xmlns="http://www.w3.org/2000/svg">
<path fill-rule="evenodd" clip-rule="evenodd" d="M30.128 3.37013C31.1803 2.93921 32.3301 2.88303 33.4133 3.20961L33.872 3.37013L52.5387 11.0314C53.4851 11.4198 54.3113 12.0946 54.9208 12.9772C55.5303 13.8597 55.8981 14.9137 55.9813 16.0163L56 16.4978V32.1501C55.9999 36.8794 54.8332 41.5209 52.6229 45.5848C50.4127 49.6486 47.241 52.984 43.4427 55.2388L42.7333 55.6445L33.7893 60.5389C33.2969 60.808 32.759 60.963 32.2092 60.9941C31.6595 61.0253 31.1099 60.9319 30.5947 60.7199L30.2107 60.5389L21.2667 55.6445C17.4016 53.5294 14.1301 50.3114 11.7973 46.3302C9.46462 42.3491 8.15728 37.7525 8.01333 33.0256L8 32.1501V16.4978C8.00002 15.3921 8.287 14.3091 8.82756 13.3749C9.36811 12.4407 10.14 11.6938 11.0533 11.2211L11.4613 11.0314L30.128 3.37013ZM41.1547 22.1482L28.8933 35.5677L24.1787 30.4077C23.6783 29.8604 22.9998 29.5531 22.2924 29.5534C21.585 29.5537 20.9067 29.8615 20.4067 30.4091C19.9066 30.9568 19.6259 31.6994 19.6261 32.4736C19.6264 33.2478 19.9076 33.9902 20.408 34.5375L26.8187 41.5537C27.0911 41.852 27.4145 42.0886 27.7705 42.25C28.1265 42.4114 28.508 42.4945 28.8933 42.4945C29.2787 42.4945 29.6602 42.4114 30.0162 42.25C30.3722 42.0886 30.6956 41.852 30.968 41.5537L44.9253 26.275C45.18 26.0058 45.3832 25.6837 45.5229 25.3277C45.6627 24.9716 45.7363 24.5886 45.7393 24.2011C45.7424 23.8136 45.6749 23.4292 45.5409 23.0706C45.4068 22.7119 45.2088 22.386 44.9584 22.112C44.708 21.838 44.4103 21.6212 44.0825 21.4745C43.7548 21.3277 43.4037 21.2539 43.0496 21.2573C42.6955 21.2606 42.3456 21.3411 42.0203 21.4941C41.6949 21.6471 41.4007 21.8694 41.1547 22.1482Z" fill="#6A63F5"/>
</svg>
