<svg width="56" height="56" viewBox="0 0 56 56" fill="none" xmlns="http://www.w3.org/2000/svg">
<rect width="56" height="56" rx="8" fill="white"/>
<path fill-rule="evenodd" clip-rule="evenodd" d="M26.5945 13.7035C26.9636 13.4084 27.4162 13.2369 27.8882 13.2135C28.3602 13.1901 28.8275 13.3159 29.224 13.573L29.4055 13.7035L35.8735 18.8785C36.1891 19.1307 36.4505 19.4441 36.642 19.7998C36.8335 20.1555 36.9512 20.5462 36.988 20.9485L37 21.22V38.5H38.5V25.75C38.4999 25.5745 38.5615 25.4045 38.6738 25.2696C38.7862 25.1348 38.9423 25.0436 39.115 25.012L39.25 25H40C40.7569 24.9998 41.4858 25.2856 42.0408 25.8003C42.5958 26.3149 42.9357 27.0203 42.9925 27.775L43 28V39.85C42.9998 40.2563 42.8498 40.6483 42.5785 40.9508C42.3072 41.2534 41.9339 41.4452 41.53 41.4895L41.35 41.5H14.65C14.2434 41.5002 13.8511 41.3503 13.5482 41.079C13.2454 40.8077 13.0534 40.4342 13.009 40.03L13 39.85V28C12.9998 27.2431 13.2856 26.5142 13.8002 25.9592C14.3149 25.4042 15.0203 25.0643 15.775 25.0075L16 25H16.75C16.9255 25 17.0955 25.0615 17.2304 25.1738C17.3652 25.2862 17.4564 25.4423 17.488 25.615L17.5 25.75V38.5H19V21.22C19 20.816 19.0815 20.4162 19.2398 20.0445C19.3981 19.6729 19.6298 19.337 19.921 19.057L20.1265 18.877L26.5945 13.7035ZM28 23.4985C27.2044 23.4985 26.4413 23.8146 25.8787 24.3772C25.3161 24.9398 25 25.7029 25 26.4985C25 27.2942 25.3161 28.0572 25.8787 28.6198C26.4413 29.1824 27.2044 29.4985 28 29.4985C28.7956 29.4985 29.5587 29.1824 30.1213 28.6198C30.6839 28.0572 31 27.2942 31 26.4985C31 25.7029 30.6839 24.9398 30.1213 24.3772C29.5587 23.8146 28.7956 23.4985 28 23.4985Z" fill="#6A63F5"/>
</svg>
