<svg width="16" height="16" viewBox="0 0 16 16" fill="none" xmlns="http://www.w3.org/2000/svg">
<path fill-rule="evenodd" clip-rule="evenodd" d="M14.3634 3.40733C14.5508 3.59486 14.6562 3.84917 14.6562 4.11433C14.6562 4.3795 14.5508 4.6338 14.3634 4.82133L6.86803 12.3167C6.76898 12.4157 6.65138 12.4943 6.52195 12.548C6.39252 12.6016 6.2538 12.6292 6.1137 12.6292C5.9736 12.6292 5.83488 12.6016 5.70545 12.548C5.57602 12.4943 5.45842 12.4157 5.35937 12.3167L1.63537 8.59333C1.53986 8.50108 1.46367 8.39074 1.41126 8.26874C1.35886 8.14673 1.33127 8.01551 1.33012 7.88273C1.32896 7.74995 1.35426 7.61827 1.40454 7.49538C1.45483 7.37248 1.52908 7.26083 1.62297 7.16694C1.71686 7.07304 1.82852 6.99879 1.95141 6.94851C2.07431 6.89823 2.20599 6.87293 2.33877 6.87408C2.47155 6.87523 2.60277 6.90282 2.72477 6.95523C2.84677 7.00764 2.95712 7.08382 3.04937 7.17933L6.11337 10.2433L12.9487 3.40733C13.0416 3.31441 13.1518 3.24069 13.2732 3.19039C13.3946 3.1401 13.5247 3.11421 13.656 3.11421C13.7874 3.11421 13.9175 3.1401 14.0389 3.19039C14.1602 3.24069 14.2705 3.31441 14.3634 3.40733Z" fill="#2DD277"/>
</svg>
