<svg width="36" height="36" viewBox="0 0 36 36" fill="none" xmlns="http://www.w3.org/2000/svg">
<path d="M28.5002 28.5C28.8825 28.5004 29.2502 28.6468 29.5283 28.9093C29.8063 29.1717 29.9736 29.5304 29.996 29.9121C30.0184 30.2938 29.8942 30.6696 29.6488 30.9627C29.4034 31.2559 29.0553 31.4443 28.6757 31.4895L28.5002 31.5H18.0002C17.6179 31.4996 17.2502 31.3532 16.9722 31.0907C16.6941 30.8283 16.5269 30.4696 16.5044 30.0879C16.482 29.7062 16.6062 29.3304 16.8516 29.0373C17.097 28.7441 17.4451 28.5557 17.8247 28.5105L18.0002 28.5H28.5002ZM29.4467 6.552C29.795 6.90023 30.0713 7.31367 30.2599 7.76871C30.4484 8.22374 30.5454 8.71146 30.5454 9.204C30.5454 9.69654 30.4484 10.1843 30.2599 10.6393C30.0713 11.0943 29.795 11.5078 29.4467 11.856L13.1027 28.2C12.9119 28.3908 12.6884 28.5458 12.4427 28.6575L6.7367 31.251C5.4737 31.8255 4.1747 30.525 4.7492 29.262L7.3442 23.556C7.45544 23.3105 7.60989 23.0869 7.8002 22.896L24.1442 6.552C24.8474 5.84898 25.8011 5.45405 26.7955 5.45405C27.7898 5.45405 28.7435 5.84898 29.4467 6.552ZM9.0002 1.5C9.31309 1.50012 9.61811 1.59809 9.87256 1.78018C10.127 1.96228 10.3181 2.21938 10.4192 2.5155L10.6142 3.0825C10.8362 3.73313 11.2043 4.32425 11.6903 4.81049C12.1763 5.29673 12.7672 5.66516 13.4177 5.8875L13.9847 6.081C14.2805 6.18236 14.5372 6.37362 14.719 6.62804C14.9007 6.88246 14.9985 7.18732 14.9985 7.5C14.9985 7.81268 14.9007 8.11754 14.719 8.37196C14.5372 8.62638 14.2805 8.81764 13.9847 8.919L13.4177 9.114C12.7671 9.336 12.176 9.70411 11.6897 10.1901C11.2035 10.6761 10.835 11.267 10.6127 11.9175L10.4192 12.4845C10.3178 12.7803 10.1266 13.037 9.87216 13.2188C9.61774 13.4005 9.31288 13.4983 9.0002 13.4983C8.68753 13.4983 8.38266 13.4005 8.12824 13.2188C7.87382 13.037 7.68256 12.7803 7.5812 12.4845L7.3862 11.9175C7.16421 11.2669 6.79609 10.6757 6.31012 10.1895C5.82414 9.70327 5.23322 9.33484 4.5827 9.1125L4.0157 8.919C3.71991 8.81764 3.46319 8.62638 3.28143 8.37196C3.09966 8.11754 3.00195 7.81268 3.00195 7.5C3.00195 7.18732 3.09966 6.88246 3.28143 6.62804C3.46319 6.37362 3.71991 6.18236 4.0157 6.081L4.5827 5.886C5.23333 5.66401 5.82445 5.29589 6.31069 4.80991C6.79693 4.32393 7.16536 3.73301 7.3877 3.0825L7.5812 2.5155C7.68227 2.21938 7.8734 1.96228 8.12785 1.78018C8.38229 1.59809 8.68731 1.50012 9.0002 1.5Z" fill="white"/>
</svg>
