<svg width="56" height="56" viewBox="0 0 56 56" fill="none" xmlns="http://www.w3.org/2000/svg">
<path d="M49.8289 11.5107L28.8289 4.51067C28.2911 4.32913 27.7086 4.32913 27.1708 4.51067L6.17079 11.5107C5.66971 11.6766 5.2303 11.9898 4.90992 12.4093C4.58954 12.8288 4.40307 13.3351 4.37486 13.8622C4.37244 13.9081 4.37244 13.9541 4.37486 14V31.5C4.37486 32.1962 4.65142 32.8639 5.1437 33.3562C5.63598 33.8485 6.30366 34.125 6.99986 34.125C7.69605 34.125 8.36373 33.8485 8.85601 33.3562C9.3483 32.8639 9.62486 32.1962 9.62486 31.5V17.6422L14.8114 19.3704C13.2018 22.4514 12.7234 25.9994 13.4597 29.3968C14.1959 32.7941 16.1001 35.8258 18.8408 37.9641C15.2542 39.7327 12.2189 42.4474 10.0624 45.815C9.86816 46.1037 9.73327 46.428 9.66553 46.7692C9.59778 47.1105 9.59854 47.4617 9.66776 47.8027C9.73697 48.1436 9.87326 48.4674 10.0687 48.7552C10.2641 49.0429 10.5148 49.289 10.8062 49.4791C11.0976 49.6691 11.4239 49.7994 11.766 49.8622C12.1082 49.9251 12.4594 49.9193 12.7993 49.8452C13.1392 49.7711 13.461 49.6302 13.7459 49.4307C14.0309 49.2311 14.2734 48.9769 14.4592 48.6829C17.5808 43.8791 22.5311 41.125 27.9999 41.125C33.4686 41.125 38.4189 43.8791 41.5514 48.6829C41.7373 48.9769 41.9797 49.2311 42.2647 49.4307C42.5497 49.6302 42.8714 49.7711 43.2113 49.8452C43.5512 49.9193 43.9025 49.9251 44.2446 49.8622C44.5868 49.7994 44.913 49.6691 45.2044 49.4791C45.4958 49.289 45.7465 49.0429 45.9419 48.7552C46.1374 48.4674 46.2737 48.1436 46.3429 47.8027C46.4121 47.4617 46.4129 47.1105 46.3451 46.7692C46.2774 46.428 46.1425 46.1037 45.9483 45.815C43.7897 42.4435 40.7503 39.7263 37.1589 37.9575C39.8997 35.8192 41.8038 32.7876 42.5401 29.3902C43.2763 25.9928 42.7979 22.4449 41.1883 19.3638L49.8289 16.4829C50.3509 16.3082 50.8048 15.9739 51.1264 15.5272C51.448 15.0804 51.6211 14.5439 51.6211 13.9935C51.6211 13.443 51.448 12.9065 51.1264 12.4598C50.8048 12.0131 50.3509 11.6787 49.8289 11.5041V11.5107ZM27.9999 9.76067L40.6983 14L27.9999 18.2329L15.3124 14L27.9999 9.76067ZM37.6249 26.25C37.6251 27.7451 37.2772 29.2196 36.6085 30.5567C35.9398 31.8939 34.9689 33.0569 33.7726 33.9535C32.5764 34.8502 31.1877 35.4559 29.7166 35.7225C28.2456 35.9892 26.7327 35.9095 25.2978 35.4898C23.8629 35.0701 22.5455 34.3219 21.45 33.3045C20.3546 32.2872 19.5111 31.0286 18.9866 29.6286C18.4621 28.2287 18.271 26.7257 18.4283 25.239C18.5856 23.7523 19.0871 22.3227 19.893 21.0635L27.1708 23.4894C27.7087 23.6702 28.291 23.6702 28.8289 23.4894L36.1067 21.0635C37.0994 22.6111 37.6264 24.4114 37.6249 26.25Z" fill="#6A63F5"/>
</svg>
