<svg width="64" height="64" viewBox="0 0 64 64" fill="none" xmlns="http://www.w3.org/2000/svg">
<path d="M37.333 28.6667C37.333 27.5622 38.2284 26.6667 39.333 26.6667H41.9632C42.3515 26.6667 42.6663 26.9816 42.6663 27.3699C42.6663 27.9319 43.2994 28.2751 43.798 28.0159C45.3269 27.2211 47.0139 26.7625 48.7453 26.6776C50.916 26.5711 53.0749 27.0562 54.9914 28.081C56.908 29.1058 58.5103 30.6319 59.6272 32.4963C60.7441 34.3607 61.3337 36.4934 61.333 38.6667V51.3334C61.333 52.438 60.4376 53.3334 59.333 53.3334H57.9997C56.8951 53.3334 55.9997 52.438 55.9997 51.3334V38.6667C55.9997 34.8534 52.869 32.0001 49.333 32.0001C45.797 32.0001 42.6663 34.8534 42.6663 38.6667V51.3334C42.6663 52.438 41.7709 53.3334 40.6663 53.3334H39.333C38.2284 53.3334 37.333 52.438 37.333 51.3334V28.6667ZM29.9997 10.6667C31.1042 10.6667 31.9997 11.5622 31.9997 12.6667V14.0001C31.9997 15.1046 31.1042 16.0001 29.9997 16.0001H12.6663C11.5618 16.0001 10.6663 16.8955 10.6663 18.0001V27.3334C10.6663 28.438 11.5618 29.3334 12.6663 29.3334H29.9997C31.1042 29.3334 31.9997 30.2288 31.9997 31.3334V32.6667C31.9997 33.7713 31.1042 34.6667 29.9997 34.6667H12.6663C11.5618 34.6667 10.6663 35.5622 10.6663 36.6667V46.0001C10.6663 47.1047 11.5618 48.0001 12.6663 48.0001H29.9997C31.1042 48.0001 31.9997 48.8955 31.9997 50.0001V51.3334C31.9997 52.438 31.1042 53.3334 29.9997 53.3334H7.33301C6.22844 53.3334 5.33301 52.438 5.33301 51.3334V12.6668C5.33301 11.5622 6.22844 10.6667 7.33301 10.6667H29.9997Z" fill="#6A63F5"/>
</svg>
