<svg width="36" height="36" viewBox="0 0 36 36" fill="none" xmlns="http://www.w3.org/2000/svg">
<path fill-rule="evenodd" clip-rule="evenodd" d="M21 33H15C9.3435 33 6.5145 33 4.758 31.242C3.0015 29.484 3 26.6565 3 21V15C3 9.3435 3 6.5145 4.758 4.758C6.516 3.0015 9.3585 3 15.045 3C15.954 3 16.6815 3 17.295 3.0255C17.275 3.1455 17.265 3.2675 17.265 3.3915L17.25 7.6425C17.25 9.288 17.25 10.743 17.4075 11.9145C17.5785 13.185 17.97 14.4555 19.008 15.4935C20.043 16.5285 21.315 16.9215 22.5855 17.0925C23.757 17.25 25.212 17.25 26.8575 17.25H32.9355C33 18.051 33 19.035 33 20.3445V21C33 26.6565 33 29.4855 31.242 31.242C29.484 32.9985 26.6565 33 21 33Z" fill="white"/>
<path d="M29.028 11.4255L23.088 6.08099C21.3975 4.55849 20.553 3.79649 19.5135 3.39899L19.5 7.49999C19.5 11.0355 19.5 12.804 20.598 13.902C21.696 15 23.4645 15 27 15H32.37C31.827 13.944 30.852 13.068 29.028 11.4255Z" fill="white"/>
</svg>
