<svg width="64" height="64" viewBox="0 0 64 64" fill="none" xmlns="http://www.w3.org/2000/svg">
<path d="M24.4827 27.1492C24.6241 27.0079 24.8774 26.8319 25.6827 26.7226C26.5441 26.6079 27.7121 26.6052 29.5201 26.6052H34.4801C36.2881 26.6052 37.4561 26.6079 38.3147 26.7252C39.1227 26.8319 39.3761 27.0079 39.5147 27.1519C39.6587 27.2906 39.8347 27.5439 39.9414 28.3519C40.0587 29.2106 40.0614 30.3786 40.0614 32.1866V37.1466C40.0614 38.9546 40.0587 40.1226 39.9414 40.9812C39.8347 41.7892 39.6587 42.0426 39.5147 42.1812C39.3761 42.3252 39.1227 42.5012 38.3147 42.6079C37.4561 42.7252 36.2881 42.7279 34.4801 42.7279H29.5201C27.7121 42.7279 26.5441 42.7252 25.6854 42.6079C24.8774 42.5012 24.6241 42.3252 24.4854 42.1812C24.3414 42.0426 24.1654 41.7892 24.0587 40.9812C23.9414 40.1226 23.9387 38.9546 23.9387 37.1466V32.1866C23.9387 30.3786 23.9414 29.2106 24.0587 28.3519C24.1654 27.5439 24.3414 27.2906 24.4854 27.1519" fill="#6A63F5"/>
<path fill-rule="evenodd" clip-rule="evenodd" d="M31.9999 8C33.0266 8 33.8613 8.832 33.8613 9.86133V17.3013C35.2195 17.3031 36.4595 17.3182 37.5813 17.3467V9.86133C37.5995 9.38022 37.8034 8.92488 38.1502 8.59094C38.4971 8.257 38.9598 8.07044 39.4412 8.07044C39.9227 8.07044 40.3854 8.257 40.7323 8.59094C41.0791 8.92488 41.283 9.38022 41.3012 9.86133V17.3013C41.2993 17.3976 41.2922 17.4938 41.2799 17.5893C43.7759 17.896 45.5066 18.5307 46.8213 19.8453C48.1359 21.16 48.7706 22.8907 49.0772 25.3867C49.1728 25.3744 49.2689 25.3672 49.3652 25.3653H56.8052C57.2864 25.3836 57.7417 25.5875 58.0756 25.9343C58.4096 26.2811 58.5961 26.7439 58.5961 27.2253C58.5961 27.7068 58.4096 28.1695 58.0756 28.5163C57.7417 28.8632 57.2864 29.0671 56.8052 29.0853H49.3199C49.3501 30.2053 49.3652 31.4453 49.3652 32.8053H56.8052C57.2989 32.8053 57.7723 33.0014 58.1214 33.3505C58.4705 33.6996 58.6666 34.173 58.6666 34.6667C58.6666 35.1603 58.4705 35.6338 58.1214 35.9828C57.7723 36.3319 57.2989 36.528 56.8052 36.528H49.3652C49.3635 37.8862 49.3484 39.1262 49.3199 40.248H56.8052C57.2864 40.2662 57.7417 40.4702 58.0756 40.817C58.4096 41.1638 58.5961 41.6265 58.5961 42.108C58.5961 42.5895 58.4096 43.0522 58.0756 43.399C57.7417 43.7458 57.2864 43.9498 56.8052 43.968H49.3652C49.2689 43.9661 49.1728 43.959 49.0772 43.9467C48.7706 46.4427 48.1359 48.1733 46.8213 49.488C45.5066 50.8027 43.7759 51.4373 41.2799 51.744C41.2959 51.8382 41.303 51.9342 41.3012 52.032V59.472C41.283 59.9531 41.0791 60.4085 40.7323 60.7424C40.3854 61.0763 39.9227 61.2629 39.4412 61.2629C38.9598 61.2629 38.4971 61.0763 38.1502 60.7424C37.8034 60.4085 37.5995 59.9531 37.5813 59.472V51.9867C36.4613 52.0169 35.2213 52.032 33.8613 52.032V59.472C33.8613 59.9657 33.6651 60.4391 33.3161 60.7882C32.967 61.1372 32.4936 61.3333 31.9999 61.3333C31.5063 61.3333 31.0328 61.1372 30.6838 60.7882C30.3347 60.4391 30.1386 59.9657 30.1386 59.472V52.032C28.8984 52.0323 27.6583 52.0172 26.4186 51.9867V59.472C26.4004 59.9531 26.1964 60.4085 25.8496 60.7424C25.5028 61.0763 25.04 61.2629 24.5586 61.2629C24.0771 61.2629 23.6144 61.0763 23.2676 60.7424C22.9207 60.4085 22.7168 59.9531 22.6986 59.472V52.032C22.6986 51.9324 22.7057 51.8364 22.7199 51.744C20.2239 51.4373 18.4933 50.8027 17.1786 49.488C15.8639 48.1733 15.2293 46.4427 14.9226 43.9467C14.827 43.959 14.7309 43.9661 14.6346 43.968H7.19459C6.71347 43.9498 6.25813 43.7458 5.92419 43.399C5.59025 43.0522 5.40369 42.5895 5.40369 42.108C5.40369 41.6265 5.59025 41.1638 5.92419 40.817C6.25813 40.4702 6.71347 40.2662 7.19459 40.248H14.6799C14.6494 39.0082 14.6342 37.7681 14.6346 36.528H7.19459C6.70093 36.528 6.22749 36.3319 5.87842 35.9828C5.52936 35.6338 5.33325 35.1603 5.33325 34.6667C5.33325 34.173 5.52936 33.6996 5.87842 33.3505C6.22749 33.0014 6.70093 32.8053 7.19459 32.8053H14.6346C14.6364 31.4471 14.6515 30.2071 14.6799 29.0853H7.19459C6.71347 29.0671 6.25813 28.8632 5.92419 28.5163C5.59025 28.1695 5.40369 27.7068 5.40369 27.2253C5.40369 26.7439 5.59025 26.2811 5.92419 25.9343C6.25813 25.5875 6.71347 25.3836 7.19459 25.3653H14.6346C14.7341 25.3653 14.8301 25.3724 14.9226 25.3867C15.2293 22.8907 15.8639 21.16 17.1786 19.8453C18.4933 18.5307 20.2239 17.896 22.7199 17.5893C22.7076 17.4938 22.7005 17.3976 22.6986 17.3013V9.86133C22.7168 9.38022 22.9207 8.92488 23.2676 8.59094C23.6144 8.257 24.0771 8.07044 24.5586 8.07044C25.04 8.07044 25.5028 8.257 25.8496 8.59094C26.1964 8.92488 26.4004 9.38022 26.4186 9.86133V17.3467C27.5386 17.3164 28.7786 17.3013 30.1386 17.3013V9.86133C30.1386 8.832 30.9733 8 31.9999 8ZM29.3973 22.8827C27.7466 22.8827 26.3253 22.8827 25.1893 23.0373C23.9679 23.2 22.7999 23.5707 21.8506 24.5173C20.9039 25.4667 20.5333 26.6347 20.3706 27.856C20.2159 28.9947 20.2159 30.416 20.2159 32.064V37.2693C20.2159 38.92 20.2159 40.3387 20.3706 41.4773C20.5333 42.6987 20.9039 43.8667 21.8506 44.816C22.7999 45.7627 23.9679 46.1333 25.1893 46.296C26.3253 46.4507 27.7493 46.4507 29.3973 46.4507H34.6026C36.2532 46.4507 37.6719 46.4507 38.8106 46.296C40.0319 46.1333 41.1999 45.7627 42.1492 44.816C43.0959 43.8667 43.4666 42.6987 43.6292 41.4773C43.7839 40.3387 43.7839 38.9173 43.7839 37.2693V32.064C43.7839 30.4133 43.7839 28.9947 43.6292 27.856C43.4666 26.6347 43.0959 25.4667 42.1492 24.5173C41.1999 23.5707 40.0319 23.2 38.8106 23.0373C37.6719 22.8827 36.2506 22.8827 34.6026 22.8827H29.3973Z" fill="#6A63F5"/>
</svg>
