<svg width="64" height="64" viewBox="0 0 64 64" fill="none" xmlns="http://www.w3.org/2000/svg">
<path d="M37.9326 7.4873C43.8886 5.45374 49.8312 5.70129 54.0645 9.93457C58.2977 14.1679 58.5471 20.1123 56.5146 26.0684C55.8646 27.9702 54.9712 29.9178 53.8652 31.877L53.7959 31.999L53.8652 32.1221C54.9713 34.0824 55.8646 36.0288 56.5146 37.9316C58.5471 43.8877 58.2978 49.83 54.0645 54.0645C49.8301 58.2977 43.8885 58.547 37.9326 56.5146C36.0297 55.8646 34.0822 54.9712 32.123 53.8652L32 53.7959L31.877 53.8652C29.9178 54.9713 27.9703 55.8646 26.0684 56.5146C20.1113 58.547 14.1697 58.2976 9.93652 54.0645C5.7021 49.83 5.45277 43.8877 7.48633 37.9316C8.1352 36.0288 9.02876 34.0812 10.1348 32.1221L10.2041 31.999L10.1348 31.877C9.02882 29.9179 8.13637 27.9702 7.48633 26.0684C5.45276 20.1112 5.70339 14.1687 9.93555 9.93652C14.1688 5.70238 20.1125 5.45376 26.0684 7.4873C27.9702 8.13619 29.9178 9.02871 31.877 10.1348L32 10.2041L32.123 10.1348C34.0821 9.02882 36.0296 8.13733 37.9326 7.4873ZM12.501 36.2822C12.1438 37.0354 11.8285 37.7772 11.5537 38.5068L11.292 39.2324C9.52183 44.4176 10.0605 48.5009 12.7803 51.2207C15.5001 53.9404 19.5847 54.4771 24.7686 52.708H24.7695C25.7743 52.3603 26.759 51.9567 27.7188 51.499L28.1006 51.3164L27.7568 51.0703C25.0411 49.1255 22.3493 46.8191 19.7656 44.2354C17.1819 41.6516 14.8754 38.9599 12.9307 36.2441L12.6836 35.8984L12.501 36.2822ZM51.0684 36.2441C49.1235 38.96 46.818 41.6528 44.2344 44.2354C41.6506 46.8191 38.9589 49.1255 36.2432 51.0703L35.8984 51.3164L36.2812 51.499C37.241 51.9567 38.2256 52.3603 39.2305 52.708H39.2314C44.4155 54.4783 48.4999 53.9405 51.2197 51.2207C53.8546 48.5858 54.4417 44.6712 52.8652 39.7148L52.7061 39.2324C52.3778 38.2691 51.9749 37.2857 51.4971 36.2822L51.3145 35.8994L51.0684 36.2441ZM31.8633 14.9961C28.7978 16.9886 25.6588 19.56 22.6094 22.6094C19.5599 25.6589 16.9887 28.7987 14.9961 31.8643L14.9072 32.001L14.9961 32.1367C16.9887 35.2024 19.5598 38.342 22.6094 41.3916C25.6588 44.441 28.7978 47.0122 31.8633 49.0059L32 49.0947L32.1357 49.0059C35.2013 47.0121 38.3411 44.4412 41.3906 41.3916C44.4402 38.342 47.0113 35.2024 49.0039 32.1367L49.0928 32.001L49.0039 31.8643C47.0113 28.7986 44.4402 25.6589 41.3906 22.6094C38.3411 19.5599 35.2013 16.9887 32.1357 14.9961L32 14.9082L31.8633 14.9961ZM32 24.3369C33.0063 24.3369 34.0029 24.5348 34.9326 24.9199C35.8624 25.305 36.7073 25.8695 37.4189 26.5811C38.1305 27.2926 38.6949 28.1377 39.0801 29.0674C39.4652 29.9972 39.6641 30.9945 39.6641 32.001C39.664 34.0335 38.8561 35.9827 37.4189 37.4199C35.9817 38.8571 34.0325 39.665 32 39.665C29.9675 39.665 28.0183 38.8571 26.5811 37.4199C25.1439 35.9827 24.336 34.0335 24.3359 32.001C24.3359 30.9945 24.5338 29.9972 24.9189 29.0674C25.3041 28.1376 25.8694 27.2927 26.5811 26.5811C27.2926 25.8696 28.1377 25.305 29.0674 24.9199C29.9971 24.5349 30.9937 24.3369 32 24.3369ZM24.7686 11.2939C19.5846 9.52142 15.5001 10.0596 12.7803 12.7793C10.0606 15.499 9.52193 19.5847 11.292 24.7686V24.7695C11.6217 25.7326 12.0257 26.7154 12.502 27.7188L12.6836 28.1025L12.9307 27.7568C14.8754 25.0412 17.182 22.3493 19.7656 19.7656C22.3492 17.182 25.0412 14.8774 27.7568 12.9326L28.1006 12.6855L27.7188 12.5029C26.759 12.0453 25.7744 11.6416 24.7695 11.2939H24.7686ZM51.2197 12.7803C48.5849 10.1455 44.6692 9.55837 39.7139 11.1338L39.2314 11.293C38.2691 11.6226 37.2854 12.0257 36.2812 12.502L35.8975 12.6836L36.2432 12.9307C38.9589 14.8755 41.6507 17.1819 44.2344 19.7656C46.818 22.3493 49.1235 25.0411 51.0684 27.7568L51.3145 28.1016L51.4971 27.7188C51.9748 26.7146 52.3779 25.7311 52.7061 24.7686C54.4773 19.5846 53.9395 15.5 51.2197 12.7803Z" fill="#6A63F5" stroke="#6A63F5" stroke-width="0.5"/>
</svg>
