<svg width="64" height="64" viewBox="0 0 64 64" fill="none" xmlns="http://www.w3.org/2000/svg">
<path fill-rule="evenodd" clip-rule="evenodd" d="M30.078 5.68116C29.7321 4.97571 29.1236 4.43388 28.3828 4.17189C27.6421 3.9099 26.8281 3.94861 26.1156 4.27971C25.4031 4.61082 24.8487 5.20795 24.5713 5.94305C24.2939 6.67814 24.3157 7.49266 24.6319 8.2119L25.8292 10.7907C24.9082 11.5235 23.9832 12.4245 23.0781 13.4456L20.7996 11.3233C20.2115 10.8209 19.4523 10.5648 18.6801 10.6083C17.9079 10.6517 17.1822 10.9914 16.6542 11.5565C16.1262 12.1217 15.8366 12.8687 15.8456 13.6421C15.8547 14.4154 16.1618 15.1554 16.703 15.708L19.4901 18.3108C18.9116 19.2466 18.3718 20.2058 17.8723 21.186L14.8809 19.9086C14.518 19.7537 14.1282 19.6718 13.7337 19.6676C13.3392 19.6634 12.9478 19.7369 12.5817 19.884C12.2156 20.031 11.882 20.2487 11.6001 20.5247C11.3182 20.8007 11.0933 21.1294 10.9385 21.4923C10.7836 21.8551 10.7017 22.2449 10.6975 22.6394C10.6933 23.0339 10.7668 23.4253 10.9139 23.7914C11.0609 24.1575 11.2787 24.491 11.5546 24.7729C11.8306 25.0549 12.1594 25.2797 12.5222 25.4346L15.5697 26.732L15.5056 26.9322C15.1345 28.0988 14.8302 29.2907 14.5926 30.5081L11.377 30.1076C10.5863 30.0089 9.7887 30.2282 9.15974 30.7175C8.53079 31.2067 8.12195 31.9258 8.02318 32.7164C7.92441 33.5071 8.14379 34.3046 8.63306 34.9336C9.12233 35.5625 9.84141 35.9713 10.6321 36.0701L14.1 36.4985C14.1374 37.6251 14.2629 38.7436 14.4764 39.8542L11.7854 41.0555C11.425 41.2166 11.0998 41.4473 10.8286 41.7343C10.5574 42.0212 10.3454 42.3588 10.2048 42.7278C10.0642 43.0967 9.99778 43.4898 10.0093 43.8844C10.0207 44.2791 10.1099 44.6676 10.2717 45.0278C10.9525 46.5414 12.7265 47.2182 14.2402 46.5414L16.5348 45.5163C17.3957 47.054 18.505 48.5236 19.9106 49.8971L17.9884 52.2036C17.5011 52.8177 17.2732 53.5981 17.3536 54.378C17.4339 55.1579 17.8161 55.8755 18.4184 56.3774C19.0208 56.8794 19.7955 57.1258 20.5771 57.0642C21.3588 57.0026 22.0853 56.6378 22.6016 56.0477L24.728 53.497C26.482 54.49 28.2399 55.1788 29.9699 55.6072V57.0008C29.9704 57.3951 30.0486 57.7856 30.2 58.1497C30.3515 58.5139 30.5731 58.8447 30.8524 59.1232C31.1317 59.4017 31.463 59.6225 31.8276 59.7729C32.1922 59.9234 32.5829 60.0005 32.9773 60C33.3717 59.9995 33.7621 59.9213 34.1263 59.7699C34.4905 59.6185 34.8213 59.3968 35.0998 59.1175C35.3783 58.8383 35.5991 58.5069 35.7496 58.1423C35.9 57.7778 35.9772 57.3871 35.9767 56.9927V56.0357C38.1787 55.8072 40.3119 55.1357 42.2477 54.0616L44.7185 56.7205C45.2607 57.304 46.0125 57.6483 46.8085 57.6776C47.6046 57.7069 48.3797 57.4188 48.9633 56.8766C49.5469 56.3345 49.8912 55.5827 49.9205 54.7867C49.9498 53.9906 49.6616 53.2156 49.1195 52.632L46.8689 50.2094C47.818 49.0561 48.5949 47.7668 49.1755 46.3973L52.5954 46.8578C53.385 46.964 54.1845 46.7521 54.818 46.2689C55.4514 45.7857 55.867 45.0706 55.9732 44.281C56.0794 43.4914 55.8676 42.6919 55.3843 42.0585C54.901 41.425 54.1859 41.0095 53.3963 40.9033L50.3368 40.4949C50.3204 38.9986 50.0773 37.5135 49.616 36.0901L51.9627 35.089C52.6955 34.7768 53.2743 34.1862 53.5716 33.4473C53.869 32.7084 53.8607 31.8815 53.5484 31.1487C53.2362 30.416 52.6456 29.8372 51.9067 29.5398C51.1677 29.2425 50.3408 29.2508 49.608 29.563L46.7568 30.7803C46.5993 30.5801 46.4378 30.3799 46.2723 30.1797C45.7517 29.4069 45.5755 28.5299 45.6435 27.3566C45.6729 26.9295 45.7223 26.4984 45.7917 26.0632H49.3798C50.1763 26.0632 50.9402 25.7468 51.5035 25.1836C52.0667 24.6204 52.3831 23.8565 52.3831 23.06C52.3831 22.2635 52.0667 21.4996 51.5035 20.9364C50.9402 20.3731 50.1763 20.0567 49.3798 20.0567H46.7047C46.7431 19.0925 46.6651 18.1272 46.4725 17.1816L49.3677 15.2515C50.0209 14.8057 50.4718 14.1202 50.6226 13.3439C50.7735 12.5676 50.612 11.7632 50.1734 11.1052C49.7347 10.4473 49.0542 9.98883 48.2796 9.82949C47.505 9.67014 46.6988 9.82272 46.036 10.2541L43.5892 11.8879C42.9846 11.2482 42.3042 10.6848 41.5629 10.2101L42.6161 8.55627C43.0174 7.88507 43.1411 7.08382 42.9608 6.32287C42.7805 5.56192 42.3105 4.9013 41.6508 4.48146C40.991 4.06162 40.1935 3.91567 39.4277 4.07465C38.662 4.23363 37.9885 4.685 37.5504 5.33278L35.8045 8.07976C34.295 7.87413 32.7614 7.93103 31.2714 8.24794L30.078 5.68516V5.68116ZM39.0201 41.0875C39.0389 41.7453 38.9255 42.4002 38.6867 43.0135C38.4479 43.6267 38.0886 44.1859 37.6299 44.6578C37.1712 45.1297 36.6225 45.5049 36.0163 45.7611C35.4101 46.0172 34.7587 46.1492 34.1005 46.1492C33.4424 46.1492 32.791 46.0172 32.1848 45.7611C31.5786 45.5049 31.0299 45.1297 30.5712 44.6578C30.1125 44.1859 29.7532 43.6267 29.5144 43.0135C29.2756 42.4002 29.1622 41.7453 29.181 41.0875C29.2175 39.8071 29.7519 38.5914 30.6705 37.6987C31.5891 36.806 32.8196 36.3065 34.1005 36.3065C35.3815 36.3065 36.612 36.806 37.5306 37.6987C38.4492 38.5914 38.9836 39.8071 39.0201 41.0875ZM33.2135 26.0873C34.2809 26.0873 35.3046 25.6633 36.0593 24.9086C36.8141 24.1538 37.2381 23.1302 37.2381 22.0629C37.2381 20.9956 36.8141 19.972 36.0593 19.2173C35.3046 18.4625 34.2809 18.0385 33.2135 18.0385C32.1462 18.0385 31.1225 18.4625 30.3678 19.2173C29.613 19.972 29.189 20.9956 29.189 22.0629C29.189 23.1302 29.613 24.1538 30.3678 24.9086C31.1225 25.6633 32.1462 26.0873 33.2135 26.0873ZM21.6485 31.9897C21.6485 31.1931 21.965 30.4293 22.5282 29.866C23.0914 29.3028 23.8554 28.9864 24.6519 28.9864C25.4485 28.9864 26.2124 29.3028 26.7756 29.866C27.3389 30.4293 27.6553 31.1931 27.6553 31.9897C27.6553 32.7862 27.3389 33.5501 26.7756 34.1133C26.2124 34.6765 25.4485 34.9929 24.6519 34.9929C23.8554 34.9929 23.0914 34.6765 22.5282 34.1133C21.965 33.5501 21.6485 32.7862 21.6485 31.9897Z" fill="#6A63F5"/>
</svg>
